<?xml version="1.0" encoding="utf-8"?>
<!-- Generator: Adobe Illustrator 16.0.4, SVG Export Plug-In . SVG Version: 6.00 Build 0)  -->
<!DOCTYPE svg PUBLIC "-//W3C//DTD SVG 1.1//EN" "http://www.w3.org/Graphics/SVG/1.1/DTD/svg11.dtd">
<svg version="1.1" id="Layer_1" xmlns="http://www.w3.org/2000/svg" xmlns:xlink="http://www.w3.org/1999/xlink" x="0px" y="0px"
	 width="72px" height="72px" viewBox="0 0 72 72" enable-background="new 0 0 72 72" xml:space="preserve">
<g>
	<path d="M36,0C16.119,0,0,16.119,0,36c0,19.882,16.119,36,36,36c19.883,0,36-16.118,36-36C72,16.119,55.883,0,36,0z"/>
	<rect x="20.4" y="17.631" fill="#FFFFFF" width="6" height="4.8"/>
	<rect x="31.4" y="17.631" fill="#FFFFFF" width="20.2" height="4.8"/>
	<rect x="20.4" y="28.277" fill="#FFFFFF" width="6" height="4.8"/>
	<rect x="31.4" y="28.277" fill="#FFFFFF" width="20.2" height="4.8"/>
	<rect x="31.4" y="38.923" fill="#FFFFFF" width="20.2" height="4.8"/>
	<rect x="20.4" y="38.923" fill="#FFFFFF" width="6" height="4.8"/>
	<rect x="31.4" y="49.568" fill="#FFFFFF" width="20.2" height="4.8"/>
	<rect x="20.4" y="49.568" fill="#FFFFFF" width="6" height="4.8"/>
</g>
</svg>
