<?xml version="1.0" encoding="utf-8"?>
<!-- Generator: Adobe Illustrator 25.0.1, SVG Export Plug-In . SVG Version: 6.00 Build 0)  -->
<svg version="1.1" id="Layer_1" xmlns="http://www.w3.org/2000/svg" xmlns:xlink="http://www.w3.org/1999/xlink" x="0px" y="0px"
	 viewBox="0 0 30 30" style="enable-background:new 0 0 30 30;" xml:space="preserve">
<g>
	<path d="M15,0C6.7,0,0,6.7,0,15c0,8.3,6.7,15,15,15c8.3,0,15-6.7,15-15C30,6.7,23.3,0,15,0z M15,28C7.8,28,2,22.2,2,15
		C2,7.8,7.8,2,15,2c7.2,0,13,5.8,13,13C28,22.2,22.2,28,15,28z"/>
	<rect x="8.5" y="7.3" width="2.5" height="2"/>
	<rect x="13.1" y="7.3" width="8.4" height="2"/>
	<rect x="8.5" y="11.8" width="2.5" height="2"/>
	<rect x="13.1" y="11.8" width="8.4" height="2"/>
	<rect x="13.1" y="16.2" width="8.4" height="2"/>
	<rect x="8.5" y="16.2" width="2.5" height="2"/>
	<rect x="13.1" y="20.7" width="8.4" height="2"/>
	<rect x="8.5" y="20.7" width="2.5" height="2"/>
</g>
</svg>
