<?xml version="1.0" encoding="utf-8"?>
<!-- Generator: Adobe Illustrator 25.0.1, SVG Export Plug-In . SVG Version: 6.00 Build 0)  -->
<svg version="1.1" id="Layer_1" xmlns="http://www.w3.org/2000/svg" xmlns:xlink="http://www.w3.org/1999/xlink" x="0px" y="0px"
	 viewBox="0 0 85 30" style="enable-background:new 0 0 85 30;" xml:space="preserve">
<style type="text/css">
	.st0{fill:#FFFFFF;}
	.st1{font-family:'MuktaMahee-Regular';}
	.st2{font-size:14px;}
</style>
<g>
	<path d="M17.5,0c-8.3,0-15,6.7-15,15s6.7,15,15,15s15-6.7,15-15S25.8,0,17.5,0z"/>
	<rect x="11" y="7.3" class="st0" width="2.5" height="2"/>
	<rect x="15.6" y="7.3" class="st0" width="8.4" height="2"/>
	<rect x="11" y="11.8" class="st0" width="2.5" height="2"/>
	<rect x="15.6" y="11.8" class="st0" width="8.4" height="2"/>
	<rect x="15.6" y="16.2" class="st0" width="8.4" height="2"/>
	<rect x="11" y="16.2" class="st0" width="2.5" height="2"/>
	<rect x="15.6" y="20.7" class="st0" width="8.4" height="2"/>
	<rect x="11" y="20.7" class="st0" width="2.5" height="2"/>
</g>
<text transform="matrix(1 0 0 1 36.6123 19.4405)" class="st1 st2">RESUME</text>
</svg>
