<?xml version="1.0" encoding="utf-8"?>
<!-- Generator: Adobe Illustrator 25.0.1, SVG Export Plug-In . SVG Version: 6.00 Build 0)  -->
<svg version="1.1" id="Layer_1" xmlns="http://www.w3.org/2000/svg" xmlns:xlink="http://www.w3.org/1999/xlink" x="0px" y="0px"
	 viewBox="0 0 30 30" style="enable-background:new 0 0 30 30;" xml:space="preserve">
<style type="text/css">
	.st0{fill:#F7F000;}
</style>
<g>
	<rect x="1" y="1" class="st0" width="28" height="28"/>
	<path d="M28,2v26H2V2H28 M30,0H0v30h30V0L30,0z"/>
</g>
<g>
	<path d="M13.5,14.4c0.4-0.2,0.7-0.4,0.9-0.7c0.4-0.4,0.5-1,0.5-1.7s-0.2-1.3-0.5-1.8c-0.6-0.8-1.6-1.2-3.1-1.3H5.7v11.8H11
		c0.6,0,1.2-0.1,1.7-0.2s1-0.3,1.3-0.6c0.3-0.3,0.6-0.6,0.8-0.9c0.4-0.6,0.5-1.2,0.5-1.9c0-0.7-0.2-1.3-0.5-1.7
		C14.6,15,14.1,14.6,13.5,14.4 M8,11h2.6c0.6,0,1,0.1,1.4,0.2c0.4,0.2,0.6,0.5,0.6,1.1c0,0.5-0.2,0.8-0.5,1s-0.7,0.3-1.2,0.3H8V11
		L8,11z M12.1,18.5c-0.3,0.1-0.7,0.2-1.2,0.2H8v-3.2h2.9c0.5,0,0.9,0.1,1.2,0.2c0.5,0.2,0.8,0.7,0.8,1.3
		C12.9,17.8,12.6,18.2,12.1,18.5"/>
	<path d="M25.1,15.3c-0.1-0.7-0.3-1.3-0.7-1.8c-0.4-0.6-0.9-1-1.5-1.3s-1.3-0.4-2.1-0.4c-1.3,0-2.3,0.4-3.1,1.2
		c-0.8,0.8-1.2,2-1.2,3.5c0,1.6,0.4,2.8,1.3,3.5s1.9,1.1,3.1,1.1c1.4,0,2.5-0.4,3.3-1.3c0.5-0.5,0.8-1.1,0.8-1.6h-2.3
		c-0.1,0.3-0.3,0.5-0.5,0.6c-0.3,0.3-0.7,0.4-1.3,0.4c-0.5,0-0.9-0.1-1.3-0.3c-0.6-0.4-0.9-1-0.9-1.8h6.4
		C25.2,16.3,25.1,15.7,25.1,15.3 M18.8,15.5c0.1-0.6,0.3-1,0.6-1.4c0.3-0.3,0.8-0.5,1.4-0.5c0.5,0,1,0.2,1.4,0.5s0.6,0.8,0.6,1.4
		H18.8L18.8,15.5z"/>
	<rect x="18.4" y="9.5" width="4.9" height="1.4"/>
</g>
</svg>
