<?xml version="1.0" encoding="utf-8"?>
<!-- Generator: Adobe Illustrator 16.0.4, SVG Export Plug-In . SVG Version: 6.00 Build 0)  -->
<!DOCTYPE svg PUBLIC "-//W3C//DTD SVG 1.1//EN" "http://www.w3.org/Graphics/SVG/1.1/DTD/svg11.dtd">
<svg version="1.1" id="Layer_1" xmlns="http://www.w3.org/2000/svg" xmlns:xlink="http://www.w3.org/1999/xlink" x="0px" y="0px"
	 width="72px" height="72px" viewBox="0 0 72 72" enable-background="new 0 0 72 72" xml:space="preserve">
<g>
	<path d="M36,0C16.118,0,0,16.119,0,36c0,19.882,16.118,36,36,36c19.881,0,36-16.118,36-36C72,16.119,55.885,0,36,0 M36,67.2
		C18.797,67.2,4.8,53.203,4.8,36C4.8,18.796,18.797,4.8,36,4.8c17.204,0,31.2,13.996,31.2,31.2C67.2,53.203,53.204,67.2,36,67.2"/>
	<path d="M33.644,34.604c0.954-0.485,1.673-1.024,2.163-1.615c0.874-1.051,1.312-2.441,1.312-4.174c0-1.68-0.432-3.123-1.302-4.328
		c-1.44-1.961-3.892-2.969-7.348-3.019H14.768v28.351h12.776c1.44,0,2.773-0.129,4.005-0.385c1.229-0.256,2.298-0.729,3.205-1.424
		c0.803-0.604,1.472-1.348,2.006-2.232c0.842-1.33,1.262-2.838,1.262-4.519c0-1.629-0.366-3.015-1.104-4.155
		C36.183,35.965,35.092,35.13,33.644,34.604 M20.425,26.393h6.17c1.355,0,2.473,0.148,3.35,0.44
		c1.016,0.425,1.522,1.296,1.522,2.617c0,1.192-0.384,2.022-1.152,2.491c-0.768,0.467-1.768,0.703-2.998,0.703h-6.891L20.425,26.393
		L20.425,26.393z M30.178,44.395c-0.683,0.334-1.638,0.502-2.87,0.502h-6.883v-7.561h6.977c1.219,0.014,2.161,0.174,2.832,0.48
		c1.207,0.551,1.809,1.564,1.809,3.039C32.042,42.6,31.421,43.779,30.178,44.395"/>
	<path d="M61.373,36.715c-0.254-1.645-0.812-3.088-1.67-4.334c-0.952-1.412-2.16-2.447-3.624-3.102
		c-1.463-0.655-3.108-0.981-4.93-0.981c-3.074,0-5.573,0.972-7.497,2.906c-1.927,1.938-2.889,4.724-2.889,8.354
		c0,3.877,1.066,6.674,3.199,8.395c2.132,1.722,4.595,2.579,7.386,2.579c3.378,0,6.009-1.021,7.884-3.06
		c1.211-1.279,1.886-2.545,2.032-3.789h-5.597c-0.325,0.617-0.702,1.096-1.125,1.443c-0.782,0.643-1.797,0.962-3.046,0.962
		c-1.179,0-2.187-0.264-3.025-0.789c-1.375-0.845-2.105-2.319-2.191-4.423h15.271C61.581,39.064,61.521,37.678,61.373,36.715
		 M46.42,37.259c0.198-1.362,0.686-2.446,1.461-3.245c0.774-0.797,1.867-1.195,3.272-1.195c1.295,0,2.375,0.375,3.252,1.127
		c0.873,0.754,1.359,1.859,1.462,3.313H46.42L46.42,37.259z"/>
	<rect x="45.271" y="22.854" width="11.783" height="3.453"/>
</g>
</svg>
