<?xml version="1.0" encoding="utf-8"?>
<!-- Generator: Adobe Illustrator 25.0.1, SVG Export Plug-In . SVG Version: 6.00 Build 0)  -->
<svg version="1.1" id="Layer_1" xmlns="http://www.w3.org/2000/svg" xmlns:xlink="http://www.w3.org/1999/xlink" x="0px" y="0px"
	 viewBox="0 0 30 30" style="enable-background:new 0 0 30 30;" xml:space="preserve">
<g>
	<path d="M15,2c7.2,0,13,5.8,13,13c0,7.2-5.8,13-13,13C7.8,28,2,22.2,2,15C2,7.8,7.8,2,15,2 M15,0C6.7,0,0,6.7,0,15s6.7,15,15,15
		s15-6.7,15-15S23.3,0,15,0"/>
	<path d="M15,6c-5,0-9,4-9,9s4,9,9,9c5,0,9-4,9-9S20,6,15,6z M18,16c0.4-0.1,0.9-0.1,1.3-0.1c1.4,0,2.5,0.3,2.9,0.4
		c-0.3,1.8-1.4,3.5-2.9,4.6C19.2,20.2,18.8,18.3,18,16z M11.7,8.4c0.4,0.5,1.5,2.2,2.6,4c-2.9,0.7-5.5,0.8-6.5,0.9
		C8.4,11.2,9.8,9.4,11.7,8.4z M16.1,11.9c-0.9-1.7-2-3.2-2.6-4.1c0.5-0.1,1-0.1,1.5-0.1c1.7,0,3.4,0.6,4.7,1.7
		C19.4,9.8,18.3,11,16.1,11.9z M15.6,14.9L15.6,14.9C12,16,10,18.8,9.4,19.7c-1.1-1.3-1.7-3-1.7-4.7v0c0.8,0,4,0,7.5-1
		C15.3,14.2,15.4,14.5,15.6,14.9z M16.2,16.5c0.9,2.4,1.3,4.4,1.5,5.4c-0.9,0.4-1.8,0.5-2.7,0.5c-1.6,0-3.1-0.5-4.4-1.5
		C10.9,20.3,12.5,17.8,16.2,16.5z M17.4,14.5C17.4,14.5,17.4,14.4,17.4,14.5c-0.1-0.2-0.1-0.2-0.1-0.3c-0.1-0.3-0.3-0.6-0.4-0.9
		c2.2-0.9,3.5-2.2,3.9-2.8c0.9,1.2,1.5,2.7,1.5,4.2c-0.7-0.1-1.9-0.3-3.3-0.3C18.5,14.4,17.9,14.4,17.4,14.5z"/>
</g>
</svg>
