<?xml version="1.0" encoding="utf-8"?>
<!-- Generator: Adobe Illustrator 16.0.4, SVG Export Plug-In . SVG Version: 6.00 Build 0)  -->
<!DOCTYPE svg PUBLIC "-//W3C//DTD SVG 1.1//EN" "http://www.w3.org/Graphics/SVG/1.1/DTD/svg11.dtd">
<svg version="1.1" id="Layer_1" xmlns="http://www.w3.org/2000/svg" xmlns:xlink="http://www.w3.org/1999/xlink" x="0px" y="0px"
	 width="72px" height="72px" viewBox="0 0 72 72" enable-background="new 0 0 72 72" xml:space="preserve">
<path d="M36,0C16.118,0,0,16.118,0,36s16.118,36,36,36s36-16.118,36-36S55.882,0,36,0"/>
<path fill="#FFFFFF" d="M36,14.399c-11.91,0-21.6,9.689-21.6,21.601S24.09,57.602,36,57.602c11.911,0,21.602-9.689,21.602-21.602
	S47.911,14.399,36,14.399z M43.161,38.469c1.021-0.135,2.079-0.203,3.153-0.203c3.371,0,6.06,0.67,6.996,0.938
	c-0.785,4.398-3.279,8.367-6.924,11.027C46.051,48.422,45.104,43.921,43.161,38.469z M28.174,20.216
	c0.943,1.301,3.637,5.177,6.172,9.604c-6.923,1.771-13.163,2.018-15.489,2.042C20.074,26.842,23.514,22.538,28.174,20.216z
	 M38.702,28.474c-2.277-4.139-4.709-7.686-6.195-9.743c1.12-0.219,2.292-0.329,3.493-0.329c4.17,0,8.195,1.478,11.38,4.167
	C46.596,23.557,43.982,26.412,38.702,28.474z M37.342,35.695l-0.236,0.069c-8.269,2.667-13.147,9.324-14.612,11.593
	c-2.672-3.181-4.137-7.181-4.137-11.335V35.92c1.893,0.007,9.718-0.098,17.902-2.493C36.605,34.108,36.958,34.845,37.342,35.695z
	 M38.956,39.498c2.172,5.72,3.219,10.678,3.616,12.87c-2.073,0.848-4.282,1.276-6.572,1.276c-3.843,0-7.472-1.207-10.523-3.494
	C26.277,48.698,30.016,42.736,38.956,39.498z M41.759,34.789c-0.03-0.075-0.061-0.151-0.092-0.228
	c-0.054-0.136-0.108-0.273-0.166-0.407c-0.292-0.691-0.628-1.437-1.002-2.218c5.328-2.262,8.313-5.273,9.474-6.64
	c2.207,2.866,3.483,6.382,3.635,10.009c-1.686-0.307-4.612-0.728-7.965-0.728C44.287,34.578,42.98,34.649,41.759,34.789z"/>
</svg>
