<?xml version="1.0" encoding="utf-8"?>
<!-- Generator: Adobe Illustrator 16.0.4, SVG Export Plug-In . SVG Version: 6.00 Build 0)  -->
<!DOCTYPE svg PUBLIC "-//W3C//DTD SVG 1.1//EN" "http://www.w3.org/Graphics/SVG/1.1/DTD/svg11.dtd">
<svg version="1.1" id="Layer_1" xmlns="http://www.w3.org/2000/svg" xmlns:xlink="http://www.w3.org/1999/xlink" x="0px" y="0px"
	 width="72px" height="72px" viewBox="0 0 72 72" enable-background="new 0 0 72 72" xml:space="preserve">
<g>
	<path d="M36,0C16.118,0,0,16.118,0,36s16.118,36,36,36c19.883,0,36-16.118,36-36S55.883,0,36,0"/>
	<path fill="#FFFFFF" d="M14.399,51.6H57.6V20.4H14.399V51.6z M18.468,31.075l7.812,5.147l-7.812,5.773V31.075z M53.532,47.621
		H18.468v-0.572l11.381-8.41l5.016,3.305c0.342,0.227,0.739,0.339,1.136,0.339s0.793-0.112,1.138-0.339l5.016-3.305l11.38,8.41
		v0.572H53.532z M53.532,41.996l-7.812-5.773l7.812-5.147V41.996z M53.532,26.343L36,37.893l-17.532-11.55v-1.965h35.064V26.343z"/>
</g>
</svg>
