<?xml version="1.0" encoding="utf-8"?>
<!-- Generator: Adobe Illustrator 25.0.1, SVG Export Plug-In . SVG Version: 6.00 Build 0)  -->
<svg version="1.1" id="Layer_1" xmlns="http://www.w3.org/2000/svg" xmlns:xlink="http://www.w3.org/1999/xlink" x="0px" y="0px"
	 viewBox="0 0 30 30" style="enable-background:new 0 0 30 30;" xml:space="preserve">
<style type="text/css">
	.st0{fill:#FFFFFF;}
</style>
<g>
	<path d="M15,0C6.7,0,0,6.7,0,15s6.7,15,15,15c8.3,0,15-6.7,15-15S23.3,0,15,0"/>
	<path class="st0" d="M6,21.5h18v-13H6V21.5z M7.7,12.9l3.3,2.1l-3.3,2.4V12.9z M22.3,19.8H7.7v-0.2l4.7-3.5l2.1,1.4
		c0.1,0.1,0.3,0.1,0.5,0.1c0.2,0,0.3,0,0.5-0.1l2.1-1.4l4.7,3.5L22.3,19.8L22.3,19.8z M22.3,17.5l-3.3-2.4l3.3-2.1V17.5z M22.3,11
		L15,15.8L7.7,11v-0.8h14.6C22.3,10.2,22.3,11,22.3,11z"/>
</g>
</svg>
