<?xml version="1.0" encoding="utf-8"?>
<!-- Generator: Adobe Illustrator 25.0.1, SVG Export Plug-In . SVG Version: 6.00 Build 0)  -->
<svg version="1.1" id="Layer_1" xmlns="http://www.w3.org/2000/svg" xmlns:xlink="http://www.w3.org/1999/xlink" x="0px" y="0px"
	 viewBox="0 0 30 30" style="enable-background:new 0 0 30 30;" xml:space="preserve">
<style type="text/css">
	.st0{fill:#FFFFFF;}
</style>
<g>
	<rect x="1" y="1" width="28" height="28"/>
	<path d="M28,2v26H2V2H28 M30,0H0v30h30V0L30,0z"/>
</g>
<g>
	<path class="st0" d="M6,21.5h18v-13H6V21.5z M7.7,12.9L11,15l-3.3,2.4V12.9z M22.3,19.8H7.7v-0.2l4.7-3.5l2.1,1.4
		c0.1,0.1,0.3,0.1,0.5,0.1s0.3,0,0.5-0.1l2.1-1.4l4.7,3.5V19.8L22.3,19.8z M22.3,17.5L19,15.1l3.3-2.1V17.5z M22.3,11L15,15.8
		L7.7,11v-0.8h14.6V11z"/>
</g>
</svg>
