<?xml version="1.0" encoding="utf-8"?>
<!-- Generator: Adobe Illustrator 25.0.1, SVG Export Plug-In . SVG Version: 6.00 Build 0)  -->
<svg version="1.1" id="Layer_1" xmlns="http://www.w3.org/2000/svg" xmlns:xlink="http://www.w3.org/1999/xlink" x="0px" y="0px"
	 viewBox="0 0 30 30" style="enable-background:new 0 0 30 30;" xml:space="preserve">
<style type="text/css">
	.st0{fill:#F7F000;}
</style>
<g>
	<circle class="st0" cx="15" cy="15" r="15"/>
	<path d="M6,21.5h18v-13H6V21.5z M7.7,13l3.4,2.3l-3.4,2.4C7.7,17.5,7.7,13,7.7,13z M22.3,19.8H7.7v-0.2l4.7-3.5l2.3,1.4
		c0.1,0.1,0.4,0.1,0.5,0.1s0.2,0,0.5-0.1l2.3-1.4l4.7,3.5v0.2H22.3z M22.3,17.5l-3.2-2.4l3.2-2.2V17.5z M22.3,11L15,15.8L7.7,11
		v-0.8h14.6V11z"/>
</g>
</svg>
