<?xml version="1.0" encoding="utf-8"?>
<!-- Generator: Adobe Illustrator 25.0.1, SVG Export Plug-In . SVG Version: 6.00 Build 0)  -->
<svg version="1.1" id="Layer_1" xmlns="http://www.w3.org/2000/svg" xmlns:xlink="http://www.w3.org/1999/xlink" x="0px" y="0px"
	 viewBox="0 0 30 30" style="enable-background:new 0 0 30 30;" xml:space="preserve">
<g>
	<path d="M9.9,7.8c-0.9,0-1.6,0.6-1.6,1.5c0,0.8,0.6,1.5,1.5,1.5c1,0,1.6-0.7,1.6-1.5C11.4,8.4,10.8,7.8,9.9,7.8"/>
	<rect x="8.4" y="11.9" width="2.9" height="9.5"/>
	<path d="M19.3,11.7c-1.6,0-2.5,0.9-2.9,1.5h-0.1l-0.1-1.3h-2.6c0,0.8,0.1,1.8,0.1,3v6.5h2.9v-5.5c0-0.3,0-0.6,0.1-0.7
		c0.2-0.5,0.7-1.1,1.5-1.1c1.1,0,1.5,0.8,1.5,2.1v5.3h2.9v-5.6C22.7,12.9,21.3,11.7,19.3,11.7"/>
	<path d="M15,2c7.2,0,13,5.8,13,13c0,7.2-5.8,13-13,13C7.8,28,2,22.2,2,15C2,7.8,7.8,2,15,2 M15,0C6.7,0,0,6.7,0,15s6.7,15,15,15
		s15-6.7,15-15S23.3,0,15,0"/>
</g>
</svg>
