<?xml version="1.0" encoding="utf-8"?>
<!-- Generator: Adobe Illustrator 16.0.4, SVG Export Plug-In . SVG Version: 6.00 Build 0)  -->
<!DOCTYPE svg PUBLIC "-//W3C//DTD SVG 1.1//EN" "http://www.w3.org/Graphics/SVG/1.1/DTD/svg11.dtd">
<svg version="1.1" id="Layer_1" xmlns="http://www.w3.org/2000/svg" xmlns:xlink="http://www.w3.org/1999/xlink" x="0px" y="0px"
	 width="72px" height="72px" viewBox="0 0 72 72" enable-background="new 0 0 72 72" xml:space="preserve">
<g>
	<path d="M23.724,18.615c-2.279,0-3.768,1.535-3.723,3.58c-0.044,1.954,1.444,3.534,3.674,3.534c2.324,0,3.813-1.581,3.813-3.534
		C27.442,20.15,25.998,18.615,23.724,18.615"/>
	<rect x="20.187" y="28.52" width="7.07" height="22.74"/>
	<path d="M46.375,28.009c-3.765,0-6.09,2.186-7.021,3.628h-0.139l-0.326-3.117H32.75c0.095,1.999,0.186,4.417,0.186,7.255V51.26
		h7.069V38.146c0-0.649,0.091-1.348,0.279-1.766c0.462-1.303,1.625-2.651,3.579-2.651c2.56,0,3.581,1.999,3.581,4.93V51.26h7.07
		V37.774C54.516,31.078,51.028,28.009,46.375,28.009"/>
	<path d="M36,4.8c17.203,0,31.2,13.996,31.2,31.2c0,17.203-13.997,31.2-31.2,31.2C18.796,67.2,4.8,53.203,4.8,36
		C4.8,18.796,18.796,4.8,36,4.8 M36,0C16.118,0,0,16.118,0,36s16.118,36,36,36s36-16.118,36-36S55.882,0,36,0"/>
</g>
</svg>
