<?xml version="1.0" encoding="utf-8"?>
<!-- Generator: Adobe Illustrator 25.0.1, SVG Export Plug-In . SVG Version: 6.00 Build 0)  -->
<svg version="1.1" id="Layer_1" xmlns="http://www.w3.org/2000/svg" xmlns:xlink="http://www.w3.org/1999/xlink" x="0px" y="0px"
	 viewBox="0 0 40 44" style="enable-background:new 0 0 40 44;" xml:space="preserve">
<style type="text/css">
	.st0{fill:#00000A;}
	.st1{fill:#F7F000;}
</style>
<rect x="2.5" y="2.7" width="35.1" height="38.9"/>
<g>
	<path class="st0" d="M0,44h40V0H0V44z M35.5,39.6h-31V4.4h31V39.6z"/>
</g>
<polygon class="st1" points="25.1,32.3 25.5,32.3 30.1,37 32.3,34.8 27.6,30.1 32.1,25.7 29.9,23.5 25.4,28 25.1,28 25.1,7.7 
	21.3,7.7 21.3,36.8 25.1,36.8 "/>
<polygon class="st1" points="14.7,20.6 19.6,20.6 19.6,17.8 14.7,17.8 14.7,7.7 10.3,7.7 10.3,36.8 14.7,36.8 "/>
</svg>
