<?xml version="1.0" encoding="utf-8"?>
<!-- Generator: Adobe Illustrator 16.0.4, SVG Export Plug-In . SVG Version: 6.00 Build 0)  -->
<!DOCTYPE svg PUBLIC "-//W3C//DTD SVG 1.1//EN" "http://www.w3.org/Graphics/SVG/1.1/DTD/svg11.dtd">
<svg version="1.1" id="Layer_1" xmlns="http://www.w3.org/2000/svg" xmlns:xlink="http://www.w3.org/1999/xlink" x="0px" y="0px"
	 width="72px" height="79.2px" viewBox="35.78 32.4 72 79.2" enable-background="new 35.78 32.4 72 79.2" xml:space="preserve">
<polygon points="81.5,90.481 81.756,90.573 81.887,90.526 89.903,98.503 93.842,94.585 85.875,86.608 93.857,78.632 89.941,74.714 
	81.968,82.689 81.756,82.644 81.5,82.735 81.5,46.5 74.5,46.5 74.5,98.5 81.5,98.5 "/>
<polygon points="62.5,69.5 71.5,69.5 71.5,64.5 62.5,64.5 62.5,46.5 54.5,46.5 54.5,98.5 62.5,98.5 "/>
<path d="M35.5,111.5h72v-79h-72V111.5z M100.5,103.5h-57v-63h57V103.5z"/>
</svg>
