<?xml version="1.0" encoding="utf-8"?>
<!-- Generator: Adobe Illustrator 25.0.1, SVG Export Plug-In . SVG Version: 6.00 Build 0)  -->
<svg version="1.1" id="Layer_1" xmlns="http://www.w3.org/2000/svg" xmlns:xlink="http://www.w3.org/1999/xlink" x="0px" y="0px"
	 viewBox="0 0 42 46" style="enable-background:new 0 0 42 46;" xml:space="preserve">
<style type="text/css">
	.st0{fill:#FFFFFF;}
</style>
<rect x="2.1" y="2.3" class="st0" width="37.8" height="41.4"/>
<g>
	<polygon points="26.8,33.8 27,33.8 27.1,33.8 31.7,38.5 34,36.2 29.4,31.5 34,26.9 31.8,24.6 27.1,29.2 27,29.2 26.8,29.3 
		26.8,8.1 22.8,8.1 22.8,38.5 26.8,38.5 	"/>
	<polygon points="15.8,21.5 21,21.5 21,18.6 15.8,18.6 15.8,8.1 11.1,8.1 11.1,38.5 15.8,38.5 	"/>
	<path d="M0,46h42V0H0V46z M37.9,41.4H4.7V4.6h33.2V41.4z"/>
</g>
</svg>
