<?xml version="1.0" encoding="utf-8"?>
<!-- Generator: Adobe Illustrator 25.0.1, SVG Export Plug-In . SVG Version: 6.00 Build 0)  -->
<svg version="1.1" id="Layer_1" xmlns="http://www.w3.org/2000/svg" xmlns:xlink="http://www.w3.org/1999/xlink" x="0px" y="0px"
	 viewBox="0 0 20 18" style="enable-background:new 0 0 20 18;" xml:space="preserve">
<g>
	<path d="M9.2,3.4c0.8,0,1.6-0.7,1.6-1.7S10.1,0,9.2,0S7.6,0.7,7.6,1.7C7.6,2.6,8.4,3.4,9.2,3.4z"/>
	<ellipse cx="12.2" cy="6.5" rx="1.6" ry="1.7"/>
	<path d="M6.8,8.2c0.8,0,1.6-0.7,1.6-1.7S7.7,4.8,6.8,4.8S5.1,5.4,5.1,6.4C5,7.4,5.8,8.2,6.8,8.2z"/>
	<path d="M17,11.2c0-0.9-0.7-1.7-1.6-1.7c-0.8,0-1.6,0.7-1.6,1.7s0.7,1.7,1.6,1.7C16.2,13,17,12.3,17,11.2z"/>
	<path d="M18.4,14.5c-0.8,0-1.6,0.7-1.6,1.7c0,0.9,0.7,1.7,1.6,1.7c0.8,0,1.6-0.7,1.6-1.7S19.3,14.5,18.4,14.5z"/>
	<path d="M11.4,11.2c0-0.9-0.7-1.7-1.6-1.7c-0.8,0-1.6,0.7-1.6,1.7S8.8,13,9.7,13C10.6,13,11.4,12.3,11.4,11.2z"/>
	<path d="M5.8,11.2c0-0.9-0.7-1.7-1.6-1.7c-0.8,0-1.6,0.7-1.6,1.7S3.3,13,4.2,13S5.8,12.3,5.8,11.2z"/>
	<path d="M12.7,14.5c-0.8,0-1.6,0.7-1.6,1.7c0,0.9,0.7,1.7,1.6,1.7s1.6-0.7,1.6-1.7C14.5,15.2,13.6,14.5,12.7,14.5z"/>
	<path d="M7.3,14.5c-0.8,0-1.6,0.7-1.6,1.7c0,0.8,0.7,1.6,1.6,1.6s1.6-0.7,1.6-1.7C8.8,15.2,8.1,14.5,7.3,14.5z"/>
	<path d="M1.6,14.5c-0.8,0-1.6,0.7-1.6,1.7c0,0.9,0.7,1.6,1.6,1.6s1.6-0.7,1.6-1.7C3.2,15.2,2.5,14.5,1.6,14.5z"/>
</g>
</svg>
