<?xml version="1.0" encoding="utf-8"?>
<!-- Generator: Adobe Illustrator 25.0.1, SVG Export Plug-In . SVG Version: 6.00 Build 0)  -->
<svg version="1.1" id="Layer_1" xmlns="http://www.w3.org/2000/svg" xmlns:xlink="http://www.w3.org/1999/xlink" x="0px" y="0px"
	 viewBox="0 0 26 23" style="enable-background:new 0 0 26 23;" xml:space="preserve">
<g>
	<path d="M13,4.7c1.2,0,2.3-1,2.3-2.4S14.2,0,13,0s-2.3,1-2.3,2.4C10.7,3.6,11.8,4.7,13,4.7z"/>
	<ellipse cx="16.5" cy="8.5" rx="2.3" ry="2.4"/>
	<path d="M9.5,10.8c1.2,0,2.3-1,2.3-2.4s-1-2.4-2.3-2.4c-1.2,0-2.3,1-2.3,2.4C7.1,9.7,8.2,10.8,9.5,10.8z"/>
	<path d="M22.5,14.5c0-1.3-1-2.4-2.3-2.4c-1.2,0-2.3,1-2.3,2.4s1,2.4,2.3,2.4C21.4,16.9,22.5,15.9,22.5,14.5z"/>
	<path d="M23.7,18.3c-1.2,0-2.3,1-2.3,2.4c0,1.3,1,2.4,2.3,2.4c1.2,0,2.3-1,2.3-2.4C26,19.4,25,18.3,23.7,18.3z"/>
	<path d="M15.3,14.5c0-1.3-1-2.4-2.3-2.4c-1.2,0-2.3,1-2.3,2.4s1,2.4,2.3,2.4C14.2,16.9,15.3,15.9,15.3,14.5z"/>
	<path d="M8.2,14.5c0-1.3-1-2.4-2.3-2.4c-1.2,0-2.3,1-2.3,2.4s1,2.4,2.3,2.4S8.2,15.9,8.2,14.5z"/>
	<path d="M16.5,18.3c-1.2,0-2.3,1-2.3,2.4c0,1.3,1,2.4,2.3,2.4s2.3-1,2.3-2.4C18.9,19.4,17.8,18.3,16.5,18.3z"/>
	<path d="M9.5,18.3c-1.2,0-2.3,1-2.3,2.4c0,1.3,1,2.4,2.3,2.4s2.3-1,2.3-2.4C11.7,19.4,10.7,18.3,9.5,18.3z"/>
	<path d="M2.3,18.3c-1.2,0-2.3,1-2.3,2.4C0,22,1,23,2.3,23s2.3-1,2.3-2.4C4.5,19.4,3.5,18.3,2.3,18.3z"/>
</g>
</svg>
