<?xml version="1.0" encoding="utf-8"?>
<!-- Generator: Adobe Illustrator 25.0.1, SVG Export Plug-In . SVG Version: 6.00 Build 0)  -->
<svg version="1.1" id="Layer_1" xmlns="http://www.w3.org/2000/svg" xmlns:xlink="http://www.w3.org/1999/xlink" x="0px" y="0px"
	 viewBox="0 0 18 16" style="enable-background:new 0 0 18 16;" xml:space="preserve">
<g>
	<path d="M9,3.3c0.8,0,1.6-0.7,1.6-1.7S9.8,0,9,0S7.4,0.7,7.4,1.7C7.4,2.5,8.2,3.3,9,3.3z"/>
	<ellipse cx="11.4" cy="5.9" rx="1.6" ry="1.7"/>
	<path d="M6.6,7.5c0.8,0,1.6-0.7,1.6-1.7S7.5,4.2,6.6,4.2C5.7,4.2,5,4.8,5,5.8C4.9,6.7,5.7,7.5,6.6,7.5z"/>
	<path d="M15.6,10c0-0.9-0.7-1.7-1.6-1.7c-0.8,0-1.6,0.7-1.6,1.7s0.7,1.7,1.6,1.7C14.8,11.7,15.6,11,15.6,10z"/>
	<path d="M16.4,12.7c-0.8,0-1.6,0.7-1.6,1.7c0,0.9,0.7,1.7,1.6,1.7c0.8,0,1.6-0.7,1.6-1.7C18,13.4,17.3,12.7,16.4,12.7z"/>
	<path d="M10.6,10c0-0.9-0.7-1.7-1.6-1.7c-0.8,0-1.6,0.7-1.6,1.7s0.7,1.7,1.6,1.7C9.8,11.7,10.6,11,10.6,10z"/>
	<path d="M5.7,10c0-0.9-0.7-1.7-1.6-1.7c-0.8,0-1.6,0.7-1.6,1.7s0.7,1.7,1.6,1.7S5.7,11,5.7,10z"/>
	<path d="M11.4,12.7c-0.8,0-1.6,0.7-1.6,1.7c0,0.9,0.7,1.7,1.6,1.7s1.6-0.7,1.6-1.7C13.1,13.4,12.3,12.7,11.4,12.7z"/>
	<path d="M6.6,12.7c-0.8,0-1.6,0.7-1.6,1.7C5,15.2,5.7,16,6.6,16s1.6-0.7,1.6-1.7C8.1,13.4,7.4,12.7,6.6,12.7z"/>
	<path d="M1.6,12.7c-0.8,0-1.6,0.7-1.6,1.7c0,0.9,0.7,1.6,1.6,1.6s1.6-0.7,1.6-1.7C3.1,13.4,2.4,12.7,1.6,12.7z"/>
</g>
</svg>
