<?xml version="1.0" encoding="utf-8"?>
<!-- Generator: Adobe Illustrator 25.0.1, SVG Export Plug-In . SVG Version: 6.00 Build 0)  -->
<svg version="1.1" id="Layer_1" xmlns="http://www.w3.org/2000/svg" xmlns:xlink="http://www.w3.org/1999/xlink" x="0px" y="0px"
	 viewBox="0 0 64 64" style="enable-background:new 0 0 64 64;" xml:space="preserve">
<g>
	<polygon points="40.1,47 40.3,47 40.5,47 46.9,53.6 50.1,50.4 43.7,43.8 50.1,37.4 47,34.2 40.5,40.6 40.3,40.6 40.1,40.8 
		40.1,11.3 34.5,11.3 34.5,53.6 40.1,53.6 	"/>
	<polygon points="24.8,29.9 32,29.9 32,25.9 24.8,25.9 24.8,11.3 18.2,11.3 18.2,53.6 24.8,53.6 	"/>
	<path d="M2.8,64h58.4V0H2.8V64z M55.5,57.6H9.3V6.4h46.2V57.6z"/>
</g>
</svg>
