<?xml version="1.0" encoding="utf-8"?>
<!-- Generator: Adobe Illustrator 25.0.1, SVG Export Plug-In . SVG Version: 6.00 Build 0)  -->
<svg version="1.1" id="Layer_1" xmlns="http://www.w3.org/2000/svg" xmlns:xlink="http://www.w3.org/1999/xlink" x="0px" y="0px"
	 viewBox="0 0 128 128" style="enable-background:new 0 0 128 128;" xml:space="preserve">
<style type="text/css">
	.st0{fill:#FFFFFF;}
</style>
<g>
	<rect x="11" y="7" class="st0" width="107.5" height="115.7"/>
	<g>
		<polygon points="80.1,94.1 80.7,94.1 81,94.1 93.8,107.1 100.2,100.7 87.4,87.7 100.2,74.9 94.1,68.5 81,81.3 80.7,81.3 
			80.1,81.5 80.1,22.5 69,22.5 69,107.1 80.1,107.1 		"/>
		<polygon points="49.5,59.8 64,59.8 64,51.8 49.5,51.8 49.5,22.5 36.5,22.5 36.5,107.1 49.5,107.1 		"/>
		<path d="M5.6,128h116.9V0H5.6V128z M111,115.2H18.6V12.8H111V115.2z"/>
	</g>
</g>
</svg>
