<?xml version="1.0" encoding="utf-8"?>
<!-- Generator: Adobe Illustrator 25.0.1, SVG Export Plug-In . SVG Version: 6.00 Build 0)  -->
<svg version="1.1" id="Layer_1" xmlns="http://www.w3.org/2000/svg" xmlns:xlink="http://www.w3.org/1999/xlink" x="0px" y="0px"
	 viewBox="0 0 600 545" style="enable-background:new 0 0 600 545;" xml:space="preserve">
<style type="text/css">
	.st0{font-family:'Montserrat-Bold';}
	.st1{font-size:11.5841px;}
	.st2{font-family:'Montserrat-Regular';}
	.st3{letter-spacing:11;}
	.st4{letter-spacing:15;}
	.st5{letter-spacing:17;}
	.st6{font-family:'Montserrat-SemiBold';}
	.st7{letter-spacing:13;}
	.st8{letter-spacing:8;}
	.st9{letter-spacing:5;}
	.st10{letter-spacing:19;}
	.st11{letter-spacing:16;}
	.st12{letter-spacing:23;}
	.st13{letter-spacing:9;}
	.st14{letter-spacing:12;}
	.st15{letter-spacing:10;}
	.st16{letter-spacing:14;}
	.st17{fill:#F6038B;}
	.st18{fill:#AFAFAF;}
	.st19{fill:#4D4D4D;}
	.st20{fill:#F5F5F5;}
	.st21{fill:#FFFFFF;}
	.st22{font-size:15.4455px;}
</style>
<g>
	<text transform="matrix(1 0 0 1 470.7363 112.0562)"><tspan x="0" y="0" class="st0 st1">RGB</tspan><tspan x="26.3" y="0" class="st2 st1 st3">	</tspan><tspan x="40.6" y="0" class="st2 st1">246</tspan><tspan x="61.9" y="0" class="st2 st1 st4">	</tspan><tspan x="80.6" y="0" class="st2 st1">3</tspan><tspan x="87.1" y="0" class="st2 st1 st5">	</tspan><tspan x="107.9" y="0" class="st2 st1">139</tspan><tspan x="0" y="12.9" class="st0 st1">HSL</tspan><tspan x="23.7" y="12.9" class="st6 st1 st7">	</tspan><tspan x="40.6" y="12.9" class="st2 st1">326</tspan><tspan x="60.8" y="12.9" class="st2 st1 st8">	</tspan><tspan x="72.1" y="12.9" class="st2 st1">97.6</tspan><tspan x="95.5" y="12.9" class="st2 st1 st9">	</tspan><tspan x="104.4" y="12.9" class="st2 st1">48.8</tspan><tspan x="0" y="25.7" class="st0 st1">Hex#</tspan><tspan x="31.9" y="25.7" class="st2 st1 st9">	</tspan><tspan x="40.6" y="25.7" class="st2 st1">F6038B</tspan></text>
	<text transform="matrix(1 0 0 1 470.7363 464.2886)"><tspan x="0" y="0" class="st0 st1">RGB</tspan><tspan x="26.3" y="0" class="st2 st1 st3">	</tspan><tspan x="40.6" y="0" class="st2 st1">77</tspan><tspan x="54.3" y="0" class="st2 st1 st10">	</tspan><tspan x="77" y="0" class="st2 st1">77</tspan><tspan x="90.6" y="0" class="st2 st1 st11">	</tspan><tspan x="110" y="0" class="st2 st1">77</tspan><tspan x="0" y="12.9" class="st0 st1">HSL</tspan><tspan x="23.7" y="12.9" class="st6 st1 st7">	</tspan><tspan x="40.6" y="12.9" class="st2 st1">0</tspan><tspan x="48.3" y="12.9" class="st2 st1 st12">	</tspan><tspan x="74.9" y="12.9" class="st2 st1">0.0</tspan><tspan x="92.7" y="12.9" class="st2 st1 st13">	</tspan><tspan x="105.2" y="12.9" class="st2 st1">30.2</tspan><tspan x="0" y="25.7" class="st0 st1">Hex#</tspan><tspan x="31.9" y="25.7" class="st2 st1 st9">	</tspan><tspan x="40.6" y="25.7" class="st2 st1">4D4D4D</tspan></text>
	<text transform="matrix(1 0 0 1 470.7363 513.939)"><tspan x="0" y="0" class="st0 st1">RGB</tspan><tspan x="26.3" y="0" class="st2 st1 st3">	</tspan><tspan x="40.6" y="0" class="st2 st1">175</tspan><tspan x="58.2" y="0" class="st2 st1 st7">	</tspan><tspan x="75" y="0" class="st2 st1">175</tspan><tspan x="92.6" y="0" class="st2 st1 st14">	</tspan><tspan x="108" y="0" class="st2 st1">175</tspan><tspan x="0" y="12.9" class="st0 st1">HSL</tspan><tspan x="23.7" y="12.9" class="st6 st1 st7">	</tspan><tspan x="40.6" y="12.9" class="st2 st1">0</tspan><tspan x="48.3" y="12.9" class="st2 st1 st12">	</tspan><tspan x="74.9" y="12.9" class="st2 st1">0.0</tspan><tspan x="92.7" y="12.9" class="st2 st1 st13">	</tspan><tspan x="104.8" y="12.9" class="st2 st1">68.6</tspan><tspan x="0" y="25.7" class="st0 st1">Hex#</tspan><tspan x="31.9" y="25.7" class="st2 st1 st9">	</tspan><tspan x="40.6" y="25.7" class="st2 st1">AFAFAF</tspan></text>
	<text transform="matrix(1 0 0 1 470.7363 346.7603)"><tspan x="0" y="0" class="st0 st1">RGB</tspan><tspan x="26.3" y="0" class="st2 st1 st3">	</tspan><tspan x="40.6" y="0" class="st2 st1">255</tspan><tspan x="60.3" y="0" class="st2 st1 st15">	</tspan><tspan x="74" y="0" class="st2 st1">255</tspan><tspan x="93.7" y="0" class="st2 st1 st15">	</tspan><tspan x="107" y="0" class="st2 st1">255</tspan><tspan x="0" y="12.9" class="st0 st1">HSL</tspan><tspan x="23.7" y="12.9" class="st6 st1 st7">	</tspan><tspan x="40.6" y="12.9" class="st2 st1">0</tspan><tspan x="48.3" y="12.9" class="st2 st1 st12">	</tspan><tspan x="74.9" y="12.9" class="st2 st1">0.0</tspan><tspan x="92.7" y="12.9" class="st2 st1 st14">	</tspan><tspan x="107.9" y="12.9" class="st2 st1">0.0</tspan><tspan x="0" y="25.7" class="st0 st1">Hex#</tspan><tspan x="31.9" y="25.7" class="st2 st1 st9">	</tspan><tspan x="40.6" y="25.7" class="st2 st1">FFFFFF</tspan></text>
	<text transform="matrix(1 0 0 1 470.7363 42.644)"><tspan x="0" y="0" class="st0 st1">RGB</tspan><tspan x="26.3" y="0" class="st2 st1 st3">	</tspan><tspan x="40.6" y="0" class="st2 st1">00</tspan><tspan x="56" y="0" class="st2 st1 st5">	</tspan><tspan x="76.2" y="0" class="st2 st1">00</tspan><tspan x="91.5" y="0" class="st2 st1 st16">	</tspan><tspan x="109.2" y="0" class="st2 st1">00</tspan><tspan x="0" y="12.9" class="st0 st1">HSL</tspan><tspan x="23.7" y="12.9" class="st6 st1 st7">	</tspan><tspan x="40.6" y="12.9" class="st2 st1">0</tspan><tspan x="48.3" y="12.9" class="st2 st1 st12">	</tspan><tspan x="74.9" y="12.9" class="st2 st1">0.0</tspan><tspan x="92.7" y="12.9" class="st2 st1 st14">	</tspan><tspan x="107.9" y="12.9" class="st2 st1">0.0</tspan><tspan x="0" y="25.7" class="st0 st1">Hex#</tspan><tspan x="31.9" y="25.7" class="st2 st1 st9">	</tspan><tspan x="40.6" y="25.7" class="st2 st1">000000</tspan></text>
	<text transform="matrix(1 0 0 1 470.7363 190.7056)"><tspan x="0" y="0" class="st0 st1">RGB</tspan><tspan x="26.3" y="0" class="st2 st1 st3">	</tspan><tspan x="40.6" y="0" class="st2 st1">245</tspan><tspan x="61.4" y="0" class="st2 st1 st8">	</tspan><tspan x="73.4" y="0" class="st2 st1">245</tspan><tspan x="94.2" y="0" class="st2 st1 st13">	</tspan><tspan x="106.4" y="0" class="st2 st1">245</tspan><tspan x="0" y="12.9" class="st0 st1">HSL</tspan><tspan x="23.7" y="12.9" class="st6 st1 st7">	</tspan><tspan x="40.6" y="12.9" class="st2 st1">0</tspan><tspan x="48.3" y="12.9" class="st2 st1 st12">	</tspan><tspan x="74.9" y="12.9" class="st2 st1">0.0</tspan><tspan x="92.7" y="12.9" class="st2 st1 st15">	</tspan><tspan x="106.4" y="12.9" class="st2 st1">96.1</tspan><tspan x="0" y="25.7" class="st0 st1">Hex#</tspan><tspan x="31.9" y="25.7" class="st2 st1 st9">	</tspan><tspan x="40.6" y="25.7" class="st2 st1">F5F5F5</tspan></text>
	<g>
		<rect y="1.2" width="457.4" height="97.1"/>
	</g>
	<g>
		<rect y="98.3" class="st17" width="457.4" height="42.2"/>
	</g>
	<g>
		<rect y="500.8" class="st18" width="457.4" height="42.2"/>
	</g>
	<g>
		<rect y="440.3" class="st19" width="457.4" height="60.5"/>
	</g>
	<g>
		<rect y="140.6" class="st20" width="457.4" height="122.1"/>
	</g>
	<g>
		<rect y="262.7" class="st21" width="457.4" height="177.6"/>
	</g>
	<text transform="matrix(1 0 0 1 330.6953 124.9072)" class="st0 st22">love me pink</text>
	<text transform="matrix(1 0 0 1 340.9365 55.5649)" class="st21 st0 st22">raven black</text>
	<text transform="matrix(1 0 0 1 313.3975 477.2573)" class="st21 st0 st22">50 shades grey</text>
	<text transform="matrix(1 0 0 1 314.7715 526.9077)" class="st21 st0 st22">25 shades grey</text>
	<text transform="matrix(1 0 0 1 309.2568 203.4683)" class="st0 st22">the other white</text>
	<text transform="matrix(1 0 0 1 339.4844 359.8394)" class="st0 st22">cloud white</text>
</g>
</svg>
