<?xml version="1.0" encoding="utf-8"?>
<!-- Generator: Adobe Illustrator 25.0.1, SVG Export Plug-In . SVG Version: 6.00 Build 0)  -->
<svg version="1.1" id="Layer_1" xmlns="http://www.w3.org/2000/svg" xmlns:xlink="http://www.w3.org/1999/xlink" x="0px" y="0px"
	 viewBox="0 0 600 545" style="enable-background:new 0 0 600 545;" xml:space="preserve">
<style type="text/css">
	.st0{font-family:'Montserrat-SemiBold';}
	.st1{font-size:48px;}
	.st2{font-family:'Montserrat-Bold';}
	.st3{font-size:20px;}
	.st4{font-family:'Montserrat-Medium';}
	.st5{font-size:16px;}
	.st6{font-size:14px;}
	.st7{font-size:11px;}
	.st8{fill:#AFAFAF;}
	.st9{font-family:'Montserrat-Regular';}
	.st10{font-size:21px;}
</style>
<text transform="matrix(1 0 0 1 73.6584 33.8463)" class="st0 st1">MONTSERRAT</text>
<text transform="matrix(1 0 0 1 73.6584 355.7308)" class="st2 st3">Header 1</text>
<text transform="matrix(1 0 0 1 195.9661 355.7308)" class="st2 st3">Bold - 20pt</text>
<text transform="matrix(1 0 0 1 73.6584 396.577)" class="st4 st3">Header 2</text>
<text transform="matrix(1 0 0 1 195.9661 396.577)" class="st4 st3">Medium - 20 pt</text>
<text transform="matrix(1 0 0 1 73.6584 434.4232)" class="st2 st5">Title 1</text>
<text transform="matrix(1 0 0 1 195.9661 434.4232)" class="st2 st5">Bold - 16pt</text>
<text transform="matrix(1 0 0 1 73.6584 471.2693)" class="st4 st6">Title 2</text>
<text transform="matrix(1 0 0 1 195.9661 471.2693)" class="st4 st6">Medium - 14pt</text>
<text transform="matrix(1 0 0 1 73.6584 507.6674)" class="st4 st6">Text</text>
<text transform="matrix(1 0 0 1 195.9661 507.6674)" class="st4 st6">Regular- 14pt</text>
<text transform="matrix(1 0 0 1 73.6584 542.156)" class="st4 st7">Caption</text>
<text transform="matrix(1 0 0 1 195.9661 542.156)" class="st4 st7">Medium - 11pt</text>
<text transform="matrix(1 0 0 1 73.6584 62.3078)" class="st8 st9 st6">BOLD</text>
<text transform="matrix(1 0 0 1 73.6584 146.7693)" class="st8 st4 st6">MEDIUM</text>
<text transform="matrix(1 0 0 1 73.8471 87.4998)"><tspan x="0" y="0" class="st2 st10">ABCDEFGHIJKLMNOPQRSTUVWXYZ</tspan><tspan x="0" y="28" class="st2 st10">abcdefghijklmnopqrstuvwxyz 0123456789</tspan></text>
<text transform="matrix(1 0 0 1 73.6582 172.0382)"><tspan x="0" y="0" class="st4 st10">ABCDEFGHIJKLMNOPQRSTUVWXYZ</tspan><tspan x="0" y="28" class="st4 st10">abcdefghijklmnopqrstuvwxyz 0123456789</tspan></text>
<text transform="matrix(1 0 0 1 73.6584 231.2313)" class="st8 st9 st6">REGULAR</text>
<text transform="matrix(1 0 0 1 73.6582 256.5002)"><tspan x="0" y="0" class="st9 st10">ABCDEFGHIJKLMNOPQRSTUVWXYZ</tspan><tspan x="0" y="28" class="st9 st10">abcdefghijklmnopqrstuvwxyz 0123456789</tspan></text>
</svg>
