<?xml version="1.0" encoding="utf-8"?>
<!-- Generator: Adobe Illustrator 25.0.1, SVG Export Plug-In . SVG Version: 6.00 Build 0)  -->
<svg version="1.1" xmlns="http://www.w3.org/2000/svg" xmlns:xlink="http://www.w3.org/1999/xlink" x="0px" y="0px"
	 viewBox="0 0 600 110" style="enable-background:new 0 0 600 110;" xml:space="preserve">
<style type="text/css">
	.st0{fill-rule:evenodd;clip-rule:evenodd;}
</style>
<g id="Layer_1">
</g>
<g id="Filter">
</g>
<g id="Hide">
</g>
<g id="Shopping">
	<g>
		<g>
			<g>
				<path d="M18.9,3.8c-8.3,0-15.1,6.8-15.1,15.1s6.8,15.1,15.1,15.1s15.1-6.8,15.1-15.1S27.2,3.8,18.9,3.8z M18.9,31.4
					c-6.9,0-12.5-5.6-12.5-12.5S12,6.4,18.9,6.4S31.4,12,31.4,18.9S25.7,31.4,18.9,31.4z"/>
				<polygon points="19.7,13.4 17.9,11.6 12.4,17 10.6,18.9 12.4,20.7 12.4,20.7 17.9,26.2 19.7,24.3 15.6,20.2 26.1,20.2 
					26.1,17.6 15.6,17.6 				"/>
			</g>
		</g>
		<g>
			<path d="M95.4,88h-1.6v2.4h1.6c0.8,0,1.4,0.6,1.4,1.4v8.9c0,0.8-0.6,1.4-1.4,1.4H82.9c-0.8,0-1.4-0.6-1.4-1.4v-8.9
				c0-0.8,0.6-1.4,1.4-1.4h2.5V88h-2.5c-2.1,0-3.8,1.7-3.8,3.8v8.9c0,2.1,1.7,3.8,3.8,3.8h12.5c2.1,0,3.8-1.7,3.8-3.8v-8.9
				C99.2,89.7,97.5,88,95.4,88z"/>
			<path d="M88.4,81.8v16.4h2.4V81.8l3.5,3.5l1.7-1.7L90.4,78c-0.5-0.5-1.2-0.5-1.7,0l-5.6,5.6l1.7,1.7L88.4,81.8z"/>
		</g>
		<g>
			<g>
				<path d="M303.5,14.1c-1.5,0.1-3,1.4-3.5,3.1c-0.5-1.7-2.1-3-3.5-3.1c-1.9-0.1-3.3,1.6-3.3,3.4c0,2.9,4.2,6.3,6.8,8
					c2.6-1.7,6.8-5.1,6.8-8C306.9,15.6,305.4,14,303.5,14.1z"/>
				<g>
					<path d="M300,33.9c-8.3,0-15.1-6.8-15.1-15.1S291.7,3.8,300,3.8s15.1,6.8,15.1,15.1S308.3,33.9,300,33.9z M300,6.4
						c-6.9,0-12.5,5.6-12.5,12.5s5.6,12.5,12.5,12.5s12.5-5.6,12.5-12.5S306.9,6.4,300,6.4z"/>
				</g>
			</g>
		</g>
		<g>
			<g>
				<rect x="147.4" y="8.3" width="24.1" height="3.7"/>
				<rect x="147.4" y="17" width="24.1" height="3.7"/>
				<rect x="147.4" y="25.7" width="24.1" height="3.7"/>
			</g>
		</g>
		<g>
			<polygon points="99.5,11.1 96.9,8.5 89.1,16.2 81.4,8.5 78.8,11.1 86.5,18.9 78.8,26.6 81.4,29.2 89.1,21.5 96.9,29.2 99.5,26.6 
				91.8,18.9 			"/>
		</g>
		<g>
			<path d="M377.3,22.3l-1.2,1.2l-1.2-1.2c1.7-2,2.7-4.5,2.7-7.3c0-6.2-5-11.2-11.2-11.2c-6.2,0-11.2,5-11.2,11.2
				c0,6.2,5,11.2,11.2,11.2c2.8,0,5.3-1,7.3-2.7l1.2,1.2l-1.2,1.2l8,8l3.7-3.7L377.3,22.3z M366.4,23.5c-4.7,0-8.6-3.8-8.6-8.6
				c0-4.7,3.8-8.6,8.6-8.6c4.7,0,8.6,3.8,8.6,8.6C374.9,19.7,371.1,23.5,366.4,23.5z"/>
		</g>
		<g>
			<path d="M450.1,25.8H437l-0.8-2.9h16.9l2.4-11.6c0.1-0.5,0-1.1-0.4-1.5c-0.3-0.4-0.8-0.7-1.4-0.7h-21.4l-0.8-2.8
				c-0.2-0.6-0.7-0.9-1.2-0.9h-3.4c-0.7,0-1.3,0.6-1.3,1.3s0.6,1.3,1.3,1.3h2.5l5.1,18.3c-1,0.6-1.7,1.6-1.7,2.8
				c0,1.8,1.5,3.3,3.3,3.3c1.8,0,3.3-1.5,3.3-3.3c0-0.2,0-0.5-0.1-0.7h7.8c0,0.2-0.1,0.4-0.1,0.7c0,1.8,1.5,3.3,3.3,3.3
				s3.3-1.5,3.3-3.3S451.9,25.8,450.1,25.8z M452.8,11.7l-1.8,8.5h-15.5v0l-2.4-8.6H452.8z"/>
		</g>
		<path d="M32.3,81.8c-0.2-0.2-0.5-0.3-0.8-0.3H6.4c-0.6,0-1.2,0.5-1.2,1.1L5,99.6c0,0.3,0.1,0.6,0.3,0.8c0.2,0.2,0.5,0.3,0.8,0.3
			h25.1c0.6,0,1.2-0.5,1.2-1.1l0.2-17C32.7,82.3,32.6,82,32.3,81.8z M28.4,83.8L19,92.1l-9.5-8.3H28.4z M7.4,98.5l0.1-13.3l10.7,9.4
			c0.2,0.2,0.5,0.3,0.8,0.3c0.3,0,0.5-0.1,0.8-0.3l10.6-9.3l-0.1,13.3H7.4z"/>
		<path d="M584.6,19.9c-0.2-0.1-0.3-0.1-0.4,0c-1.2,0.5,1,6.4,2,8.9c-5.3-3.6-8.8-6.8-11.5-11c-2.2-3.5-3.5-7.3-4.2-12.6
			c-0.2-1.5-0.5-1.8-0.8-1.8c-0.2,0-0.5,0.3-0.6,1.2c-0.5,3-0.1,9.3,2.7,14.3c3.1,5.4,6.9,8.5,11.7,11.7l0.9,0.5l-1,0.2
			c-4.6,0.8-6.9,1.6-6.9,2.4c0.6,1,11.9,1.6,16.8,0.3C590.8,27.5,586.5,20.7,584.6,19.9z"/>
		<polygon class="st0" points="521.5,82.3 519.7,80.5 510.9,89.3 502,80.5 500.2,82.3 509,91.1 500.2,100 502,101.8 510.9,93 
			519.7,101.8 521.5,100 512.7,91.1 		"/>
		<polygon class="st0" points="590,84.9 581.1,93.7 572.3,84.9 570.5,86.7 579.3,95.6 581.1,97.4 583,95.6 591.8,86.7 		"/>
		<g>
			<polygon points="226.1,98.1 229.7,94.5 233.3,98.1 234.5,96.9 230.9,93.3 234.5,89.7 233.3,88.5 229.7,92.1 226.1,88.5 
				224.9,89.7 228.5,93.3 224.9,96.9 			"/>
			<path d="M231.1,80.1v-2c0-0.4-0.3-0.6-0.6-0.6H229c-0.4,0-0.6,0.3-0.6,0.6v2h-9.3v2.3h21.2v-2.3H231.1z"/>
			<path d="M236.6,101.9c0,0.3-0.3,0.5-0.6,0.5h-12.7c-0.3,0-0.5-0.2-0.6-0.5l-0.7-16.6h-2.3l0.7,16.7c0.1,1.6,1.3,2.8,2.9,2.8h12.7
				c1.6,0,2.8-1.2,2.9-2.8l0.7-16.7h-2.3L236.6,101.9z"/>
		</g>
		<polygon points="384.1,89.8 371.6,89.8 371.6,77.4 369,77.4 369,89.8 356.5,89.8 356.5,92.4 369,92.4 369,104.9 371.6,104.9 
			371.6,92.4 384.1,92.4 		"/>
		<rect x="425.1" y="89.8" width="31" height="2.6"/>
		<g>
			<path d="M292.7,85.8c1.7,0,3.1-1,3.7-2.4h17.4v-2.6h-17.1c-0.4-1.9-2.1-3.3-4-3.3c-2,0-3.6,1.4-4,3.3h-2.4v2.6h2.7
				C289.6,84.8,291,85.8,292.7,85.8z M292.7,79.3c1.3,0,2.4,1.1,2.4,2.4c0,1.3-1.1,2.4-2.4,2.4c-1.3,0-2.4-1.1-2.4-2.4
				C290.3,80.3,291.3,79.3,292.7,79.3z"/>
			<path d="M311.7,89.8c-0.5-1.6-2.1-2.8-3.9-2.8c-1.8,0-3.4,1.2-3.9,2.8h-17.6v2.6h17.6c0.5,1.6,2.1,2.8,3.9,2.8
				c1.8,0,3.4-1.2,3.9-2.8h2.1v-2.6H311.7z M307.8,93.6c-1.3,0-2.4-1.1-2.4-2.4s1.1-2.4,2.4-2.4s2.4,1.1,2.4,2.4
				S309.1,93.6,307.8,93.6z"/>
			<path d="M297.3,96.5c-1.7,0-3.1,1-3.7,2.4h-7.4v2.6h7.1c0.4,1.9,2.1,3.3,4,3.3s3.6-1.4,4-3.3h12.4v-2.6h-12.7
				C300.4,97.5,299,96.5,297.3,96.5z M297.3,103c-1.3,0-2.4-1.1-2.4-2.4c0-1.3,1.1-2.4,2.4-2.4c1.3,0,2.4,1.1,2.4,2.4
				C299.7,101.9,298.7,103,297.3,103z"/>
		</g>
		<g>
			<path d="M159.4,81.3c-8.7,0-16.1,8-16.1,9.8c0,1.9,7.4,9.8,16.1,9.8c8.7,0,16.1-8,16.1-9.8C175.5,89.3,168.1,81.3,159.4,81.3z
				 M159.4,98.6c-7,0-12.6-5.9-13.7-7.5c1-1.6,6.7-7.5,13.7-7.5s12.6,5.9,13.7,7.5C172.1,92.8,166.4,98.6,159.4,98.6z"/>
			<path d="M159.4,85.1c-3.3,0-6,2.7-6,6s2.7,6,6,6c3.3,0,6-2.7,6-6S162.7,85.1,159.4,85.1z M159.4,94.8c-2,0-3.7-1.7-3.7-3.7
				s1.7-3.7,3.7-3.7c2,0,3.7,1.7,3.7,3.7S161.5,94.8,159.4,94.8z"/>
		</g>
		<g>
			<path d="M229.7,17.7c3.3,0,6-2.7,6-6s-2.7-6-6-6c-3.3,0-6,2.7-6,6S226.4,17.7,229.7,17.7z M229.7,8c2,0,3.7,1.7,3.7,3.7
				s-1.7,3.7-3.7,3.7c-2,0-3.7-1.7-3.7-3.7S227.7,8,229.7,8z"/>
			<path d="M229.7,19c-5,0-11.6,1.2-11.6,11.9c0,0.6,0.5,1.2,1.2,1.2h21c0.6,0,1.2-0.5,1.2-1.2C241.4,20.3,234.7,19,229.7,19z
				 M220.4,29.8c0.4-6.9,4-8.4,9.3-8.4c5.3,0,8.9,1.5,9.3,8.4H220.4z"/>
		</g>
		<g>
			<path d="M522.2,12.7l-2.2,2.9c0.4,1,0.6,2.1,0.6,3.2c0,5.4-4.4,9.7-9.7,9.7c-5.4,0-9.7-4.4-9.7-9.7s4.4-9.7,9.7-9.7
				c2,0,3.8,0.6,5.3,1.6l1.9-2.5c-2.1-1.4-4.5-2.3-7.2-2.3c-7.1,0-12.9,5.8-12.9,12.9c0,7.1,5.8,12.9,12.9,12.9
				c7.1,0,12.9-5.8,12.9-12.9C523.8,16.6,523.2,14.6,522.2,12.7z"/>
			<polygon points="505.6,16.2 503.2,19 510.8,25.8 523.6,9 520.7,6.7 510.3,20.4 			"/>
		</g>
	</g>
</g>
</svg>
