<svg id="Layer_1" data-name="Layer 1" xmlns="http://www.w3.org/2000/svg" viewBox="0 0 267.67 157.97"><defs><style>.cls-1{fill:none;}</style></defs><path d="M323.3,389.23v63.43H272V389.23H323.3m1.45-2H270.52v67.41h54.23V387.24Z" transform="translate(-163.8 -341.96)"/><path d="M310.2,408.13v5.76c-2.63-4.05-6.46-6.62-10.74-6.62-7.94,0-14.38,8.8-14.38,19.66s6.44,19.65,14.38,19.65c4.28,0,8.11-2.57,10.74-6.62v5.76h7.28V408.13ZM299.88,441h-.57V412.81h.57c5.71,0,10.33,6.32,10.33,14.12S305.59,441,299.88,441Z" transform="translate(-163.8 -341.96)"/><rect class="cls-1" width="267.67" height="157.97"/></svg>