<svg id="Layer_1" data-name="Layer 1" xmlns="http://www.w3.org/2000/svg" viewBox="0 0 267.67 157.97"><defs><style>.cls-1{fill:#fff;}.cls-2{fill:none;}</style></defs><rect class="cls-1" x="75.97" y="12.48" width="115.72" height="133.02"/><path d="M345.05,367.63v86.3H249.64v-86.3h95.41m2.7-2.71H246.93v91.71H347.75V364.92Z" transform="translate(-163.8 -341.96)"/><path d="M320.7,393.34v7.84a26.74,26.74,0,1,0,0,35.47v7.83h13.53V393.34Zm-19.18,44.77h-1.06V399.72h1.06a19.2,19.2,0,0,1,0,38.39Z" transform="translate(-163.8 -341.96)"/><path d="M292.58,467.1a5,5,0,0,0-4.78,3.11,4.72,4.72,0,0,0-4.67-3.11A4.89,4.89,0,0,0,278,472v0c-1.58-1.36-5-.71-5-2,0-.5.53-.89,1.78-.89a5.49,5.49,0,0,1,2.53.59,5.78,5.78,0,0,1,1.16-1.86,7.94,7.94,0,0,0-3.69-.84,6.63,6.63,0,0,0-2.27.36H268.2v-2.33h-2.78v2.33h-.78c-1.36,0-2.43.17-3.07,1.05v-.91h-2.65v9.23h2.78V472.3a2.37,2.37,0,0,1,2.53-2.7h1.19v3.93c0,2.28,1.32,3.44,3.58,3.44a4.11,4.11,0,0,0,2.15-.54,9.18,9.18,0,0,0,3.12.54c2.49,0,4.07-1,4.44-2.37a5.35,5.35,0,0,0,4.77,2.37,5.26,5.26,0,0,0,3.6-1.19l-1.52-1.63a3.28,3.28,0,0,1-2,.59,2.55,2.55,0,0,1-2.74-1.92h6.73c.36,2.44,2.4,4.15,5.4,4.15a5.22,5.22,0,0,0,3.61-1.2L295,474.14a3.31,3.31,0,0,1-2,.6,2.55,2.55,0,0,1-2.74-1.92h7.25c0-.23.05-.53.05-.75A4.74,4.74,0,0,0,292.58,467.1Zm-18.2,7.77a6.45,6.45,0,0,1-3.33-.93,2,2,0,0,1-1.66.82,1.11,1.11,0,0,1-1.19-1.26v-3.9h2.22a2.91,2.91,0,0,0-.06.6c0,3.83,5.78,2.23,5.78,3.8C276.14,474.53,275.66,474.87,274.38,474.87Zm6.39-3.67a2.39,2.39,0,0,1,4.72,0Zm9.46,0a2.39,2.39,0,0,1,4.72,0Z" transform="translate(-163.8 -341.96)"/><path d="M308,469.05a4.18,4.18,0,0,0-3.65-1.9,4.89,4.89,0,0,0,0,9.77,4.16,4.16,0,0,0,3.71-2v1.9h1.24V463.28H308Zm-3.54,6.72A3.75,3.75,0,1,1,308,472,3.52,3.52,0,0,1,304.48,475.77Z" transform="translate(-163.8 -341.96)"/><path d="M327,468.28a3.27,3.27,0,0,1,2.79,1.43l1-.66a4.2,4.2,0,0,0-3.76-1.9,4.89,4.89,0,1,0,0,9.77,4.25,4.25,0,0,0,3.76-1.9l-1-.66a3.25,3.25,0,0,1-2.79,1.41,3.75,3.75,0,0,1,0-7.49Z" transform="translate(-163.8 -341.96)"/><path d="M336.66,467.15a4.89,4.89,0,1,0,4.87,4.88A4.73,4.73,0,0,0,336.66,467.15Zm0,8.62a3.75,3.75,0,1,1,3.56-3.74A3.52,3.52,0,0,1,336.66,475.77Z" transform="translate(-163.8 -341.96)"/><path d="M344.81,469.11v-1.89h-1.25v9.61h1.3v-4.89c0-2.27,1.22-3.55,3.23-3.55l.31,0v-1.26A3.61,3.61,0,0,0,344.81,469.11Z" transform="translate(-163.8 -341.96)"/><path d="M316.08,467.15a4.63,4.63,0,0,0-4.69,4.88,4.76,4.76,0,0,0,5,4.89,4.82,4.82,0,0,0,3.4-1.26l-.76-.82a3.86,3.86,0,0,1-2.61.93,3.56,3.56,0,0,1-3.78-3.34h8c0-.15,0-.29,0-.4A4.57,4.57,0,0,0,316.08,467.15Zm-3.4,4.31a3.41,3.41,0,0,1,6.81,0Z" transform="translate(-163.8 -341.96)"/><path d="M257.31,467.6v9.23h-2.65v-1.11a3.69,3.69,0,0,1-3,1.25,4.94,4.94,0,0,1,0-9.87,3.69,3.69,0,0,1,2.87,1.16v-.66ZM254.59,472a2.46,2.46,0,1,0-2.44,2.65A2.43,2.43,0,0,0,254.59,472Z" transform="translate(-163.8 -341.96)"/><rect class="cls-2" width="267.67" height="157.97"/></svg>