<svg id="Layer_1" data-name="Layer 1" xmlns="http://www.w3.org/2000/svg" viewBox="0 0 267.67 157.97"><defs><style>.cls-1{fill:#fff;}.cls-2{fill:none;}</style></defs><path d="M322.59,383.14h-49.9v45.4h49.9v-45.4Z" transform="translate(-163.8 -341.96)"/><path class="cls-1" d="M309.2,397.21v3.88a13.24,13.24,0,1,0,0,17.55v3.88h6.7V397.21Zm-9.5,22.16h-.52v-19h.52a9.5,9.5,0,1,1,0,19Z" transform="translate(-163.8 -341.96)"/><path d="M290.19,444.21a7.27,7.27,0,0,0-7,4.58,7,7,0,0,0-6.9-4.58,7.19,7.19,0,0,0-7.53,7.27v0c-2.32-2-7.38-1-7.38-2.9,0-.74.79-1.32,2.63-1.32a8.13,8.13,0,0,1,3.73.88,8.59,8.59,0,0,1,1.7-2.74,11.58,11.58,0,0,0-5.43-1.23,9.82,9.82,0,0,0-3.35.52h-6.36v-3.44h-4.1v3.44H249c-2,0-3.57.26-4.52,1.55v-1.34h-3.91v13.6h4.1v-6.67c0-2.7,1.47-4,3.73-4h1.75v5.8c0,3.36,2,5.07,5.28,5.07a6,6,0,0,0,3.16-.8,13.77,13.77,0,0,0,4.61.8c3.67,0,6-1.41,6.54-3.5,1.3,2.14,3.79,3.5,7,3.5a7.73,7.73,0,0,0,5.3-1.76l-2.24-2.41a4.86,4.86,0,0,1-3,.89c-2.15,0-3.65-1.08-4-2.84h9.91c.53,3.6,3.55,6.12,8,6.12A7.7,7.7,0,0,0,296,457l-2.24-2.41a4.81,4.81,0,0,1-3,.9c-2.15,0-3.65-1.08-4-2.84h10.68c0-.34.08-.79.08-1.1A7,7,0,0,0,290.19,444.21Zm-26.83,11.44a9.67,9.67,0,0,1-4.9-1.36,3,3,0,0,1-2.44,1.2,1.64,1.64,0,0,1-1.76-1.86v-5.75h3.27a4.41,4.41,0,0,0-.1.89c0,5.65,8.53,3.28,8.53,5.59C266,455.15,265.25,455.65,263.36,455.65Zm9.43-5.41a3.52,3.52,0,0,1,6.95,0Zm13.94,0a3.52,3.52,0,0,1,6.95,0Z" transform="translate(-163.8 -341.96)"/><path d="M312.94,447.07a6.19,6.19,0,0,0-5.38-2.79,7.2,7.2,0,0,0,0,14.39,6.12,6.12,0,0,0,5.46-2.93v2.8h1.83v-20h-1.91ZM307.72,457a5.52,5.52,0,1,1,5.25-5.52A5.18,5.18,0,0,1,307.72,457Z" transform="translate(-163.8 -341.96)"/><path d="M340.84,446A4.81,4.81,0,0,1,345,448l1.43-1a6.2,6.2,0,0,0-5.55-2.79,7.2,7.2,0,1,0,0,14.39,6.25,6.25,0,0,0,5.55-2.8l-1.43-1a4.78,4.78,0,0,1-4.12,2.08,5.52,5.52,0,0,1,0-11Z" transform="translate(-163.8 -341.96)"/><path d="M355.13,444.28a7.2,7.2,0,1,0,7.19,7.18A7,7,0,0,0,355.13,444.28Zm0,12.7a5.52,5.52,0,1,1,5.25-5.52A5.18,5.18,0,0,1,355.13,457Z" transform="translate(-163.8 -341.96)"/><path d="M367.14,447.16v-2.78h-1.83v14.16h1.91v-7.21c0-3.34,1.81-5.22,4.77-5.22l.45,0v-1.85C369.83,444.28,368,445.27,367.14,447.16Z" transform="translate(-163.8 -341.96)"/><path d="M324.81,444.28a6.81,6.81,0,0,0-6.91,7.18c0,4.2,3,7.21,7.42,7.21a7.15,7.15,0,0,0,5-1.85l-1.13-1.21a5.7,5.7,0,0,1-3.84,1.37,5.24,5.24,0,0,1-5.57-4.93h11.84c0-.21,0-.43,0-.59C331.67,447.21,328.79,444.28,324.81,444.28Zm-5,6.35a5,5,0,0,1,10,0Z" transform="translate(-163.8 -341.96)"/><path d="M238.21,444.94v13.6H234.3v-1.63a5.44,5.44,0,0,1-4.41,1.84,7.27,7.27,0,0,1,0-14.54,5.46,5.46,0,0,1,4.23,1.7v-1Zm-4,6.54a3.62,3.62,0,1,0-3.6,3.91A3.58,3.58,0,0,0,234.2,451.48Z" transform="translate(-163.8 -341.96)"/><rect class="cls-2" width="267.67" height="157.97"/></svg>