<svg id="Layer_1" data-name="Layer 1" xmlns="http://www.w3.org/2000/svg" viewBox="0 0 267.67 157.97"><defs><style>.cls-1{fill:none;}</style></defs><rect class="cls-1" width="267.67" height="157.97"/><path d="M288.28,415.35a9.15,9.15,0,0,0-8.85,5.76c-1.27-3.63-4.6-5.76-8.66-5.76-5.4,0-9.46,3.83-9.46,9.13,0,0,0,0,0,.06-2.93-2.51-9.27-1.31-9.27-3.65,0-.92,1-1.65,3.29-1.65a10.25,10.25,0,0,1,4.69,1.1,10.72,10.72,0,0,1,2.14-3.44,14.59,14.59,0,0,0-6.83-1.55,12.57,12.57,0,0,0-4.21.66h-8v-4.32H238V416h-1.44c-2.53,0-4.49.32-5.68,1.95v-1.69H226v17.08h5.14V425c0-3.4,1.85-5,4.69-5H238v7.28c0,4.22,2.44,6.37,6.63,6.37a7.51,7.51,0,0,0,4-1,17.16,17.16,0,0,0,5.79,1c4.61,0,7.53-1.77,8.21-4.4,1.64,2.69,4.76,4.4,8.83,4.4a9.72,9.72,0,0,0,6.67-2.21l-2.82-3a6.09,6.09,0,0,1-3.71,1.1c-2.71,0-4.59-1.35-5.08-3.56h12.45c.66,4.52,4.45,7.69,10,7.69a9.67,9.67,0,0,0,6.68-2.23l-2.82-3a6.05,6.05,0,0,1-3.73,1.12c-2.7,0-4.58-1.35-5.07-3.56h13.41c0-.42.1-1,.1-1.38C297.51,418.85,293.49,415.35,288.28,415.35Zm-33.69,14.37a12.15,12.15,0,0,1-6.17-1.71,3.79,3.79,0,0,1-3.07,1.52,2.07,2.07,0,0,1-2.21-2.34V420h4.12a5.13,5.13,0,0,0-.12,1.12c0,7.09,10.71,4.12,10.71,7C257.85,429.1,257,429.72,254.59,429.72Zm11.83-6.79a4.43,4.43,0,0,1,8.74,0Zm17.51,0a4.43,4.43,0,0,1,8.74,0Z" transform="translate(-163.8 -341.96)"/><path d="M316.86,419a7.77,7.77,0,0,0-6.76-3.51,8.59,8.59,0,0,0-8.85,9c0,5.38,3.78,9.06,8.85,9.06a7.69,7.69,0,0,0,6.86-3.68v3.51h2.3V408.27h-2.4Zm-6.55,12.44c-3.79,0-6.63-2.77-6.63-6.93s2.84-6.93,6.63-6.93,6.59,2.78,6.59,6.93S314.06,431.39,310.31,431.39Z" transform="translate(-163.8 -341.96)"/><path d="M351.91,417.53a6,6,0,0,1,5.17,2.64l1.8-1.22a7.78,7.78,0,0,0-7-3.51,9,9,0,1,0,0,18.08,7.86,7.86,0,0,0,7-3.51l-1.8-1.22a6,6,0,0,1-5.17,2.6c-3.88,0-6.72-2.74-6.72-6.93A6.54,6.54,0,0,1,351.91,417.53Z" transform="translate(-163.8 -341.96)"/><path d="M369.86,415.44a9,9,0,1,0,9,9A8.75,8.75,0,0,0,369.86,415.44Zm0,15.95c-3.78,0-6.62-2.77-6.62-6.93s2.84-6.93,6.62-6.93,6.59,2.78,6.59,6.93S373.65,431.39,369.86,431.39Z" transform="translate(-163.8 -341.96)"/><path d="M385,419.05v-3.48h-2.3v17.78h2.4v-9.06c0-4.19,2.26-6.55,6-6.55.17,0,.37,0,.58,0v-2.33C388.33,415.44,386.06,416.69,385,419.05Z" transform="translate(-163.8 -341.96)"/><path d="M331.77,415.44c-5,0-8.68,3.75-8.68,9s3.78,9.06,9.33,9.06a9,9,0,0,0,6.3-2.32l-1.41-1.52a7.17,7.17,0,0,1-4.83,1.71c-3.88,0-6.72-2.47-7-6.18h14.87c0-.27,0-.54,0-.75C340.39,419.12,336.78,415.44,331.77,415.44Zm-6.28,8a6.31,6.31,0,0,1,12.6,0Z" transform="translate(-163.8 -341.96)"/><path d="M223,416.27v17.08h-4.91v-2a6.84,6.84,0,0,1-5.54,2.31c-5,0-8.87-3.57-8.87-9.14s3.86-9.13,8.87-9.13a6.8,6.8,0,0,1,5.3,2.14v-1.22Zm-5.05,8.21c0-3.06-2-4.91-4.51-4.91s-4.55,1.85-4.55,4.91,2,4.92,4.55,4.92S217.94,427.55,217.94,424.48Z" transform="translate(-163.8 -341.96)"/></svg>