<svg id="Layer_1" data-name="Layer 1" xmlns="http://www.w3.org/2000/svg" viewBox="0 0 267.67 157.97"><defs><style>.cls-1{fill:none;}</style></defs><path d="M321.26,381.35v42.73H274V381.35h47.25M322.6,380H272.67v45.42H322.6V380Z" transform="translate(-163.8 -341.96)"/><path d="M309.21,394.08V398a13.24,13.24,0,1,0,0,17.56v3.89h6.7V394.08Zm-9.5,22.17h-.53v-19h.53a9.51,9.51,0,0,1,0,19Z" transform="translate(-163.8 -341.96)"/><path d="M281.28,453.83a4.28,4.28,0,0,0-3.73-1.95,5,5,0,0,0,0,10,4.27,4.27,0,0,0,3.79-2v1.94h1.27V447.92h-1.33Zm-3.62,6.88a3.84,3.84,0,1,1,3.64-3.83A3.6,3.6,0,0,1,277.66,460.71Z" transform="translate(-163.8 -341.96)"/><path d="M300.67,453a3.34,3.34,0,0,1,2.86,1.46l1-.67a4.28,4.28,0,0,0-3.85-1.95,5,5,0,1,0,0,10,4.33,4.33,0,0,0,3.85-1.95l-1-.67a3.32,3.32,0,0,1-2.86,1.44,3.84,3.84,0,0,1,0-7.67Z" transform="translate(-163.8 -341.96)"/><path d="M310.6,451.88a5,5,0,1,0,5,5A4.84,4.84,0,0,0,310.6,451.88Zm0,8.83a3.84,3.84,0,1,1,3.65-3.83A3.6,3.6,0,0,1,310.6,460.71Z" transform="translate(-163.8 -341.96)"/><path d="M318.94,453.88V452h-1.27v9.83H319v-5c0-2.32,1.25-3.62,3.31-3.62h.32v-1.29A3.73,3.73,0,0,0,318.94,453.88Z" transform="translate(-163.8 -341.96)"/><path d="M289.53,451.88a4.74,4.74,0,0,0-4.8,5,4.87,4.87,0,0,0,5.16,5,5,5,0,0,0,3.49-1.29l-.79-.84a3.94,3.94,0,0,1-2.66.95,3.64,3.64,0,0,1-3.87-3.42h8.22c0-.15,0-.3,0-.41A4.69,4.69,0,0,0,289.53,451.88Zm-3.47,4.42a3.49,3.49,0,0,1,7,0Z" transform="translate(-163.8 -341.96)"/><path d="M318,435.89a4.94,4.94,0,0,0-4.78,3.11,4.73,4.73,0,0,0-4.68-3.11,4.88,4.88,0,0,0-5.11,4.94v0c-1.58-1.36-5-.71-5-2,0-.5.54-.9,1.79-.9a5.53,5.53,0,0,1,2.53.6,5.82,5.82,0,0,1,1.15-1.86,7.93,7.93,0,0,0-3.68-.84,6.73,6.73,0,0,0-2.28.36h-4.31v-2.33h-2.78v2.33h-.78c-1.37,0-2.43.17-3.07,1.05v-.91h-2.65v9.23h2.77v-4.53a2.37,2.37,0,0,1,2.54-2.7h1.19v3.93c0,2.28,1.31,3.44,3.58,3.44a4,4,0,0,0,2.14-.54,9.54,9.54,0,0,0,3.13.54c2.49,0,4.07-1,4.44-2.37a5.34,5.34,0,0,0,4.77,2.37,5.26,5.26,0,0,0,3.6-1.19L311,442.93a3.27,3.27,0,0,1-2,.6,2.55,2.55,0,0,1-2.74-1.92H313c.36,2.44,2.41,4.15,5.41,4.15a5.2,5.2,0,0,0,3.6-1.2l-1.52-1.63a3.28,3.28,0,0,1-2,.6,2.57,2.57,0,0,1-2.75-1.92h7.25c0-.23.06-.53.06-.75A4.75,4.75,0,0,0,318,435.89Zm-18.2,7.77a6.55,6.55,0,0,1-3.33-.93,2,2,0,0,1-1.66.82,1.11,1.11,0,0,1-1.19-1.26v-3.9h2.22a2.9,2.9,0,0,0-.07.6c0,3.83,5.79,2.23,5.79,3.8C301.56,443.32,301.08,443.66,299.8,443.66Zm6.39-3.67a2.39,2.39,0,0,1,4.72,0Zm9.46,0a2.27,2.27,0,0,1,2.37-2,2.29,2.29,0,0,1,2.35,2Z" transform="translate(-163.8 -341.96)"/><path d="M282.73,436.39v9.23h-2.66v-1.11a3.67,3.67,0,0,1-3,1.25,4.94,4.94,0,0,1,0-9.87,3.7,3.7,0,0,1,2.87,1.16v-.66ZM280,440.83a2.46,2.46,0,1,0-2.44,2.65A2.43,2.43,0,0,0,280,440.83Z" transform="translate(-163.8 -341.96)"/><rect class="cls-1" width="267.67" height="157.97"/></svg>