<svg id="Layer_1" data-name="Layer 1" xmlns="http://www.w3.org/2000/svg" viewBox="0 0 37.15 37.15"><defs><style>.cls-1{fill:none;}</style></defs><path d="M297.24,419.3a5.93,5.93,0,1,0-5.93-5.93A5.93,5.93,0,0,0,297.24,419.3Zm0-9.56a3.64,3.64,0,1,1-3.64,3.63A3.64,3.64,0,0,1,297.24,409.74Z" transform="translate(-278.66 -401.89)"/><path d="M297.24,420.63c-4.93,0-11.47,1.21-11.47,11.72a1.14,1.14,0,0,0,1.14,1.14h20.65a1.14,1.14,0,0,0,1.14-1.14C308.7,421.84,302.16,420.63,297.24,420.63Zm-9.16,10.57c.35-6.84,3.93-8.28,9.16-8.28s8.8,1.44,9.15,8.28Z" transform="translate(-278.66 -401.89)"/><rect class="cls-1" width="37.15" height="37.15"/></svg>