<svg id="Layer_1" data-name="Layer 1" xmlns="http://www.w3.org/2000/svg" viewBox="0 0 37.15 37.15"><defs><style>.cls-1{fill:none;}</style></defs><path d="M300.61,421.53a.56.56,0,0,0-.39,0c-1.15.55,1,6.33,1.95,8.73-5.23-3.57-8.69-6.68-11.3-10.88a29.19,29.19,0,0,1-4.11-12.44c-.18-1.52-.47-1.82-.75-1.79s-.47.33-.6,1.16a24.48,24.48,0,0,0,2.66,14.07c3,5.31,6.81,8.37,11.55,11.52l.86.47-1,.17c-4.55.78-6.84,1.56-6.8,2.31.56.95,11.69,1.57,16.55.34C306.75,429,302.53,422.3,300.61,421.53Z" transform="translate(-278.66 -401.89)"/><rect class="cls-1" width="37.15" height="37.15"/></svg>