<svg id="Layer_1" data-name="Layer 1" xmlns="http://www.w3.org/2000/svg" viewBox="0 0 37.15 37.15"><defs><style>.cls-1{fill:none;}</style></defs><path d="M297.23,405.62a14.85,14.85,0,1,0,14.85,14.85A14.86,14.86,0,0,0,297.23,405.62Zm0,27.15a12.3,12.3,0,1,1,12.31-12.3A12.32,12.32,0,0,1,297.23,432.77Z" transform="translate(-278.66 -401.89)"/><polygon points="19.45 13.18 17.65 11.38 12.25 16.78 10.45 18.58 12.25 20.38 12.25 20.38 17.65 25.78 19.45 23.98 15.32 19.85 25.75 19.85 25.75 17.3 15.32 17.3 19.45 13.18"/><rect class="cls-1" width="37.15" height="37.15"/></svg>