<svg id="Layer_1" data-name="Layer 1" xmlns="http://www.w3.org/2000/svg" viewBox="0 0 37.15 37.15"><defs><style>.cls-1{fill:none;}</style></defs><polygon points="15.05 25.41 18.58 21.88 22.1 25.41 23.3 24.21 19.78 20.68 23.3 17.16 22.1 15.96 18.58 19.48 15.05 15.96 13.85 17.16 17.38 20.68 13.85 24.21 15.05 25.41"/><path d="M298.56,409.63v-2a.64.64,0,0,0-.64-.64h-1.37a.64.64,0,0,0-.64.64v2h-9.13v2.29H307.7v-2.29Z" transform="translate(-278.66 -401.89)"/><path d="M304.05,431.09a.55.55,0,0,1-.55.53H291a.56.56,0,0,1-.55-.54l-.7-16.39h-2.3l.72,16.48a2.82,2.82,0,0,0,2.83,2.74H303.5a2.82,2.82,0,0,0,2.83-2.73l.72-16.49h-2.3Z" transform="translate(-278.66 -401.89)"/><rect class="cls-1" width="37.15" height="37.15"/></svg>