<svg id="Layer_1" data-name="Layer 1" xmlns="http://www.w3.org/2000/svg" viewBox="0 0 37.15 37.15"><defs><style>.cls-1{fill:none;}</style></defs><path d="M290,415.21a4.06,4.06,0,0,0,3.69-2.38h17.1v-2.54H294a4.07,4.07,0,0,0-8,0h-2.38v2.54h2.67A4.07,4.07,0,0,0,290,415.21Zm0-6.45a2.38,2.38,0,1,1-2.37,2.38A2.39,2.39,0,0,1,290,408.76Z" transform="translate(-278.66 -401.89)"/><path d="M308.72,419.2a4,4,0,0,0-7.7,0H283.66v2.54H301a4,4,0,0,0,7.7,0h2.09V419.2Zm-3.85,3.65a2.38,2.38,0,1,1,2.38-2.38A2.38,2.38,0,0,1,304.87,422.85Z" transform="translate(-278.66 -401.89)"/><path d="M294.6,425.73a4.08,4.08,0,0,0-3.69,2.38h-7.25v2.54h7a4.07,4.07,0,0,0,8,0h12.22v-2.54H298.3A4.09,4.09,0,0,0,294.6,425.73Zm0,6.45A2.38,2.38,0,1,1,297,429.8,2.38,2.38,0,0,1,294.6,432.18Z" transform="translate(-278.66 -401.89)"/><rect class="cls-1" width="37.15" height="37.15"/></svg>