<svg id="Layer_1" data-name="Layer 1" xmlns="http://www.w3.org/2000/svg" viewBox="0 0 37.15 37.15"><defs><style>.cls-1{fill:none;}</style></defs><path d="M310.52,411.27a1.15,1.15,0,0,0-.82-.34H285a1.15,1.15,0,0,0-1.15,1.14l-.19,16.78a1.18,1.18,0,0,0,.33.82,1.15,1.15,0,0,0,.82.34h24.74a1.15,1.15,0,0,0,1.15-1.13l.19-16.79A1.18,1.18,0,0,0,310.52,411.27Zm-3.86,2-9.33,8.19L288,413.22Zm-20.73,14.5.14-13.14,10.5,9.22a1.17,1.17,0,0,0,1.52,0l10.44-9.17-.15,13.09Z" transform="translate(-278.66 -401.89)"/><rect class="cls-1" width="37.15" height="37.15"/></svg>