<svg id="Layer_1" data-name="Layer 1" xmlns="http://www.w3.org/2000/svg" viewBox="0 0 37.15 37.15"><defs><style>.cls-1{fill:none;}</style></defs><path d="M297.24,410.79c-8.55,0-15.87,7.84-15.87,9.68s7.32,9.68,15.87,9.68,15.86-7.84,15.86-9.68S305.78,410.79,297.24,410.79Zm0,17.07c-6.85,0-12.44-5.8-13.47-7.39,1-1.59,6.62-7.39,13.47-7.39s12.43,5.8,13.46,7.39C309.67,422.06,304.08,427.86,297.24,427.86Z" transform="translate(-278.66 -401.89)"/><path d="M297.24,414.55a5.93,5.93,0,1,0,5.92,5.92A5.93,5.93,0,0,0,297.24,414.55Zm0,9.55a3.63,3.63,0,1,1,3.63-3.63A3.64,3.64,0,0,1,297.24,424.1Z" transform="translate(-278.66 -401.89)"/><rect class="cls-1" width="37.15" height="37.15"/></svg>