<svg id="Layer_1" data-name="Layer 1" xmlns="http://www.w3.org/2000/svg" viewBox="0 0 37.15 37.15"><defs><style>.cls-1{fill:none;}</style></defs><path d="M306.66,427.32h-13l-.81-2.91h16.69L312,413a1.75,1.75,0,0,0-.36-1.45,1.73,1.73,0,0,0-1.35-.65H289.14l-.77-2.77a1.27,1.27,0,0,0-1.23-.93h-3.39a1.28,1.28,0,0,0,0,2.55h2.43l5,18a3.2,3.2,0,1,0,4.79,2.77,3.7,3.7,0,0,0-.07-.66h7.66a3,3,0,0,0-.07.66,3.21,3.21,0,1,0,3.2-3.2Zm2.6-13.86-1.77,8.41H292.18v.05l-2.34-8.46Z" transform="translate(-278.66 -401.89)"/><rect class="cls-1" width="37.15" height="37.15"/></svg>