<svg id="Layer_1" data-name="Layer 1" xmlns="http://www.w3.org/2000/svg" viewBox="0 0 37.15 37.15"><defs><style>.cls-1{fill:none;}</style></defs><path d="M300.73,415.77a4.19,4.19,0,0,0-3.49,3,4.22,4.22,0,0,0-3.5-3,3.24,3.24,0,0,0-3.24,3.37c0,2.83,4.13,6.16,6.74,7.84,2.61-1.68,6.69-5,6.73-7.84A3.24,3.24,0,0,0,300.73,415.77Z" transform="translate(-278.66 -401.89)"/><path d="M297.24,435.32a14.85,14.85,0,1,1,14.84-14.85A14.86,14.86,0,0,1,297.24,435.32Zm0-27.15a12.3,12.3,0,1,0,12.3,12.3A12.32,12.32,0,0,0,297.24,408.17Z" transform="translate(-278.66 -401.89)"/><rect class="cls-1" width="37.15" height="37.15"/></svg>