<svg id="Layer_1" data-name="Layer 1" xmlns="http://www.w3.org/2000/svg" viewBox="0 0 37.15 37.15"><defs><style>.cls-1{fill:none;}</style></defs><path d="M303.38,417.39h-1.62v2.37h1.62a1.41,1.41,0,0,1,1.41,1.41V430a1.41,1.41,0,0,1-1.41,1.41H291.09a1.41,1.41,0,0,1-1.41-1.41v-8.82a1.41,1.41,0,0,1,1.41-1.41h2.47v-2.37h-2.47a3.78,3.78,0,0,0-3.78,3.78V430a3.78,3.78,0,0,0,3.78,3.78h12.29a3.79,3.79,0,0,0,3.79-3.78v-8.82A3.79,3.79,0,0,0,303.38,417.39Z" transform="translate(-278.66 -401.89)"/><path d="M296.47,411.22v16.19h2.38V411.22l3.47,3.48L304,413l-5.5-5.5a1.18,1.18,0,0,0-1.68,0l-5.5,5.5L293,414.7Z" transform="translate(-278.66 -401.89)"/><rect class="cls-1" width="37.15" height="37.15"/></svg>