<svg id="Layer_1" data-name="Layer 1" xmlns="http://www.w3.org/2000/svg" viewBox="0 0 16 15.86"><defs><style>.cls-1{fill:#f6038b;}.cls-2{fill:#fff;}</style></defs><ellipse class="cls-1" cx="8" cy="7.93" rx="8" ry="7.93"/><path class="cls-2" d="M301.26,422.12c0,1.9-1.65,3.1-3.63,3.1a6.52,6.52,0,0,1-2.86-.68l.24-1.22a5.72,5.72,0,0,0,2.63.72c1.2,0,2.26-.62,2.26-1.78,0-1-.82-1.74-2.29-1.74a9.28,9.28,0,0,0-1.49.14v-1.09c2-.46,3.41-1.1,3.41-2.24,0-.83-.63-1.39-1.78-1.39a3.81,3.81,0,0,0-2.43,1l-.5-1.17a5.07,5.07,0,0,1,2.95-1c1.83,0,3.1.9,3.1,2.43,0,1.19-.94,2.05-2.57,2.52C300.35,419.69,301.26,420.89,301.26,422.12Z" transform="translate(-289.61 -412.18)"/></svg>