<svg id="Layer_1" data-name="Layer 1" xmlns="http://www.w3.org/2000/svg" viewBox="0 0 16 15.86"><defs><style>.cls-1{fill:#f6038b;}.cls-2{fill:#fff;}</style></defs><ellipse class="cls-1" cx="8" cy="7.93" rx="8" ry="7.93"/><path class="cls-2" d="M292.92,419.08c2,0,3.49,1.09,3.49,3a3.24,3.24,0,0,1-3.52,3.28,5.83,5.83,0,0,1-2.77-.68l.24-1.25a5.27,5.27,0,0,0,2.55.73,1.94,1.94,0,0,0,2.19-2c0-1.12-.82-1.88-2.27-1.88a5.23,5.23,0,0,0-2.17.44l-.27-.24.69-5.35h5.15l0,1.25h-4.16l-.37,2.88A5.11,5.11,0,0,1,292.92,419.08Z" transform="translate(-285.16 -412.17)"/></svg>