<svg id="Layer_1" data-name="Layer 1" xmlns="http://www.w3.org/2000/svg" viewBox="0 0 16 15.86"><defs><style>.cls-1{fill:#f6038b;}.cls-2{fill:#fff;}</style></defs><ellipse class="cls-1" cx="8" cy="7.93" rx="8" ry="7.93"/><path class="cls-2" d="M295,414.82l.4,1.25c-2.32.58-4,1.78-4.5,3.75h0a3.55,3.55,0,0,1,2.56-1,3,3,0,0,1,3,3.11,3.24,3.24,0,0,1-3.44,3.33c-2.29,0-3.55-1.89-3.55-4.17C289.45,418.35,291.27,415.69,295,414.82Zm-1.92,9.24a1.93,1.93,0,0,0,2-2.05,1.88,1.88,0,0,0-2-2,3.47,3.47,0,0,0-2.2.85,3.15,3.15,0,0,0-.08.67A2.32,2.32,0,0,0,293.07,424.06Z" transform="translate(-285.14 -412.12)"/></svg>