<?xml version="1.0" encoding="utf-8"?>
<!-- Generator: Adobe Illustrator 25.0.1, SVG Export Plug-In . SVG Version: 6.00 Build 0)  -->
<svg version="1.1" id="Layer_1" xmlns="http://www.w3.org/2000/svg" xmlns:xlink="http://www.w3.org/1999/xlink" x="0px" y="0px"
	 viewBox="0 0 115.7 133" style="enable-background:new 0 0 115.7 133;" xml:space="preserve">
<style type="text/css">
	.st0{fill:#FFFFFF;}
</style>
<rect class="st0" width="115.7" height="133"/>
<path d="M52.9,112.7c-2.1-0.1-4,1.2-4.8,3.1c-0.7-2-2.5-3.1-4.7-3.1c-2.9,0-5.1,2.1-5.1,4.9l0,0c-1.6-1.4-5-0.7-5-2
	c0-0.5,0.5-0.9,1.8-0.9c0.9,0,1.7,0.2,2.5,0.6c0.3-0.7,0.7-1.3,1.1-1.9c-1.1-0.6-2.4-0.9-3.7-0.8c-0.8,0-1.5,0.1-2.3,0.4h-4.3v-2.3
	h-2.8v2.3h-0.8c-1.4,0-2.4,0.2-3.1,1v-0.9h-2.6v9.2H22v-4.5c0-1.8,1-2.7,2.5-2.7h1.2v3.9c0,2.3,1.3,3.4,3.6,3.4
	c0.8,0,1.5-0.2,2.1-0.5c1,0.4,2.1,0.5,3.1,0.5c2.5,0,4.1-1,4.4-2.4c0.9,1.5,2.6,2.4,4.8,2.4c1.3,0.1,2.6-0.4,3.6-1.2l-1.5-1.6
	c-0.6,0.4-1.3,0.6-2,0.6c-1.5,0-2.5-0.7-2.7-1.9h6.7c0.4,2.4,2.4,4.1,5.4,4.1c1.3,0.1,2.6-0.4,3.6-1.2l-1.5-1.6
	c-0.6,0.4-1.3,0.6-2,0.6c-1.5,0-2.5-0.7-2.7-1.9h7.2c0-0.2,0.1-0.5,0.1-0.7C57.8,114.6,55.7,112.7,52.9,112.7z M34.7,120.5
	c-1.2,0-2.3-0.3-3.3-0.9c-0.4,0.5-1,0.8-1.7,0.8c-0.6,0-1.1-0.4-1.2-1c0-0.1,0-0.2,0-0.2v-3.9h2.2c0,0.2-0.1,0.4-0.1,0.6
	c0,3.8,5.8,2.2,5.8,3.8C36.4,120.1,35.9,120.5,34.7,120.5L34.7,120.5z M41.1,116.8c0.2-1.3,1.5-2.2,2.8-2c1,0.2,1.8,1,2,2H41.1z
	 M50.5,116.8c0.2-1.3,1.5-2.2,2.8-2c1,0.2,1.8,1,2,2H50.5z"/>
<path d="M68.3,114.7c-0.8-1.2-2.2-1.9-3.7-1.9c-2.7,0-4.8,2-4.8,4.9s2,4.9,4.8,4.9c1.5,0.1,2.9-0.7,3.7-2v1.9h1.2V109h-1.3
	L68.3,114.7z M64.7,121.4c-2,0-3.6-1.5-3.6-3.7s1.5-3.7,3.6-3.7s3.6,1.5,3.6,3.7S66.8,121.4,64.7,121.4z"/>
<path d="M87.2,113.9c1.1,0,2.2,0.5,2.8,1.4l1-0.7c-0.8-1.3-2.1-1.9-3.8-1.9c-2.9,0-4.9,2-4.9,4.9s2.1,4.9,4.9,4.9
	c1.6,0,3-0.7,3.8-1.9l-1-0.7c-0.6,0.9-1.7,1.4-2.8,1.4c-2.1,0-3.6-1.5-3.6-3.7C83.6,115.4,85.1,113.9,87.2,113.9z"/>
<path d="M96.8,112.8c-2.7,0-4.9,2.2-4.9,4.9c0,2.7,2.2,4.9,4.9,4.9c2.7,0,4.9-2.2,4.9-4.9l0,0c0.1-2.6-2-4.8-4.6-4.9
	C97.1,112.8,97,112.8,96.8,112.8z M96.8,121.4c-2,0-3.6-1.5-3.6-3.7s1.5-3.7,3.6-3.7s3.6,1.5,3.6,3.7S98.9,121.4,96.8,121.4
	L96.8,121.4z"/>
<path d="M105,114.7v-1.9h-1.2v9.6h1.3v-4.9c0-2.3,1.2-3.5,3.2-3.5c0.1,0,0.2,0,0.3,0v-1.2C106.8,112.8,105.6,113.4,105,114.7z"/>
<path d="M76.3,112.8c-2.7,0-4.7,2-4.7,4.9s2,4.9,5,4.9c1.3,0,2.5-0.4,3.4-1.3l-0.8-0.8c-0.7,0.6-1.7,0.9-2.6,0.9
	c-2.1,0-3.7-1.3-3.8-3.3h8c0-0.1,0-0.3,0-0.4C81,114.8,79,112.8,76.3,112.8z M72.9,117.1c0.1-1.9,1.7-3.3,3.6-3.2
	c1.7,0.1,3.1,1.5,3.2,3.2H72.9z"/>
<path d="M17.6,113.2v9.2H15v-1.1c-0.8,0.9-1.9,1.3-3,1.2c-2.7,0-4.8-1.9-4.8-4.9s2.1-4.9,4.8-4.9c1.1-0.1,2.1,0.4,2.9,1.1v-0.7
	L17.6,113.2z M14.9,117.6c0-1.7-1.1-2.7-2.4-2.7s-2.5,1-2.5,2.7s1.1,2.7,2.5,2.7S14.9,119.3,14.9,117.6L14.9,117.6z"/>
<rect x="8.6" y="11.9" class="st0" width="98.1" height="89"/>
<path d="M105.3,13.2v86.3H10V13.2H105.3 M108.1,10.5H7.2v91.7H108L108.1,10.5L108.1,10.5z"/>
<path d="M81,38.9v7.8c-9.8-11.1-26.7-12.1-37.7-2.3C32.2,54.3,31.2,71.2,41,82.2s26.7,12.1,37.7,2.3c0.8-0.7,1.6-1.5,2.3-2.3v7.8
	h13.5V38.9H81z M61.8,83.7h-1.1V45.3h1.1c10.6,0,19.2,8.6,19.2,19.2C81,75.1,72.4,83.7,61.8,83.7z"/>
</svg>
