<svg id="Layer_1" data-name="Layer 1" xmlns="http://www.w3.org/2000/svg" viewBox="0 0 115.72 133.02"><defs><style>.cls-1{fill:#fff;}.cls-2{fill:#010101;}</style></defs><rect class="cls-1" width="115.72" height="133.02"/><path class="cls-2" d="M344.94,367.15v86.3H249.53v-86.3h95.41m2.71-2.71H246.82v91.72H347.65V364.44Z" transform="translate(-239.67 -353.96)"/><path class="cls-2" d="M320.59,392.87v7.83a26.75,26.75,0,1,0,0,35.47V444h13.53V392.87Zm-19.18,44.76h-1.06V399.24h1.06a19.2,19.2,0,1,1,0,38.39Z" transform="translate(-239.67 -353.96)"/><path class="cls-2" d="M292.48,466.63a4.93,4.93,0,0,0-4.78,3.11,4.74,4.74,0,0,0-4.68-3.11,4.88,4.88,0,0,0-5.11,4.93v0c-1.58-1.35-5-.71-5-2,0-.5.53-.89,1.78-.89a5.51,5.51,0,0,1,2.53.6,5.67,5.67,0,0,1,1.16-1.86,7.82,7.82,0,0,0-3.69-.84,6.63,6.63,0,0,0-2.27.36h-4.32v-2.34h-2.78V467h-.78c-1.36,0-2.42.17-3.07,1.05v-.91h-2.65v9.22h2.78v-4.52c0-1.83,1-2.71,2.53-2.71h1.19v3.94c0,2.28,1.32,3.44,3.58,3.44A4.09,4.09,0,0,0,271,476a9.49,9.49,0,0,0,3.13.54c2.49,0,4.06-1,4.43-2.38a5.36,5.36,0,0,0,4.77,2.38,5.22,5.22,0,0,0,3.6-1.19l-1.52-1.64a3.28,3.28,0,0,1-2,.6,2.55,2.55,0,0,1-2.74-1.92h6.73c.36,2.44,2.4,4.15,5.4,4.15a5.27,5.27,0,0,0,3.61-1.2l-1.52-1.64a3.25,3.25,0,0,1-2,.61,2.55,2.55,0,0,1-2.74-1.92h7.25c0-.23,0-.54,0-.75A4.74,4.74,0,0,0,292.48,466.63Zm-18.21,7.77a6.61,6.61,0,0,1-3.33-.93,2,2,0,0,1-1.66.82,1.12,1.12,0,0,1-1.19-1.27v-3.9h2.22a3.08,3.08,0,0,0-.06.61c0,3.83,5.79,2.22,5.79,3.79C276,474.06,275.55,474.4,274.27,474.4Zm6.4-3.67a2.27,2.27,0,0,1,2.37-2,2.29,2.29,0,0,1,2.35,2Zm9.45,0a2.39,2.39,0,0,1,4.72,0Z" transform="translate(-239.67 -353.96)"/><path class="cls-2" d="M307.92,468.58a4.19,4.19,0,0,0-3.66-1.9,4.89,4.89,0,0,0,0,9.77,4.18,4.18,0,0,0,3.71-2v1.89h1.24V462.81h-1.29Zm-3.55,6.72a3.75,3.75,0,1,1,3.56-3.75A3.52,3.52,0,0,1,304.37,475.3Z" transform="translate(-239.67 -353.96)"/><path class="cls-2" d="M326.85,467.81a3.27,3.27,0,0,1,2.79,1.42l1-.65a4.19,4.19,0,0,0-3.76-1.9,4.89,4.89,0,1,0,0,9.77,4.23,4.23,0,0,0,3.76-1.9l-1-.66a3.24,3.24,0,0,1-2.79,1.41,3.75,3.75,0,0,1,0-7.49Z" transform="translate(-239.67 -353.96)"/><path class="cls-2" d="M336.55,466.68a4.89,4.89,0,1,0,4.87,4.87A4.73,4.73,0,0,0,336.55,466.68Zm0,8.62a3.75,3.75,0,1,1,3.56-3.75A3.52,3.52,0,0,1,336.55,475.3Z" transform="translate(-239.67 -353.96)"/><path class="cls-2" d="M344.7,468.63v-1.88h-1.24v9.6h1.29v-4.89c0-2.26,1.22-3.54,3.23-3.54l.31,0v-1.26A3.6,3.6,0,0,0,344.7,468.63Z" transform="translate(-239.67 -353.96)"/><path class="cls-2" d="M316,466.68a4.62,4.62,0,0,0-4.69,4.87,4.76,4.76,0,0,0,5,4.9,4.82,4.82,0,0,0,3.4-1.26l-.76-.82a3.91,3.91,0,0,1-2.61.93,3.56,3.56,0,0,1-3.78-3.35h8c0-.14,0-.29,0-.4A4.58,4.58,0,0,0,316,466.68Zm-3.4,4.31a3.41,3.41,0,0,1,6.81,0Z" transform="translate(-239.67 -353.96)"/><path class="cls-2" d="M257.2,467.13v9.22h-2.65v-1.1a3.69,3.69,0,0,1-3,1.25,4.94,4.94,0,0,1,0-9.87,3.65,3.65,0,0,1,2.86,1.16v-.66Zm-2.72,4.43a2.46,2.46,0,1,0-2.44,2.66A2.43,2.43,0,0,0,254.48,471.56Z" transform="translate(-239.67 -353.96)"/></svg>