<?xml version="1.0" encoding="utf-8"?>
<!-- Generator: Adobe Illustrator 25.0.1, SVG Export Plug-In . SVG Version: 6.00 Build 0)  -->
<svg version="1.1" id="Layer_1" xmlns="http://www.w3.org/2000/svg" xmlns:xlink="http://www.w3.org/1999/xlink" x="0px" y="0px"
	 viewBox="0 0 135 117" style="enable-background:new 0 0 135 117;" xml:space="preserve">
<style type="text/css">
	.st0{fill:#0C7F96;}
</style>
<g>
	<g>
		<g>
			<path class="st0" d="M49.9,71.7V90h-3.3V78.8c0-0.2,0-0.5,0-0.8c0-0.3,0-0.5,0.1-0.8l-5.2,9.9c-0.3,0.5-0.7,0.8-1.3,0.8h-0.5
				c-0.3,0-0.6-0.1-0.8-0.2c-0.2-0.1-0.4-0.3-0.5-0.6l-5.3-10c0,0.3,0,0.6,0.1,0.9c0,0.3,0,0.5,0,0.8V90h-3.3V71.7h2.9
				c0.2,0,0.3,0,0.4,0c0.1,0,0.2,0,0.3,0.1c0.1,0,0.2,0.1,0.3,0.2c0.1,0.1,0.2,0.2,0.2,0.3l5.1,9.8c0.2,0.3,0.3,0.6,0.4,0.9
				c0.1,0.3,0.3,0.6,0.4,1c0.1-0.3,0.3-0.7,0.4-1c0.1-0.3,0.3-0.6,0.4-0.9l5.1-9.7c0.1-0.1,0.2-0.3,0.2-0.3c0.1-0.1,0.2-0.1,0.3-0.2
				c0.1,0,0.2-0.1,0.3-0.1c0.1,0,0.3,0,0.4,0H49.9z"/>
			<path class="st0" d="M71.6,80.9c0,1.3-0.2,2.6-0.7,3.7c-0.5,1.1-1.1,2.1-1.9,3c-0.8,0.8-1.8,1.5-3,2c-1.2,0.5-2.4,0.7-3.8,0.7
				c-1.4,0-2.7-0.2-3.8-0.7c-1.2-0.5-2.1-1.1-3-2c-0.8-0.8-1.5-1.8-1.9-3c-0.5-1.1-0.7-2.4-0.7-3.7c0-1.3,0.2-2.6,0.7-3.7
				c0.5-1.1,1.1-2.1,1.9-3c0.8-0.8,1.8-1.5,3-2c1.2-0.5,2.4-0.7,3.8-0.7c1.4,0,2.7,0.2,3.8,0.7c1.2,0.5,2.1,1.1,3,2
				c0.8,0.8,1.5,1.8,1.9,3C71.4,78.3,71.6,79.5,71.6,80.9z M67.7,80.9c0-1-0.1-1.8-0.4-2.6c-0.3-0.8-0.6-1.4-1.1-1.9
				c-0.5-0.5-1.1-0.9-1.7-1.2c-0.7-0.3-1.4-0.4-2.3-0.4c-0.9,0-1.6,0.1-2.3,0.4c-0.7,0.3-1.3,0.7-1.7,1.2c-0.5,0.5-0.8,1.2-1.1,1.9
				c-0.3,0.8-0.4,1.6-0.4,2.6c0,1,0.1,1.8,0.4,2.6c0.3,0.8,0.6,1.4,1.1,1.9c0.5,0.5,1.1,0.9,1.7,1.2c0.7,0.3,1.5,0.4,2.3,0.4
				c0.9,0,1.6-0.1,2.3-0.4c0.7-0.3,1.3-0.7,1.7-1.2c0.5-0.5,0.8-1.2,1.1-1.9C67.6,82.7,67.7,81.8,67.7,80.9z"/>
			<path class="st0" d="M86.6,74.8h-5.4V90h-3.8V74.8h-5.4v-3.1h14.5V74.8z"/>
			<path class="st0" d="M93.9,90h-3.8V71.7h3.8V90z"/>
			<path class="st0" d="M115,71.7L107.7,90h-3.4l-7.4-18.3h3.1c0.3,0,0.6,0.1,0.8,0.2s0.4,0.4,0.5,0.6l4,10.6
				c0.2,0.4,0.3,0.8,0.4,1.3c0.1,0.5,0.3,1,0.4,1.5c0.1-0.5,0.2-1,0.4-1.5c0.1-0.5,0.3-0.9,0.4-1.3l3.9-10.6
				c0.1-0.2,0.2-0.4,0.4-0.6c0.2-0.2,0.5-0.3,0.8-0.3H115z"/>
			<path class="st0" d="M125.3,80.5c1.1,0.4,1.9,0.9,2.4,1.7c0.5,0.7,0.8,1.6,0.8,2.7c0,0.8-0.2,1.6-0.5,2.2
				c-0.3,0.7-0.7,1.2-1.3,1.7c-0.6,0.5-1.2,0.8-2,1.1c-0.8,0.3-1.7,0.4-2.6,0.4c-1,0-1.8-0.1-2.6-0.4c-0.8-0.3-1.5-0.6-2-1.1
				c-0.6-0.5-1-1-1.3-1.7c-0.3-0.7-0.5-1.4-0.5-2.2c0-1,0.3-1.9,0.8-2.7c0.5-0.7,1.3-1.3,2.4-1.7c-0.9-0.4-1.5-0.9-1.9-1.6
				c-0.4-0.7-0.6-1.5-0.6-2.4c0-0.7,0.1-1.4,0.4-2c0.3-0.6,0.7-1.1,1.2-1.6c0.5-0.4,1.1-0.8,1.8-1c0.7-0.3,1.5-0.4,2.3-0.4
				c0.8,0,1.6,0.1,2.3,0.4c0.7,0.3,1.3,0.6,1.8,1c0.5,0.4,0.9,1,1.2,1.6c0.3,0.6,0.4,1.3,0.4,2c0,0.9-0.2,1.8-0.6,2.4
				C126.8,79.6,126.1,80.1,125.3,80.5z M122,87.6c0.5,0,0.9-0.1,1.3-0.2c0.4-0.1,0.7-0.3,0.9-0.6c0.2-0.2,0.4-0.5,0.5-0.9
				c0.1-0.3,0.2-0.7,0.2-1.1c0-0.9-0.2-1.6-0.7-2.1c-0.5-0.5-1.2-0.8-2.2-0.8c-1,0-1.7,0.3-2.2,0.8c-0.5,0.5-0.7,1.2-0.7,2.1
				c0,0.4,0.1,0.8,0.2,1.1c0.1,0.3,0.3,0.6,0.5,0.9c0.2,0.2,0.5,0.4,0.9,0.6C121.1,87.5,121.5,87.6,122,87.6z M122,74.1
				c-0.4,0-0.8,0.1-1.1,0.2c-0.3,0.1-0.6,0.3-0.8,0.5s-0.3,0.5-0.4,0.8c-0.1,0.3-0.1,0.6-0.1,0.9c0,0.3,0,0.7,0.1,1
				c0.1,0.3,0.2,0.6,0.4,0.9s0.4,0.5,0.7,0.6c0.3,0.2,0.7,0.2,1.2,0.2s0.9-0.1,1.2-0.2c0.3-0.2,0.6-0.4,0.7-0.6
				c0.2-0.3,0.3-0.5,0.4-0.9c0.1-0.3,0.1-0.7,0.1-1c0-0.3,0-0.6-0.1-0.9c-0.1-0.3-0.2-0.6-0.4-0.8c-0.2-0.2-0.5-0.4-0.8-0.5
				S122.4,74.1,122,74.1z"/>
			<path class="st0" d="M3.8,101.4v5.1h6.6v3H3.8v7.3H0V98.5h11.7v3H3.8z"/>
			<path class="st0" d="M32.4,107.6c0,1.3-0.2,2.6-0.7,3.7c-0.5,1.1-1.1,2.1-1.9,3c-0.8,0.8-1.8,1.5-3,2c-1.2,0.5-2.4,0.7-3.8,0.7
				c-1.4,0-2.7-0.2-3.8-0.7c-1.2-0.5-2.1-1.1-3-2c-0.8-0.8-1.5-1.8-1.9-3c-0.5-1.1-0.7-2.4-0.7-3.7c0-1.3,0.2-2.6,0.7-3.7
				c0.5-1.1,1.1-2.1,1.9-3c0.8-0.8,1.8-1.5,3-2c1.2-0.5,2.4-0.7,3.8-0.7c1.4,0,2.7,0.2,3.8,0.7c1.2,0.5,2.1,1.1,3,2
				c0.8,0.8,1.5,1.8,1.9,3C32.2,105.1,32.4,106.3,32.4,107.6z M28.6,107.6c0-1-0.1-1.8-0.4-2.6c-0.3-0.8-0.6-1.4-1.1-1.9
				c-0.5-0.5-1.1-0.9-1.7-1.2c-0.7-0.3-1.4-0.4-2.3-0.4c-0.9,0-1.6,0.1-2.3,0.4c-0.7,0.3-1.3,0.7-1.7,1.2c-0.5,0.5-0.8,1.2-1.1,1.9
				c-0.3,0.8-0.4,1.6-0.4,2.6c0,1,0.1,1.8,0.4,2.6c0.3,0.8,0.6,1.4,1.1,1.9c0.5,0.5,1.1,0.9,1.7,1.2c0.7,0.3,1.5,0.4,2.3,0.4
				c0.9,0,1.6-0.1,2.3-0.4c0.7-0.3,1.3-0.7,1.7-1.2c0.5-0.5,0.8-1.2,1.1-1.9C28.4,109.5,28.6,108.6,28.6,107.6z"/>
			<path class="st0" d="M50.3,116.8h-3.4c-0.6,0-1.1-0.2-1.4-0.7l-3.5-5.6c-0.1-0.2-0.3-0.4-0.5-0.5c-0.2-0.1-0.4-0.2-0.8-0.2h-1.3
				v7h-3.8V98.5h5.8c1.3,0,2.4,0.1,3.3,0.4c0.9,0.3,1.7,0.6,2.2,1.1s1,1,1.3,1.7c0.3,0.7,0.4,1.4,0.4,2.2c0,0.6-0.1,1.2-0.3,1.7
				c-0.2,0.5-0.4,1-0.8,1.5c-0.3,0.4-0.7,0.8-1.2,1.2s-1,0.6-1.6,0.8c0.2,0.1,0.5,0.3,0.7,0.5c0.2,0.2,0.4,0.4,0.6,0.7L50.3,116.8z
				 M41.5,107.2c0.6,0,1.1-0.1,1.6-0.2c0.4-0.2,0.8-0.4,1.1-0.6c0.3-0.3,0.5-0.6,0.6-1c0.1-0.4,0.2-0.8,0.2-1.2c0-0.9-0.3-1.5-0.9-2
				c-0.6-0.5-1.5-0.7-2.6-0.7h-2v5.8H41.5z"/>
			<path class="st0" d="M76.9,98.5l-5.7,18.3h-3.4l-3.7-12c-0.1-0.2-0.1-0.4-0.2-0.6c-0.1-0.2-0.1-0.4-0.2-0.6
				c-0.1,0.2-0.1,0.4-0.2,0.6c-0.1,0.2-0.1,0.4-0.2,0.6l-3.8,12h-3.4l-5.7-18.3h3.2c0.3,0,0.6,0.1,0.8,0.2c0.2,0.2,0.4,0.4,0.4,0.6
				l2.8,10.3c0.1,0.3,0.1,0.6,0.2,0.9c0.1,0.3,0.1,0.7,0.2,1.1c0.1-0.4,0.2-0.7,0.2-1.1c0.1-0.3,0.2-0.6,0.3-0.9L62,99.3
				c0.1-0.2,0.2-0.4,0.4-0.6c0.2-0.2,0.5-0.3,0.8-0.3h1.1c0.3,0,0.6,0.1,0.8,0.2c0.2,0.2,0.4,0.4,0.5,0.6l3.3,10.3
				c0.1,0.3,0.2,0.6,0.3,0.9c0.1,0.3,0.2,0.7,0.2,1c0.1-0.4,0.1-0.7,0.2-1c0.1-0.3,0.1-0.6,0.2-0.9l2.8-10.3
				c0.1-0.2,0.2-0.4,0.4-0.6c0.2-0.2,0.5-0.3,0.8-0.3H76.9z"/>
			<path class="st0" d="M94,116.8h-2.9c-0.3,0-0.6-0.1-0.8-0.2c-0.2-0.2-0.4-0.4-0.5-0.6l-1.2-3.5h-7.3L80,116
				c-0.1,0.2-0.2,0.4-0.4,0.6c-0.2,0.2-0.5,0.3-0.8,0.3h-3L83,98.5h3.9L94,116.8z M87.7,109.8l-2-5.6c-0.1-0.3-0.2-0.6-0.4-1
				c-0.1-0.4-0.3-0.8-0.4-1.3c-0.1,0.5-0.2,0.9-0.4,1.3c-0.1,0.4-0.3,0.7-0.4,1l-2,5.6H87.7z"/>
			<path class="st0" d="M110.9,116.8h-3.4c-0.6,0-1.1-0.2-1.4-0.7l-3.5-5.6c-0.1-0.2-0.3-0.4-0.5-0.5c-0.2-0.1-0.4-0.2-0.8-0.2h-1.3
				v7h-3.8V98.5h5.8c1.3,0,2.4,0.1,3.3,0.4c0.9,0.3,1.7,0.6,2.2,1.1s1,1,1.3,1.7c0.3,0.7,0.4,1.4,0.4,2.2c0,0.6-0.1,1.2-0.3,1.7
				c-0.2,0.5-0.4,1-0.8,1.5c-0.3,0.4-0.7,0.8-1.2,1.2s-1,0.6-1.6,0.8c0.2,0.1,0.5,0.3,0.7,0.5c0.2,0.2,0.4,0.4,0.6,0.7L110.9,116.8z
				 M102.1,107.2c0.6,0,1.1-0.1,1.6-0.2c0.4-0.2,0.8-0.4,1.1-0.6c0.3-0.3,0.5-0.6,0.6-1c0.1-0.4,0.2-0.8,0.2-1.2
				c0-0.9-0.3-1.5-0.9-2c-0.6-0.5-1.5-0.7-2.6-0.7h-2v5.8H102.1z"/>
			<path class="st0" d="M129.4,107.6c0,1.3-0.2,2.6-0.7,3.7c-0.5,1.1-1.1,2.1-1.9,2.9c-0.8,0.8-1.8,1.4-3,1.9
				c-1.2,0.5-2.4,0.7-3.8,0.7h-7V98.5h7c1.4,0,2.7,0.2,3.8,0.7c1.2,0.5,2.1,1.1,3,1.9s1.5,1.8,1.9,2.9
				C129.2,105.1,129.4,106.3,129.4,107.6z M125.5,107.6c0-1-0.1-1.8-0.4-2.6c-0.3-0.8-0.6-1.4-1.1-1.9c-0.5-0.5-1-0.9-1.7-1.2
				c-0.7-0.3-1.4-0.4-2.3-0.4h-3.2v12.4h3.2c0.9,0,1.6-0.1,2.3-0.4c0.7-0.3,1.3-0.7,1.7-1.2c0.5-0.5,0.8-1.2,1.1-2
				C125.4,109.5,125.5,108.6,125.5,107.6z"/>
		</g>
	</g>
	<g>
		<path d="M98.3,0.2C91.6,1,86.9,7.1,87.8,13.8c0.7,5.5,5,9.7,10.3,10.5c-4.5,1.9-5.5,6.4-5.3,10.2c0.1,1.6,0.2,3.4,0.4,5.3l5.8,4.7
			l7.5-13.1l2.9,1.7L100,49.6l-6.1-4.9c0.4,2.3,0.8,4.7,1.2,6.8c0,0,0.4,1.7,0.7,3.5h-6.7c1.4,1.7,3,2.9,5,3.3
			c0.9,0.2,1.7,0.2,2.4,0.3c0,0,0,0,0,0.1c-1.2,1-2.1,2.3-2.6,3.7h18.1c-1.1-3.4-4.7-6-9-6c-0.1,0-0.2,0-0.3,0
			c4.7-5.4,10.7-14.1,9.9-23.6c-0.3-3.5-2.3-8.3-7.7-9.2c10.5-3.1,21.7-12.8,24.4-15C125.9,6.7,109.6-1.3,98.3,0.2z M100.9,20.9
			c-4.8,0.6-9.2-2.8-9.8-7.6c-0.6-4.8,2.8-9.2,7.6-9.8c4.8-0.6,9.2,2.8,9.8,7.6C109.1,15.9,105.7,20.3,100.9,20.9z"/>
		<path d="M99.2,7.7c-2.5,0.3-4.3,2.6-3.9,5.1c0.3,2.5,2.6,4.3,5.1,3.9c2.5-0.3,4.3-2.6,3.9-5.1C104,9.1,101.7,7.4,99.2,7.7z
			 M98.4,12.3c-0.7,0.1-1.3-0.4-1.4-1.1c-0.1-0.7,0.4-1.3,1.1-1.4c0.7-0.1,1.3,0.4,1.4,1.1C99.5,11.6,99.1,12.2,98.4,12.3z"/>
		<polygon points="129.4,5.5 129.8,11.7 135,8.2 		"/>
	</g>
</g>
</svg>
