<?xml version="1.0" encoding="utf-8"?>
<!-- Generator: Adobe Illustrator 25.0.1, SVG Export Plug-In . SVG Version: 6.00 Build 0)  -->
<svg version="1.1" xmlns="http://www.w3.org/2000/svg" xmlns:xlink="http://www.w3.org/1999/xlink" x="0px" y="0px"
	 viewBox="0 0 28 39" style="enable-background:new 0 0 28 39;" xml:space="preserve">
<style type="text/css">
	.st0{fill-rule:evenodd;clip-rule:evenodd;}
</style>
<g id="Layer_1">
	<g id="Layer_1_1_">
	</g>
	<g id="texture">
	</g>
</g>
<g id="texture_1_">
</g>
<g id="b_x26_w">
	<polygon class="st0" points="5,25.3 5,25.3 5,25.3 5,25.3 	"/>
	<g>
		<path d="M7.7,31.4c0-0.1-0.1-0.1-0.1-0.1c-0.1,0-0.3,0-0.4,0c-0.3,0-0.5,0-0.8,0.1c-0.1,0-0.1,0.1-0.1,0.1c0,0.1,0.1,0.1,0.2,0.1
			c0.4-0.1,0.8-0.1,1.2-0.1C7.6,31.5,7.6,31.4,7.7,31.4z"/>
		<path d="M8.7,33.2c0.1,0,0.1-0.1,0.1-0.2c-0.1-0.1-0.1-0.1-0.2,0c-0.4,0.3-0.8,0.5-1.2,0.7c-0.1,0-0.1,0.1-0.2,0.1
			c0,0-0.1,0.1,0,0.1c0,0,0.1,0.1,0.1,0.1c0,0,0.1,0,0.1,0c0.3-0.1,0.6-0.3,0.8-0.4C8.3,33.4,8.5,33.3,8.7,33.2z"/>
		<path d="M9.2,34c0.4,0.1,0.8,0.2,1.2,0.2c0,0,0.1,0,0.1,0c0.1,0,0.2,0,0.2-0.1c0-0.1-0.1-0.2-0.1-0.2c-0.4,0-0.9-0.1-1.3-0.2
			c-0.1,0-0.1,0-0.2,0.1C9,34,9.1,34,9.2,34z"/>
		<polygon points="20.1,33.2 20.1,33.2 20.1,33.2 20.1,33.2 20.1,33.2 		"/>
		<path d="M20.3,32.8c0.1-0.5,0.2-1.1,0.4-1.6c0-0.1,0-0.1-0.1-0.2c-0.1,0-0.1,0-0.2,0.1c0,0.1,0,0.1,0,0.2
			c-0.1,0.5-0.2,1.1-0.4,1.6c0,0.1,0,0.1,0.1,0.2C20.3,33.2,20.3,33,20.3,32.8z"/>
		<path d="M21.1,31.3c-0.1,0-0.1,0-0.2,0c0,0,0,0.1-0.1,0.1c-0.1,0.3-0.1,0.5-0.2,0.8c-0.1,0.3-0.1,0.6-0.2,0.9c0,0.1,0,0.1,0.1,0.1
			c0.1,0,0.1,0,0.1-0.1c0,0,0-0.1,0-0.1c0.1-0.6,0.2-1.2,0.4-1.7C21.2,31.4,21.2,31.3,21.1,31.3z"/>
		<path d="M16.7,30.4c-0.1,0-0.2,0-0.2,0c0,0.1,0,0.1,0.1,0.2c0.5,0.2,0.9,0.5,1.3,0.8c0.1,0,0.1,0.1,0.2,0.1c0,0,0.1,0,0.1-0.1
			c0-0.1,0-0.1-0.1-0.2c-0.2-0.1-0.4-0.3-0.6-0.4C17.2,30.6,17,30.5,16.7,30.4z"/>
		<path d="M21.4,31.1C21.4,31.1,21.5,31.1,21.4,31.1c0.1-0.1,0.1-0.1,0.1-0.2c-0.1-0.1-0.1-0.1-0.2-0.1c-0.4-0.1-0.8-0.1-1.1-0.3
			c-0.1,0-0.1,0-0.1,0.1c0,0.1,0,0.1,0,0.1c0.1,0,0.1,0.1,0.2,0.1c0.3,0.1,0.6,0.1,0.9,0.2C21.2,31,21.3,31.1,21.4,31.1z"/>
		<path d="M14.1,32.7c0-0.1,0-0.2-0.1-0.2c-0.1,0-0.1,0-0.2,0.1c-0.1,0.1-0.1,0.3-0.2,0.4c0.1-0.2,0.1-0.3,0.2-0.5
			c0-0.1,0.1-0.2,0-0.2c-0.1,0-0.1,0-0.2,0.1c-0.2,0.4-0.3,0.9-0.5,1.3c-0.1,0.2,0.2,0.2,0.2,0.3c0,0,0.1,0.1,0.1,0c0,0,0,0,0.1-0.1
			C13.8,33.5,14,33.1,14.1,32.7z"/>
		<path d="M14.2,33.6c0,0.1,0,0.1,0.1,0.1c0.5,0.1,1,0.3,1.4,0.5c0.1,0,0.2,0.1,0.2-0.1c0-0.1-0.1-0.1-0.1-0.2
			c-0.4-0.2-0.8-0.3-1.3-0.5c-0.1,0-0.1,0-0.2-0.1C14.2,33.5,14.2,33.5,14.2,33.6z"/>
		<path d="M19.7,14.8c0,0.1-0.1,0.1-0.1,0.2c-0.2,0.5-0.3,0.9-0.5,1.4c0,0.1,0,0.1,0,0.2c0.1,0,0.1,0,0.2,0c0.1-0.1,0.1-0.1,0.1-0.2
			c0-0.2,0.1-0.3,0.2-0.5c0.1,0.3,0.2,0.5,0.4,0.7c0.1,0.1,0.1,0.2,0.2,0.2c0.1-0.1,0-0.2,0-0.3c-0.1-0.2-0.2-0.3-0.3-0.5
			c0-0.1-0.1-0.2-0.2-0.1c0-0.1,0-0.1,0.1-0.2c0.1-0.2,0.2-0.4,0.2-0.6c0-0.1,0-0.1,0-0.2C19.8,14.6,19.8,14.7,19.7,14.8z"/>
		<path d="M13.9,2.5C14,2.4,14,2.4,14,2.3c-0.1-0.1-0.1-0.1-0.2,0c-0.1,0.1-0.3,0.2-0.4,0.2c-0.3,0.2-0.6,0.4-0.9,0.7
			c-0.1,0-0.1,0.1-0.1,0.2c0,0.1,0.1,0.1,0.1,0.1c0,0,0.1,0,0.1-0.1C13.1,3,13.5,2.7,13.9,2.5z"/>
		<path d="M10.9,14.2c0.4,0.3,0.8,0.6,1.3,0.8c0,0,0.1,0,0.1,0c0.1-0.1,0.2-0.1,0.3-0.1c0.4,0,0.9,0,1.3,0c0.1,0,0.1,0,0.1,0
			c0-0.1,0-0.1,0-0.2c-0.1-0.1-0.1-0.1-0.2-0.1c-0.4,0-0.8,0-1.2,0c0,0-0.1,0-0.1,0c-0.1,0.1-0.2,0-0.3,0c-0.4-0.2-0.8-0.4-1.1-0.7
			c-0.1-0.1-0.1-0.1-0.2,0C10.7,14,10.8,14.1,10.9,14.2C10.9,14.1,10.9,14.1,10.9,14.2z"/>
		<path d="M18,11.8c0.1-0.1,0.2-0.2,0.2-0.3c0-0.1,0-0.1,0-0.2c-0.1,0-0.1,0-0.2,0c0,0-0.1,0.1-0.1,0c-0.2-0.1-0.4-0.1-0.7-0.2
			c-0.2,0-0.4-0.1-0.6-0.1c-0.2,0-0.3-0.2-0.5-0.4c-0.1-0.1-0.1-0.1-0.2,0c-0.1,0.1,0,0.1,0,0.2c0.4,0.3,0.8,0.6,1.3,1
			c0.1,0.1,0.2,0.1,0.2,0c0.1-0.1,0-0.1-0.1-0.2c-0.1-0.1-0.2-0.2-0.3-0.2c0,0,0,0,0,0c0.2,0.1,0.5,0.1,0.8,0.2
			c-0.2,0.2-0.4,0.4-0.6,0.6c-0.1,0.1-0.2,0.2-0.3,0.3c0,0.1,0,0.1,0,0.2c0.1,0.1,0.1,0,0.2,0C17.4,12.4,17.7,12.1,18,11.8z"/>
		<path d="M16.9,12c-0.4-0.3-0.7-0.6-1.1-1c-0.1-0.1-0.1-0.1-0.2,0c-0.1,0.1,0,0.1,0,0.2c0,0,0.1,0.1,0.1,0.1c0.3,0.3,0.7,0.6,1,0.9
			c0,0,0.1,0,0.1,0c0.1,0,0.1,0,0.1-0.1C17,12.1,17,12,16.9,12z"/>
		<path d="M18.2,11.8c-0.2,0.3-0.5,0.6-0.8,0.9c-0.1,0.1-0.1,0.2-0.2,0.2c-0.1,0.1,0,0.2,0.1,0.2c0,0,0.1,0,0.1-0.1
			c0.2-0.3,0.5-0.6,0.8-0.9c0.1-0.1,0.1-0.1,0.2-0.2c0-0.1,0.1-0.1,0-0.2C18.3,11.7,18.2,11.7,18.2,11.8z"/>
		<path d="M11.9,15.7c0.1,0,0.2,0.1,0.2,0c0-0.1,0-0.2-0.1-0.2c-0.1-0.1-0.3-0.1-0.4-0.2c-0.2-0.2-0.5-0.3-0.7-0.4
			c-0.1,0-0.1-0.1-0.2,0c0,0-0.1,0.1-0.1,0.1c0,0.1,0,0.1,0.1,0.1C11.2,15.3,11.5,15.6,11.9,15.7z"/>
		<path d="M7.9,14.9c0.1,0,0.1,0,0.2-0.1c0.1-0.2,0.1-0.4,0.2-0.6c0.1-0.3,0.2-0.6,0.4-0.8c0-0.1,0-0.2,0-0.2c-0.1,0-0.1,0-0.2,0.1
			c-0.1,0.3-0.3,0.7-0.4,1c-0.1,0.2-0.1,0.3-0.1,0.5C7.9,14.9,7.9,14.9,7.9,14.9z"/>
		<path d="M9.7,16.6c0.1,0,0.1-0.1,0.1-0.1c0.1-0.3,0.1-0.6,0.2-0.9c0-0.1,0-0.2-0.1-0.2c-0.1,0-0.1,0-0.2,0.1
			c-0.1,0.3-0.2,0.6-0.3,1C9.6,16.6,9.6,16.6,9.7,16.6z"/>
		<path d="M9.2,16c0.1,0,0.1,0,0.2-0.1c0.1-0.2,0.2-0.4,0.2-0.6c0-0.1,0-0.1-0.1-0.1c-0.1,0-0.1,0-0.2,0.1c-0.1,0.2-0.1,0.4-0.2,0.5
			C9.1,15.9,9.1,16,9.2,16z"/>
		<path d="M25.4,31.2c-0.2-0.4-0.3-0.7-0.5-1.1c-0.4-1.1-0.8-2.1-1.2-3.2c-0.2-0.6-0.4-1.1-0.6-1.7c1.1-1,1-1.1,1.3-1.8
			c0.4-1.1,0.5-1.8,0.2-2.9c-0.2-0.8-1.1-1.5-1.8-1.8c-0.2-0.1-0.4-0.2-0.7-0.3c-0.1-0.6-0.1-1-0.2-1.5c-0.7-3-1.9-5.9-3.2-8.6
			c-0.7-1.4-1.5-2.8-2.2-4.2c0,0,0,0,0-0.1c0,0,0,0,0,0c-0.4-0.6-0.7-1.3-1.1-1.9c-0.5-0.7-1-1.6-1.9-2C12.7,0,12.3,0,11.8,0.5
			c-0.4,0.3-0.7,0.7-1.1,1C9.9,2.4,8.9,3,8.6,4.2c-0.2,0.7,0,1.2,0.7,1.4c0.3,0.1,0.6,0.1,0.9,0.2c0,0.2-0.1,0.3-0.1,0.4
			c-0.7,1.5-1.4,3-2.1,4.5c-1.1,2.4-2,4.9-2.5,7.4c-0.1,0.6-0.3,1.1-0.7,1.6c-0.6,0.8-1,1.6-0.9,2.6c0.1,1,0.2,2.1,0.9,2.9
			c0.2,0.3,0.2,0.5,0,0.8c-0.4,0.7-0.8,1.4-1.1,2.1c-0.2,0.5-0.5,1.1-0.6,1.6c0,0,0,0,0,0c-0.3,0.8-0.5,1.7-0.6,2.6
			c0,0.5,0.1,1,0.5,1.5c0.4,0.4,0.8,0.5,1.4,0.3c0,0,0.1,0,0.2,0c0.1,0.3,0.1,0.5,0.2,0.8c0.1,0.3,1.6,0.4,2.3,0.6
			c0,0.4,0,0.8,0.1,1.1c0.1,0.9,0.6,1.5,1.4,1.7c1.8,0.3,3.5,0.2,5.3,0.1c0.7,0,1.3-0.1,2-0.1c1.2,0.1,2.3,0.3,4.1,0.1
			c0.2,0,0.5-0.1,0.7-0.1c0.9-0.1,1.1-0.2,1.3-1.1c0.1-0.6,0.2-1.3,0.3-2c0.8,0.1,1.5-0.1,1.7-1.1c0.2,0,0.3,0,0.4-0.1
			C25.5,33.8,26.1,32.5,25.4,31.2z M24.5,31C24.5,31,24.5,31,24.5,31c-0.2,0-0.2,0.1-0.2,0.1c-0.1,0-0.1,0.1-0.2,0.1
			c0-0.1-0.1-0.1-0.2-0.1c-0.1,0-0.1,0.1-0.1,0.2c-0.1,0-0.2,0.1-0.2,0.1c0,0,0,0,0-0.1c0-0.1,0-0.1-0.1-0.1c-0.1,0-0.1,0-0.1,0.1
			c0,0.1-0.1,0-0.1,0c-0.1,0,0-0.1,0-0.1c0-0.1,0-0.2,0-0.3c0-0.1,0-0.1,0.1-0.1c0.2,0,0.3,0,0.5,0.1c0,0,0,0,0,0
			C24.2,30.9,24.3,30.9,24.5,31C24.5,31,24.5,31,24.5,31z M19.1,34.7c0.1-0.2,0.3-0.3,0.4-0.5c-0.1,0.2,0,0.3,0.2,0.5c0,0,0,0,0,0
			C19.5,34.6,19.3,34.6,19.1,34.7z M21,34.6c-0.4-0.5-0.8-0.9-1.3-1.2c-0.1,0-0.1-0.1-0.2-0.1c-0.1,0-0.2,0-0.2,0.1
			c0,0.1,0,0.1,0.1,0.2c0,0,0.1,0,0.1,0c0.5,0.3,0.9,0.6,1.2,1c-0.2,0-0.4,0-0.6,0c-0.1-0.1-0.2-0.2-0.3-0.4c0-0.1-0.1-0.1-0.2-0.1
			c0,0,0-0.1,0.1-0.1c0-0.1,0-0.1,0-0.2c-0.1,0-0.1,0-0.2,0c-0.1,0.1-0.1,0.1-0.2,0.2c-0.1,0.2-0.3,0.3-0.4,0.5c0,0-0.1,0.1-0.1,0.1
			c-0.1,0-0.3,0-0.4,0c0.3-0.3,0.5-0.6,0.9-0.8c0,0,0.1-0.1,0.1-0.1c0-0.1-0.1-0.1-0.2-0.1c-0.1,0.1-0.3,0.1-0.4,0.3
			c-0.2,0.3-0.5,0.5-0.7,0.8c-0.2,0-0.4,0-0.6,0c0-0.2,0-0.4,0-0.6c0-0.1,0-0.2,0.2-0.3c0,0,0.1-0.1,0.1,0c0,0.1,0.1,0.1,0,0.2
			c-0.1,0.1-0.2,0.1-0.2,0.2c0,0.1-0.1,0.2,0,0.2c0.1,0.1,0.1,0,0.2-0.1c0.1-0.2,0.4-0.3,0.6-0.4c0.2-0.1,0.3-0.2,0.5-0.3
			c0.1-0.1,0.2-0.1,0.1-0.2c-0.1-0.1-0.2-0.1-0.2,0c-0.1,0.1-0.1,0.1-0.2,0.1c-0.1,0,0-0.1,0-0.1c-0.1-0.2,0-0.2,0.1-0.3
			c0.1,0,0.1,0,0.1,0c0,0.1,0.1,0.1,0.1,0.1c0.1,0,0.1,0.1,0.2,0c0.1-0.1,0-0.1,0-0.2c0,0,0,0-0.1-0.1c-0.1-0.1-0.2-0.1,0-0.2
			c0.1,0,0.1-0.1,0-0.2c0-0.1-0.1-0.1-0.2,0c-0.1,0.1-0.2,0-0.2,0c0-0.1-0.1-0.1-0.1-0.2c0-0.1-0.1-0.1-0.1-0.2
			c0-0.1,0.2-0.1,0.3-0.1c0,0,0,0,0.1,0c0.2,0.3,0.5,0.6,0.7,1c0,0,0.1,0.1,0.1,0.1c0.6,0.2,1.1,0.6,1.5,1c0,0,0.1,0.1,0.1,0.1
			c0.1,0,0.1,0.1,0.2,0c0.1-0.1,0-0.1-0.1-0.2c-0.2-0.2-0.5-0.4-0.8-0.6c-0.2-0.1-0.3-0.2-0.5-0.3c-0.1,0-0.2-0.2-0.4-0.2
			c0,0-0.1-0.1,0-0.1c0.1,0,0.1-0.1,0.1-0.2c0.1-0.3,0.1-0.5,0.2-0.8c0,0,0-0.1,0.1-0.1c-0.1,0.3-0.1,0.5-0.2,0.8c0,0.1,0,0.1,0,0.2
			c0,0.1,0,0.2,0.1,0.2c0.1,0,0.1,0,0.1-0.1c0.1-0.5,0.2-1,0.3-1.4c0-0.1,0-0.2,0-0.2c0-0.1,0-0.1-0.1-0.1c-0.1,0-0.1,0-0.1,0.1
			c-0.1,0.1-0.1,0.2-0.1,0.3c0,0.1,0,0.1-0.1,0.1c0,0-0.1,0-0.1,0c-0.2,0.2-0.5,0.2-0.8,0.3c-0.1,0-0.1-0.1-0.2-0.1
			c0.3-0.1,0.6-0.1,0.8-0.2c0.1,0,0.2,0,0.2-0.1c0.1,0,0.1-0.1,0.1-0.1c0-0.1-0.1-0.1-0.2-0.1c-0.4,0.1-0.7,0.2-1.1,0.2
			c0,0-0.1,0-0.1,0c-0.1,0-0.1,0-0.1-0.1c0-0.1,0-0.1,0.1-0.1c0.2-0.1,0.5-0.1,0.7-0.2c0.1,0,0.2,0,0.2-0.1c0.1,0,0.1-0.1,0.1-0.1
			c0-0.1-0.1-0.1-0.2-0.1c-0.4,0.1-0.7,0.1-1.1,0.3c-0.1,0-0.1,0-0.2,0c0-0.1-0.1-0.1-0.2-0.1c-0.1,0.1,0,0.1,0,0.2
			c0.1,0.2,0.3,0.3,0.3,0.5c0,0.1,0.1,0.1,0.1,0.1c0,0,0.1,0.1,0.1,0.1c0,0-0.1,0-0.1,0.1c-0.1,0-0.2,0.1-0.2,0.1
			c-0.2,0.1-0.3,0-0.3-0.2c0-0.1,0-0.1-0.1-0.2c-0.4-0.3-0.8-0.5-1.2-0.7c-0.1,0-0.2,0-0.2,0.1c0,0.1,0,0.1,0.1,0.2
			c0.3,0.1,0.7,0.3,1,0.5c0,0,0,0,0,0.1c-0.3-0.1-0.5-0.3-0.8-0.4c-0.1,0-0.1-0.1-0.2-0.1c-0.1,0-0.1,0-0.2,0.1c0,0.1,0,0.1,0,0.1
			c0.1,0,0.1,0.1,0.1,0.1c-0.2,0.5-0.3,0.9-0.4,1.4c0,0.1,0,0.1-0.1,0.1c-0.1,0-0.1,0-0.2,0c-0.1,0-0.1,0-0.1-0.1
			c0.1-0.6,0.3-1.1,0.5-1.6c0-0.1,0-0.1,0-0.2c-0.1-0.4,0-0.7,0-1.1c0.3,0.1,0.6,0.1,0.8,0.2c0.2,0.1,0.5,0.3,0.7,0.4
			c0.1,0,0.2,0.1,0.2,0c0.1-0.1,0-0.2-0.1-0.2c-0.1-0.1-0.2-0.1-0.3-0.2c0.1,0,0.2,0,0.3,0c0.1,0.1,0.2,0.1,0.3,0.2
			c0.1,0,0.1,0.1,0,0.1c0,0-0.1,0.1,0,0.2c0,0.1,0.1,0.1,0.2,0c0.4-0.2,0.7-0.2,1.1-0.3c0.3,0,0.6,0,1,0.1c0.2,0.1,0.4,0,0.6,0
			c0.1,0,0.2,0,0.2-0.1c0-0.1-0.1-0.1-0.2-0.1c-0.4,0-0.8-0.1-1.2-0.2c-0.1,0-0.1,0-0.2,0c0-0.1,0.1-0.1,0.1-0.2c0,0,0.1,0,0.1,0
			c0.1,0.1,0.2,0.1,0.3,0.1c0.4,0,0.8,0.1,1.2,0.1c0.1,0,0.2,0,0.2,0.2c0,0.3,0,0.7,0,1c0,0,0,0.1,0,0.1c-0.2,0.6-0.5,1.1-0.6,1.7
			c0,0,0,0.1,0,0.1c0,0.1,0,0.2,0.1,0.2c0.1,0,0.1,0,0.2-0.1c0.1-0.2,0.2-0.5,0.2-0.7c0-0.1,0.1-0.2,0.2-0.1c0.4,0,0.6,0,0.9,0
			c0,0,0,0.1,0,0.1c0,0,0,0,0,0c0,0,0,0,0,0c-0.1,0-0.1,0-0.2,0c-0.3,0-0.5,0-0.8,0c-0.1,0-0.2,0-0.1,0.2c0,0.1,0.1,0.1,0.2,0.1
			c0.1,0,0.2,0,0.3,0c0.3,0,0.5,0,0.6,0c0,0,0,0.1,0,0.1c-0.2,0-0.4,0-0.7,0c-0.1,0-0.1,0-0.2,0c-0.1,0-0.1,0-0.1,0.1
			c0,0.1,0,0.1,0.1,0.1c0.1,0,0.1,0.1,0,0.1c-0.1,0.2-0.2,0.3-0.3,0.4c-0.1,0.1-0.1,0.1,0,0.2c0.1,0.1,0.2,0,0.2,0
			c0.1-0.2,0.3-0.4,0.4-0.6c0-0.1,0.1-0.1,0.1-0.1c0.1,0,0.3,0,0.4,0c0,0.1,0,0.1-0.1,0.1c-0.3,0.3-0.5,0.6-0.6,1
			c0,0.1-0.1,0.2-0.1,0.2c0,0,0,0,0,0C21.5,34.6,21.3,34.6,21,34.6C21,34.6,21,34.6,21,34.6z M17.2,34.7c0-0.2,0-0.4,0-0.6
			c0-0.2,0-0.3,0-0.5c0-0.1,0-0.2-0.2-0.2c-0.1,0-0.1,0.1-0.1,0.2c0,0.3,0,0.5,0,0.8c0-0.3-0.1-0.5-0.1-0.8c0-0.1,0-0.2-0.1-0.2
			c-0.1,0-0.1,0.1-0.1,0.2c0,0.3,0,0.7,0.1,1c-0.1,0-0.3,0-0.4,0c0-0.3,0-0.6,0-1c0-0.1,0-0.1-0.2-0.2c-0.3-0.1-0.7-0.2-1-0.4
			c0,0,0,0,0,0c0.4-0.1,0.8,0.1,1.1,0.2c0.1,0,0.1,0.1,0.2,0.1c0,0,0.1,0,0.1,0c0,0,0.1-0.1,0-0.1c-0.1-0.1,0-0.2,0-0.3
			c0-0.4,0.2-0.9,0.4-1.3c0-0.1,0-0.2,0.1-0.1c0.1,0,0.1,0.1,0.1,0.2c-0.1,0.3-0.1,0.6-0.2,1c0,0.1,0,0.2-0.1,0.3
			c0,0.1,0,0.1,0.1,0.2c0.1,0,0.1,0,0.2-0.1c0-0.1,0-0.2,0.1-0.3c0.1,0.1,0.2,0.3,0.3,0.4c-0.2,0-0.2,0.1-0.2,0.2c0,0.4,0,0.8,0,1.2
			C17.2,34.7,17.2,34.7,17.2,34.7z M13.8,34.7c-0.1,0-0.2-0.1-0.2,0c-0.2,0-0.4,0-0.6,0c0-0.3,0.1-0.6,0.1-0.9
			c0-0.2,0.1-0.4,0.2-0.6c0.1-0.4,0.4-0.8,0.5-1.2c0.3,0.3,0.6,0.5,0.9,0.8c0,0,0,0,0,0.1c0,0.2,0.1,0.2,0.2,0.2
			c0.1,0,0.2,0,0.2,0.2c0,0,0,0,0,0l0,0c-0.1,0-0.2-0.1-0.3-0.1c-0.1,0-0.2-0.1-0.3-0.1c-0.1,0-0.1,0-0.1,0.1c0,0.1,0,0.1,0.1,0.1
			c0.4,0.1,0.8,0.3,1.2,0.4c0.1,0,0.2,0,0.3,0.1c0,0.1,0,0.2,0,0.3c0,0.2,0,0.4,0,0.6c-0.2,0-0.4,0-0.5,0c-0.2-0.1-0.3-0.2-0.5-0.3
			c-0.3-0.2-0.7-0.4-1-0.5c0.2-0.3,0.3-0.7,0.5-1c0-0.1,0.1-0.1,0-0.2c-0.1-0.1-0.1-0.1-0.2,0c0,0-0.1,0.1-0.1,0.1
			c-0.2,0.4-0.4,0.8-0.6,1.2c0,0.1,0,0.1,0,0.2c0.1,0,0.1,0,0.2-0.1c0-0.1,0.1-0.1,0.1-0.2c0,0.1,0.1,0.1,0.2,0.2
			c0.3,0.1,0.6,0.3,0.9,0.5c-0.3,0-0.7,0-1,0C13.9,34.7,13.9,34.7,13.8,34.7z M12.5,33.4c-0.1,0-0.1,0.1-0.2,0.1c0,0,0,0,0,0
			c0,0.4-0.1,0.7-0.2,1.1c-0.1,0-0.3,0-0.4,0c0.1-0.4,0.3-0.8,0.4-1.2c0.1-0.2,0.2-0.2,0.3-0.2c0.1,0,0.1,0,0.2,0
			c0.1,0,0.2,0,0.2,0.2c0,0.2-0.1,0.4-0.1,0.6c0,0.2,0,0.4,0,0.6c0,0,0,0,0,0c-0.1,0-0.2,0-0.3,0c0.1-0.4,0.2-0.7,0.2-1.1
			C12.6,33.5,12.6,33.4,12.5,33.4z M11.5,33.4c-0.2-0.4-0.3-0.9-0.4-1.3c0.1,0.3,0.2,0.6,0.3,1C11.5,33.2,11.5,33.3,11.5,33.4
			c0.1,0.1,0.2,0.2,0.3,0.1c-0.1,0.4-0.3,0.8-0.4,1.2c-0.1,0-0.3,0-0.4,0c0.1-0.3,0.2-0.5,0.3-0.8c0,0,0-0.1,0.1-0.1
			C11.6,33.7,11.6,33.5,11.5,33.4z M8,30.6c0.1,0.1,0.2,0.2,0.2,0.3c0.1,0.4,0.1,0.8,0.1,1.2c0,0.1-0.3,0.3-0.4,0.3c0,0,0-0.1,0-0.1
			c0-0.5,0-0.9,0-1.4c0-0.2,0-0.2-0.2-0.2c0-0.1,0.1-0.2,0.2-0.3C7.9,30.2,8,30.1,8.1,30c0.1,0,0.1,0,0.2,0.1
			c-0.1,0.1-0.1,0.2-0.2,0.3C7.9,30.5,7.9,30.6,8,30.6z M6.5,32.2c0.2,0,0.3,0,0.5,0c0,0,0,0,0,0c-0.1,0.1,0,0.2-0.1,0.2
			c-0.1,0-0.3,0-0.5,0c-0.1,0-0.1-0.1-0.1-0.1c-0.1-0.4-0.3-0.7-0.4-1.1c0-0.1-0.1-0.2-0.2-0.1c0,0,0-0.1,0-0.1c0,0,0,0,0,0
			C5.9,30.9,6,31,6.2,31c0,0.1-0.1,0.1,0,0.2c0.1,0.1,0.1,0,0.2,0C6.7,31.1,7.1,31,7.5,31c0.1,0,0.2-0.1,0.2-0.2c0,0.1,0,0.1,0,0.2
			c0,0.3,0,0.6,0,0.8c0,0.1,0,0.1-0.1,0.1c-0.3,0-0.7,0-1,0c-0.1,0-0.2,0-0.2,0.1C6.3,32.2,6.4,32.2,6.5,32.2z M4.6,30.7
			C4.6,30.7,4.6,30.6,4.6,30.7c0.2,0,0.3,0,0.4,0c0,0.1-0.1,0.3-0.1,0.4c-0.1-0.1-0.1-0.2-0.3-0.3C4.5,30.9,4.6,30.8,4.6,30.7z
			 M4.5,29.8c0-0.1-0.2,0-0.1-0.3c0-0.2,0-0.5,0.1-0.4c0.1,0,0.2-0.1,0.2,0.3C4.6,29.5,4.6,29.8,4.5,29.8z M5.4,26.7
			c0,0-0.1,0-0.2-0.1c0,0,0,0,0,0c0,0,0,0-0.1-0.1c0,0,0,0,0,0c0,0,0,0,0,0c0,0,0.1,0.1,0.1,0.1C5.2,26.6,5.3,26.6,5.4,26.7
			C5.3,26.7,5.4,26.7,5.4,26.7C5.4,26.7,5.4,26.7,5.4,26.7c0,0,0-0.1-0.1-0.3c0.1,0,0.1,0,0.2,0c0,0.1,0.1,0.1,0.2,0.2
			c0,0,0.1,0.1,0.1,0.1c0,0,0,0,0,0c0,0,0,0.1-0.1,0.1c-0.2,0.2-0.4,0.4-0.6,0.6c0,0,0,0.1-0.1,0C5,27.3,4.9,27.1,4.9,27
			c0-0.1,0.1-0.1,0.1-0.2c0.1,0.1,0.2,0.1,0.3,0.2c0.1,0,0.1,0,0.2,0C5.5,26.8,5.4,26.7,5.4,26.7z M5.5,32.4
			C5.6,32.4,5.6,32.5,5.5,32.4c0.2,0.1,0.2,0.2,0.2,0.3c-0.1,0.2-0.1,0.4-0.2,0.7c0,0.1-0.1,0.3-0.1,0.4c0-0.1,0-0.2,0-0.3
			c0-0.2,0-0.4,0.1-0.5c0,0,0-0.1,0-0.1c0-0.1,0-0.1,0-0.1C5.5,32.6,5.5,32.5,5.5,32.4C5.5,32.4,5.5,32.4,5.5,32.4z M6,29.2
			C6,29.2,6,29.2,6,29.2C6,29.2,6,29.1,6,29.2C6,29.2,6,29.2,6,29.2z M6.2,28.5C6.2,28.5,6.1,28.5,6.2,28.5
			C6.2,28.5,6.2,28.6,6.2,28.5C6.1,28.5,6.1,28.5,6.2,28.5C6.1,28.4,6.1,28.5,6.2,28.5z M5.8,30.3C5.9,30.3,5.9,30.3,5.8,30.3
			c0.2,0,0.2,0,0.2-0.1c0-0.1,0-0.1-0.1-0.1c0,0-0.1,0-0.1,0c0-0.1,0-0.2,0-0.3c0,0,0,0,0,0c0.1,0,0.1,0,0.1,0.1c0,0,0,0.1,0,0.2
			c0,0,0,0.1,0.1,0.1c0,0,0.1,0,0.1,0c0-0.2,0.3,0,0.3-0.2c0-0.3-0.1-0.7-0.1-1c0.1,0.1,0.2,0.2,0.4,0.4c0,0,0,0.1,0,0.1
			c0,0.1,0,0.2,0.1,0.2c0,0,0.1,0,0.1,0c0.1,0,0.1-0.1,0.1-0.2c0,0,0.1,0,0.1,0.1c-0.1,0.2-0.3,0.4-0.4,0.6c0,0.1-0.1,0.1-0.1,0.1
			c-0.2,0-0.5,0.1-0.7,0.1c-0.1,0-0.2,0.1-0.1,0.2c0,0.1,0.1,0.1,0.2,0.1c0.3-0.1,0.5-0.1,0.8-0.1c0.1,0,0.2,0,0.2-0.2
			c0,0,0,0,0-0.1c0.1-0.2,0.2-0.4,0.3-0.5c0,0,0.1,0.1,0.1,0.1c-0.1,0.2-0.3,0.4-0.4,0.7c-0.1,0.1-0.1,0.1-0.3,0.2
			c-0.4,0.1-0.7,0.1-1.1,0C5.8,30.5,5.8,30.4,5.8,30.3z M7.4,30.5c0-0.1,0.1-0.2,0.1-0.3c0.1-0.1,0.2-0.2,0.2-0.4c0,0,0,0,0.1,0
			c-0.1,0.1-0.2,0.3-0.3,0.4C7.5,30.4,7.4,30.4,7.4,30.5C7.4,30.6,7.4,30.6,7.4,30.5C7.3,30.5,7.4,30.5,7.4,30.5z M5.3,29
			c0,0-0.1,0-0.1,0c-0.1,0-0.1,0-0.1-0.1c0-0.1,0-0.2,0.1-0.2c0.1,0,0.1,0,0.2,0C5.3,28.8,5.3,28.9,5.3,29z M5.2,29.6
			c0,0.1,0,0.2,0,0.2c0,0-0.1,0-0.1,0c-0.1,0-0.1,0-0.1-0.1c0-0.1,0-0.1,0.1-0.1C5.1,29.6,5.1,29.6,5.2,29.6z M4.9,30
			c0.1,0,0.1,0,0.2,0c0,0.1-0.1,0.3-0.1,0.4c0,0,0,0,0,0c-0.3-0.1-0.3-0.1-0.2-0.3C4.8,30,4.8,30,4.9,30z M5.8,34.4
			c-0.1-0.1-0.2-0.1-0.2-0.2c0,0,0-0.1,0-0.1c0-0.2,0.1-0.3,0.1-0.4c0.1-0.3,0.2-0.6,0.3-0.9c0-0.1,0.1-0.2,0-0.3
			c-0.2-0.1-0.2-0.3-0.2-0.4c0-0.1-0.1-0.2-0.1-0.2c0-0.2,0.1-0.4,0.1-0.6c0.1,0.3,0.2,0.6,0.3,0.9c0,0.1,0.1,0.1,0,0.2
			c0,0,0,0.1,0,0.1c0.1,0.1,0.1,0.2,0.1,0.3c-0.1,0.5-0.2,1-0.3,1.5c0,0,0,0,0,0C5.8,34.4,5.8,34.4,5.8,34.4z M7.2,32.4
			c-0.1,0,0-0.2-0.1-0.3c0.1,0,0.3,0,0.4,0c0.1,0,0.1,0,0.1,0.1c0,0.1,0,0.2-0.1,0.1c0,0,0,0-0.1,0C7.4,32.4,7.3,32.5,7.2,32.4z
			 M8.4,30.2C8.4,30.2,8.5,30.2,8.4,30.2c0.3,0.2,0.5,0.3,0.7,0.5C8.9,30.6,8.6,30.5,8.4,30.2C8.4,30.3,8.4,30.3,8.4,30.2z M9,30.3
			c0.2,0,0.4,0.1,0.5,0.1c0.1,0.1,0.1,0.1,0.2,0.2c-0.1,0.1-0.2,0.1-0.3,0C9.2,30.5,9.1,30.4,9,30.3z M9.5,31.3
			c0.2,0.1,0.2,0.1,0,0.4V31.3z M9.6,31c0-0.1,0-0.1,0.1-0.2c0.1,0,0.2-0.1,0.2-0.1c0.4,0,0.8,0,1.2,0C11.1,31,11.1,31,10.9,31
			c-0.4,0-0.7,0-1.1,0C9.7,31.1,9.6,31,9.6,31z M16.2,31.3c0,0,0,0.1,0,0.1c-0.2,0.5-0.4,0.9-0.4,1.5c0,0.1,0,0.1-0.1,0.1
			c-0.2-0.1-0.3-0.1-0.2-0.3c0-0.3,0-0.5,0.2-0.7c0.1-0.1,0-0.2,0-0.3c0-0.1,0.1-0.1,0.1,0c0.1,0.1,0.1,0.1,0.2,0
			c0.1-0.1,0-0.1-0.1-0.2c-0.3-0.2-0.6-0.5-0.9-0.7c-0.1-0.1-0.1-0.1-0.1-0.2c0-0.3,0-0.6,0-0.8c0-0.1,0-0.2,0.1-0.1
			c0.1,0,0.2-0.1,0.2,0.1c0,0.2,0,0.3,0,0.5h0c0,0.2,0,0.3,0,0.5c0,0.1,0,0.2,0.1,0.2c0.1,0,0.1-0.1,0.1-0.2c-0.1-0.3,0-0.6,0-1
			c0,0,0,0,0,0c0.1,0,0.2,0.1,0.2,0.1c0,0.4,0,0.7-0.1,1.1c0,0,0,0,0,0.1c0,0.1,0,0.2,0.1,0.2c0.1,0,0.2-0.1,0.1-0.2
			c0-0.3,0-0.7,0.1-1c0.1,0,0.1,0.1,0.2,0.1C16.2,30.4,16.1,30.9,16.2,31.3z M12.9,32.7c0.1,0,0.1,0,0.1,0c0,0.1,0,0.2-0.1,0.2
			c-0.3,0-0.6,0-0.9,0c-0.1,0-0.1-0.2-0.1-0.2c0-0.1,0.1,0,0.1,0c0.1,0,0.3,0,0.4,0v0C12.6,32.7,12.8,32.7,12.9,32.7z M12,32.4
			c-0.1,0-0.2,0-0.2-0.1c-0.1-0.2-0.1-0.4-0.2-0.6c0.2,0.1,0.2,0,0.3-0.1c0.2-0.3,0.3-0.6,0.5-0.9c0,0,0-0.1,0.1-0.1
			c0.1,0,0,0.1,0,0.2c-0.1,0.3-0.3,0.6-0.4,0.8c-0.1,0.1-0.1,0.2-0.1,0.3c0,0.2,0.1,0.2,0.2,0.2c0.4,0,0.7,0,1.1,0
			c0,0.1-0.1,0.3-0.2,0.4c0,0,0,0.1-0.1,0C12.7,32.4,12.4,32.5,12,32.4z M14.4,30.2c-0.5,0.2-0.9,0.5-1.4,0.7
			c-0.1,0-0.1,0.1-0.1,0.2c0,0.1,0.1,0.1,0.2,0c0.4-0.2,0.7-0.4,1.1-0.6c0.1,0,0.1-0.1,0.2-0.1c-0.1,0.1-0.2,0.2-0.3,0.3
			c-0.3,0.2-0.6,0.3-0.9,0.6c-0.1,0.1-0.2,0-0.2,0c-0.1,0-0.3,0-0.4,0c0.1-0.2,0.2-0.4,0.2-0.5c0-0.1,0.1-0.1,0.1,0
			c0.1,0,0.2,0,0.2-0.1c0-0.1,0.1-0.1,0.1-0.1c0.4-0.2,0.8-0.4,1.2-0.6c0,0,0.1,0,0.1-0.1c0,0,0.1-0.1,0-0.2c0-0.1-0.1-0.1-0.1,0
			c-0.1,0-0.2,0.1-0.3,0.1c-0.3,0.2-0.7,0.3-1,0.5c0-0.1,0-0.2,0.1-0.2c0.3-0.1,0.6-0.3,0.9-0.4c0.1,0,0.2-0.1,0.2-0.1
			c0.1-0.1,0.2,0,0.2,0.1C14.7,30,14.7,30,14.4,30.2z M12.4,31.8c-0.1,0-0.1,0-0.1-0.1c0.1-0.1,0.1-0.2,0.3-0.2c0.2,0,0.5,0,0.7,0
			c0.1,0,0.2,0,0.2,0.1c0,0,0,0.1,0.1,0.2C13.2,31.8,12.8,31.8,12.4,31.8z M13.6,31.3c0.1,0,0.1-0.1,0.2-0.1c0,0.1,0,0.2,0.1,0.2
			c0.4,0.3,0.7,0.6,1.1,0.8c0.1,0,0.1,0.1,0.1,0.2c0,0.1,0,0.2,0,0.3c0,0,0,0.1,0,0.1c0,0-0.1,0-0.1-0.1c0-0.1-0.1-0.2-0.2-0.2
			c-0.4-0.3-0.7-0.6-1.1-0.9c0,0,0,0,0,0C13.5,31.4,13.5,31.4,13.6,31.3z M15.1,32c-0.4-0.3-0.7-0.6-1.1-0.8c0.1-0.1,0.1-0.1,0.2,0
			c0.2,0.2,0.4,0.3,0.6,0.4c0.1,0.1,0.2,0.2,0.4,0.3c0.1,0,0.1,0.1,0,0.2C15.2,32.1,15.1,32,15.1,32z M14.5,31c0,0-0.1-0.1-0.1-0.1
			c0-0.1,0.1-0.1,0.2-0.1c0.3,0.2,0.5,0.4,0.8,0.6c0.1,0.1,0,0.1,0,0.1c0,0,0,0.1-0.1,0.1c0,0,0,0-0.1,0C15,31.4,14.7,31.2,14.5,31z
			 M14.5,29.2c0,0,0.1,0,0.2,0.1c-0.1,0.1-0.2,0.1-0.3,0.1C14.4,29.3,14.4,29.3,14.5,29.2z M12,30.5C12,30.4,12,30.4,12,30.5
			c0.1,0,0.1,0,0.2-0.1c0,0,0.1,0.1,0,0.1c-0.2,0.3-0.3,0.6-0.5,0.9c0,0.1-0.1,0.2-0.1,0.3c0-0.1-0.1-0.1-0.1-0.1c0,0,0-0.1,0-0.1
			c0.2,0,0.2-0.2,0.2-0.3C11.8,31,11.9,30.7,12,30.5z M18.3,33c-0.1,0.1-0.1,0-0.1,0c-0.2-0.2-0.4-0.5-0.5-0.8
			c0-0.1-0.1-0.2-0.2-0.1c-0.1,0.1-0.1,0.2,0,0.2c0.2,0.3,0.3,0.5,0.5,0.8c0.1,0.1,0,0.2-0.1,0.2c-0.1,0.1-0.1,0-0.1-0.1
			c-0.1-0.2-0.3-0.4-0.4-0.6c0-0.1-0.2,0-0.1-0.2c0-0.2,0-0.4,0.1-0.6c0-0.1,0.1-0.1,0.1-0.1c0.5,0.1,0.7,0.6,1,0.9
			C18.5,32.9,18.4,33,18.3,33z M18.4,33.6c-0.1,0.1-0.2,0.1-0.2,0.1c0,0-0.1,0.1-0.1,0c0-0.1-0.1-0.1,0-0.2
			C18.2,33.4,18.3,33.6,18.4,33.6z M19.2,32c0.2,0,0.3-0.1,0.4-0.1c0.1,0,0.1,0,0.1,0.1c0,0.1-0.1,0.2-0.1,0.4
			C19.4,32.2,19.3,32.1,19.2,32z M23.2,31.6C23.3,31.6,23.3,31.6,23.2,31.6c0,0-0.1,0-0.1,0.1c0,0,0,0,0-0.1
			C23.2,31.6,23.2,31.6,23.2,31.6z M22.5,32.2c-0.3,0-0.5,0-0.8,0c-0.1,0-0.2,0-0.1-0.2c0.1,0.1,0.2,0.1,0.3,0.1
			C22.1,32.1,22.3,32.1,22.5,32.2C22.5,32.1,22.5,32.2,22.5,32.2z M22.4,31.9c-0.2,0-0.5,0-0.7,0c0.1-0.3,0.1-0.3,0.4-0.3
			c0.1,0,0.2,0,0.3,0C22.4,31.7,22.4,31.8,22.4,31.9z M21.6,29.4c0.1,0,0.1,0.1,0.1,0.1c0,0.1-0.1,0-0.1,0c-0.1,0-0.2,0-0.4,0
			C21.3,29.5,21.4,29.4,21.6,29.4C21.5,29.4,21.5,29.4,21.6,29.4z M22,31.3c-0.1,0-0.1-0.1-0.1-0.2C21.9,31.2,21.9,31.2,22,31.3
			c0.1,0,0.2-0.1,0.2-0.2c0-0.2,0-0.4-0.1-0.6c0,0.1,0,0.1,0.1,0.2c0,0.1,0,0.1,0,0.2c0,0.1,0,0.1,0.1,0.2c0,0.1,0,0.1,0,0.2
			C22.2,31.3,22.1,31.3,22,31.3z M18.7,30.2c0.3,0,0.6-0.1,0.9-0.2c0,0.1-0.1,0.2-0.2,0.2c-0.2,0-0.4,0.1-0.5,0.1
			C18.8,30.4,18.7,30.4,18.7,30.2C18.6,30.3,18.6,30.2,18.7,30.2z M21.9,34.5c0.1-0.4,0.3-0.7,0.6-1.1c0,0,0.1-0.1,0.1-0.2
			c0-0.1,0-0.1,0-0.1c0,0.1,0,0.2,0,0.3c0,0,0,0,0,0c-0.2,0.3-0.4,0.6-0.5,1C22.1,34.5,22,34.5,21.9,34.5z M24.5,30.7
			c-0.3,0-0.5-0.1-0.8-0.1c-0.2,0-0.2,0-0.2-0.3c0,0,0-0.1,0-0.1c0-0.1,0-0.2,0.2-0.1c-0.1,0-0.1,0.1-0.1,0.2c0,0.1,0.1,0.1,0.2,0.1
			c0.3,0,0.5,0,0.7,0.1C24.4,30.5,24.4,30.6,24.5,30.7z M24.3,30.1c0,0-0.1,0-0.2,0C24.2,30.1,24.2,30.1,24.3,30.1
			C24.3,30.1,24.3,30.1,24.3,30.1z M24.2,29.9C24.2,29.9,24.2,29.9,24.2,29.9c-0.2,0-0.4,0-0.7-0.1c-0.1,0-0.1-0.1-0.1-0.2
			c0-0.1,0.1-0.1,0.2-0.1c0.3,0,0.4,0,0.5,0.1C24.1,29.7,24.2,29.8,24.2,29.9z M23.6,28.8c0.1,0.1,0.2,0.2,0.3,0.3
			c0,0.1,0.1,0.2,0.1,0.3c-0.2,0-0.5,0-0.7-0.1c-0.1,0-0.2,0-0.2,0.1c0,0,0,0.1,0,0.1c0,0.1,0,0.1,0,0.2l0,0c0,0.5,0,1.1,0,1.6
			c0,0,0,0,0,0.1c0,0,0,0,0,0c-0.1-0.2-0.1-0.5-0.2-0.7c0-0.3,0-0.6,0-0.8c0-0.2,0.1-0.4,0.2-0.5c0.1-0.2,0.3-0.3,0.4-0.5
			C23.6,28.7,23.6,28.7,23.6,28.8z M23.2,27.5C23.2,27.5,23.2,27.5,23.2,27.5C23.2,27.6,23.2,27.6,23.2,27.5c0,0.1,0,0.1,0,0.1
			c-0.1,0.1-0.1,0.2-0.2,0.2C23.1,27.8,23.1,27.6,23.2,27.5z M23.3,27.9C23.3,27.9,23.3,27.9,23.3,27.9c0.1,0.1,0.2,0.3,0.2,0.4
			c-0.1,0.1-0.2,0.2-0.3,0.4c-0.1,0.1-0.2,0.2-0.3,0.4c0,0-0.1,0.1-0.1,0.1c-0.1,0-0.1,0-0.1,0c0-0.2,0-0.4,0.1-0.6
			C23,28.3,23.2,28.1,23.3,27.9z M10.4,14.4c-0.3,0-0.6,0-0.9,0c0,0-0.1,0-0.1-0.1c0-0.1,0.1-0.1,0.1-0.1c0.2,0,0.4,0,0.6,0
			c0.1,0,0.2,0,0.2-0.1c0-0.1-0.1-0.1-0.2-0.1c-0.2,0-0.5,0-0.7,0c0.1-0.2,0.1-0.3,0.3-0.2c0.3,0,0.5,0,0.8,0c0.1,0,0.1,0,0.2-0.1
			c0-0.1,0-0.1-0.1-0.2c-0.1,0-0.1-0.1-0.1-0.2c0-0.2,0-0.5,0.1-0.7c0-0.1,0-0.1,0.1-0.2c0.1,0,0.2,0,0.2,0c0.1,0,0,0.1,0,0.2
			c-0.1,0.2-0.2,0.5-0.2,0.7c0,0.1,0,0.2,0.2,0.2c0.1,0,0.1,0,0.1,0.1c0.1,0.1,0.3,0.2,0.4,0.3c0.1,0.1,0.2,0.1,0.2,0.2
			c0,0.1,0.1,0.1,0.1,0.1c0.2-0.1,0.3,0.1,0.4,0.2c0.1,0.1,0.2,0.1,0.4,0.1c0.4-0.1,0.8,0,1.2,0c0.2,0,0.4,0,0.5,0
			c0.1,0,0.1,0,0.2,0.1c0.1,0.1,0.2,0.1,0.3,0.1c0.1,0,0.1,0,0.1-0.1c0-0.1,0-0.1-0.1-0.1c-0.4-0.2-0.8-0.6-1.1-0.9
			c0,0-0.1-0.1-0.1-0.1c-0.1,0-0.2-0.1-0.2-0.2c0-0.1,0-0.1-0.1-0.2c0.1,0.1,0.2,0.2,0.3,0.2c0.4,0.3,0.8,0.5,1.2,0.8c0,0,0,0,0,0
			c0.1,0,0.2,0.1,0.2,0c0.1-0.1,0-0.1-0.1-0.2c-0.2-0.2-0.5-0.3-0.7-0.5c-0.3-0.2-0.5-0.4-0.8-0.6c-0.2-0.1-0.3-0.2-0.3-0.4
			c0.3,0.1,0.5,0.2,0.8,0.4c0.3,0.2,0.6,0.5,0.9,0.7c0,0,0,0,0,0.1c0,0.1,0,0.1,0.1,0.2c0.1,0,0.1,0,0.2-0.1c0.2-0.3,0.5-0.6,0.7-1
			c0,0,0.1-0.2,0.1-0.1c0,0.1,0.2,0.1,0.1,0.2c-0.2,0.2-0.3,0.4-0.4,0.6c-0.2,0.3-0.4,0.6-0.6,0.8c-0.1,0.1-0.1,0.1,0,0.2
			c0.1,0.1,0.1,0,0.2,0c0.3-0.3,0.5-0.6,0.7-0.9c0.1-0.2,0.3-0.4,0.4-0.6c0.1,0.1,0.2,0.2,0.3,0.3c0.1,0.1,0,0.2-0.1,0.2
			c0-0.1,0-0.1,0-0.1c-0.1,0-0.1,0-0.2,0c-0.1,0.1-0.2,0.2-0.3,0.3c-0.2,0.3-0.5,0.6-0.7,0.9c-0.1,0.1-0.1,0.2,0,0.3
			c0.1,0,0.1,0.1,0.1,0.1c0.1,0.5,0.2,0.9,0.2,1.4c0,0.1,0,0.1,0.1,0.1c0,0-0.1,0-0.1,0c-0.3,0-0.3,0-0.3-0.3
			c-0.1-0.4-0.2-0.7-0.3-1.1c0-0.1-0.1-0.2-0.1-0.2c0-0.1-0.1-0.1-0.2,0c-0.1,0-0.1,0.1-0.1,0.2c0.2,0.4,0.3,0.9,0.3,1.3
			c0,0,0.1,0.1,0,0.1c-0.1,0-0.1-0.1-0.1-0.1c0-0.2-0.1-0.3-0.2-0.4c-0.1-0.2-0.2-0.4-0.3-0.7c0-0.1-0.1-0.2-0.2-0.1
			c-0.1,0-0.1,0.1-0.1,0.2c0,0.1,0,0.1,0,0.2c-0.1,0-0.1-0.1-0.1-0.1c-0.2-0.3-0.2-0.3-0.5-0.2c-0.4,0.1-0.8,0-1.2,0c0,0,0,0,0,0
			c-0.4-0.3-0.9-0.4-1.4-0.7c0,0-0.1-0.1-0.1-0.1c-0.1,0-0.1-0.1-0.2,0c-0.1,0.1,0,0.1,0.1,0.2c0.4,0.2,0.9,0.5,1.3,0.6
			c0,0,0.1,0,0.1,0c0.1,0.2,0.2,0.1,0.3,0.1c0.4,0,0.7,0,1.1,0c0.3,0,0.3,0,0.4,0.3c0,0.1-0.1,0-0.1,0c-0.4,0-0.8,0-1.2,0
			c-0.1,0-0.2,0-0.3,0c-0.1,0-0.1,0.1-0.1,0.2c0,0.1,0.1,0.1,0.2,0.1c0.4,0,0.9,0,1.3,0c0.1,0,0.2,0.1,0.4,0c0,0,0.1,0,0.1,0.1
			c0.1,0.1,0.2,0.2,0.2,0.3c0,0.1-0.2,0-0.3,0.1c0,0,0,0,0,0c0-0.1,0-0.1,0.1-0.2c0.1,0,0.1-0.1,0.1-0.1c0-0.1-0.1-0.1-0.2-0.1
			c-0.3,0-0.6,0-0.9,0c-0.2,0-0.5,0-0.7,0c-0.1,0-0.1,0.1-0.1,0.2c0,0.1,0,0.2,0,0.2c-0.1,0-0.2,0-0.2,0c0,0,0-0.1,0-0.2
			c-0.1-0.1-0.2,0-0.2,0.1c-0.1,0.1-0.1,0.1-0.1,0.1c-0.1,0-0.3,0-0.4,0c0.1,0,0.2-0.1,0.3-0.2c0,0,0.1-0.1,0.1-0.1
			c0.2,0.1,0.2-0.1,0.3-0.2c0.1-0.1,0-0.3-0.2-0.3c-0.3,0-0.5-0.2-0.7-0.3c-0.2-0.1-0.5-0.2-0.7-0.3c0,0-0.1-0.1-0.1-0.1
			c0,0,0.1,0,0.1,0c0.1,0,0.1-0.1,0.1-0.1c0-0.1-0.1-0.1-0.1-0.1c-0.1,0-0.3,0-0.4,0c-0.2,0-0.3,0-0.5,0c-0.1,0-0.2,0.1-0.2,0
			c0-0.1,0-0.2,0.2-0.2c0.2,0,0.4,0,0.7,0c0.1,0,0.2,0,0.3,0c0.1,0,0.2,0,0.2-0.1C10.6,14.5,10.5,14.4,10.4,14.4z M15.2,8.7
			c-0.1,0-0.2-0.1-0.1-0.2c0,0,0-0.1-0.1-0.1c-0.1,0-0.1,0-0.1,0c-0.1,0.1-0.1,0.1-0.2,0c-0.1-0.1-0.3-0.1-0.4-0.2
			c-0.2-0.1-0.1-0.2-0.1-0.3c0-0.1,0.1,0,0.1,0c0.4,0.2,0.7,0.3,1.1,0.5c0.1,0,0.1,0.1,0.1,0.1c0,0.1,0,0.2,0,0.2
			c0,0.2,0.1,0.3-0.2,0.4c-0.1,0-0.2,0.2-0.3,0.3c-0.2,0.3-0.4,0.6-0.7,0.9c0,0,0,0,0,0.1c0,0.1-0.1,0.2,0,0.2
			c0.1,0.1,0.1,0,0.2-0.1c0.2-0.3,0.4-0.6,0.7-0.9c0.1-0.1,0.2-0.3,0.4-0.4c0.1,0.1,0.1,0.3-0.1,0.4c-0.3,0.3-0.6,0.6-0.8,1
			c0,0-0.1,0.1-0.1,0.1c-0.2,0-0.4,0-0.6,0.1c0.1-0.2,0.2-0.4,0.4-0.6c0.2-0.2,0.3-0.5,0.5-0.7c0.1-0.2,0.2-0.4,0.4-0.6
			c0,0,0.1-0.1,0.1-0.1c0.1,0,0.1,0,0.1-0.1C15.3,8.7,15.3,8.7,15.2,8.7z M14.5,7.3c0.4,0.2,0.8,0.4,1.2,0.4c0.1,0,0.1,0.1,0.2,0.2
			c0.1,0.1,0,0.1,0,0.2c-0.1,0,0,0.1,0,0.2c0.1,0.5,0.2,0.9,0.1,1.4c0,0.1,0,0.1,0.1,0.2c0.1,0,0.1,0,0.2-0.1c0-0.1,0-0.2,0-0.3
			c0-0.4-0.1-0.8-0.1-1.3c0,0,0-0.1,0-0.1c0.2-0.2,0.1-0.3,0-0.4c-0.2-0.2-0.5-0.4-0.7-0.7c-0.1-0.1-0.1-0.1-0.2-0.2
			c0-0.1,0.1,0,0.1,0c0.2-0.1,0.3,0,0.4,0.2c0.1,0.3,0.4,0.4,0.6,0.6c0.1,0.1,0.1,0.1,0.1,0.3c0,0.6,0,1.2,0,1.8
			c0,0.1,0,0.2-0.1,0.2c-0.1,0-0.1,0.1-0.1,0.1c0,0.1,0.1,0.1,0.2,0.1c0.2,0,0.5,0,0.7-0.1c0.2,0,0.4,0.1,0.6,0.2
			c-0.3,0-0.6,0-0.8,0c-0.2,0-0.5,0-0.7-0.1c-0.1,0-0.2,0-0.2,0.1c-0.1,0.1-0.2,0.2-0.4,0.4c0.1-0.1,0.1-0.2,0.2-0.3
			c0.1-0.1,0.1-0.3,0.1-0.4c0-0.1,0-0.2,0-0.3c0.1-0.1,0.1-0.2-0.1-0.2c-0.1,0-0.1,0-0.1-0.1c0-0.2,0-0.4,0-0.6c0,0,0-0.1,0-0.1
			c0,0-0.1-0.6-0.1-0.6c-0.1-0.1-0.2,0-0.2,0.1c0,0.1,0,0.1,0,0.2C15,8,14.6,7.8,14.2,7.7c-0.1,0-0.1-0.1-0.1-0.3c0-0.1,0-0.2,0-0.3
			C14.2,7.2,14.3,7.2,14.5,7.3z M14.3,7C14.4,7,14.4,7,14.3,7c0.5-0.2,0.5-0.2,0.8,0.1c0.1,0.1,0.1,0.1,0.2,0.2
			C15,7.3,14.7,7.1,14.3,7z M14,10.3C14,10.3,14,10.3,14,10.3c-0.3-0.1-0.5,0-0.7-0.1c-0.2-0.1-0.4-0.1-0.6-0.1
			c-0.1,0-0.1-0.1-0.1-0.2c0-0.1,0,0,0.1,0c0.4,0,0.7,0.1,1.1,0.1c0.1,0,0.1,0.2,0.3,0.2C14,10.2,14,10.2,14,10.3z M12.9,10.4
			c0-0.1,0.1,0,0.2,0c-0.2,0.4-0.3,0.7-0.5,1.1c0,0.1-0.1,0.2-0.1,0.3c0,0.1,0,0.2,0.1,0.2c0.1,0,0.1-0.1,0.2-0.1
			c0-0.2,0.1-0.5,0.2-0.7c0.1-0.2,0.2-0.5,0.3-0.7c0-0.1,0.1,0,0.1,0c0.1,0,0.2,0,0.3,0.1c0,0.1,0,0.2-0.2,0.2c-0.1,0-0.1,0-0.1,0.1
			c-0.2,0.5-0.4,0.9-0.5,1.4c0,0.1,0,0.2,0.1,0.2c0,0,0.1,0.1,0.1,0.1c-0.2,0-0.2,0-0.2,0.2c0.1,0.3,0.2,0.6,0.3,1c0,0,0,0.1,0,0.1
			c-0.1,0-0.1-0.1-0.1-0.1c-0.1-0.5-0.3-1-0.4-1.5c0-0.1,0-0.1-0.1-0.1c-0.2,0-0.1-0.1-0.1-0.2C12.6,11.3,12.7,10.9,12.9,10.4z
			 M14.6,12.1c-0.1,0-0.2,0-0.2,0.2c-0.2-0.1-0.3-0.2-0.5-0.3c0.3,0,0.5-0.1,0.8-0.1c0.2,0,0.4-0.1,0.7-0.1c0.1,0,0.3,0,0.4,0.1
			c0.1,0.1,0.1,0.1,0.2,0.2c-0.1,0.1-0.1,0-0.2-0.1c-0.1-0.1-0.1-0.1-0.2,0c0,0-0.1,0-0.1,0C15.1,12.1,14.9,12.1,14.6,12.1z
			 M15.4,12.3c-0.1,0.2-0.2,0.3-0.3,0.5c0,0.1-0.1,0-0.1,0c-0.2-0.1-0.3-0.3-0.6-0.4C14.8,12.4,15.1,12.3,15.4,12.3z M14.4,12.7
			c0.1,0.1,0.3,0.2,0.4,0.3c0.1,0.1,0.1,0.1,0,0.2c-0.1,0.1-0.1,0-0.2,0c-0.4-0.4-0.9-0.7-1.4-0.9c-0.1,0-0.1,0-0.1-0.1
			c0.1-0.3,0.2-0.6,0.3-0.8c-0.1,0.2,0,0.4-0.2,0.6c-0.1,0.1,0,0.2,0.1,0.2C13.8,12.3,14.1,12.5,14.4,12.7z M11.3,12.6
			c0-0.1-0.1-0.1,0-0.2c0.1,0,0.1,0.1,0.1,0.1c0.1,0.4,0.3,0.8,0.4,1.2C12,14,12,14,12.4,14c0.2,0,0.5,0,0.7,0c0,0,0.1,0,0.1,0
			c0.1,0.1,0.1,0,0.2,0c0.2-0.1,0.5-0.1,0.6,0.2c-0.2,0-0.3,0-0.5,0c-0.3,0-0.7,0-1,0c-0.1,0-0.1,0-0.1,0c0,0,0,0-0.1,0
			c-0.4-0.2-0.5-0.5-0.7-0.9C11.5,13.1,11.4,12.9,11.3,12.6z M11.4,13.6c-0.2-0.1-0.2-0.2-0.4-0.2c0,0,0-0.1,0-0.1
			c0-0.1,0-0.3,0.1-0.4C11.3,13.1,11.3,13.3,11.4,13.6z M12.5,12.4c0.1,0.4,0.2,0.8,0.4,1.2c0,0.1,0.1,0.1,0,0.2
			c-0.1,0-0.1-0.1-0.1-0.1c-0.1-0.3-0.3-0.7-0.4-1c0-0.1,0-0.1,0-0.2C12.2,12.3,12.3,12.4,12.5,12.4C12.4,12.3,12.4,12.4,12.5,12.4z
			 M12.4,13.6c0.1,0.1,0,0.1-0.1,0.1c-0.1,0-0.1,0-0.1-0.1c-0.2-0.4-0.3-0.8-0.5-1.2c0-0.1,0-0.1,0.1-0.1c0.2,0,0.2,0,0.3,0.2
			C12.1,12.9,12.2,13.3,12.4,13.6z M11.8,11.7c-0.3,0-0.6,0.1-0.9,0.2c0,0,0,0-0.1,0c-0.3,0-0.3,0-0.3,0.2c0,0,0,0.1,0,0.1
			c0,0.1-0.1,0.1-0.2,0.1c-0.1,0,0-0.1,0-0.1c0-0.2,0-0.4,0.1-0.5c0.1-0.1,0.3-0.1,0.5-0.1c0.3-0.1,0.6-0.2,1-0.2c0,0,0.1,0,0.1,0.1
			C11.9,11.6,11.9,11.7,11.8,11.7z M10.4,12.6c0,0.3-0.1,0.6,0,0.9c-0.1,0-0.2,0-0.2-0.1c0-0.2,0-0.4,0-0.6
			C10.2,12.7,10.3,12.6,10.4,12.6z M17.9,13.9C18,14,18,14,18,14.1c0,0,0,0.1-0.1,0.1c0,0-0.1,0-0.1,0c-0.3-0.2-0.6-0.4-1-0.6
			c-0.1-0.1,0-0.1,0-0.2c0-0.1,0.1-0.1,0.1,0C17.3,13.5,17.6,13.7,17.9,13.9z M17.8,13.4c0.1-0.2,0.3-0.4,0.4-0.6
			C18.1,13.1,18,13.3,17.8,13.4c0.1,0.1,0,0.1,0,0.1C17.7,13.5,17.7,13.5,17.8,13.4z M18.1,14.4c0,0,0-0.1,0-0.1
			c0-0.1,0-0.2,0.1-0.2c0,0,0,0,0,0c0.1-0.3,0.2,0,0.3,0c-0.1,0.1-0.1,0.2-0.2,0.2c-0.2,0.4-0.4,0.8-0.5,1.2c0,0.1,0,0.1-0.1,0.1
			c-0.1,0,0-0.1,0-0.1C17.8,15.1,17.9,14.7,18.1,14.4z M16.9,13.8c0.3,0.2,0.6,0.3,0.9,0.5c0,0,0.1,0,0.1,0.1c0,0.1-0.1,0.2-0.1,0.3
			c-0.1,0-0.1,0-0.1-0.1c-0.3-0.2-0.7-0.4-1-0.5c-0.1,0-0.1-0.1,0-0.2C16.6,13.7,16.6,13.7,16.9,13.8z M15.7,16.4
			c0.1-0.2,0.1-0.4,0.1-0.5c0-0.3-0.1-0.5-0.2-0.8c0-0.1,0-0.1,0.1-0.1c0.1,0,0.1,0.1,0.1,0.1c0.1,0.4,0.2,0.8,0.2,1.2
			C16,16.4,16,16.4,15.7,16.4z M16.1,16.5c0,0,0,0.1,0,0.1c-0.1,0-0.1,0-0.2,0C16,16.6,16,16.6,16.1,16.5z M15.6,14.7
			c-0.1-0.1-0.1-0.2,0-0.3c0.3-0.3,0.5-0.7,0.8-0.9c0,0,0,0.1,0,0.1C16.2,14,15.9,14.3,15.6,14.7z M15.9,14.7c0-0.1,0.1-0.1,0.2-0.1
			c0.5,0.2,1,0.5,1.5,0.7c-0.2,0-0.3,0-0.4-0.1c-0.1-0.1-0.3-0.1-0.4-0.2C16.5,15,16.1,14.9,15.9,14.7z M13.8,16.5
			C13.8,16.5,13.8,16.5,13.8,16.5c-0.1,0-0.1,0-0.2,0c0,0,0,0,0,0c0-0.1,0-0.1,0.1-0.1C13.8,16.4,13.8,16.4,13.8,16.5z M13.4,16.5
			c0,0-0.1,0-0.1,0c-0.1,0-0.1,0-0.2,0c0,0,0,0,0,0c0-0.1,0.1-0.1,0.1-0.1C13.3,16.4,13.4,16.4,13.4,16.5z M12.8,16.5
			c-0.1,0-0.2,0-0.3,0c0,0,0-0.1,0-0.1c0-0.1,0.1,0,0.2,0C12.8,16.4,12.8,16.4,12.8,16.5C12.8,16.5,12.8,16.5,12.8,16.5z M11.1,16.5
			c0,0-0.1,0.1-0.1,0.1c-0.1,0-0.2,0-0.3,0c0.1-0.2,0.1-0.3,0.2-0.5c0-0.1,0.1-0.1,0.1-0.1C11.4,16.2,11.4,16.2,11.1,16.5z
			 M9.5,15.1c0.1,0,0.2,0,0.3,0c0.1,0,0.2,0,0.4,0c-0.1,0.1-0.1,0.2,0,0.3c0.1,0,0.1,0.1,0.1,0.2c-0.1,0.4-0.2,0.7-0.3,1.1
			c-0.1,0-0.2,0-0.2,0c-0.1,0-0.2-0.1-0.2-0.1C9.4,16.4,9.2,16.2,9,16c-0.1-0.1-0.1-0.2,0-0.3c0-0.1,0.1-0.2,0.1-0.2
			C9.2,15.2,9.2,15.2,9.5,15.1z M9.3,16.8C9.4,16.8,9.4,16.9,9.3,16.8C9.3,16.9,9.2,17,9.1,17C9,16.9,9,16.8,8.9,16.7
			c-0.2-0.2-0.2-0.4,0-0.6C9,16.4,9.2,16.6,9.3,16.8z M8.8,17.1c-0.1,0-0.2,0.1-0.2,0.1c-0.2-0.2-0.3-0.4-0.5-0.6
			c0.2,0,0.3,0,0.4,0.1C8.6,16.8,8.7,17,8.8,17.1z M8.8,18c1.2-0.5,1.8-0.8,3.6-0.8c2.7-0.1,4.8,0.2,7.2,1c0.5,0.1,0.8,0.5,1,0.9
			c0.7,1.4,0.5,2.7,0,4c-0.3,0.9-0.8,1.6-1.7,2c-1.2,0.6-2.1,0.7-3.8,0.7C11,26,9.1,25.5,7.7,23.4C6.8,22.2,6.8,21.2,7,20
			C7.1,19,7.2,18.7,8.8,18z M17.6,16.9c0.1,0,0.1,0,0.2-0.1c0,0,0,0.1,0,0.1C17.7,16.9,17.7,16.9,17.6,16.9z M20.2,14.9
			c0-0.1-0.1-0.1-0.2-0.1c-0.1,0-0.1,0.1-0.1,0.2c0.1,0.2,0.2,0.4,0.3,0.6c0.1,0.2,0.2,0.5,0.2,0.7c0,0.1,0.1,0.1,0.2,0.1
			c0.1,0,0.1-0.1,0.1-0.1c0,0.1,0.1,0.3,0.1,0.4C21,17,21,17.3,21,17.5c0,0.1,0,0.1,0,0.2c-0.1,0-0.2,0-0.3-0.1c0-0.2,0-0.5,0-0.7
			c0,0,0-0.1,0-0.1c0-0.1,0-0.1-0.1-0.1c-0.1,0-0.1,0.1-0.1,0.1c0,0.1,0,0.3,0,0.4c0,0.1,0,0.2,0,0.4c0,0,0,0-0.1,0
			c-0.1-0.2-0.2-0.4-0.2-0.7c0-0.1,0-0.1-0.1-0.1c0,0-0.1,0-0.1,0c-0.1,0.1-0.3,0.1-0.4,0.1c-0.3-0.1-0.5-0.2-0.8-0.3
			c0,0-0.1,0-0.1-0.1c-0.1,0-0.2,0-0.2,0.1c0,0.1,0,0.1,0.1,0.2c0.3,0.1,0.6,0.3,0.9,0.4c0.1,0.1,0.2,0.2,0.1,0.3
			c-0.2-0.1-0.4-0.1-0.6-0.2c-0.3-0.1-0.7-0.3-1.1-0.4c0.2,0,0.3-0.1,0.4-0.1c0.1,0,0.1-0.1,0.1-0.2c0-0.1-0.1-0.1-0.2-0.1
			c-0.4,0.1-0.8,0.2-1.2,0.3c-0.1,0-0.2,0-0.3,0c0-0.1,0.1-0.2,0.3-0.2c0.3-0.1,0.6-0.1,0.9-0.2c0,0,0.1,0,0.1,0
			c0.1,0,0.1-0.1,0.1-0.2c0-0.1-0.1-0.1-0.2-0.1c-0.3,0.1-0.6,0.1-0.9,0.2c0,0,0,0,0,0c-0.4,0.1-0.5,0.1-0.5,0.4c-0.1,0-0.2,0-0.2,0
			c0,0,0-0.1,0-0.1c0-0.1,0-0.2-0.1-0.2c-0.1,0-0.1-0.1-0.1-0.1c0-0.3-0.1-0.7-0.1-1c0,0,0-0.1,0-0.1c0.2,0.1,0.5,0.2,0.8,0.3
			c-0.1,0.1-0.2,0.1-0.3,0.1c-0.1,0-0.2,0.1-0.3,0.1c-0.1,0.1-0.1,0.1,0,0.2c0.1,0.1,0.1,0,0.2,0c0.4-0.2,0.8-0.2,1.2-0.2
			c-0.1,0.1-0.2,0.1-0.2,0.1c-0.3,0.1-0.6,0.2-0.8,0.3c-0.1,0-0.2,0.1-0.2,0.2c0.1,0.1,0.2,0.1,0.2,0c0.4-0.2,0.9-0.4,1.4-0.5
			c0.2,0,0.2-0.1,0.1-0.2c0-0.1,0-0.1,0-0.1c0.1-0.4,0.3-0.7,0.5-1.1c0-0.1,0.1-0.1,0.1-0.2c0.2,0,0.2,0.1,0.1,0.2
			c-0.1,0.3-0.2,0.6-0.3,0.8c-0.1,0.2-0.1,0.3-0.1,0.5c0,0.1,0,0.2,0.1,0.2c0.1,0,0.2-0.1,0.2-0.1c0.1-0.5,0.3-0.9,0.4-1.3
			c0-0.1,0.1-0.1,0.2-0.1c0.1,0,0.1,0.1,0,0.1c-0.2,0.5-0.4,1.1-0.7,1.6c0,0.1-0.1,0.1,0,0.2c0.1,0,0.1,0,0.2-0.1
			c0.1-0.1,0.2-0.3,0.2-0.4c0.2-0.4,0.3-0.8,0.5-1.2c0-0.1,0.1-0.2,0.2-0.1c0.1,0,0.1,0.1,0.2,0.1c0.1,0,0.1,0,0.1,0
			C20.1,14.7,20.2,14.8,20.2,14.9z M19.7,13.5c-0.2-0.1-0.4-0.2-0.5-0.3c-0.1,0-0.2,0-0.2,0.1c0,0.1,0.1,0.1,0.1,0.2
			c0.2,0.1,0.5,0.2,0.7,0.3c0,0,0,0,0,0c0,0,0,0.1,0,0.1c-0.3-0.1-0.6-0.3-0.9-0.4c-0.1-0.1-0.3-0.1-0.3-0.2c0-0.1,0.1-0.2,0.2-0.3
			c0-0.1,0.1-0.1,0.2-0.1c0.1,0.1,0.2,0.1,0.3,0.2c0.1,0,0.2,0.1,0.2,0.1C19.6,13.3,19.7,13.4,19.7,13.5z M19.1,11.9
			c0.1,0.3,0.3,0.7,0.4,1c-0.1-0.1-0.2-0.1-0.3-0.2c0,0-0.1,0-0.1-0.1c0-0.1,0-0.1-0.1-0.1c-0.1,0-0.1,0.1-0.2,0.1
			c-0.2,0.3-0.3,0.6-0.5,0.8c0,0,0,0.1,0,0.2c0,0,0.1,0.1,0.2,0c0.1,0,0.1,0,0.2,0c0.4,0.2,0.8,0.3,1.1,0.5c0,0,0,0,0,0c0,0,0,0,0,0
			l0,0c0.1,0,0.1,0.1,0.2,0.1c0,0.1,0.1,0.2,0.1,0.2c-0.2-0.1-0.3-0.1-0.3-0.3c-0.2,0.1-0.4,0-0.6-0.1c-0.2-0.1-0.4-0.2-0.6-0.3
			c-0.2-0.1-0.2-0.1-0.3,0.1c0,0,0,0,0,0c-0.2-0.1-0.2-0.1-0.1-0.4c0.2-0.4,0.4-0.7,0.6-1C18.9,12.3,19,12.2,19.1,11.9
			C19.1,11.9,19.1,11.9,19.1,11.9z M19,11.6C19,11.7,19,11.7,19,11.6C19,11.7,19,11.7,19,11.6C19,11.7,19,11.6,19,11.6z M18.8,11
			c0,0,0,0.1,0,0.1c0,0-0.1,0-0.1,0.1c-0.1,0-0.1,0.1-0.1,0.2c0,0.1,0.1,0.1,0.2,0c0,0,0.1,0,0.1-0.1c0,0,0,0.1,0,0.1
			c-0.1,0-0.1,0.1-0.2,0.1c-0.1,0.1,0,0.1,0,0.2c0.1,0.1,0.1,0.1,0,0.2c-0.1-0.1-0.2-0.1-0.3,0c-0.3,0.5-0.7,0.9-1,1.4
			c0,0.1-0.1,0-0.1,0c-0.2-0.1-0.3-0.2-0.5-0.3c-0.1-0.1-0.2-0.1-0.2,0c0,0.1-0.1,0-0.1,0c-0.2-0.2-0.4-0.4-0.6-0.6
			c-0.1-0.1-0.1-0.1,0-0.2c0.2,0.1,0.3,0.3,0.5,0.4c0.1,0.1,0.1,0.2,0.3,0.1c0.1-0.1,0-0.2-0.1-0.3c-0.2-0.2-0.5-0.4-0.7-0.6
			c0,0-0.1-0.1-0.1-0.1c0-0.2-0.2-0.2-0.3-0.3c-0.1,0-0.2,0-0.2,0.1c0,0.1-0.1,0.1-0.2,0.1c-0.4,0.1-0.8,0.1-1.2,0.2
			c-0.1,0-0.2,0-0.2,0.1c0,0.1-0.1,0-0.1,0c-0.1-0.1,0-0.3,0.1-0.3c0.2,0,0.5-0.1,0.7-0.1c0.1,0,0.1,0,0.2,0c0.1,0,0.1,0,0.1-0.1
			c0-0.1-0.1-0.1-0.1-0.1c-0.2,0-0.4,0-0.6,0c-0.1,0-0.1,0-0.2,0c0,0-0.1,0.1-0.1,0c0-0.1,0-0.2,0.1-0.2c0.2,0,0.4-0.1,0.6,0
			c0.1,0.1,0.2,0,0.2-0.1c0.2-0.3,0.5-0.7,0.8-1c0,0,0.1-0.1,0.1-0.1c0,0.1,0,0.1-0.1,0.2c-0.2,0.3-0.4,0.6-0.6,0.9
			c-0.1,0.1-0.1,0.2,0,0.3c0.1,0,0,0.1,0,0.1c0,0.1-0.1,0.1,0,0.2c0.1,0.1,0.1,0,0.2-0.1c0.3-0.4,0.6-0.7,1-1.1
			c0.1-0.1,0.1-0.1,0.2-0.1c0.6,0.1,1.1,0.1,1.7,0.1c0,0,0.1,0,0.1,0c0,0.1,0,0.1-0.1,0.1c-0.5,0-1,0-1.5,0c-0.1,0-0.2,0-0.2,0.1
			c0,0.1,0,0.1,0.1,0.1c0.1,0,0.1,0.1,0.1,0.2c0.1,0,0.2,0.1,0.3,0.1c0.4,0.1,0.8,0.1,1.2,0.2c0.1,0,0.2,0,0.2-0.1
			C18.5,11.1,18.6,11.1,18.8,11C18.7,11,18.7,11,18.8,11z M18.6,10.6c0,0,0,0.1,0,0.1c-0.2,0.1-0.3,0.1-0.3,0.3
			c0-0.1-0.1-0.1-0.2-0.2c-0.2,0-0.4-0.1-0.6-0.1c0,0-0.1,0-0.1-0.1c0.1,0,0.3,0,0.4,0c0.2,0,0.4,0,0.5-0.1
			C18.4,10.6,18.5,10.6,18.6,10.6z M17.6,8.3c0.1,0.2,0.2,0.4,0.3,0.6c0,0,0,0,0,0c0,0.1,0,0.1,0.1,0.2c0,0,0,0,0,0
			c0.1,0.2,0.1,0.3,0.2,0.5c-0.1,0-0.1-0.1-0.2-0.1c-0.1-0.1-0.1-0.1-0.2,0c-0.1,0.1,0,0.2,0.1,0.2c0.2,0.1,0.3,0.2,0.5,0.3
			c0,0.1,0.1,0.2,0.1,0.3c-0.1,0-0.2-0.1-0.3-0.1C18,10.1,18,10,17.9,10c-0.1,0-0.1-0.1-0.1-0.2c0-0.1,0-0.1-0.1-0.1
			c-0.1,0-0.1-0.1-0.1-0.2C17.6,9.1,17.6,8.7,17.6,8.3z M17.4,9.6c-0.2,0-0.2-0.1-0.2-0.2c0-0.4,0-0.9-0.1-1.3C17.1,8,17.3,8,17.3,8
			c0.1,0,0,0.1,0,0.1C17.4,8.6,17.4,9.1,17.4,9.6z M17.1,7.1c0.1,0.2,0.2,0.4,0.3,0.6c-0.1,0-0.1,0.1-0.2,0.1c0,0,0-0.1-0.1-0.2
			c0-0.1-0.1-0.1-0.2-0.1c-0.1,0-0.1,0.1-0.1,0.2c0.1,0.5,0.1,1.1,0.1,1.7c0,0.1,0,0.2-0.1,0.3c0,0.1-0.1,0.1-0.1,0.1
			c-0.1,0-0.1-0.1-0.1-0.1c0-0.6,0-1.2,0-1.8c0-0.2-0.1-0.3-0.2-0.4c-0.2-0.2-0.4-0.3-0.6-0.6c0-0.1-0.1-0.1,0-0.2
			c0.1,0,0.1-0.1,0-0.2c0-0.1-0.1-0.1-0.1-0.1c-0.4,0.1-0.7,0.1-1.1,0.2c-0.2,0-0.3,0.1-0.5,0.1c-0.1,0-0.2,0.1-0.3,0
			c0,0-0.1,0-0.1,0c-0.1,0-0.1,0.1,0,0.2c0,0.4,0.1,0.9,0.1,1.3c0,0.1,0,0.2,0,0.3c0,0.1,0,0.1,0.1,0.1c0.1,0,0.1,0,0.1,0
			c0-0.1,0.1-0.1,0.2,0c0.1,0.1,0.3,0.1,0.4,0.2c-0.1,0.3-0.1,0.3-0.4,0.2c-0.1,0-0.2-0.1-0.3-0.1c-0.1,0-0.2,0-0.2,0.1
			c0,0.1,0,0.1,0.1,0.2C14,9,14.1,9,14.2,9.1c0.1,0,0.1,0.1,0.1,0.1c0,0,0,0.1-0.1,0.1c-0.1,0.1-0.1,0.3-0.2,0.4
			c-0.1,0.1-0.3,0-0.4,0c-0.3,0-0.6-0.1-0.8-0.1c-0.2,0-0.3-0.1-0.3-0.3c0.5,0,1,0.1,1.4,0.1c0,0,0.1,0,0.1,0c0.1,0,0.1,0,0.1-0.1
			c0-0.1,0-0.1-0.1-0.1c-0.1,0-0.1,0-0.2,0c-0.4,0-0.8,0-1.2-0.1c0,0-0.1,0-0.1-0.1c0-0.1,0-0.2,0.2-0.1c0.3,0,0.7,0,1,0
			c0.1,0,0.1,0,0.2,0c0.1,0,0.1-0.1,0.1-0.2c-0.2-0.1-0.1-0.2-0.1-0.3c0-0.1,0-0.2,0-0.3c-0.1-0.3-0.1-0.7-0.2-1c0-0.1,0-0.1,0-0.1
			c0.1-0.2,0.3-0.3,0.4-0.5c0,0,0.1,0,0.1-0.1c0.5-0.1,1-0.2,1.5-0.3c0.1,0,0.1,0,0.2-0.1c0-0.1,0.1,0,0.1,0c0,0,0.1,0,0.1,0.1
			c0,0.1,0,0.1,0.1,0.2c0.3,0.3,0.6,0.6,0.9,0.9c0,0.1,0.1,0.1,0.2,0C17,7.2,17.1,7.2,17.1,7.1z M12.4,7.9c0.1,0.2,0.1,0.4,0.1,0.6
			c0,0,0,0.1,0,0.1c0,0-0.1,0-0.1,0C12.3,8.5,12.3,8,12.4,7.9z M12.7,7.4c0,0.1,0.1,0.1,0.1,0.1C12.8,7.9,13,8.2,13,8.6
			c0,0.1,0,0.1-0.1,0.1c-0.1,0-0.1,0-0.1-0.1c0-0.2-0.1-0.4-0.1-0.6c0,0,0-0.1,0-0.1C12.5,7.7,12.6,7.5,12.7,7.4z M13.1,7.9
			c0-0.1,0-0.2-0.1-0.3c0-0.3,0-0.3,0.2-0.4c0.1,0.5,0.2,0.9,0.1,1.4h-0.2C13.2,8.4,13.2,8.2,13.1,7.9z M17,7c0,0-0.1-0.1-0.1-0.1
			c-0.2-0.2-0.4-0.4-0.6-0.6c0.1,0,0.1,0.1,0.2,0.1c0.1,0.1,0.3,0.3,0.4,0.5C16.9,6.9,17,7,17,7z M15.4,4.3c0,0.1,0.1,0.1,0.1,0.2
			c0,0-0.1,0-0.1,0c-0.1,0-0.1,0-0.1-0.1c0-0.2-0.1-0.3-0.1-0.5C15.2,4,15.3,4.1,15.4,4.3z M12.4,1.2c0.3-0.1,0.5,0,0.8,0.1
			c0,0.1,0,0.2,0,0.3c0,0,0,0.1,0,0.1C13.3,2,13.1,2,13,2.1c-0.3,0.3-0.6,0.5-0.9,0.8c0,0,0,0.1-0.1,0c-0.1-0.1,0-0.1,0-0.1
			c0.3-0.3,0.6-0.6,0.9-1C13,1.8,13,1.7,12.8,1.7c-0.2,0-0.3-0.1-0.5-0.1c-0.1,0-0.1-0.1-0.2-0.1C12.2,1.4,12.3,1.3,12.4,1.2z
			 M11.8,1.6c0.2,0.1,0.5,0.2,0.7,0.3C12.5,2.1,12.3,2,12.2,2c-0.2-0.1-0.4-0.1-0.6-0.2C11.7,1.7,11.8,1.6,11.8,1.6z M11.5,2
			c0.2,0.1,0.5,0.2,0.7,0.3c0,0.1-0.1,0.2-0.2,0.2c0,0-0.1,0-0.1,0c-0.2-0.1-0.4-0.2-0.6-0.3C11.3,2.1,11.4,2,11.5,2z M11.2,2.9
			C11.3,3,11.4,3,11.4,3c0.1,0.1-0.1,0.2-0.1,0.2c-0.1,0.4-0.2,0.8-0.4,1.2c-0.1,0.1-0.3,0.1-0.4,0.2c0-0.1,0-0.2,0.1-0.3
			c0.1-0.4,0.2-0.9,0.5-1.3C11.2,3,11.2,3,11.2,2.9C11.1,2.9,11.1,2.9,11.2,2.9C11.1,2.9,11.1,2.9,11.2,2.9L11.2,2.9
			C11.1,2.9,11.2,2.9,11.2,2.9z M11.4,5.6C11.4,5.6,11.3,5.6,11.4,5.6C11.3,5.5,11.3,5.5,11.4,5.6C11.4,5.5,11.4,5.5,11.4,5.6z
			 M11,6.7c-0.1,0.1-0.2,0.1-0.3,0c0,0,0-0.1,0.1-0.1C10.8,6.6,10.9,6.7,11,6.7z M10.9,6.4c0-0.1,0.1-0.2,0.1-0.2c0,0,0,0,0,0
			c0.2,0.1,0.2,0.1,0.1,0.3c0,0,0,0-0.1,0C11,6.5,10.9,6.4,10.9,6.4C10.9,6.4,10.9,6.4,10.9,6.4z M10.7,7.1C10.9,7,11,7,11.2,7
			c0,0.1-0.1,0.1-0.1,0.1c-0.2,0.1-0.5,0.1-0.7,0.2c0,0,0-0.1,0.1-0.1C10.5,7.2,10.6,7.2,10.7,7.1z M11.2,6C11.2,6,11.1,6,11.2,6
			c0-0.1,0-0.2,0-0.2c0,0,0,0,0.1,0c0.1,0,0,0.1,0,0.1C11.3,6,11.2,6,11.2,6z M9.9,4.9c0,0-0.1,0-0.1-0.1c-0.1,0-0.1-0.1-0.1-0.2
			c0-0.1-0.1-0.2,0.1-0.3c0,0,0.1,0,0.1-0.1c0.1-0.1,0.1-0.1,0-0.2c0,0-0.1,0-0.1,0C9.9,4,9.9,3.9,10,3.9c0.1-0.1,0.1-0.2,0.2-0.3
			c0,0.1,0,0.1,0,0.2C10.1,4.1,10,4.4,9.9,4.7C9.9,4.8,9.9,4.8,9.9,4.9c0.1,0,0.2-0.1,0.2-0.1c0,0,0-0.1,0-0.1
			c0.2-0.5,0.2-1.1,0.5-1.6c0,0,0,0,0,0c0.1-0.1,0.1-0.2,0.2-0.3c0.1,0,0.2,0.1,0.3,0.1c0,0,0,0,0,0c-0.1,0-0.2,0.1-0.2,0.2
			c-0.3,0.6-0.4,1.1-0.6,1.7C10.2,4.9,10,4.9,9.9,4.9z M11.6,7.4c-0.2,0.1-0.3,0.1-0.5,0.2c-0.3,0.2-0.7,0.3-1,0.4
			c0.1-0.1,0.1-0.2,0.2-0.4c0.2-0.1,0.5-0.2,0.7-0.2c0.3-0.1,0.4-0.2,0.6-0.4c0.3-0.4,0.5-0.9,0.7-1.3c0,0,0-0.1,0.1-0.1
			c0,0,0.1,0,0.1,0c0,0,0,0,0,0.1c-0.2,0.1-0.2,0.3-0.3,0.5C12,6.4,11.8,6.7,11.6,7c0,0,0,0,0,0.1c0,0.1,0,0.1,0,0.2
			c0.1,0,0.1,0,0.2,0C11.9,7,12,6.9,12,6.7c0.2-0.3,0.3-0.6,0.5-1c0-0.1,0-0.1,0-0.2c0.3,0.1,0.6,0.2,0.9,0.3C13.6,6,13.7,6,13.8,6
			c0.1,0,0.2,0,0.1-0.1c0-0.1,0.1-0.1,0.1-0.1c0.4,0,0.8-0.1,1.2-0.1c0.1,0,0.2,0,0.4-0.1c0.1,0,0.2-0.1,0.1-0.2
			c0-0.1-0.1-0.1-0.2-0.1c-0.4,0.1-0.8,0.1-1.3,0.2c-0.2,0-0.4,0-0.6,0.2c0,0-0.1,0-0.1,0c-0.4-0.2-0.9-0.3-1.3-0.6c0,0,0,0,0,0
			c0.1,0,0.1,0,0.2,0c0.1,0,0.1,0,0.2,0c0.3,0.1,0.5,0.2,0.8,0.3c0.2,0.1,0.4-0.1,0.4-0.3C13.8,5,13.8,5,13.7,5
			c-0.5-0.2-1-0.3-1.6-0.5c-0.1,0-0.2,0-0.2,0.1c0,0.1,0,0.2,0.1,0.2c0.1,0,0.2,0,0.3,0.1c-0.1,0-0.2,0-0.2,0.2c0,0.1,0,0.1-0.1,0.1
			c0,0-0.1,0.1,0,0.1c0.1,0.1,0,0.2,0,0.3c-0.2,0.5-0.4,0.9-0.7,1.3c-0.1-0.1-0.1-0.1,0-0.2c0.2-0.5,0.4-1,0.5-1.5c0,0,0-0.1,0-0.1
			c-0.1-0.1-0.1-0.2,0-0.3c0.1-0.2,0.2-0.4,0.3-0.6c0,0,0,0,0,0c0.1,0,0.2,0.1,0.2,0.1c0.5,0.2,1,0.3,1.5,0.5c0,0,0,0,0.1,0
			c0.1,0,0.1,0,0.1-0.1c0,0,0-0.1,0-0.1c-0.1-0.1-0.1-0.1-0.2-0.1c-0.5-0.2-1-0.3-1.5-0.5c0,0,0,0,0,0c0-0.1,0.1-0.1,0.1-0.2
			c0.1-0.1,0.1-0.4-0.2-0.1c0,0,0,0,0,0c0,0,0-0.1,0-0.1c-0.1,0-0.1,0-0.2,0c-0.1,0.1-0.1,0.1-0.1,0.2c0,0.1,0,0.1-0.1,0.2
			C11.7,4,11.6,4,11.6,4.1c0.1-0.2,0.2-0.5,0.2-0.7c0-0.1,0.1-0.2,0.1-0.2c0,0,0.1-0.1,0.1,0c0.1,0.1,0.2,0,0.3-0.1
			c0.4-0.4,0.7-0.7,1.2-1c0.2-0.1,0.2-0.2,0.1-0.3c0,0,0-0.1,0-0.1c0-0.1,0-0.1,0-0.2c0.1,0.1,0.2,0.2,0.3,0.2c0,0,0,0.1,0,0.1
			c0,0.1,0,0.1,0,0.2c0.1,0,0.1,0,0.2,0c0,0,0,0,0,0c0,0,0,0,0,0c0.3,0.5,0.6,1,1,1.5c0,0.4,0.1,0.7,0.1,1.1c0,0,0,0.1,0,0.1
			c-0.2,0.1-0.3,0.1-0.3-0.1c0,0,0-0.1,0-0.1c0-0.4-0.2-0.7-0.3-1.1c0-0.1,0-0.2-0.1-0.2c-0.1,0-0.1,0.1-0.1,0.2c0,0,0,0.1,0,0.1
			c0,0.1,0,0.1-0.1,0.2c-0.2,0.1-0.5,0.1-0.6,0.3c0,0,0,0-0.1,0c-0.1,0-0.3-0.1-0.4-0.2c0.4-0.3,0.7-0.5,1.1-0.8
			c0.1-0.1,0.3-0.1,0.2-0.3c-0.1-0.2-0.2,0-0.3,0.1c-0.3,0.3-0.7,0.6-1,0.8c-0.1,0,0,0.2-0.1,0.2c-0.1,0-0.1,0-0.1,0.1
			c0,0.1,0.1,0.1,0.2,0.1C13,4,13.3,4.1,13.5,4.2c0.2,0.1,0.4,0.1,0.6,0.1c0.1,0,0.1,0,0.1,0.1c0,0.3,0.1,0.6,0.1,0.8
			c0,0.1,0,0.2,0.2,0.1c0.1,0,0.1,0,0.2,0c0.3-0.1,0.6-0.1,0.8-0.1c0.1,0,0.2,0,0.2-0.1c0,0,0-0.1,0-0.1c0.1,0.2,0.3,0.4,0.4,0.6
			c0,0,0,0.1,0,0.1c0.1,0.1,0.1,0.1,0.2,0.2c0.1,0.1,0.1,0.2,0.2,0.3C16.3,6,16.2,5.9,16,5.9c-0.1,0-0.2,0-0.2,0c0,0,0,0-0.1,0
			c-0.1-0.1-0.3,0-0.4,0C14.9,6,14.4,6.1,14,6.2c-0.1,0-0.2,0-0.3,0.2c0,0.1-0.1,0.2-0.2,0.2c-0.2,0.2-0.4,0.4-0.7,0.6
			C12.9,7,13,6.9,13.2,6.7c0.1-0.1,0.2-0.2,0.3-0.4c0.1-0.1,0.1-0.1,0-0.2c-0.1-0.1-0.2,0-0.2,0c-0.4,0.4-0.7,0.9-1,1.4
			c0,0,0,0.1-0.1,0.1c-0.1-0.1-0.1-0.1,0-0.2C12.4,7,12.7,6.6,13,6.2C13,6.1,13,6,13,6c0-0.1-0.1-0.1-0.2,0c-0.1,0-0.1,0.1-0.1,0.1
			c-0.3,0.5-0.5,1-0.8,1.5c-0.1,0.1-0.1,0.2,0.1,0.3C12,7.8,12,7.9,12,7.9c0,0.2,0,0.3,0.1,0.5c0,0,0,0.1,0,0.1
			c-0.1,0-0.2,0.1-0.3,0c-0.1-0.1-0.1-0.2-0.2-0.3c0,0,0.1,0,0.1,0c0.1,0,0.2,0,0.1-0.1C11.8,8,11.8,8,11.7,8c-0.1,0-0.2,0-0.3,0.1
			c-0.4,0.1-0.8,0.2-1.2,0.4c-0.1,0-0.2,0-0.2-0.1c0.5-0.2,1-0.4,1.5-0.6c0,0,0.1,0,0.1-0.1c0.1,0,0.1-0.1,0.1-0.2
			C11.7,7.3,11.6,7.3,11.6,7.4z M11.3,8.3C11.3,8.4,11.2,8.4,11.3,8.3c-0.3,0.2-0.6,0.2-0.8,0.3c-0.1,0-0.1,0-0.2-0.1
			C10.6,8.5,10.9,8.4,11.3,8.3C11.2,8.3,11.3,8.3,11.3,8.3z M9.6,8.8C9.6,9,9.5,9.2,9.5,9.4c0,0.1-0.1,0.2,0,0.4c0,0,0,0,0,0
			c0,0-0.1,0-0.1,0C9.4,9.4,9.5,9.1,9.6,8.8z M9.2,9.9c0.2,0.1,0.5,0.2,0.7,0.3c0.1,0,0.1,0.1,0.1,0.1c-0.2,0-0.3-0.1-0.5-0.1
			C9.4,10.1,9.2,10.1,9.2,9.9C9.1,10,9.1,10,9.2,9.9z M9,10.3c0.3,0.1,0.5,0.2,0.8,0.3c0.1,0,0.2,0,0.2,0.1c0.1,0,0.2,0,0.2-0.1
			c0-0.1,0.1-0.1,0.2-0.1c0.1,0.1,0.2,0.1,0.3,0.1c-0.1,0.1-0.2,0.1-0.3,0.1c-0.1,0-0.2,0.1-0.1,0.2c0,0.1,0.1,0.1,0.2,0.1
			c0.5-0.1,1.1-0.3,1.6-0.3c0.1,0,0.2,0,0.2-0.1c0-0.1-0.1-0.1-0.2-0.1c-0.3,0-0.7,0-1,0.1c-0.1,0-0.2,0-0.2-0.1
			C10.6,10,10.3,9.6,10,9.2c0,0,0,0,0,0C10.3,9,10.3,9,10.5,9.3c0.2,0.3,0.3,0.6,0.5,0.9c0,0.1,0.1,0.2,0.2,0.1c0.1,0,0.1-0.1,0-0.2
			c-0.2-0.3-0.4-0.7-0.6-1c0,0-0.1-0.1,0-0.2c0.1-0.1,0.2,0,0.2,0.1c0.2,0.4,0.5,0.8,0.7,1.2c0,0,0,0,0,0.1c0.1,0,0.2,0,0.3,0.1
			c0.1,0,0.1-0.1,0.1-0.2c0-0.1-0.1-0.2-0.1-0.3c-0.2-0.4-0.3-0.7-0.5-1.1c0-0.1,0-0.1,0-0.1c0.1-0.1,0.1,0,0.1,0
			c0.1,0.2,0.3,0.3,0.3,0.5c0,0.1,0.2,0.2,0.2,0.3c0,0-0.1,0-0.1,0c-0.1,0-0.1,0-0.1,0.1c0,0.1,0,0.1,0.1,0.1c0.1,0,0.1,0,0.2,0
			c0.2,0,0.2,0.1,0.1,0.2c-0.1,0.1,0,0.2,0.1,0.2c0.1,0,0.2,0.1,0.3,0.1c-0.2,0.4-0.3,0.8-0.4,1.2c0,0.1-0.1,0.2-0.1,0.3
			c0,0,0,0.1-0.1,0.1c0,0-0.1,0-0.1-0.1c0-0.1,0-0.1,0-0.2c0.1-0.3,0.1-0.5,0.2-0.8c0-0.1,0.1-0.1,0-0.2c-0.1-0.1-0.1,0-0.2,0
			c-0.3,0-0.6,0.1-0.9,0.1c-0.4,0.1-0.7,0.2-1.1,0.3c0-0.1-0.1-0.2-0.2-0.2c-0.3-0.1-0.7-0.2-1.1-0.3C8.9,10.5,9,10.4,9,10.3z
			 M8.8,10.9c0.4,0.1,0.8,0.2,1.1,0.3c0,0,0.1,0,0.1,0.1c0,0,0,0.1-0.1,0.1c0,0-0.1,0-0.1,0c-0.1,0.2-0.2,0.1-0.3,0
			c-0.3-0.1-0.5-0.2-0.8-0.3C8.7,11,8.7,10.9,8.8,10.9z M7.4,14.9c0.1,0,0.1-0.1,0.1-0.2c0.2-0.4,0.3-0.8,0.5-1.3
			c0.1,0,0.1,0.1,0.2,0.1c0.1-0.1,0.1-0.1,0-0.2c-0.1-0.1-0.1-0.2,0-0.3c0.1,0,0-0.1,0-0.2c0-0.1-0.1-0.2-0.1-0.3
			c0-0.1,0.1-0.2,0.1-0.4c0.1,0.2,0.2,0.4,0.3,0.6c0,0,0,0.1,0.1,0.1c0,0.1,0.1,0.1,0.2,0.1c0.1,0,0.1-0.1,0-0.2
			c-0.1-0.3-0.3-0.6-0.5-0.9c0,0,0-0.1,0-0.1c0.1,0.2,0.3,0.5,0.4,0.7C8.9,12.7,9,12.8,9,13c0,0.1,0,0.1,0.1,0.1
			c0.1,0,0.1-0.1,0.1-0.2c0-0.2-0.1-0.4-0.2-0.5c-0.1-0.3-0.3-0.5-0.4-0.8c0.1,0,0.2,0,0.2,0.1C9,12.2,9.2,12.6,9.3,13
			c0,0.1,0.1,0.2,0,0.3c0,0.1,0,0.1,0.1,0.2c0.1,0,0.1,0,0.2-0.1c0-0.1,0-0.2,0-0.4c-0.1-0.3-0.2-0.7-0.4-1c0,0,0-0.1-0.1-0.2
			c0.2,0.1,0.3,0.1,0.5,0.2c0.1,0,0,0.1,0,0.1c0,0.2,0,0.3-0.1,0.5c0,0.1,0,0.2,0.1,0.2c0.1,0,0.1-0.1,0.1-0.2c0-0.3,0.1-0.7,0.1-1
			c0-0.1,0-0.2,0.2-0.2c0.4-0.2,0.9-0.3,1.4-0.4c0.1,0,0.2,0,0.4-0.1c0,0,0.1,0,0.1,0c0,0.1,0,0.2-0.1,0.2c-0.6,0-1.1,0.3-1.7,0.3
			c-0.1,0-0.1,0.1-0.1,0.2c0,0.6-0.2,1.2-0.1,1.8c0,0.1,0,0.1-0.1,0.1c0,0-0.1,0-0.1,0c-0.3-0.1-0.5,0.1-0.6,0.3
			C9.2,14,9.1,14,8.9,14c0-0.1,0-0.1,0.1-0.2c0-0.1,0-0.1-0.1-0.2c-0.1,0-0.1,0-0.2,0c-0.1,0.3-0.3,0.6-0.4,1c0,0.1,0,0.2,0.1,0.2
			c0.1,0,0.1-0.1,0.2-0.1c0.1-0.2,0.2-0.4,0.3-0.6c0.2,0.1,0.2,0.2,0,0.2c-0.1,0-0.1,0.1-0.1,0.1c0.1,0.2-0.1,0.3-0.2,0.5
			c0,0,0,0.1-0.1,0c-0.3-0.1-0.7,0-1-0.1c0,0-0.1,0-0.1,0C7.4,14.9,7.4,14.9,7.4,14.9z M7.2,15.3c0.4,0,0.8,0,1.2,0c0,0,0.1,0,0.1,0
			c0.1,0,0.2,0,0.2-0.1c0-0.1,0-0.2,0.1-0.2c0,0.2-0.1,0.4-0.1,0.5c0,0,0,0-0.1,0c-0.3,0-0.5,0-0.8,0c-0.3,0-0.5,0-0.8,0
			C7.2,15.5,7.2,15.4,7.2,15.3z M7.1,15.8c0.4,0,0.8,0,1.2,0c0.1,0,0.1,0,0.2,0c0.1-0.1,0.2,0,0.2,0.1c0,0.1-0.1,0.2-0.1,0.4
			c0,0,0,0-0.1,0c0-0.1-0.1-0.1-0.1-0.2c0-0.2,0-0.2-0.2-0.2c-0.2,0-0.4,0-0.7,0v0C7.3,15.8,7.2,15.8,7.1,15.8
			C7.1,15.8,7.1,15.8,7.1,15.8z M7,16.1C7,16.1,7.1,16.1,7,16.1c0.3,0,0.6,0,0.9,0c0.2,0,0.2,0.1,0.3,0.2c-0.4,0-0.7,0-1.1,0
			c0,0-0.1,0-0.1,0C7,16.2,7,16.2,7,16.1z M6.9,16.5C6.9,16.5,6.9,16.5,6.9,16.5c0,0.1,0,0.1,0,0.1c0,0,0,0,0,0
			C6.9,16.6,6.9,16.6,6.9,16.5z M6.7,17.2c0.2-0.2,0.3-0.4,0.5-0.6c0,0,0.1-0.1,0.2-0.1c0.2,0,0.4,0,0.6,0c-0.1,0.1-0.1,0.2,0,0.3
			c0.1,0.1,0.2,0.3,0.3,0.4c-0.1,0-0.1,0-0.2,0.1c0,0-0.1-0.1-0.1-0.1c-0.1-0.1-0.1-0.1-0.2,0c-0.1,0.1,0,0.1,0,0.2c0,0,0,0,0,0
			c0,0,0,0-0.1,0c0,0-0.1-0.1-0.1-0.1c-0.3-0.2-0.3-0.2,0-0.5c0,0,0.1-0.1,0.1-0.1c0.1-0.1,0.1-0.1,0-0.2c-0.1-0.1-0.1,0-0.2,0
			c-0.2,0.3-0.5,0.4-0.7,0.7c-0.1,0.1-0.2,0-0.2,0C6.7,17.3,6.7,17.2,6.7,17.2z M6.6,17.6c0.1,0,0.1,0.1,0.2,0.1
			c0.1,0,0.3,0.1,0.3-0.2c0-0.2,0.2-0.2,0.3-0.1c0.1,0.1,0.1,0.1,0.2,0.2c-0.2,0.1-0.3,0.1-0.5,0.2c-0.2,0.1-0.4,0.2-0.7,0.3
			C6.6,17.9,6.6,17.8,6.6,17.6z M4.8,21.7c0-0.8,0.9-1.9,1.5-2.2c-0.1,1-0.1,1.6,0,2.3c0.1,1.8,1.1,2.8,2.5,3.7
			c1.7,1.1,3.7,1.1,5.6,1.1c1.3,0,2.6-0.2,3.7-0.4c3.2-0.6,4.1-4.1,3.8-5.8c-0.1-0.3-0.2-0.9-0.4-1.5c0.7,0.3,1.4,0.9,1.8,1.4
			c0.7,0.9,0.7,2,0.3,3.1c-0.2,0.5-0.4,0.9-0.8,1.3c-0.2,0.2-0.7,0.3-0.8,0.5c0.9,1.6,0.3,3.2-1.3,3.9c-1.6,0.7-3.3,0.8-4.9-0.2
			c-0.1-0.1-0.2-0.1-0.3-0.2c-0.5-0.4-1-0.4-1.6,0.1c-0.5,0.5-1.4,0.8-2.2,0.8c-1.3,0.1-2.1,0-3-0.5c-1.2-0.5-2-1.3-1.9-2.6
			c0-0.2,0-0.4,0-0.6C4.9,25,4.8,23.4,4.8,21.7z M4.7,27.3c0.1,0.2,0.1,0.3,0.1,0.5c-0.1,0-0.1-0.1-0.1-0.2c0-0.1-0.1-0.2-0.1-0.2
			C4.7,27.4,4.7,27.3,4.7,27.3z M4,29.6c0.1-0.2,0.1-0.4,0.1-0.6c0,0,0-0.1,0-0.1c0.1-0.2,0.1-0.4,0.2-0.6c0,0,0,0,0,0
			c0,0,0.1,0.1,0.1,0c0.2-0.1,0.1-0.2,0-0.3c0,0,0,0,0-0.1c0-0.1,0.1-0.1,0.1-0.2c0,0.1,0,0.1,0.1,0.2c0,0.1,0.1,0.1,0.1,0.1
			c0.1,0,0.3,0,0.3-0.1c0.2-0.3,0.4-0.5,0.6-0.7c0,0.2-0.1,0.5-0.1,0.7c0,0.1-0.1,0.1-0.1,0.2c0,0.1,0,0.1,0,0.2c0,0,0,0,0,0
			c0,0.1,0,0.1,0,0.2c-0.1,0-0.2,0-0.3-0.1c0,0-0.1,0-0.1,0c-0.1,0.2-0.2,0.1-0.4,0.1c-0.1,0-0.1,0-0.2,0c-0.1,0-0.2,0-0.2,0.1
			c0,0.1,0.1,0.1,0.1,0.1c0.1,0,0.2,0,0.3,0c0.1,0,0.1,0,0.1,0.1c0,0.1,0,0.1-0.1,0.1c-0.2-0.1-0.3,0.1-0.5,0.1
			c-0.1,0-0.1,0.1-0.1,0.2c0,0.4-0.2,0.8-0.3,1.2c0,0.1-0.1,0.1-0.2,0.1C3.9,30.2,4,29.9,4,29.6z M3.9,30.8c0.2,0.1,0.2,0.1,0.3-0.1
			c0,0,0-0.1,0-0.1c0,0,0-0.1,0-0.1c0.2,0.2,0.2,0.3,0,0.5c0,0,0,0,0,0c0,0-0.1,0-0.1,0C4,30.9,3.9,30.8,3.9,30.8
			C3.8,30.8,3.8,30.7,3.9,30.8z M4.6,33.6c-1.2,0-1.6-0.7-1.2-1.8c0.4,0.2,0.9,0.4,1.3,0.6C4.6,32.8,4.6,33.1,4.6,33.6z M6.6,34.6
			C6.7,34.6,6.7,34.6,6.6,34.6c0.2,0,0.3,0,0.4-0.1c0.1,0,0.2-0.1,0.1-0.2c0-0.1-0.1-0.1-0.2-0.1c-0.3,0.1-0.6,0.1-0.9,0.2
			c0.1-0.4,0.2-0.8,0.3-1.1c0-0.2,0.1-0.3,0.1-0.5c0-0.1,0.1-0.2,0.2-0.2c0.3,0,0.3,0,0.2,0.3c-0.1,0.4-0.2,0.7-0.3,1.1
			c0,0.1,0,0.2,0.1,0.2c0.1,0,0.1-0.1,0.2-0.2c0.1-0.3,0.1-0.5,0.2-0.8c0,0,0,0,0,0c0,0.2,0.1,0.2,0.3,0.1c0.3-0.2,0.7-0.4,1.1-0.5
			c0.1,0,0.2-0.1,0.2-0.1c0.1,0,0.2-0.1,0.1-0.2c0-0.1-0.1-0.1-0.2-0.1c-0.1,0-0.1,0-0.2,0.1c-0.5,0.2-0.9,0.4-1.3,0.7c0,0,0,0,0,0
			v0l0,0c0-0.1,0-0.1,0.1-0.2c0.4-0.2,0.7-0.4,1.1-0.6c0.1,0,0.2-0.1,0.3-0.1c0.1,0,0.2-0.1,0.1-0.2c0,0,0-0.1,0-0.1
			c0-0.5-0.1-0.9-0.2-1.4c0.2,0.1,0.3,0.2,0.4,0.2c-0.1,0.1-0.1,0.2-0.1,0.3c0.1,0.2,0.1,0.5,0.1,0.7c0,0.1,0,0.1,0,0.2
			c0,0,0,0.1,0,0.1c0,0.1,0.1,0.2,0.2,0.2c0.1,0,0.1-0.1,0.1-0.2c0-0.3,0-0.5-0.1-0.8c0-0.1-0.1-0.3-0.1-0.4c0.2,0,0.2,0.1,0.2,0.3
			c0,0.3,0,0.6,0,0.9c0,0,0,0.1,0,0.1c-0.1,0.2-0.2,0.4-0.4,0.6c0,0.1-0.1,0.2,0,0.2c0.1,0.1,0.2,0,0.2-0.1c0,0,0,0,0,0
			c0,0.1,0.1,0.1,0.1,0.1c0.1,0,0.1-0.1,0.1-0.1c0.2-0.3,0.4-0.6,0.5-0.9c0-0.1,0.1-0.1,0.2-0.2c0,0.1,0,0.1,0,0.1
			c-0.1,0.2-0.3,0.4-0.4,0.7c0,0.1-0.1,0.1-0.1,0.2c0,0.1,0,0.1,0.1,0.1c0.1,0,0.1,0,0.2-0.1c0.1-0.3,0.3-0.5,0.5-0.8
			c0-0.1,0.1-0.1,0.1-0.2c0-0.1,0-0.1,0-0.2c-0.1-0.1-0.1-0.1-0.2,0s-0.1,0-0.2,0c-0.1-0.1-0.2,0-0.2,0.1c-0.1,0.2-0.2,0.3-0.3,0.5
			c0.1-0.3,0.2-0.5,0.4-0.8c0,0,0.1-0.1,0.1-0.1c-0.1-0.2,0.1-0.1,0.2-0.1c0.3,0,0.6,0,0.9,0c0.2,0,0.3-0.1,0.3-0.2
			c0.1-0.2,0.1-0.4,0.2-0.6c0.1,0,0.1,0,0.2,0c-0.1,0.3-0.2,0.5-0.3,0.8c0,0.1-0.1,0.1,0,0.2c-0.4,0-0.9,0-1.3,0
			c-0.1,0-0.2,0-0.2,0.1c0,0.1,0.1,0.1,0.2,0.1c0.2,0,0.5,0,0.7,0c0.1,0,0.1,0,0.1,0.1c0,0.1-0.1,0.1-0.1,0.1
			c-0.1,0-0.1,0.1-0.1,0.2c0,0.2,0,0.4,0.1,0.5c0.1,0.3,0.2,0.6,0.3,0.8c0,0.1,0.1,0.1,0,0.2c-0.2-0.5-0.4-0.9-0.5-1.4
			c0,0,0-0.1,0-0.1c0-0.1-0.1-0.1-0.1-0.1c-0.1,0-0.1,0.1-0.1,0.1c0,0.1-0.1,0.2-0.1,0.3c-0.2,0.3-0.4,0.6-0.5,0.9
			c0,0.1-0.1,0.1-0.2,0.1c-0.1,0-0.2,0-0.3-0.1c-0.1,0-0.2,0-0.2,0.1c0,0.1,0,0.1,0.1,0.1c0.4,0.1,0.9,0.2,1.3,0.3
			c0.1,0,0.1,0,0.2-0.1c0-0.1,0-0.1-0.1-0.2c-0.2-0.1-0.3-0.1-0.5-0.1c-0.1,0-0.2-0.1-0.1-0.2c0.1-0.3,0.3-0.5,0.4-0.8
			c0.1,0.2,0.1,0.3,0.1,0.4c0.1,0.2,0.1,0.4,0.2,0.6c0,0.1,0.1,0.2,0.2,0.1c-0.1,0.2-0.2,0.4-0.3,0.7c0,0.1-0.1,0.2-0.1,0.3
			c-0.1,0-0.2,0-0.3,0c0,0,0,0-0.1,0c-0.5-0.1-0.9-0.1-1.3-0.3c-0.1,0-0.1,0-0.1,0c0,0.1,0,0.1,0,0.2c0.1,0,0.1,0.1,0.2,0.1
			c0.1,0,0.2,0,0.2,0.1c-0.1,0-0.2,0-0.3,0c-0.1,0-0.2,0-0.4,0c-0.1-0.2-0.2-0.4-0.3-0.6c0-0.1,0-0.1,0.1-0.2
			c0.1-0.1,0.3-0.1,0.4-0.2c0.1,0,0.2-0.1,0.1-0.2c-0.1-0.1-0.2,0-0.2,0c-0.5,0.3-0.9,0.6-1.3,1c-0.1,0.1-0.1,0.1,0,0.2
			c0,0,0.1,0,0.1,0C7.2,34.6,6.9,34.6,6.6,34.6z M8.1,34.6C8.1,34.6,8,34.6,8.1,34.6c-0.1-0.1-0.2-0.1-0.2,0c-0.1,0-0.2,0-0.3,0
			c0,0,0.1,0,0.1-0.1c0.1-0.1,0.2-0.2,0.3-0.3c0.2-0.2,0.2-0.2,0.4,0.1c0,0.1,0.1,0.2,0.1,0.3C8.3,34.6,8.2,34.6,8.1,34.6z M12.2,38
			c-1.1,0.1-2.3,0-3.4-0.1c-0.3,0-0.8-0.2-0.9-0.4c-0.1-0.5-0.1-1.1,0-1.6c0-0.1,0.3-0.2,0.5-0.3c0.4,0,0.8,0,1.2,0
			c0.6,0,1.2-0.1,1.8-0.1c1-0.1,1.9,0.1,2.8,0.1C14.4,37.9,13.9,37.9,12.2,38z M21.3,36.6c0,0.7-0.2,1.2-0.9,1.2
			c-1.6,0.1-3.1,0-4.7,0c-0.4,0-0.7-0.3-0.6-0.7c0-0.5,0.1-1.1,0.1-1.7c1.9-0.3,4.2-0.1,6.1-0.1C21.3,35.9,21.3,36.2,21.3,36.6z
			 M23.7,33.6c-0.1-0.2-0.2-0.5-0.2-0.7c0-0.1,0-0.3,0-0.5c0.2-0.1,0.5-0.2,0.7-0.3c0.2-0.1,0.4-0.2,0.8-0.3
			C24.9,33.1,24.8,33.3,23.7,33.6z"/>
		<path d="M17.6,22.1c0.1,0,0.1,0,0.2,0c0.2,0,0.4-0.4,0.4-0.5c0-0.2-0.1-0.5-0.4-0.6c-0.2,0-0.4,0-0.5,0.1
			c-0.1,0.1-0.2,0.2-0.2,0.4c0,0.2,0,0.3,0.2,0.5C17.3,22,17.5,22.1,17.6,22.1z"/>
		<path d="M10.4,22.1c0.1,0,0.1,0,0.2,0c0.2-0.1,0.6-0.3,0.6-0.7c0-0.2-0.1-0.3-0.2-0.4c-0.2-0.1-0.4-0.2-0.6-0.1
			C10,21,9.9,21.3,9.9,21.5c0,0.2,0,0.4,0.2,0.5C10.2,22,10.3,22.1,10.4,22.1z"/>
	</g>
</g>
</svg>
