<?xml version="1.0" encoding="utf-8"?>
<!-- Generator: Adobe Illustrator 25.0.1, SVG Export Plug-In . SVG Version: 6.00 Build 0)  -->
<svg version="1.1" id="Layer_1" xmlns="http://www.w3.org/2000/svg" xmlns:xlink="http://www.w3.org/1999/xlink" x="0px" y="0px"
	 viewBox="0 0 28 39" style="enable-background:new 0 0 28 39;" xml:space="preserve">
<style type="text/css">
	.st0{fill-rule:evenodd;clip-rule:evenodd;fill:#585858;}
	.st1{fill:#585858;}
</style>
<g id="Layer_1_2_">
	<g id="Layer_1_1_">
	</g>
	<g id="texture">
	</g>
</g>
<g id="texture_1_">
</g>
<g id="b_x26_w">
	<polygon class="st0" points="5,25.3 5,25.3 5,25.3 	"/>
	<g>
		<path class="st1" d="M7.7,31.4c0-0.1-0.1-0.1-0.1-0.1c-0.1,0-0.3,0-0.4,0c-0.3,0-0.5,0-0.8,0.1c-0.1,0-0.1,0.1-0.1,0.1
			c0,0.1,0.1,0.1,0.2,0.1c0.4-0.1,0.8-0.1,1.2-0.1C7.6,31.5,7.6,31.4,7.7,31.4z"/>
		<path class="st1" d="M8.7,33.2c0.1,0,0.1-0.1,0.1-0.2c-0.1-0.1-0.1-0.1-0.2,0c-0.4,0.3-0.8,0.5-1.2,0.7c-0.1,0-0.1,0.1-0.2,0.1
			c0,0-0.1,0.1,0,0.1L7.3,34h0.1c0.3-0.1,0.6-0.3,0.8-0.4C8.3,33.4,8.5,33.3,8.7,33.2z"/>
		<path class="st1" d="M9.2,34c0.4,0.1,0.8,0.2,1.2,0.2h0.1c0.1,0,0.2,0,0.2-0.1s-0.1-0.2-0.1-0.2c-0.4,0-0.9-0.1-1.3-0.2
			c-0.1,0-0.1,0-0.2,0.1C9,34,9.1,34,9.2,34z"/>
		<polygon class="st1" points="20.1,33.2 20.1,33.2 20.1,33.2 20.1,33.2 		"/>
		<path class="st1" d="M20.3,32.8c0.1-0.5,0.2-1.1,0.4-1.6c0-0.1,0-0.1-0.1-0.2c-0.1,0-0.1,0-0.2,0.1c0,0.1,0,0.1,0,0.2
			c-0.1,0.5-0.2,1.1-0.4,1.6c0,0.1,0,0.1,0.1,0.2C20.3,33.2,20.3,33,20.3,32.8z"/>
		<path class="st1" d="M21.1,31.3c-0.1,0-0.1,0-0.2,0c0,0,0,0.1-0.1,0.1c-0.1,0.3-0.1,0.5-0.2,0.8c-0.1,0.3-0.1,0.6-0.2,0.9
			c0,0.1,0,0.1,0.1,0.1s0.1,0,0.1-0.1V33c0.1-0.6,0.2-1.2,0.4-1.7C21.2,31.4,21.2,31.3,21.1,31.3z"/>
		<path class="st1" d="M16.7,30.4c-0.1,0-0.2,0-0.2,0c0,0.1,0,0.1,0.1,0.2c0.5,0.2,0.9,0.5,1.3,0.8c0.1,0,0.1,0.1,0.2,0.1
			c0,0,0.1,0,0.1-0.1s0-0.1-0.1-0.2c-0.2-0.1-0.4-0.3-0.6-0.4C17.2,30.6,17,30.5,16.7,30.4z"/>
		<path class="st1" d="M21.4,31.1C21.4,31.1,21.5,31.1,21.4,31.1c0.1-0.1,0.1-0.1,0.1-0.2c-0.1-0.1-0.1-0.1-0.2-0.1
			c-0.4-0.1-0.8-0.1-1.1-0.3c-0.1,0-0.1,0-0.1,0.1s0,0.1,0,0.1c0.1,0,0.1,0.1,0.2,0.1c0.3,0.1,0.6,0.1,0.9,0.2
			C21.2,31,21.3,31.1,21.4,31.1z"/>
		<path class="st1" d="M14.1,32.7c0-0.1,0-0.2-0.1-0.2s-0.1,0-0.2,0.1c-0.1,0.1-0.1,0.3-0.2,0.4c0.1-0.2,0.1-0.3,0.2-0.5
			c0-0.1,0.1-0.2,0-0.2s-0.1,0-0.2,0.1c-0.2,0.4-0.3,0.9-0.5,1.3c-0.1,0.2,0.2,0.2,0.2,0.3c0,0,0.1,0.1,0.1,0c0,0,0,0,0.1-0.1
			C13.8,33.5,14,33.1,14.1,32.7z"/>
		<path class="st1" d="M14.2,33.6c0,0.1,0,0.1,0.1,0.1c0.5,0.1,1,0.3,1.4,0.5c0.1,0,0.2,0.1,0.2-0.1c0-0.1-0.1-0.1-0.1-0.2
			c-0.4-0.2-0.8-0.3-1.3-0.5c-0.1,0-0.1,0-0.2-0.1C14.2,33.5,14.2,33.5,14.2,33.6z"/>
		<path class="st1" d="M19.7,14.8c0,0.1-0.1,0.1-0.1,0.2c-0.2,0.5-0.3,0.9-0.5,1.4c0,0.1,0,0.1,0,0.2c0.1,0,0.1,0,0.2,0
			c0.1-0.1,0.1-0.1,0.1-0.2c0-0.2,0.1-0.3,0.2-0.5c0.1,0.3,0.2,0.5,0.4,0.7c0.1,0.1,0.1,0.2,0.2,0.2c0.1-0.1,0-0.2,0-0.3
			c-0.1-0.2-0.2-0.3-0.3-0.5c0-0.1-0.1-0.2-0.2-0.1c0-0.1,0-0.1,0.1-0.2c0.1-0.2,0.2-0.4,0.2-0.6c0-0.1,0-0.1,0-0.2
			C19.8,14.6,19.8,14.7,19.7,14.8z"/>
		<path class="st1" d="M13.9,2.5C14,2.4,14,2.4,14,2.3c-0.1-0.1-0.1-0.1-0.2,0c-0.1,0.1-0.3,0.2-0.4,0.2c-0.3,0.2-0.6,0.4-0.9,0.7
			c-0.1,0-0.1,0.1-0.1,0.2c0,0.1,0.1,0.1,0.1,0.1s0.1,0,0.1-0.1C13.1,3,13.5,2.7,13.9,2.5z"/>
		<path class="st1" d="M10.9,14.2c0.4,0.3,0.8,0.6,1.3,0.8h0.1c0.1-0.1,0.2-0.1,0.3-0.1c0.4,0,0.9,0,1.3,0c0.1,0,0.1,0,0.1,0
			c0-0.1,0-0.1,0-0.2c-0.1-0.1-0.1-0.1-0.2-0.1c-0.4,0-0.8,0-1.2,0h-0.1c-0.1,0.1-0.2,0-0.3,0c-0.4-0.2-0.8-0.4-1.1-0.7
			c-0.1-0.1-0.1-0.1-0.2,0C10.7,14,10.8,14.1,10.9,14.2C10.9,14.1,10.9,14.1,10.9,14.2z"/>
		<path class="st1" d="M18,11.8c0.1-0.1,0.2-0.2,0.2-0.3s0-0.1,0-0.2c-0.1,0-0.1,0-0.2,0c0,0-0.1,0.1-0.1,0
			c-0.2-0.1-0.4-0.1-0.7-0.2c-0.2,0-0.4-0.1-0.6-0.1s-0.3-0.2-0.5-0.4c-0.1-0.1-0.1-0.1-0.2,0c-0.1,0.1,0,0.1,0,0.2
			c0.4,0.3,0.8,0.6,1.3,1c0.1,0.1,0.2,0.1,0.2,0c0.1-0.1,0-0.1-0.1-0.2c-0.1-0.1-0.2-0.2-0.3-0.2l0,0c0.2,0.1,0.5,0.1,0.8,0.2
			c-0.2,0.2-0.4,0.4-0.6,0.6c-0.1,0.1-0.2,0.2-0.3,0.3c0,0.1,0,0.1,0,0.2c0.1,0.1,0.1,0,0.2,0C17.4,12.4,17.7,12.1,18,11.8z"/>
		<path class="st1" d="M16.9,12c-0.4-0.3-0.7-0.6-1.1-1c-0.1-0.1-0.1-0.1-0.2,0c-0.1,0.1,0,0.1,0,0.2l0.1,0.1c0.3,0.3,0.7,0.6,1,0.9
			h0.1C16.9,12.2,16.9,12.2,16.9,12C17,12.1,17,12,16.9,12z"/>
		<path class="st1" d="M18.2,11.8c-0.2,0.3-0.5,0.6-0.8,0.9c-0.1,0.1-0.1,0.2-0.2,0.2c-0.1,0.1,0,0.2,0.1,0.2c0,0,0.1,0,0.1-0.1
			c0.2-0.3,0.5-0.6,0.8-0.9c0.1-0.1,0.1-0.1,0.2-0.2c0-0.1,0.1-0.1,0-0.2C18.3,11.7,18.2,11.7,18.2,11.8z"/>
		<path class="st1" d="M11.9,15.7c0.1,0,0.2,0.1,0.2,0s0-0.2-0.1-0.2c-0.1-0.1-0.3-0.1-0.4-0.2c-0.2-0.2-0.5-0.3-0.7-0.4
			c-0.1,0-0.1-0.1-0.2,0L10.6,15c0,0.1,0,0.1,0.1,0.1C11.2,15.3,11.5,15.6,11.9,15.7z"/>
		<path class="st1" d="M7.9,14.9c0.1,0,0.1,0,0.2-0.1c0.1-0.2,0.1-0.4,0.2-0.6c0.1-0.3,0.2-0.6,0.4-0.8c0-0.1,0-0.2,0-0.2
			c-0.1,0-0.1,0-0.2,0.1c-0.1,0.3-0.3,0.7-0.4,1C8,14.5,8,14.6,8,14.8C7.9,14.9,7.9,14.9,7.9,14.9z"/>
		<path class="st1" d="M9.7,16.6c0.1,0,0.1-0.1,0.1-0.1c0.1-0.3,0.1-0.6,0.2-0.9c0-0.1,0-0.2-0.1-0.2s-0.1,0-0.2,0.1
			c-0.1,0.3-0.2,0.6-0.3,1C9.6,16.6,9.6,16.6,9.7,16.6z"/>
		<path class="st1" d="M9.2,16c0.1,0,0.1,0,0.2-0.1c0.1-0.2,0.2-0.4,0.2-0.6c0-0.1,0-0.1-0.1-0.1s-0.1,0-0.2,0.1
			c-0.1,0.2-0.1,0.4-0.2,0.5C9.1,15.9,9.1,16,9.2,16z"/>
		<path class="st1" d="M25.4,31.2c-0.2-0.4-0.3-0.7-0.5-1.1c-0.4-1.1-0.8-2.1-1.2-3.2c-0.2-0.6-0.4-1.1-0.6-1.7c1.1-1,1-1.1,1.3-1.8
			c0.4-1.1,0.5-1.8,0.2-2.9c-0.2-0.8-1.1-1.5-1.8-1.8c-0.2-0.1-0.4-0.2-0.7-0.3c-0.1-0.6-0.1-1-0.2-1.5c-0.7-3-1.9-5.9-3.2-8.6
			c-0.7-1.4-1.5-2.8-2.2-4.2c0,0-0.7-1.4-1.1-2c-0.5-0.7-1-1.6-1.9-2C12.7,0,12.3,0,11.8,0.5c-0.4,0.3-0.7,0.7-1.1,1
			C9.9,2.4,8.9,3,8.6,4.2c-0.2,0.7,0,1.2,0.7,1.4c0.3,0.1,0.6,0.1,0.9,0.2c0,0.2-0.1,0.3-0.1,0.4c-0.7,1.5-1.4,3-2.1,4.5
			c-1.1,2.4-2,4.9-2.5,7.4c-0.1,0.6-0.3,1.1-0.7,1.6c-0.6,0.8-1,1.6-0.9,2.6s0.2,2.1,0.9,2.9C5,25.5,5,25.7,4.8,26
			c-0.4,0.7-0.8,1.4-1.1,2.1c-0.2,0.5-0.5,1.1-0.6,1.6l0,0c-0.3,0.8-0.5,1.7-0.6,2.6c0,0.5,0.1,1,0.5,1.5c0.4,0.4,0.8,0.5,1.4,0.3
			c0,0,0.1,0,0.2,0c0.1,0.3,0.1,0.5,0.2,0.8s1.6,0.4,2.3,0.6c0,0.4,0,0.8,0.1,1.1c0.1,0.9,0.6,1.5,1.4,1.7c1.8,0.3,3.5,0.2,5.3,0.1
			c0.7,0,1.3-0.1,2-0.1c1.2,0.1,2.3,0.3,4.1,0.1c0.2,0,0.5-0.1,0.7-0.1c0.9-0.1,1.1-0.2,1.3-1.1c0.1-0.6,0.2-1.3,0.3-2
			c0.8,0.1,1.5-0.1,1.7-1.1c0.2,0,0.3,0,0.4-0.1C25.5,33.8,26.1,32.5,25.4,31.2z M24.5,31L24.5,31c-0.2,0-0.2,0.1-0.2,0.1
			c-0.1,0-0.1,0.1-0.2,0.1c0-0.1-0.1-0.1-0.2-0.1s-0.1,0.1-0.1,0.2c-0.1,0-0.2,0.1-0.2,0.1s0,0,0-0.1s0-0.1-0.1-0.1s-0.1,0-0.1,0.1
			s-0.1,0-0.1,0c-0.1,0,0-0.1,0-0.1c0-0.1,0-0.2,0-0.3c0-0.1,0-0.1,0.1-0.1c0.2,0,0.3,0,0.5,0.1l0,0C24.2,30.9,24.3,30.9,24.5,31
			L24.5,31z M19.1,34.7c0.1-0.2,0.3-0.3,0.4-0.5c-0.1,0.2,0,0.3,0.2,0.5l0,0C19.5,34.6,19.3,34.6,19.1,34.7z M21,34.6
			c-0.4-0.5-0.8-0.9-1.3-1.2c-0.1,0-0.1-0.1-0.2-0.1s-0.2,0-0.2,0.1s0,0.1,0.1,0.2h0.1c0.5,0.3,0.9,0.6,1.2,1c-0.2,0-0.4,0-0.6,0
			c-0.1-0.1-0.2-0.2-0.3-0.4c0-0.1-0.1-0.1-0.2-0.1c0,0,0-0.1,0.1-0.1c0-0.1,0-0.1,0-0.2c-0.1,0-0.1,0-0.2,0
			c-0.1,0.1-0.1,0.1-0.2,0.2c-0.1,0.2-0.3,0.3-0.4,0.5l-0.1,0.1c-0.1,0-0.3,0-0.4,0c0.3-0.3,0.5-0.6,0.9-0.8l0.1-0.1
			c0-0.1-0.1-0.1-0.2-0.1c-0.1,0.1-0.3,0.1-0.4,0.3c-0.2,0.3-0.5,0.5-0.7,0.8c-0.2,0-0.4,0-0.6,0c0-0.2,0-0.4,0-0.6
			c0-0.1,0-0.2,0.2-0.3c0,0,0.1-0.1,0.1,0s0.1,0.1,0,0.2c-0.1,0.1-0.2,0.1-0.2,0.2c0,0.1-0.1,0.2,0,0.2c0.1,0.1,0.1,0,0.2-0.1
			c0.1-0.2,0.4-0.3,0.6-0.4c0.2-0.1,0.3-0.2,0.5-0.3c0.1-0.1,0.2-0.1,0.1-0.2c-0.1-0.1-0.2-0.1-0.2,0c-0.1,0.1-0.1,0.1-0.2,0.1
			s0-0.1,0-0.1c-0.1-0.2,0-0.2,0.1-0.3c0.1,0,0.1,0,0.1,0c0,0.1,0.1,0.1,0.1,0.1c0.1,0,0.1,0.1,0.2,0s0-0.1,0-0.2c0,0,0,0-0.1-0.1
			s-0.2-0.1,0-0.2c0.1,0,0.1-0.1,0-0.2c0-0.1-0.1-0.1-0.2,0s-0.2,0-0.2,0c0-0.1-0.1-0.1-0.1-0.2c0-0.1-0.1-0.1-0.1-0.2
			c0-0.1,0.2-0.1,0.3-0.1c0,0,0,0,0.1,0c0.2,0.3,0.5,0.6,0.7,1l0.1,0.1c0.6,0.2,1.1,0.6,1.5,1l0.1,0.1c0.1,0,0.1,0.1,0.2,0
			s0-0.1-0.1-0.2c-0.2-0.2-0.5-0.4-0.8-0.6c-0.2-0.1-0.3-0.2-0.5-0.3c-0.1,0-0.2-0.2-0.4-0.2c0,0-0.1-0.1,0-0.1s0.1-0.1,0.1-0.2
			c0.1-0.3,0.1-0.5,0.2-0.8c0,0,0-0.1,0.1-0.1c-0.1,0.3-0.1,0.5-0.2,0.8c0,0.1,0,0.1,0,0.2c0,0.1,0,0.2,0.1,0.2s0.1,0,0.1-0.1
			c0.1-0.5,0.2-1,0.3-1.4c0-0.1,0-0.2,0-0.2c0-0.1,0-0.1-0.1-0.1s-0.1,0-0.1,0.1C20,31.3,20,31.4,20,31.5c0,0.1,0,0.1-0.1,0.1h-0.1
			c-0.2,0.2-0.5,0.2-0.8,0.3c-0.1,0-0.1-0.1-0.2-0.1c0.3-0.1,0.6-0.1,0.8-0.2c0.1,0,0.2,0,0.2-0.1c0.1,0,0.1-0.1,0.1-0.1
			c0-0.1-0.1-0.1-0.2-0.1c-0.4,0.1-0.7,0.2-1.1,0.2h-0.1c-0.1,0-0.1,0-0.1-0.1s0-0.1,0.1-0.1c0.2-0.1,0.5-0.1,0.7-0.2
			c0.1,0,0.2,0,0.2-0.1c0.1,0,0.1-0.1,0.1-0.1c0-0.1-0.1-0.1-0.2-0.1c-0.4,0.1-0.7,0.1-1.1,0.3c-0.1,0-0.1,0-0.2,0
			c0-0.1-0.1-0.1-0.2-0.1c-0.1,0.1,0,0.1,0,0.2c0.1,0.2,0.3,0.3,0.3,0.5c0,0.1,0.1,0.1,0.1,0.1l0.1,0.1c0,0-0.1,0-0.1,0.1
			c-0.1,0-0.2,0.1-0.2,0.1c-0.2,0.1-0.3,0-0.3-0.2c0-0.1,0-0.1-0.1-0.2c-0.4-0.3-0.8-0.5-1.2-0.7c-0.1,0-0.2,0-0.2,0.1
			s0,0.1,0.1,0.2c0.3,0.1,0.7,0.3,1,0.5c0,0,0,0,0,0.1c-0.3-0.1-0.5-0.3-0.8-0.4c-0.1,0-0.1-0.1-0.2-0.1s-0.1,0-0.2,0.1
			c0,0.1,0,0.1,0,0.1c0.1,0,0.1,0.1,0.1,0.1c-0.2,0.5-0.3,0.9-0.4,1.4c0,0.1,0,0.1-0.1,0.1s-0.1,0-0.2,0c-0.1,0-0.1,0-0.1-0.1
			c0.1-0.6,0.3-1.1,0.5-1.6c0-0.1,0-0.1,0-0.2c-0.1-0.4,0-0.7,0-1.1c0.3,0.1,0.6,0.1,0.8,0.2s0.5,0.3,0.7,0.4c0.1,0,0.2,0.1,0.2,0
			c0.1-0.1,0-0.2-0.1-0.2c-0.1-0.1-0.2-0.1-0.3-0.2c0.1,0,0.2,0,0.3,0c0.1,0.1,0.2,0.1,0.3,0.2c0.1,0,0.1,0.1,0,0.1
			c0,0-0.1,0.1,0,0.2c0,0.1,0.1,0.1,0.2,0c0.4-0.2,0.7-0.2,1.1-0.3c0.3,0,0.6,0,1,0.1c0.2,0.1,0.4,0,0.6,0c0.1,0,0.2,0,0.2-0.1
			s-0.1-0.1-0.2-0.1c-0.4,0-0.8-0.1-1.2-0.2c-0.1,0-0.1,0-0.2,0c0-0.1,0.1-0.1,0.1-0.2h0.1c0.1,0.1,0.2,0.1,0.3,0.1
			c0.4,0,0.8,0.1,1.2,0.1c0.1,0,0.2,0,0.2,0.2c0,0.3,0,0.7,0,1v0.1c-0.2,0.6-0.5,1.1-0.6,1.7v0.1c0,0.1,0,0.2,0.1,0.2s0.1,0,0.2-0.1
			c0.1-0.2,0.2-0.5,0.2-0.7c0-0.1,0.1-0.2,0.2-0.1c0.4,0,0.6,0,0.9,0v0.1l0,0l0,0c-0.1,0-0.1,0-0.2,0c-0.3,0-0.5,0-0.8,0
			c-0.1,0-0.2,0-0.1,0.2c0,0.1,0.1,0.1,0.2,0.1s0.2,0,0.3,0c0.3,0,0.5,0,0.6,0v0.1c-0.2,0-0.4,0-0.7,0c-0.1,0-0.1,0-0.2,0
			s-0.1,0-0.1,0.1s0,0.1,0.1,0.1s0.1,0.1,0,0.1c-0.1,0.2-0.2,0.3-0.3,0.4c-0.1,0.1-0.1,0.1,0,0.2c0.1,0.1,0.2,0,0.2,0
			c0.1-0.2,0.3-0.4,0.4-0.6c0-0.1,0.1-0.1,0.1-0.1c0.1,0,0.3,0,0.4,0c0,0.1,0,0.1-0.1,0.1c-0.3,0.3-0.5,0.6-0.6,1
			c0,0.1-0.1,0.2-0.1,0.2l0,0C21.5,34.6,21.3,34.6,21,34.6L21,34.6z M17.2,34.7c0-0.2,0-0.4,0-0.6c0-0.2,0-0.3,0-0.5
			c0-0.1,0-0.2-0.2-0.2c-0.1,0-0.1,0.1-0.1,0.2c0,0.3,0,0.5,0,0.8c0-0.3-0.1-0.5-0.1-0.8c0-0.1,0-0.2-0.1-0.2s-0.1,0.1-0.1,0.2
			c0,0.3,0,0.7,0.1,1c-0.1,0-0.3,0-0.4,0c0-0.3,0-0.6,0-1c0-0.1,0-0.1-0.2-0.2c-0.3-0.1-0.7-0.2-1-0.4l0,0c0.4-0.1,0.8,0.1,1.1,0.2
			c0.1,0,0.1,0.1,0.2,0.1h0.1c0,0,0.1-0.1,0-0.1c-0.1-0.1,0-0.2,0-0.3c0-0.4,0.2-0.9,0.4-1.3c0-0.1,0-0.2,0.1-0.1
			c0.1,0,0.1,0.1,0.1,0.2c-0.1,0.3-0.1,0.6-0.2,1c0,0.1,0,0.2-0.1,0.3c0,0.1,0,0.1,0.1,0.2c0.1,0,0.1,0,0.2-0.1c0-0.1,0-0.2,0.1-0.3
			c0.1,0.1,0.2,0.3,0.3,0.4c-0.2,0-0.2,0.1-0.2,0.2C17.3,33.8,17.3,34.2,17.2,34.7C17.2,34.7,17.2,34.7,17.2,34.7z M13.8,34.7
			c-0.1,0-0.2-0.1-0.2,0c-0.2,0-0.4,0-0.6,0c0-0.3,0.1-0.6,0.1-0.9c0-0.2,0.1-0.4,0.2-0.6c0.1-0.4,0.4-0.8,0.5-1.2
			c0.3,0.3,0.6,0.5,0.9,0.8c0,0,0,0,0,0.1c0,0.2,0.1,0.2,0.2,0.2c0.1,0,0.2,0,0.2,0.2l0,0l0,0c-0.1,0-0.2-0.1-0.3-0.1
			s-0.2-0.1-0.3-0.1s-0.1,0-0.1,0.1s0,0.1,0.1,0.1c0.4,0.1,0.8,0.3,1.2,0.4c0.1,0,0.2,0,0.3,0.1c0,0.1,0,0.2,0,0.3
			c0,0.2,0,0.4,0,0.6c-0.2,0-0.4,0-0.5,0c-0.2-0.1-0.3-0.2-0.5-0.3c-0.3-0.2-0.7-0.4-1-0.5c0.2-0.3,0.3-0.7,0.5-1
			c0-0.1,0.1-0.1,0-0.2c-0.1-0.1-0.1-0.1-0.2,0l-0.1,0.1c-0.2,0.4-0.4,0.8-0.6,1.2c0,0.1,0,0.1,0,0.2c0.1,0,0.1,0,0.2-0.1
			c0-0.1,0.1-0.1,0.1-0.2c0,0.1,0.1,0.1,0.2,0.2c0.3,0.1,0.6,0.3,0.9,0.5c-0.3,0-0.7,0-1,0C13.9,34.7,13.9,34.7,13.8,34.7z
			 M12.5,33.4c-0.1,0-0.1,0.1-0.2,0.1l0,0c0,0.4-0.1,0.7-0.2,1.1c-0.1,0-0.3,0-0.4,0c0.1-0.4,0.3-0.8,0.4-1.2
			c0.1-0.2,0.2-0.2,0.3-0.2s0.1,0,0.2,0c0.1,0,0.2,0,0.2,0.2s-0.1,0.4-0.1,0.6c0,0.2,0,0.4,0,0.6l0,0c-0.1,0-0.2,0-0.3,0
			C12.5,34.2,12.6,33.9,12.5,33.4C12.6,33.5,12.6,33.4,12.5,33.4z M11.5,33.4c-0.2-0.4-0.3-0.9-0.4-1.3c0.1,0.3,0.2,0.6,0.3,1
			C11.5,33.2,11.5,33.3,11.5,33.4c0.1,0.1,0.2,0.2,0.3,0.1c-0.1,0.4-0.3,0.8-0.4,1.2c-0.1,0-0.3,0-0.4,0c0.1-0.3,0.2-0.5,0.3-0.8
			c0,0,0-0.1,0.1-0.1C11.6,33.7,11.6,33.5,11.5,33.4z M8,30.6c0.1,0.1,0.2,0.2,0.2,0.3c0.1,0.4,0.1,0.8,0.1,1.2
			c0,0.1-0.3,0.3-0.4,0.3v-0.1c0-0.5,0-0.9,0-1.4c0-0.2,0-0.2-0.2-0.2c0-0.1,0.1-0.2,0.2-0.3c0-0.2,0.1-0.3,0.2-0.4
			c0.1,0,0.1,0,0.2,0.1c-0.1,0.1-0.1,0.2-0.2,0.3C7.9,30.5,7.9,30.6,8,30.6z M6.5,32.2c0.2,0,0.3,0,0.5,0l0,0
			c-0.1,0.1,0,0.2-0.1,0.2s-0.3,0-0.5,0c-0.1,0-0.1-0.1-0.1-0.1c-0.1-0.4-0.3-0.7-0.4-1.1c0-0.1-0.1-0.2-0.2-0.1V31l0,0
			c0.2-0.1,0.3,0,0.5,0c0,0.1-0.1,0.1,0,0.2s0.1,0,0.2,0C6.7,31.1,7.1,31,7.5,31c0.1,0,0.2-0.1,0.2-0.2c0,0.1,0,0.1,0,0.2
			c0,0.3,0,0.6,0,0.8c0,0.1,0,0.1-0.1,0.1c-0.3,0-0.7,0-1,0c-0.1,0-0.2,0-0.2,0.1C6.3,32.2,6.4,32.2,6.5,32.2z M4.6,30.7
			C4.6,30.7,4.6,30.6,4.6,30.7c0.2,0,0.3,0,0.4,0c0,0.1-0.1,0.3-0.1,0.4c-0.1-0.1-0.1-0.2-0.3-0.3C4.5,30.9,4.6,30.8,4.6,30.7z
			 M4.5,29.8c0-0.1-0.2,0-0.1-0.3c0-0.2,0-0.5,0.1-0.4c0.1,0,0.2-0.1,0.2,0.3C4.6,29.5,4.6,29.8,4.5,29.8z M5.4,26.7
			c0,0-0.1,0-0.2-0.1l0,0c0,0,0,0-0.1-0.1l0,0l0,0l0.1,0.1C5.2,26.6,5.3,26.6,5.4,26.7C5.3,26.7,5.4,26.7,5.4,26.7L5.4,26.7
			c0,0,0-0.1-0.1-0.3c0.1,0,0.1,0,0.2,0c0,0.1,0.1,0.1,0.2,0.2l0.1,0.1l0,0c0,0,0,0.1-0.1,0.1c-0.2,0.2-0.4,0.4-0.6,0.6
			c0,0,0,0.1-0.1,0c0-0.1-0.1-0.3-0.1-0.4S5,26.9,5,26.8c0.1,0.1,0.2,0.1,0.3,0.2c0.1,0,0.1,0,0.2,0C5.5,26.8,5.4,26.7,5.4,26.7z
			 M5.5,32.4C5.6,32.4,5.6,32.5,5.5,32.4c0.2,0.1,0.2,0.2,0.2,0.3c-0.1,0.2-0.1,0.4-0.2,0.7c0,0.1-0.1,0.3-0.1,0.4
			c0-0.1,0-0.2,0-0.3c0-0.2,0-0.4,0.1-0.5v-0.1c0-0.1,0-0.1,0-0.1C5.5,32.6,5.5,32.5,5.5,32.4L5.5,32.4z M6,29.2L6,29.2
			C6,29.2,6,29.1,6,29.2L6,29.2z M6.2,28.5C6.2,28.5,6.1,28.5,6.2,28.5C6.2,28.5,6.2,28.6,6.2,28.5C6.1,28.5,6.1,28.5,6.2,28.5
			C6.1,28.4,6.1,28.5,6.2,28.5z M5.8,30.3C5.9,30.3,5.9,30.3,5.8,30.3c0.2,0,0.2,0,0.2-0.1s0-0.1-0.1-0.1H5.8c0-0.1,0-0.2,0-0.3l0,0
			c0.1,0,0.1,0,0.1,0.1c0,0,0,0.1,0,0.2c0,0,0,0.1,0.1,0.1h0.1c0-0.2,0.3,0,0.3-0.2c0-0.3-0.1-0.7-0.1-1c0.1,0.1,0.2,0.2,0.4,0.4
			v0.1c0,0.1,0,0.2,0.1,0.2h0.1C7,29.7,7,29.6,7,29.5c0,0,0.1,0,0.1,0.1C7,29.8,6.8,30,6.7,30.2c0,0.1-0.1,0.1-0.1,0.1
			c-0.2,0-0.5,0.1-0.7,0.1c-0.1,0-0.2,0.1-0.1,0.2c0,0.1,0.1,0.1,0.2,0.1c0.3-0.1,0.5-0.1,0.8-0.1c0.1,0,0.2,0,0.2-0.2
			c0,0,0,0,0-0.1c0.1-0.2,0.2-0.4,0.3-0.5l0.1,0.1c-0.1,0.2-0.3,0.4-0.4,0.7c-0.1,0.1-0.1,0.1-0.3,0.2c-0.4,0.1-0.7,0.1-1.1,0
			C5.8,30.5,5.8,30.4,5.8,30.3z M7.4,30.5c0-0.1,0.1-0.2,0.1-0.3c0.1-0.1,0.2-0.2,0.2-0.4c0,0,0,0,0.1,0c-0.1,0.1-0.2,0.3-0.3,0.4
			C7.5,30.4,7.4,30.4,7.4,30.5S7.4,30.6,7.4,30.5C7.3,30.5,7.4,30.5,7.4,30.5z M5.3,29L5.3,29c-0.2,0-0.2,0-0.2-0.1s0-0.2,0.1-0.2
			s0.1,0,0.2,0C5.3,28.8,5.3,28.9,5.3,29z M5.2,29.6c0,0.1,0,0.2,0,0.2H5.1c-0.1,0-0.1,0-0.1-0.1S5,29.6,5.2,29.6
			C5.1,29.6,5.1,29.6,5.2,29.6z M4.9,30C5,30,5,30,5.1,30c0,0.1-0.1,0.3-0.1,0.4l0,0c-0.3-0.1-0.3-0.1-0.2-0.3C4.8,30,4.8,30,4.9,30
			z M5.8,34.4c-0.1-0.1-0.2-0.1-0.2-0.2v-0.1c0-0.2,0.1-0.3,0.1-0.4c0.1-0.3,0.2-0.6,0.3-0.9c0-0.1,0.1-0.2,0-0.3
			c-0.2-0.1-0.2-0.3-0.2-0.4c0-0.1-0.1-0.2-0.1-0.2c0-0.2,0.1-0.4,0.1-0.6c0.1,0.3,0.2,0.6,0.3,0.9c0,0.1,0.1,0.1,0,0.2v0.1
			c0.1,0.1,0.1,0.2,0.1,0.3c-0.1,0.5-0.2,1-0.3,1.5l0,0C5.8,34.4,5.8,34.4,5.8,34.4z M7.2,32.4c-0.1,0,0-0.2-0.1-0.3
			c0.1,0,0.3,0,0.4,0s0.1,0,0.1,0.1s0,0.2-0.1,0.1c0,0,0,0-0.1,0C7.4,32.4,7.3,32.5,7.2,32.4z M8.4,30.2C8.4,30.2,8.5,30.2,8.4,30.2
			c0.3,0.2,0.5,0.3,0.7,0.5C8.9,30.6,8.6,30.5,8.4,30.2C8.4,30.3,8.4,30.3,8.4,30.2z M9,30.3c0.2,0,0.4,0.1,0.5,0.1
			c0.1,0.1,0.1,0.1,0.2,0.2c-0.1,0.1-0.2,0.1-0.3,0C9.2,30.5,9.1,30.4,9,30.3z M9.5,31.3c0.2,0.1,0.2,0.1,0,0.4V31.3z M9.6,31
			c0-0.1,0-0.1,0.1-0.2c0.1,0,0.2-0.1,0.2-0.1c0.4,0,0.8,0,1.2,0c0,0.3,0,0.3-0.2,0.3c-0.4,0-0.7,0-1.1,0C9.7,31.1,9.6,31,9.6,31z
			 M16.2,31.3v0.1c-0.2,0.5-0.4,0.9-0.4,1.5c0,0.1,0,0.1-0.1,0.1c-0.2-0.1-0.3-0.1-0.2-0.3c0-0.3,0-0.5,0.2-0.7c0.1-0.1,0-0.2,0-0.3
			c0-0.1,0.1-0.1,0.1,0c0.1,0.1,0.1,0.1,0.2,0s0-0.1-0.1-0.2c-0.3-0.2-0.6-0.5-0.9-0.7c-0.1-0.1-0.1-0.1-0.1-0.2c0-0.3,0-0.6,0-0.8
			c0-0.1,0-0.2,0.1-0.1c0.1,0,0.2-0.1,0.2,0.1s0,0.3,0,0.5l0,0c0,0.2,0,0.3,0,0.5c0,0.1,0,0.2,0.1,0.2s0.1-0.1,0.1-0.2
			c-0.1-0.3,0-0.6,0-1l0,0c0.1,0,0.2,0.1,0.2,0.1c0,0.4,0,0.7-0.1,1.1c0,0,0,0,0,0.1s0,0.2,0.1,0.2s0.2-0.1,0.1-0.2
			c0-0.3,0-0.7,0.1-1c0.1,0,0.1,0.1,0.2,0.1C16.2,30.4,16.1,30.9,16.2,31.3z M12.9,32.7c0.1,0,0.1,0,0.1,0c0,0.1,0,0.2-0.1,0.2
			c-0.3,0-0.6,0-0.9,0c-0.1,0-0.1-0.2-0.1-0.2c0-0.1,0.1,0,0.1,0c0.1,0,0.3,0,0.4,0l0,0C12.6,32.7,12.8,32.7,12.9,32.7z M12,32.4
			c-0.1,0-0.2,0-0.2-0.1c-0.1-0.2-0.1-0.4-0.2-0.6c0.2,0.1,0.2,0,0.3-0.1c0.2-0.3,0.3-0.6,0.5-0.9c0,0,0-0.1,0.1-0.1s0,0.1,0,0.2
			c-0.1,0.3-0.3,0.6-0.4,0.8C12,31.7,12,31.8,12,31.9c0,0.2,0.1,0.2,0.2,0.2c0.4,0,0.7,0,1.1,0c0,0.1-0.1,0.3-0.2,0.4
			c0,0,0,0.1-0.1,0C12.7,32.4,12.4,32.5,12,32.4z M14.4,30.2c-0.5,0.2-0.9,0.5-1.4,0.7c-0.1,0-0.1,0.1-0.1,0.2s0.1,0.1,0.2,0
			c0.4-0.2,0.7-0.4,1.1-0.6c0.1,0,0.1-0.1,0.2-0.1c-0.1,0.1-0.2,0.2-0.3,0.3c-0.3,0.2-0.6,0.3-0.9,0.6c-0.1,0.1-0.2,0-0.2,0
			c-0.1,0-0.3,0-0.4,0c0.1-0.2,0.2-0.4,0.2-0.5s0.1-0.1,0.1,0c0.1,0,0.2,0,0.2-0.1s0.1-0.1,0.1-0.1c0.4-0.2,0.8-0.4,1.2-0.6
			c0,0,0.1,0,0.1-0.1c0,0,0.1-0.1,0-0.2c0-0.1-0.1-0.1-0.1,0c-0.1,0-0.2,0.1-0.3,0.1c-0.3,0.2-0.7,0.3-1,0.5c0-0.1,0-0.2,0.1-0.2
			c0.3-0.1,0.6-0.3,0.9-0.4c0.1,0,0.2-0.1,0.2-0.1c0.1-0.1,0.2,0,0.2,0.1C14.7,30,14.7,30,14.4,30.2z M12.4,31.8
			c-0.1,0-0.1,0-0.1-0.1c0.1-0.1,0.1-0.2,0.3-0.2s0.5,0,0.7,0c0.1,0,0.2,0,0.2,0.1c0,0,0,0.1,0.1,0.2C13.2,31.8,12.8,31.8,12.4,31.8
			z M13.6,31.3c0.1,0,0.1-0.1,0.2-0.1c0,0.1,0,0.2,0.1,0.2c0.4,0.3,0.7,0.6,1.1,0.8c0.1,0,0.1,0.1,0.1,0.2c0,0.1,0,0.2,0,0.3v0.1
			c0,0-0.1,0-0.1-0.1s-0.1-0.2-0.2-0.2c-0.4-0.3-0.7-0.6-1.1-0.9l0,0C13.5,31.4,13.5,31.4,13.6,31.3z M15.1,32
			c-0.4-0.3-0.7-0.6-1.1-0.8c0.1-0.1,0.1-0.1,0.2,0c0.2,0.2,0.4,0.3,0.6,0.4c0.1,0.1,0.2,0.2,0.4,0.3C15.3,31.9,15.3,32,15.1,32
			L15.1,32z M14.5,31l-0.1-0.1c0-0.1,0.1-0.1,0.2-0.1c0.3,0.2,0.5,0.4,0.8,0.6c0.1,0.1,0,0.1,0,0.1s0,0.1-0.1,0.1c0,0,0,0-0.1,0
			C15,31.4,14.7,31.2,14.5,31z M14.5,29.2c0,0,0.1,0,0.2,0.1c-0.1,0.1-0.2,0.1-0.3,0.1C14.4,29.3,14.4,29.3,14.5,29.2z M12,30.5
			C12,30.4,12,30.4,12,30.5c0.1,0,0.1,0,0.2-0.1c0,0,0.1,0.1,0,0.1c-0.2,0.3-0.3,0.6-0.5,0.9c0,0.1-0.1,0.2-0.1,0.3
			c0-0.1-0.1-0.1-0.1-0.1v-0.1c0.2,0,0.2-0.2,0.2-0.3C11.8,31,11.9,30.7,12,30.5z M18.3,33c-0.1,0.1-0.1,0-0.1,0
			c-0.2-0.2-0.4-0.5-0.5-0.8c0-0.1-0.1-0.2-0.2-0.1c-0.1,0.1-0.1,0.2,0,0.2c0.2,0.3,0.3,0.5,0.5,0.8c0.1,0.1,0,0.2-0.1,0.2
			c-0.1,0.1-0.1,0-0.1-0.1c-0.1-0.2-0.3-0.4-0.4-0.6c0-0.1-0.2,0-0.1-0.2c0-0.2,0-0.4,0.1-0.6c0-0.1,0.1-0.1,0.1-0.1
			c0.5,0.1,0.7,0.6,1,0.9C18.5,32.9,18.4,33,18.3,33z M18.4,33.6c-0.1,0.1-0.2,0.1-0.2,0.1s-0.1,0.1-0.1,0s-0.1-0.1,0-0.2
			C18.2,33.4,18.3,33.6,18.4,33.6z M19.2,32c0.2,0,0.3-0.1,0.4-0.1s0.1,0,0.1,0.1c0,0.1-0.1,0.2-0.1,0.4
			C19.4,32.2,19.3,32.1,19.2,32z M23.2,31.6C23.3,31.6,23.3,31.6,23.2,31.6c0,0-0.1,0-0.1,0.1c0,0,0,0,0-0.1
			C23.2,31.6,23.2,31.6,23.2,31.6z M22.5,32.2c-0.3,0-0.5,0-0.8,0c-0.1,0-0.2,0-0.1-0.2c0.1,0.1,0.2,0.1,0.3,0.1
			C22.1,32.1,22.3,32.1,22.5,32.2C22.5,32.1,22.5,32.2,22.5,32.2z M22.4,31.9c-0.2,0-0.5,0-0.7,0c0.1-0.3,0.1-0.3,0.4-0.3
			c0.1,0,0.2,0,0.3,0C22.4,31.7,22.4,31.8,22.4,31.9z M21.6,29.4c0.1,0,0.1,0.1,0.1,0.1c0,0.1-0.1,0-0.1,0c-0.1,0-0.2,0-0.4,0
			C21.3,29.5,21.4,29.4,21.6,29.4C21.5,29.4,21.5,29.4,21.6,29.4z M22,31.3c-0.1,0-0.1-0.1-0.1-0.2C21.9,31.2,21.9,31.2,22,31.3
			c0.1,0,0.2-0.1,0.2-0.2c0-0.2,0-0.4-0.1-0.6c0,0.1,0,0.1,0.1,0.2c0,0.1,0,0.1,0,0.2s0,0.1,0.1,0.2c0,0.1,0,0.1,0,0.2
			C22.2,31.3,22.1,31.3,22,31.3z M18.7,30.2c0.3,0,0.6-0.1,0.9-0.2c0,0.1-0.1,0.2-0.2,0.2c-0.2,0-0.4,0.1-0.5,0.1
			C18.8,30.4,18.7,30.4,18.7,30.2C18.6,30.3,18.6,30.2,18.7,30.2z M21.9,34.5c0.1-0.4,0.3-0.7,0.6-1.1c0,0,0.1-0.1,0.1-0.2
			c0-0.1,0-0.1,0-0.1c0,0.1,0,0.2,0,0.3l0,0c-0.2,0.3-0.4,0.6-0.5,1C22.1,34.5,22,34.5,21.9,34.5z M24.5,30.7
			c-0.3,0-0.5-0.1-0.8-0.1c-0.2,0-0.2,0-0.2-0.3v-0.1c0-0.1,0-0.2,0.2-0.1c-0.1,0-0.1,0.1-0.1,0.2s0.1,0.1,0.2,0.1
			c0.3,0,0.5,0,0.7,0.1C24.4,30.5,24.4,30.6,24.5,30.7z M24.3,30.1c0,0-0.1,0-0.2,0C24.2,30.1,24.2,30.1,24.3,30.1L24.3,30.1z
			 M24.2,29.9L24.2,29.9c-0.2,0-0.4,0-0.7-0.1c-0.1,0-0.1-0.1-0.1-0.2s0.1-0.1,0.2-0.1c0.3,0,0.4,0,0.5,0.1
			C24.1,29.7,24.2,29.8,24.2,29.9z M23.6,28.8c0.1,0.1,0.2,0.2,0.3,0.3c0,0.1,0.1,0.2,0.1,0.3c-0.2,0-0.5,0-0.7-0.1
			c-0.1,0-0.2,0-0.2,0.1v0.1c0,0.1,0,0.1,0,0.2l0,0c0,0.5,0,1.1,0,1.6c0,0,0,0,0,0.1l0,0c-0.1-0.2-0.1-0.5-0.2-0.7
			c0-0.3,0-0.6,0-0.8c0-0.2,0.1-0.4,0.2-0.5c0.1-0.2,0.3-0.3,0.4-0.5C23.6,28.7,23.6,28.7,23.6,28.8z M23.2,27.5L23.2,27.5
			C23.2,27.6,23.2,27.6,23.2,27.5c0,0.1,0,0.1,0,0.1c-0.1,0.1-0.1,0.2-0.2,0.2C23.1,27.8,23.1,27.6,23.2,27.5z M23.3,27.9L23.3,27.9
			c0.1,0.1,0.2,0.3,0.2,0.4c-0.1,0.1-0.2,0.2-0.3,0.4c-0.1,0.1-0.2,0.2-0.3,0.4l-0.1,0.1c-0.1,0-0.1,0-0.1,0c0-0.2,0-0.4,0.1-0.6
			C23,28.3,23.2,28.1,23.3,27.9z M10.4,14.4c-0.3,0-0.6,0-0.9,0c0,0-0.1,0-0.1-0.1s0.1-0.1,0.1-0.1c0.2,0,0.4,0,0.6,0
			c0.1,0,0.2,0,0.2-0.1S10.2,14,10.1,14c-0.2,0-0.5,0-0.7,0c0.1-0.2,0.1-0.3,0.3-0.2c0.3,0,0.5,0,0.8,0c0.1,0,0.1,0,0.2-0.1
			c0-0.1,0-0.1-0.1-0.2c-0.1,0-0.1-0.1-0.1-0.2c0-0.2,0-0.5,0.1-0.7c0-0.1,0-0.1,0.1-0.2c0.1,0,0.2,0,0.2,0c0.1,0,0,0.1,0,0.2
			c-0.1,0.2-0.2,0.5-0.2,0.7c0,0.1,0,0.2,0.2,0.2c0.1,0,0.1,0,0.1,0.1c0.1,0.1,0.3,0.2,0.4,0.3c0.1,0.1,0.2,0.1,0.2,0.2
			c0,0.1,0.1,0.1,0.1,0.1c0.2-0.1,0.3,0.1,0.4,0.2c0.1,0.1,0.2,0.1,0.4,0.1c0.4-0.1,0.8,0,1.2,0c0.2,0,0.4,0,0.5,0s0.1,0,0.2,0.1
			c0.1,0.1,0.2,0.1,0.3,0.1s0.1,0,0.1-0.1s0-0.1-0.1-0.1c-0.4-0.2-0.8-0.6-1.1-0.9l-0.1-0.1c-0.1,0-0.2-0.1-0.2-0.2
			c0-0.1,0-0.1-0.1-0.2c0.1,0.1,0.2,0.2,0.3,0.2c0.4,0.3,0.8,0.5,1.2,0.8l0,0c0.1,0,0.2,0.1,0.2,0c0.1-0.1,0-0.1-0.1-0.2
			c-0.2-0.2-0.5-0.3-0.7-0.5c-0.3-0.2-0.5-0.4-0.8-0.6c-0.2-0.1-0.3-0.2-0.3-0.4c0.3,0.1,0.5,0.2,0.8,0.4s0.6,0.5,0.9,0.7
			c0,0,0,0,0,0.1s0,0.1,0.1,0.2c0.1,0,0.1,0,0.2-0.1c0.2-0.3,0.5-0.6,0.7-1c0,0,0.1-0.2,0.1-0.1c0,0.1,0.2,0.1,0.1,0.2
			c-0.2,0.2-0.3,0.4-0.4,0.6c-0.2,0.3-0.4,0.6-0.6,0.8c-0.1,0.1-0.1,0.1,0,0.2c0.1,0.1,0.1,0,0.2,0c0.3-0.3,0.5-0.6,0.7-0.9
			c0.1-0.2,0.3-0.4,0.4-0.6c0.1,0.1,0.2,0.2,0.3,0.3c0.1,0.1,0,0.2-0.1,0.2c0-0.1,0-0.1,0-0.1c-0.1,0-0.1,0-0.2,0
			c-0.1,0.1-0.2,0.2-0.3,0.3c-0.2,0.3-0.5,0.6-0.7,0.9c-0.1,0.1-0.1,0.2,0,0.3c0.1,0,0.1,0.1,0.1,0.1c0.1,0.5,0.2,0.9,0.2,1.4
			c0,0.1,0,0.1,0.1,0.1h-0.1c-0.3,0-0.3,0-0.3-0.3c-0.1-0.4-0.2-0.7-0.3-1.1c0-0.1-0.1-0.2-0.1-0.2c0-0.1-0.1-0.1-0.2,0
			c-0.1,0-0.1,0.1-0.1,0.2c0.2,0.4,0.3,0.9,0.3,1.3c0,0,0.1,0.1,0,0.1s-0.1-0.1-0.1-0.1c0-0.2-0.1-0.3-0.2-0.4
			c-0.1-0.2-0.2-0.4-0.3-0.7c0-0.1-0.1-0.2-0.2-0.1c-0.1,0-0.1,0.1-0.1,0.2c0,0.1,0,0.1,0,0.2c-0.1,0-0.1-0.1-0.1-0.1
			c-0.2-0.3-0.2-0.3-0.5-0.2c-0.4,0.1-0.8,0-1.2,0l0,0c-0.4-0.3-0.9-0.4-1.4-0.7l-0.1-0.1C10.5,14.4,10.5,14.3,10.4,14.4
			c-0.1,0.1,0,0.1,0.1,0.2c0.4,0.2,0.9,0.5,1.3,0.6h0.1c0.1,0.2,0.2,0.1,0.3,0.1c0.4,0,0.7,0,1.1,0c0.3,0,0.3,0,0.4,0.3
			c0,0.1-0.1,0-0.1,0c-0.4,0-0.8,0-1.2,0c-0.1,0-0.2,0-0.3,0S12,15.7,12,15.8c0,0.1,0.1,0.1,0.2,0.1c0.4,0,0.9,0,1.3,0
			c0.1,0,0.2,0.1,0.4,0c0,0,0.1,0,0.1,0.1c0.1,0.1,0.2,0.2,0.2,0.3c0,0.1-0.2,0-0.3,0.1l0,0c0-0.1,0-0.1,0.1-0.2
			c0.1,0,0.1-0.1,0.1-0.1c0-0.1-0.1-0.1-0.2-0.1c-0.3,0-0.6,0-0.9,0c-0.2,0-0.5,0-0.7,0c-0.1,0-0.1,0.1-0.1,0.2s0,0.2,0,0.2
			c-0.1,0-0.2,0-0.2,0s0-0.1,0-0.2c-0.1-0.1-0.2,0-0.2,0.1c-0.1,0.1-0.1,0.1-0.1,0.1c-0.1,0-0.3,0-0.4,0c0.1,0,0.2-0.1,0.3-0.2
			l0.1-0.1c0.2,0.1,0.2-0.1,0.3-0.2c0.1-0.1,0-0.3-0.2-0.3c-0.3,0-0.5-0.2-0.7-0.3s-0.5-0.2-0.7-0.3l-0.1-0.1h0.1
			c0.1,0,0.1-0.1,0.1-0.1c0-0.1-0.1-0.1-0.1-0.1c-0.1,0-0.3,0-0.4,0c-0.2,0-0.3,0-0.5,0c-0.1,0-0.2,0.1-0.2,0s0-0.2,0.2-0.2
			s0.4,0,0.7,0C10.3,14.5,10.4,14.5,10.4,14.4c0.2,0.1,0.3,0.1,0.3,0C10.6,14.5,10.5,14.4,10.4,14.4z M15.2,8.7
			c-0.1,0-0.2-0.1-0.1-0.2c0,0,0-0.1-0.1-0.1s-0.1,0-0.1,0c-0.1,0.1-0.1,0.1-0.2,0c-0.1-0.1-0.3-0.1-0.4-0.2
			c-0.2-0.1-0.1-0.2-0.1-0.3c0-0.1,0.1,0,0.1,0c0.4,0.2,0.7,0.3,1.1,0.5c0.1,0,0.1,0.1,0.1,0.1c0,0.1,0,0.2,0,0.2
			c0,0.2,0.1,0.3-0.2,0.4c-0.1,0-0.2,0.2-0.3,0.3c-0.2,0.3-0.4,0.6-0.7,0.9c0,0,0,0,0,0.1s-0.1,0.2,0,0.2c0.1,0.1,0.1,0,0.2-0.1
			c0.2-0.3,0.4-0.6,0.7-0.9c0.1-0.1,0.2-0.3,0.4-0.4c0.1,0.1,0.1,0.3-0.1,0.4c-0.3,0.3-0.6,0.6-0.8,1l-0.1,0.1c-0.2,0-0.4,0-0.6,0.1
			c0.1-0.2,0.2-0.4,0.4-0.6c0.2-0.2,0.3-0.5,0.5-0.7c0.1-0.2,0.2-0.4,0.4-0.6l0.1-0.1c0.1,0,0.1,0,0.1-0.1
			C15.3,8.7,15.3,8.7,15.2,8.7z M14.5,7.3c0.4,0.2,0.8,0.4,1.2,0.4c0.1,0,0.1,0.1,0.2,0.2c0.1,0.1,0,0.1,0,0.2c-0.1,0,0,0.1,0,0.2
			C16,8.8,16.1,9.2,16,9.7c0,0.1,0,0.1,0.1,0.2c0.1,0,0.1,0,0.2-0.1c0-0.1,0-0.2,0-0.3c0-0.4-0.1-0.8-0.1-1.3V8.1
			c0.2-0.2,0.1-0.3,0-0.4C16,7.5,15.7,7.3,15.5,7c-0.1-0.1-0.1-0.1-0.2-0.2c0-0.1,0.1,0,0.1,0c0.2-0.1,0.3,0,0.4,0.2
			c0.1,0.3,0.4,0.4,0.6,0.6c0.1,0.1,0.1,0.1,0.1,0.3c0,0.6,0,1.2,0,1.8c0,0.1,0,0.2-0.1,0.2S16.3,10,16.3,10c0,0.1,0.1,0.1,0.2,0.1
			c0.2,0,0.5,0,0.7-0.1c0.2,0,0.4,0.1,0.6,0.2c-0.3,0-0.6,0-0.8,0c-0.2,0-0.5,0-0.7-0.1c-0.1,0-0.2,0-0.2,0.1
			c-0.1,0.1-0.2,0.2-0.4,0.4c0.1-0.1,0.1-0.2,0.2-0.3S16,10,16,9.9c0-0.1,0-0.2,0-0.3c0.1-0.1,0.1-0.2-0.1-0.2c-0.1,0-0.1,0-0.1-0.1
			c0-0.2,0-0.4,0-0.6V8.6L15.7,8c-0.1-0.1-0.2,0-0.2,0.1c0,0.1,0,0.1,0,0.2C15,8,14.6,7.8,14.2,7.7c-0.1,0-0.1-0.1-0.1-0.3
			c0-0.1,0-0.2,0-0.3C14.2,7.2,14.3,7.2,14.5,7.3z M14.3,7C14.4,7,14.4,7,14.3,7c0.5-0.2,0.5-0.2,0.8,0.1c0.1,0.1,0.1,0.1,0.2,0.2
			C15,7.3,14.7,7.1,14.3,7z M14,10.3L14,10.3c-0.3-0.1-0.5,0-0.7-0.1s-0.4-0.1-0.6-0.1c-0.1,0-0.1-0.1-0.1-0.2c0-0.1,0,0,0.1,0
			c0.4,0,0.7,0.1,1.1,0.1c0.1,0,0.1,0.2,0.3,0.2C14,10.2,14,10.2,14,10.3z M12.9,10.4c0-0.1,0.1,0,0.2,0c-0.2,0.4-0.3,0.7-0.5,1.1
			c0,0.1-0.1,0.2-0.1,0.3s0,0.2,0.1,0.2s0.1-0.1,0.2-0.1c0-0.2,0.1-0.5,0.2-0.7c0.1-0.2,0.2-0.5,0.3-0.7c0-0.1,0.1,0,0.1,0
			c0.1,0,0.2,0,0.3,0.1c0,0.1,0,0.2-0.2,0.2c-0.1,0-0.1,0-0.1,0.1c-0.2,0.5-0.4,0.9-0.5,1.4c0,0.1,0,0.2,0.1,0.2l0.1,0.1
			c-0.2,0-0.2,0-0.2,0.2c0.1,0.3,0.2,0.6,0.3,1v0.1c-0.1,0-0.1-0.1-0.1-0.1c-0.1-0.5-0.3-1-0.4-1.5c0-0.1,0-0.1-0.1-0.1
			c-0.2,0-0.1-0.1-0.1-0.2C12.6,11.3,12.7,10.9,12.9,10.4z M14.6,12.1c-0.1,0-0.2,0-0.2,0.2c-0.2-0.1-0.3-0.2-0.5-0.3
			c0.3,0,0.5-0.1,0.8-0.1c0.2,0,0.4-0.1,0.7-0.1c0.1,0,0.3,0,0.4,0.1c0.1,0.1,0.1,0.1,0.2,0.2c-0.1,0.1-0.1,0-0.2-0.1
			c-0.1-0.1-0.1-0.1-0.2,0h-0.1C15.1,12.1,14.9,12.1,14.6,12.1z M15.4,12.3c-0.1,0.2-0.2,0.3-0.3,0.5c0,0.1-0.1,0-0.1,0
			c-0.2-0.1-0.3-0.3-0.6-0.4C14.8,12.4,15.1,12.3,15.4,12.3z M14.4,12.7c0.1,0.1,0.3,0.2,0.4,0.3c0.1,0.1,0.1,0.1,0,0.2
			c-0.1,0.1-0.1,0-0.2,0c-0.4-0.4-0.9-0.7-1.4-0.9c-0.1,0-0.1,0-0.1-0.1c0.1-0.3,0.2-0.6,0.3-0.8c-0.1,0.2,0,0.4-0.2,0.6
			c-0.1,0.1,0,0.2,0.1,0.2C13.8,12.3,14.1,12.5,14.4,12.7z M11.3,12.6c0-0.1-0.1-0.1,0-0.2c0.1,0,0.1,0.1,0.1,0.1
			c0.1,0.4,0.3,0.8,0.4,1.2C12,14,12,14,12.4,14c0.2,0,0.5,0,0.7,0h0.1c0.1,0.1,0.1,0,0.2,0c0.2-0.1,0.5-0.1,0.6,0.2
			c-0.2,0-0.3,0-0.5,0c-0.3,0-0.7,0-1,0c-0.1,0-0.1,0-0.1,0s0,0-0.1,0c-0.4-0.2-0.5-0.5-0.7-0.9C11.5,13.1,11.4,12.9,11.3,12.6z
			 M11.4,13.6c-0.2-0.1-0.2-0.2-0.4-0.2v-0.1c0-0.1,0-0.3,0.1-0.4C11.3,13.1,11.3,13.3,11.4,13.6z M12.5,12.4
			c0.1,0.4,0.2,0.8,0.4,1.2c0,0.1,0.1,0.1,0,0.2c-0.1,0-0.1-0.1-0.1-0.1c-0.1-0.3-0.3-0.7-0.4-1c0-0.1,0-0.1,0-0.2
			C12.2,12.3,12.3,12.4,12.5,12.4C12.4,12.3,12.4,12.4,12.5,12.4z M12.4,13.6c0.1,0.1,0,0.1-0.1,0.1s-0.1,0-0.1-0.1
			c-0.2-0.4-0.3-0.8-0.5-1.2c0-0.1,0-0.1,0.1-0.1c0.2,0,0.2,0,0.3,0.2C12.1,12.9,12.2,13.3,12.4,13.6z M11.8,11.7
			c-0.3,0-0.6,0.1-0.9,0.2c0,0,0,0-0.1,0c-0.3,0-0.3,0-0.3,0.2v0.1c0,0.1-0.1,0.1-0.2,0.1c-0.1,0,0-0.1,0-0.1c0-0.2,0-0.4,0.1-0.5
			s0.3-0.1,0.5-0.1c0.3-0.1,0.6-0.2,1-0.2c0,0,0.1,0,0.1,0.1C11.9,11.6,11.9,11.7,11.8,11.7z M10.4,12.6c0,0.3-0.1,0.6,0,0.9
			c-0.1,0-0.2,0-0.2-0.1c0-0.2,0-0.4,0-0.6C10.2,12.7,10.3,12.6,10.4,12.6z M17.9,13.9C18,14,18,14,18,14.1c0,0,0,0.1-0.1,0.1h-0.1
			c-0.3-0.2-0.6-0.4-1-0.6c-0.1-0.1,0-0.1,0-0.2c0-0.1,0.1-0.1,0.1,0C17.3,13.5,17.6,13.7,17.9,13.9z M17.8,13.4
			c0.1-0.2,0.3-0.4,0.4-0.6C18.1,13.1,18,13.3,17.8,13.4c0.1,0.1,0,0.1,0,0.1C17.7,13.5,17.7,13.5,17.8,13.4z M18.1,14.4v-0.1
			c0-0.1,0-0.2,0.1-0.2l0,0c0.1-0.3,0.2,0,0.3,0c-0.1,0.1-0.1,0.2-0.2,0.2c-0.2,0.4-0.4,0.8-0.5,1.2c0,0.1,0,0.1-0.1,0.1
			s0-0.1,0-0.1C17.8,15.1,17.9,14.7,18.1,14.4z M16.9,13.8c0.3,0.2,0.6,0.3,0.9,0.5c0,0,0.1,0,0.1,0.1s-0.1,0.2-0.1,0.3
			c-0.1,0-0.1,0-0.1-0.1c-0.3-0.2-0.7-0.4-1-0.5c-0.1,0-0.1-0.1,0-0.2C16.6,13.7,16.6,13.7,16.9,13.8z M15.7,16.4
			c0.1-0.2,0.1-0.4,0.1-0.5c0-0.3-0.1-0.5-0.2-0.8c0-0.1,0-0.1,0.1-0.1s0.1,0.1,0.1,0.1c0.1,0.4,0.2,0.8,0.2,1.2
			C16,16.4,16,16.4,15.7,16.4z M16.1,16.5v0.1c-0.1,0-0.1,0-0.2,0C16,16.6,16,16.6,16.1,16.5z M15.6,14.7c-0.1-0.1-0.1-0.2,0-0.3
			c0.3-0.3,0.5-0.7,0.8-0.9v0.1C16.2,14,15.9,14.3,15.6,14.7z M15.9,14.7c0-0.1,0.1-0.1,0.2-0.1c0.5,0.2,1,0.5,1.5,0.7
			c-0.2,0-0.3,0-0.4-0.1s-0.3-0.1-0.4-0.2C16.5,15,16.1,14.9,15.9,14.7z M13.8,16.5L13.8,16.5c-0.1,0-0.1,0-0.2,0l0,0
			c0-0.1,0-0.1,0.1-0.1C13.8,16.4,13.8,16.4,13.8,16.5z M13.4,16.5h-0.1c-0.1,0-0.1,0-0.2,0l0,0c0-0.1,0.1-0.1,0.1-0.1
			C13.3,16.4,13.4,16.4,13.4,16.5z M12.8,16.5c-0.1,0-0.2,0-0.3,0v-0.1c0-0.1,0.1,0,0.2,0C12.8,16.4,12.8,16.4,12.8,16.5L12.8,16.5z
			 M11.1,16.5L11,16.6c-0.1,0-0.2,0-0.3,0c0.1-0.2,0.1-0.3,0.2-0.5C10.9,16,11,16,11,16C11.4,16.2,11.4,16.2,11.1,16.5z M9.5,15.1
			c0.1,0,0.2,0,0.3,0s0.2,0,0.4,0c-0.1,0.1-0.1,0.2,0,0.3c0.1,0,0.1,0.1,0.1,0.2c-0.1,0.4-0.2,0.7-0.3,1.1c-0.1,0-0.2,0-0.2,0
			c-0.1,0-0.2-0.1-0.2-0.1C9.4,16.4,9.2,16.2,9,16c-0.1-0.1-0.1-0.2,0-0.3c0-0.1,0.1-0.2,0.1-0.2C9.2,15.2,9.2,15.2,9.5,15.1z
			 M9.3,16.8C9.4,16.8,9.4,16.9,9.3,16.8c0,0.1-0.1,0.2-0.2,0.2C9,16.9,9,16.8,8.9,16.7c-0.2-0.2-0.2-0.4,0-0.6
			C9,16.4,9.2,16.6,9.3,16.8z M8.8,17.1c-0.1,0-0.2,0.1-0.2,0.1c-0.2-0.2-0.3-0.4-0.5-0.6c0.2,0,0.3,0,0.4,0.1
			C8.6,16.8,8.7,17,8.8,17.1z M8.8,18c1.2-0.5,1.8-0.8,3.6-0.8c2.7-0.1,4.8,0.2,7.2,1c0.5,0.1,0.8,0.5,1,0.9c0.7,1.4,0.5,2.7,0,4
			c-0.3,0.9-0.8,1.6-1.7,2c-1.2,0.6-2.1,0.7-3.8,0.7c-4.1,0.2-6-0.3-7.4-2.4C6.8,22.2,6.8,21.2,7,20C7.1,19,7.2,18.7,8.8,18z
			 M17.6,16.9c0.1,0,0.1,0,0.2-0.1v0.1C17.7,16.9,17.7,16.9,17.6,16.9z M20.2,14.9c0-0.1-0.1-0.1-0.2-0.1s-0.1,0.1-0.1,0.2
			c0.1,0.2,0.2,0.4,0.3,0.6c0.1,0.2,0.2,0.5,0.2,0.7c0,0.1,0.1,0.1,0.2,0.1s0.2,0.2,0.2,0.3C21,17,21,17.3,21,17.5
			c0,0.1,0,0.1,0,0.2c-0.1,0-0.2,0-0.3-0.1c0-0.2,0-0.5,0-0.7v-0.1c0-0.1,0-0.1-0.1-0.1s-0.1,0.1-0.1,0.1c0,0.1,0,0.3,0,0.4
			s0,0.2,0,0.4c0,0,0,0-0.1,0c-0.1-0.2-0.2-0.4-0.2-0.7c0-0.1,0-0.1-0.1-0.1H20c-0.1,0.1-0.3,0.1-0.4,0.1c-0.3-0.1-0.5-0.2-0.8-0.3
			c0,0-0.1,0-0.1-0.1c-0.1,0-0.2,0-0.2,0.1s0,0.1,0.1,0.2c0.3,0.1,0.6,0.3,0.9,0.4c0.1,0.1,0.2,0.2,0.1,0.3
			c-0.2-0.1-0.4-0.1-0.6-0.2c-0.3-0.1-0.7-0.3-1.1-0.4c0.2,0,0.3-0.1,0.4-0.1s0.1-0.1,0.1-0.2s-0.1-0.1-0.2-0.1
			c-0.4,0.1-0.8,0.2-1.2,0.3c-0.1,0-0.2,0-0.3,0c0-0.1,0.1-0.2,0.3-0.2c0.3-0.1,0.6-0.1,0.9-0.2H18c0.1,0,0.1-0.1,0.1-0.2
			s-0.1-0.1-0.2-0.1c-0.3,0.1-0.6,0.1-0.9,0.2l0,0c-0.4,0.1-0.5,0.1-0.5,0.4c-0.1,0-0.2,0-0.2,0v-0.1c0-0.1,0-0.2-0.1-0.2
			s-0.1-0.1-0.1-0.1c0-0.3-0.1-0.7-0.1-1v-0.1c0.2,0.1,0.5,0.2,0.8,0.3c-0.1,0.1-0.2,0.1-0.3,0.1c-0.1,0-0.2,0.1-0.3,0.1
			c-0.1,0.1-0.1,0.1,0,0.2c0.1,0.1,0.1,0,0.2,0c0.4-0.2,0.8-0.2,1.2-0.2c-0.1,0.1-0.2,0.1-0.2,0.1c-0.3,0.1-0.6,0.2-0.8,0.3
			c-0.1,0-0.2,0.1-0.2,0.2c0.1,0.1,0.2,0.1,0.2,0c0.4-0.2,0.9-0.4,1.4-0.5c0.2,0,0.2-0.1,0.1-0.2c0-0.1,0-0.1,0-0.1
			c0.1-0.4,0.3-0.7,0.5-1.1c0-0.1,0.1-0.1,0.1-0.2c0.2,0,0.2,0.1,0.1,0.2c-0.1,0.3-0.2,0.6-0.3,0.8c-0.1,0.2-0.1,0.3-0.1,0.5
			c0,0.1,0,0.2,0.1,0.2s0.2-0.1,0.2-0.1c0.1-0.5,0.3-0.9,0.4-1.3c0-0.1,0.1-0.1,0.2-0.1s0.1,0.1,0,0.1c-0.2,0.5-0.4,1.1-0.7,1.6
			c0,0.1-0.1,0.1,0,0.2c0.1,0,0.1,0,0.2-0.1s0.2-0.3,0.2-0.4c0.2-0.4,0.3-0.8,0.5-1.2c0-0.1,0.1-0.2,0.2-0.1c0.1,0,0.1,0.1,0.2,0.1
			s0.1,0,0.1,0C20.1,14.7,20.2,14.8,20.2,14.9z M19.7,13.5c-0.2-0.1-0.4-0.2-0.5-0.3c-0.1,0-0.2,0-0.2,0.1s0.1,0.1,0.1,0.2
			c0.2,0.1,0.5,0.2,0.7,0.3l0,0v0.1c-0.3-0.1-0.6-0.3-0.9-0.4c-0.1-0.1-0.3-0.1-0.3-0.2c0-0.1,0.1-0.2,0.2-0.3
			c0-0.1,0.1-0.1,0.2-0.1c0.1,0.1,0.2,0.1,0.3,0.2c0.1,0,0.2,0.1,0.2,0.1C19.6,13.3,19.7,13.4,19.7,13.5z M19.1,11.9
			c0.1,0.3,0.3,0.7,0.4,1c-0.1-0.1-0.2-0.1-0.3-0.2c0,0-0.1,0-0.1-0.1s0-0.1-0.1-0.1s-0.1,0.1-0.2,0.1c-0.2,0.3-0.3,0.6-0.5,0.8
			c0,0,0,0.1,0,0.2c0,0,0.1,0.1,0.2,0c0.1,0,0.1,0,0.2,0c0.4,0.2,0.8,0.3,1.1,0.5l0,0l0,0l0,0c0.1,0,0.1,0.1,0.2,0.1
			c0,0.1,0.1,0.2,0.1,0.2c-0.2-0.1-0.3-0.1-0.3-0.3c-0.2,0.1-0.4,0-0.6-0.1s-0.4-0.2-0.6-0.3s-0.2-0.1-0.3,0.1l0,0
			c-0.2-0.1-0.2-0.1-0.1-0.4c0.2-0.4,0.4-0.7,0.6-1C18.9,12.3,19,12.2,19.1,11.9L19.1,11.9z M19,11.6C19,11.7,19,11.7,19,11.6
			C19,11.7,19,11.7,19,11.6C19,11.7,19,11.6,19,11.6z M18.8,11v0.1c0,0-0.1,0-0.1,0.1c-0.1,0-0.1,0.1-0.1,0.2c0,0.1,0.1,0.1,0.2,0
			c0,0,0.1,0,0.1-0.1v0.1c-0.1,0-0.1,0.1-0.2,0.1c-0.1,0.1,0,0.1,0,0.2c0.1,0.1,0.1,0.1,0,0.2c-0.1-0.1-0.2-0.1-0.3,0
			c-0.3,0.5-0.7,0.9-1,1.4c0,0.1-0.1,0-0.1,0c-0.2-0.1-0.3-0.2-0.5-0.3c-0.1-0.1-0.2-0.1-0.2,0s-0.1,0-0.1,0
			c-0.2-0.2-0.4-0.4-0.6-0.6c-0.1-0.1-0.1-0.1,0-0.2c0.2,0.1,0.3,0.3,0.5,0.4c0.1,0.1,0.1,0.2,0.3,0.1c0.1-0.1,0-0.2-0.1-0.3
			c-0.2-0.2-0.5-0.4-0.7-0.6l-0.1-0.1c0-0.2-0.2-0.2-0.3-0.3c-0.1,0-0.2,0-0.2,0.1s-0.1,0.1-0.2,0.1c-0.4,0.1-0.8,0.1-1.2,0.2
			c-0.1,0-0.2,0-0.2,0.1s-0.1,0-0.1,0c-0.1-0.1,0-0.3,0.1-0.3c0.2,0,0.5-0.1,0.7-0.1c0.1,0,0.1,0,0.2,0c0.1,0,0.1,0,0.1-0.1
			s-0.1-0.1-0.1-0.1c-0.2,0-0.4,0-0.6,0c-0.1,0-0.1,0-0.2,0c0,0-0.1,0.1-0.1,0s0-0.2,0.1-0.2c0.2,0,0.4-0.1,0.6,0
			c0.1,0.1,0.2,0,0.2-0.1c0.2-0.3,0.5-0.7,0.8-1l0.1-0.1c0,0.1,0,0.1-0.1,0.2c-0.2,0.3-0.4,0.6-0.6,0.9c-0.1,0.1-0.1,0.2,0,0.3
			c0.1,0,0,0.1,0,0.1c0,0.1-0.1,0.1,0,0.2c0.1,0.1,0.1,0,0.2-0.1c0.3-0.4,0.6-0.7,1-1.1c0.1-0.1,0.1-0.1,0.2-0.1
			c0.6,0.1,1.1,0.1,1.7,0.1H18c0,0.1,0,0.1-0.1,0.1c-0.5,0-1,0-1.5,0c-0.1,0-0.2,0-0.2,0.1s0,0.1,0.1,0.1s0.1,0.1,0.1,0.2
			c0.1,0,0.2,0.1,0.3,0.1c0.4,0.1,0.8,0.1,1.2,0.2c0.1,0,0.2,0,0.2-0.1C18.5,11.1,18.6,11.1,18.8,11C18.7,11,18.7,11,18.8,11z
			 M18.6,10.6v0.1c-0.2,0.1-0.3,0.1-0.3,0.3c0-0.1-0.1-0.1-0.2-0.2c-0.2,0-0.4-0.1-0.6-0.1c0,0-0.1,0-0.1-0.1c0.1,0,0.3,0,0.4,0
			c0.2,0,0.4,0,0.5-0.1C18.4,10.6,18.5,10.6,18.6,10.6z M17.6,8.3c0.1,0.2,0.2,0.4,0.3,0.6l0,0c0,0.1,0,0.1,0.1,0.2l0,0
			c0.1,0.2,0.1,0.3,0.2,0.5c-0.1,0-0.1-0.1-0.2-0.1c-0.1-0.1-0.1-0.1-0.2,0s0,0.2,0.1,0.2c0.2,0.1,0.3,0.2,0.5,0.3
			c0,0.1,0.1,0.2,0.1,0.3c-0.1,0-0.2-0.1-0.3-0.1C18,10.1,18,10,17.9,10s-0.1-0.1-0.1-0.2c0-0.1,0-0.1-0.1-0.1s-0.1-0.1-0.1-0.2
			C17.6,9.1,17.6,8.7,17.6,8.3z M17.4,9.6c-0.2,0-0.2-0.1-0.2-0.2c0-0.4,0-0.9-0.1-1.3C17.1,8,17.3,8,17.3,8c0.1,0,0,0.1,0,0.1
			C17.4,8.6,17.4,9.1,17.4,9.6z M17.1,7.1c0.1,0.2,0.2,0.4,0.3,0.6c-0.1,0-0.1,0.1-0.2,0.1c0,0,0-0.1-0.1-0.2c0-0.1-0.1-0.1-0.2-0.1
			s-0.1,0.1-0.1,0.2c0.1,0.5,0.1,1.1,0.1,1.7c0,0.1,0,0.2-0.1,0.3c0,0.1-0.1,0.1-0.1,0.1c-0.1,0-0.1-0.1-0.1-0.1c0-0.6,0-1.2,0-1.8
			c0-0.2-0.1-0.3-0.2-0.4c-0.2-0.2-0.4-0.3-0.6-0.6c0-0.1-0.1-0.1,0-0.2c0.1,0,0.1-0.1,0-0.2c0-0.1-0.1-0.1-0.1-0.1
			c-0.4,0.1-0.7,0.1-1.1,0.2c-0.2,0-0.3,0.1-0.5,0.1c-0.1,0-0.2,0.1-0.3,0h-0.1c-0.1,0-0.1,0.1,0,0.2c0,0.4,0.1,0.9,0.1,1.3
			c0,0.1,0,0.2,0,0.3s0,0.1,0.1,0.1s0.1,0,0.1,0c0-0.1,0.1-0.1,0.2,0c0.1,0.1,0.3,0.1,0.4,0.2c-0.1,0.3-0.1,0.3-0.4,0.2
			c-0.1,0-0.2-0.1-0.3-0.1s-0.2,0-0.2,0.1s0,0.1,0.1,0.2C14,9,14.1,9,14.2,9.1c0.1,0,0.1,0.1,0.1,0.1s0,0.1-0.1,0.1
			c-0.1,0.1-0.1,0.3-0.2,0.4c-0.1,0.1-0.3,0-0.4,0c-0.3,0-0.6-0.1-0.8-0.1s-0.3-0.1-0.3-0.3c0.5,0,1,0.1,1.4,0.1H14
			c0.1,0,0.1,0,0.1-0.1s0-0.1-0.1-0.1s-0.1,0-0.2,0c-0.4,0-0.8,0-1.2-0.1c0,0-0.1,0-0.1-0.1s0-0.2,0.2-0.1c0.3,0,0.7,0,1,0
			c0.1,0,0.1,0,0.2,0C14,8.9,14,8.8,14,8.7c-0.2-0.1-0.1-0.2-0.1-0.3s0-0.2,0-0.3c-0.1-0.3-0.1-0.7-0.2-1c0-0.1,0-0.1,0-0.1
			c0.1-0.2,0.3-0.3,0.4-0.5c0,0,0.1,0,0.1-0.1c0.5-0.1,1-0.2,1.5-0.3c0.1,0,0.1,0,0.2-0.1c0-0.1,0.1,0,0.1,0s0.1,0,0.1,0.1
			s0,0.1,0.1,0.2C16.5,6.6,16.8,6.9,17.1,7.1c0,0.2,0.1,0.2,0.2,0.1C17,7.2,17.1,7.2,17.1,7.1z M12.4,7.9c0.1,0.2,0.1,0.4,0.1,0.6
			v0.1h-0.1C12.3,8.5,12.3,8,12.4,7.9z M12.7,7.4c0,0.1,0.1,0.1,0.1,0.1c0,0.4,0.2,0.7,0.2,1.1c0,0.1,0,0.1-0.1,0.1s-0.1,0-0.1-0.1
			c0-0.2-0.1-0.4-0.1-0.6V7.9C12.5,7.7,12.6,7.5,12.7,7.4z M13.1,7.9c0-0.1,0-0.2-0.1-0.3c0-0.3,0-0.3,0.2-0.4
			c0.1,0.5,0.2,0.9,0.1,1.4h-0.2C13.2,8.4,13.2,8.2,13.1,7.9z M17,7l-0.1-0.1c-0.2-0.2-0.4-0.4-0.6-0.6c0.1,0,0.1,0.1,0.2,0.1
			c0.1,0.1,0.3,0.3,0.4,0.5L17,7z M15.4,4.3c0,0.1,0.1,0.1,0.1,0.2h-0.1c-0.1,0-0.1,0-0.1-0.1c0-0.2-0.1-0.3-0.1-0.5
			C15.2,4,15.3,4.1,15.4,4.3z M12.4,1.2c0.3-0.1,0.5,0,0.8,0.1c0,0.1,0,0.2,0,0.3v0.1C13.3,2,13.1,2,13,2.1
			c-0.3,0.3-0.6,0.5-0.9,0.8c0,0,0,0.1-0.1,0s0-0.1,0-0.1c0.3-0.3,0.6-0.6,0.9-1c0.1,0,0.1-0.1-0.1-0.1s-0.3-0.1-0.5-0.1
			c-0.1,0-0.1-0.1-0.2-0.1C12.2,1.4,12.3,1.3,12.4,1.2z M11.8,1.6c0.2,0.1,0.5,0.2,0.7,0.3c0,0.2-0.2,0.1-0.3,0.1
			c-0.2-0.1-0.4-0.1-0.6-0.2C11.7,1.7,11.8,1.6,11.8,1.6z M11.5,2c0.2,0.1,0.5,0.2,0.7,0.3c0,0.1-0.1,0.2-0.2,0.2h-0.1
			c-0.2-0.1-0.4-0.2-0.6-0.3C11.3,2.1,11.4,2,11.5,2z M11.2,2.9C11.3,3,11.4,3,11.4,3c0.1,0.1-0.1,0.2-0.1,0.2
			c-0.1,0.4-0.2,0.8-0.4,1.2c-0.1,0.1-0.3,0.1-0.4,0.2c0-0.1,0-0.2,0.1-0.3C10.7,3.9,10.8,3.4,11.2,2.9C11.2,3,11.2,3,11.2,2.9
			C11.1,2.9,11.1,2.9,11.2,2.9C11.1,2.9,11.1,2.9,11.2,2.9L11.2,2.9C11.1,2.9,11.2,2.9,11.2,2.9z M11.4,5.6
			C11.4,5.6,11.3,5.6,11.4,5.6C11.3,5.5,11.3,5.5,11.4,5.6C11.4,5.5,11.4,5.5,11.4,5.6z M11,6.7c-0.1,0.1-0.2,0.1-0.3,0
			c0,0,0-0.1,0.1-0.1C10.8,6.6,10.9,6.7,11,6.7z M10.9,6.4c0-0.1,0.1-0.2,0.1-0.2l0,0c0.2,0.1,0.2,0.1,0.1,0.3c0,0,0,0-0.1,0
			C11,6.5,10.9,6.4,10.9,6.4L10.9,6.4z M10.7,7.1C10.9,7,11,7,11.2,7c0,0.1-0.1,0.1-0.1,0.1c-0.2,0.1-0.5,0.1-0.7,0.2
			c0,0,0-0.1,0.1-0.1C10.5,7.2,10.6,7.2,10.7,7.1z M11.2,6C11.2,6,11.1,6,11.2,6c0-0.1,0-0.2,0-0.2s0,0,0.1,0s0,0.1,0,0.1
			C11.3,6,11.2,6,11.2,6z M9.9,4.9c0,0-0.1,0-0.1-0.1c-0.1,0-0.1-0.1-0.1-0.2S9.6,4.4,9.8,4.3c0,0,0.1,0,0.1-0.1
			C10,4.1,10,4.1,9.9,4H9.8C9.9,4,9.9,3.9,10,3.9c0.1-0.1,0.1-0.2,0.2-0.3c0,0.1,0,0.1,0,0.2C10.1,4.1,10,4.4,9.9,4.7
			C9.9,4.8,9.9,4.8,9.9,4.9c0.1,0,0.2-0.1,0.2-0.1V4.7c0.2-0.5,0.2-1.1,0.5-1.6l0,0c0.1-0.1,0.1-0.2,0.2-0.3c0.1,0,0.2,0.1,0.3,0.1
			l0,0c-0.1,0-0.2,0.1-0.2,0.2c-0.3,0.6-0.4,1.1-0.6,1.7C10.2,4.9,10,4.9,9.9,4.9z M11.6,7.4c-0.2,0.1-0.3,0.1-0.5,0.2
			c-0.3,0.2-0.7,0.3-1,0.4c0.1-0.1,0.1-0.2,0.2-0.4c0.2-0.1,0.5-0.2,0.7-0.2c0.3-0.1,0.4-0.2,0.6-0.4c0.3-0.4,0.5-0.9,0.7-1.3
			c0,0,0-0.1,0.1-0.1h0.1c0,0,0,0,0,0.1c-0.2,0.1-0.2,0.3-0.3,0.5C12,6.4,11.8,6.7,11.6,7c0,0,0,0,0,0.1s0,0.1,0,0.2
			c0.1,0,0.1,0,0.2,0C11.9,7,12,6.9,12,6.7c0.2-0.3,0.3-0.6,0.5-1c0-0.1,0-0.1,0-0.2c0.3,0.1,0.6,0.2,0.9,0.3C13.6,6,13.7,6,13.8,6
			s0.2,0,0.1-0.1c0-0.1,0.1-0.1,0.1-0.1c0.4,0,0.8-0.1,1.2-0.1c0.1,0,0.2,0,0.4-0.1c0.1,0,0.2-0.1,0.1-0.2c0-0.1-0.1-0.1-0.2-0.1
			c-0.4,0.1-0.8,0.1-1.3,0.2c-0.2,0-0.4,0-0.6,0.2h-0.1c-0.4-0.2-0.9-0.3-1.3-0.6l0,0c0.1,0,0.1,0,0.2,0c0.1,0,0.1,0,0.2,0
			c0.3,0.1,0.5,0.2,0.8,0.3c0.2,0.1,0.4-0.1,0.4-0.3c0-0.1,0-0.1-0.1-0.1c-0.5-0.2-1-0.3-1.6-0.5c-0.1,0-0.2,0-0.2,0.1
			s0,0.2,0.1,0.2s0.2,0,0.3,0.1c-0.1,0-0.2,0-0.2,0.2c0,0.1,0,0.1-0.1,0.1c0,0-0.1,0.1,0,0.1c0.1,0.1,0,0.2,0,0.3
			c-0.2,0.5-0.4,0.9-0.7,1.3c-0.1-0.1-0.1-0.1,0-0.2c0.2-0.5,0.4-1,0.5-1.5V5.1c-0.1-0.1-0.1-0.2,0-0.3c0.1-0.2,0.2-0.4,0.3-0.6l0,0
			c0.1,0,0.2,0.1,0.2,0.1c0.5,0.2,1,0.3,1.5,0.5c0,0,0,0,0.1,0s0.1,0,0.1-0.1V4.6c-0.1-0.1-0.1-0.1-0.2-0.1c-0.5-0.2-1-0.3-1.5-0.5
			l0,0c0-0.1,0.1-0.1,0.1-0.2c0.1-0.1,0.1-0.4-0.2-0.1l0,0V3.6c-0.1,0-0.1,0-0.2,0c-0.1,0.1-0.1,0.1-0.1,0.2c0,0.1,0,0.1-0.1,0.2
			c-0.1,0-0.2,0-0.2,0.1c0.1-0.2,0.2-0.5,0.2-0.7c0-0.1,0.1-0.2,0.1-0.2s0.1-0.1,0.1,0c0.1,0.1,0.2,0,0.3-0.1c0.4-0.4,0.7-0.7,1.2-1
			c0.2-0.1,0.2-0.2,0.1-0.3V1.7c0-0.1,0-0.1,0-0.2c0.1,0.1,0.2,0.2,0.3,0.2v0.1c0,0.1,0,0.1,0,0.2C14,2,14,2,14.1,2l0,0l0,0
			c0.3,0.5,0.6,1,1,1.5c0,0.4,0.1,0.7,0.1,1.1v0.1c-0.2,0.1-0.3,0.1-0.3-0.1V4.5c0-0.4-0.2-0.7-0.3-1.1c0-0.1,0-0.2-0.1-0.2
			s-0.1,0.1-0.1,0.2v0.1c0,0.1,0,0.1-0.1,0.2c-0.2,0.1-0.5,0.1-0.6,0.3c0,0,0,0-0.1,0s-0.3-0.1-0.4-0.2c0.4-0.3,0.7-0.5,1.1-0.8
			c0.1-0.1,0.3-0.1,0.2-0.3s-0.2,0-0.3,0.1c-0.3,0.3-0.7,0.6-1,0.8c-0.1,0,0,0.2-0.1,0.2S13,3.8,13,3.9S13.1,4,13.2,4
			c-0.2,0,0.1,0.1,0.3,0.2s0.4,0.1,0.6,0.1c0.1,0,0.1,0,0.1,0.1c0,0.3,0.1,0.6,0.1,0.8c0,0.1,0,0.2,0.2,0.1c0.1,0,0.1,0,0.2,0
			c0.3-0.1,0.6-0.1,0.8-0.1c0.1,0,0.2,0,0.2-0.1V5c0.1,0.2,0.3,0.4,0.4,0.6v0.1c0.1,0.1,0.1,0.1,0.2,0.2s0.1,0.2,0.2,0.3
			C16.3,6,16.2,5.9,16,5.9c-0.1,0-0.2,0-0.2,0s0,0-0.1,0c-0.1-0.1-0.3,0-0.4,0C14.9,6,14.4,6.1,14,6.2c-0.1,0-0.2,0-0.3,0.2
			c0,0.1-0.1,0.2-0.2,0.2c-0.2,0.2-0.4,0.4-0.7,0.6C12.9,7,13,6.9,13.2,6.7c0.1-0.1,0.2-0.2,0.3-0.4c0.1-0.1,0.1-0.1,0-0.2
			s-0.2,0-0.2,0c-0.4,0.4-0.7,0.9-1,1.4c0,0,0,0.1-0.1,0.1c-0.1-0.1-0.1-0.1,0-0.2C12.4,7,12.7,6.6,13,6.2C13,6.1,13,6,13,6
			c0-0.1-0.1-0.1-0.2,0c-0.1,0-0.1,0.1-0.1,0.1c-0.3,0.5-0.5,1-0.8,1.5c-0.1,0.1-0.1,0.2,0.1,0.3c0-0.1,0,0,0,0c0,0.2,0,0.3,0.1,0.5
			v0.1c-0.1,0-0.2,0.1-0.3,0s-0.1-0.2-0.2-0.3h0.1c0.1,0,0.2,0,0.1-0.1c0-0.1,0-0.1-0.1-0.1s-0.2,0-0.3,0.1
			c-0.4,0.1-0.8,0.2-1.2,0.4c-0.1,0-0.2,0-0.2-0.1c0.5-0.2,1-0.4,1.5-0.6c0,0,0.1,0,0.1-0.1c0.1,0,0.1-0.1,0.1-0.2
			C11.7,7.3,11.6,7.3,11.6,7.4z M11.3,8.3C11.3,8.4,11.2,8.4,11.3,8.3c-0.3,0.2-0.6,0.2-0.8,0.3c-0.1,0-0.1,0-0.2-0.1
			C10.6,8.5,10.9,8.4,11.3,8.3C11.2,8.3,11.3,8.3,11.3,8.3z M9.6,8.8c0,0.2-0.1,0.4-0.1,0.6c0,0.1-0.1,0.2,0,0.4l0,0H9.4
			C9.4,9.4,9.5,9.1,9.6,8.8z M9.2,9.9c0.2,0.1,0.5,0.2,0.7,0.3c0.1,0,0.1,0.1,0.1,0.1c-0.2,0-0.3-0.1-0.5-0.1
			C9.4,10.1,9.2,10.1,9.2,9.9C9.1,10,9.1,10,9.2,9.9z M9,10.3c0.3,0.1,0.5,0.2,0.8,0.3c0.1,0,0.2,0,0.2,0.1c0.1,0,0.2,0,0.2-0.1
			s0.1-0.1,0.2-0.1c0.1,0.1,0.2,0.1,0.3,0.1c-0.1,0.1-0.2,0.1-0.3,0.1s-0.2,0.1-0.1,0.2c0,0.1,0.1,0.1,0.2,0.1
			c0.5-0.1,1.1-0.3,1.6-0.3c0.1,0,0.2,0,0.2-0.1s-0.1-0.1-0.2-0.1c-0.3,0-0.7,0-1,0.1c-0.1,0-0.2,0-0.2-0.1C10.6,10,10.3,9.6,10,9.2
			l0,0C10.3,9,10.3,9,10.5,9.3s0.3,0.6,0.5,0.9c0,0.1,0.1,0.2,0.2,0.1c0.1,0,0.1-0.1,0-0.2c-0.2-0.3-0.4-0.7-0.6-1
			c0,0-0.1-0.1,0-0.2c0.1-0.1,0.2,0,0.2,0.1c0.2,0.4,0.5,0.8,0.7,1.2c0,0,0,0,0,0.1c0.1,0,0.2,0,0.3,0.1c0.1,0,0.1-0.1,0.1-0.2
			c0-0.1-0.1-0.2-0.1-0.3c-0.2-0.4-0.3-0.7-0.5-1.1c0-0.1,0-0.1,0-0.1c0.1-0.1,0.1,0,0.1,0c0.1,0.2,0.3,0.3,0.3,0.5
			c0,0.1,0.2,0.2,0.2,0.3h-0.1c-0.1,0-0.1,0-0.1,0.1s0,0.1,0.1,0.1s0.1,0,0.2,0c0.2,0,0.2,0.1,0.1,0.2c-0.1,0.1,0,0.2,0.1,0.2
			s0.2,0.1,0.3,0.1c-0.2,0.4-0.3,0.8-0.4,1.2c0,0.1-0.1,0.2-0.1,0.3c0,0,0,0.1-0.1,0.1c0,0-0.1,0-0.1-0.1s0-0.1,0-0.2
			c0.1-0.3,0.1-0.5,0.2-0.8c0-0.1,0.1-0.1,0-0.2c-0.1-0.1-0.1,0-0.2,0c-0.3,0-0.6,0.1-0.9,0.1c-0.4,0.1-0.7,0.2-1.1,0.3
			c0-0.1-0.1-0.2-0.2-0.2c-0.3-0.1-0.7-0.2-1.1-0.3C8.9,10.5,9,10.4,9,10.3z M8.8,10.9c0.4,0.1,0.8,0.2,1.1,0.3c0,0,0.1,0,0.1,0.1
			c0,0,0,0.1-0.1,0.1H9.8c-0.1,0.2-0.2,0.1-0.3,0c-0.3-0.1-0.5-0.2-0.8-0.3C8.7,11,8.7,10.9,8.8,10.9z M7.4,14.9
			c0.1,0,0.1-0.1,0.1-0.2c0.2-0.4,0.3-0.8,0.5-1.3c0.1,0,0.1,0.1,0.2,0.1c0.1-0.1,0.1-0.1,0-0.2c-0.1-0.1-0.1-0.2,0-0.3
			c0.1,0,0-0.1,0-0.2c0-0.1-0.1-0.2-0.1-0.3s0.1-0.2,0.1-0.4c0.1,0.2,0.2,0.4,0.3,0.6c0,0,0,0.1,0.1,0.1c0,0.1,0.1,0.1,0.2,0.1
			c0.1,0,0.1-0.1,0-0.2c-0.1-0.3-0.3-0.6-0.5-0.9v-0.1c0.1,0.2,0.3,0.5,0.4,0.7C8.9,12.7,9,12.8,9,13c0,0.1,0,0.1,0.1,0.1
			s0.1-0.1,0.1-0.2c0-0.2-0.1-0.4-0.2-0.5c-0.1-0.3-0.3-0.5-0.4-0.8c0.1,0,0.2,0,0.2,0.1C9,12.2,9.2,12.6,9.3,13
			c0,0.1,0.1,0.2,0,0.3c0,0.1,0,0.1,0.1,0.2c0.1,0,0.1,0,0.2-0.1c0-0.1,0-0.2,0-0.4c-0.1-0.3-0.2-0.7-0.4-1c0,0,0-0.1-0.1-0.2
			c0.2,0.1,0.3,0.1,0.5,0.2c0.1,0,0,0.1,0,0.1c0,0.2,0,0.3-0.1,0.5c0,0.1,0,0.2,0.1,0.2s0.1-0.1,0.1-0.2c0-0.3,0.1-0.7,0.1-1
			c0-0.1,0-0.2,0.2-0.2c0.4-0.2,0.9-0.3,1.4-0.4c0.1,0,0.2,0,0.4-0.1h0.1c0,0.1,0,0.2-0.1,0.2c-0.6,0-1.1,0.3-1.7,0.3
			c-0.1,0-0.1,0.1-0.1,0.2c0,0.6-0.2,1.2-0.1,1.8c0,0.1,0,0.1-0.1,0.1H9.7c-0.3-0.1-0.5,0.1-0.6,0.3C9.2,14,9.1,14,8.9,14
			c0-0.1,0-0.1,0.1-0.2c0-0.1,0-0.1-0.1-0.2c-0.1,0-0.1,0-0.2,0c-0.1,0.3-0.3,0.6-0.4,1c0,0.1,0,0.2,0.1,0.2s0.1-0.1,0.2-0.1
			c0.1-0.2,0.2-0.4,0.3-0.6c0.2,0.1,0.2,0.2,0,0.2c-0.1,0-0.1,0.1-0.1,0.1c0.1,0.2-0.1,0.3-0.2,0.5c0,0,0,0.1-0.1,0
			c-0.3-0.1-0.7,0-1-0.1H7.4C7.4,14.9,7.4,14.9,7.4,14.9z M7.2,15.3c0.4,0,0.8,0,1.2,0h0.1c0.1,0,0.2,0,0.2-0.1s0-0.2,0.1-0.2
			c0,0.2-0.1,0.4-0.1,0.5c0,0,0,0-0.1,0c-0.3,0-0.5,0-0.8,0s-0.5,0-0.8,0C7.2,15.5,7.2,15.4,7.2,15.3z M7.1,15.8c0.4,0,0.8,0,1.2,0
			c0.1,0,0.1,0,0.2,0c0.1-0.1,0.2,0,0.2,0.1c0,0.1-0.1,0.2-0.1,0.4c0,0,0,0-0.1,0c0-0.1-0.1-0.1-0.1-0.2c0-0.2,0-0.2-0.2-0.2
			s-0.4,0-0.7,0l0,0C7.3,15.8,7.2,15.8,7.1,15.8L7.1,15.8z M7,16.1C7,16.1,7.1,16.1,7,16.1c0.3,0,0.6,0,0.9,0c0.2,0,0.2,0.1,0.3,0.2
			c-0.4,0-0.7,0-1.1,0H7C7,16.2,7,16.2,7,16.1z M6.9,16.5L6.9,16.5c0,0.1,0,0.1,0,0.1l0,0C6.9,16.6,6.9,16.6,6.9,16.5z M6.7,17.2
			C6.9,17,7,16.8,7.2,16.6c0,0,0.1-0.1,0.2-0.1c0.2,0,0.4,0,0.6,0c-0.1,0.1-0.1,0.2,0,0.3c0.1,0.1,0.2,0.3,0.3,0.4
			c-0.1,0-0.1,0-0.2,0.1L8,17.2c-0.1-0.1-0.1-0.1-0.2,0s0,0.1,0,0.2l0,0c0,0,0,0-0.1,0l-0.1-0.1c-0.3-0.2-0.3-0.2,0-0.5l0.1-0.1
			c0.1-0.1,0.1-0.1,0-0.2s-0.1,0-0.2,0c-0.2,0.3-0.5,0.4-0.7,0.7C6.7,17.3,6.6,17.2,6.7,17.2C6.7,17.3,6.7,17.2,6.7,17.2z M6.6,17.6
			c0.1,0,0.1,0.1,0.2,0.1s0.3,0.1,0.3-0.2c0-0.2,0.2-0.2,0.3-0.1c0.1,0.1,0.1,0.1,0.2,0.2c-0.2,0.1-0.3,0.1-0.5,0.2S6.7,18,6.4,18.1
			C6.6,17.9,6.6,17.8,6.6,17.6z M4.8,21.7c0-0.8,0.9-1.9,1.5-2.2c-0.1,1-0.1,1.6,0,2.3c0.1,1.8,1.1,2.8,2.5,3.7
			c1.7,1.1,3.7,1.1,5.6,1.1c1.3,0,2.6-0.2,3.7-0.4c3.2-0.6,4.1-4.1,3.8-5.8c-0.1-0.3-0.2-0.9-0.4-1.5c0.7,0.3,1.4,0.9,1.8,1.4
			c0.7,0.9,0.7,2,0.3,3.1c-0.2,0.5-0.4,0.9-0.8,1.3c-0.2,0.2-0.7,0.3-0.8,0.5c0.9,1.6,0.3,3.2-1.3,3.9c-1.6,0.7-3.3,0.8-4.9-0.2
			c-0.1-0.1-0.2-0.1-0.3-0.2c-0.5-0.4-1-0.4-1.6,0.1c-0.5,0.5-1.4,0.8-2.2,0.8c-1.3,0.1-2.1,0-3-0.5c-1.2-0.5-2-1.3-1.9-2.6
			c0-0.2,0-0.4,0-0.6C4.9,25,4.8,23.4,4.8,21.7z M4.7,27.3c0.1,0.2,0.1,0.3,0.1,0.5c-0.1,0-0.1-0.1-0.1-0.2S4.6,27.4,4.7,27.3
			C4.7,27.4,4.7,27.3,4.7,27.3z M4,29.6c0.1-0.2,0.1-0.4,0.1-0.6v-0.1c0.1-0.2,0.1-0.4,0.2-0.6l0,0c0,0,0.1,0.1,0.1,0
			c0.2-0.1,0.1-0.2,0-0.3c0,0,0,0,0-0.1s0.1-0.1,0.1-0.2c0,0.1,0,0.1,0.1,0.2C4.6,28,4.7,28,4.7,28C4.8,28,5,28,5,27.9
			c0.2-0.3,0.4-0.5,0.6-0.7c0,0.2-0.1,0.5-0.1,0.7c0,0.1-0.1,0.1-0.1,0.2s0,0.1,0,0.2l0,0c0,0.1,0,0.1,0,0.2c-0.1,0-0.2,0-0.3-0.1H5
			c-0.1,0.2-0.2,0.1-0.4,0.1c-0.1,0-0.1,0-0.2,0s-0.2,0-0.2,0.1s0.1,0.1,0.1,0.1c0.1,0,0.2,0,0.3,0c0.1,0,0.1,0,0.1,0.1
			s0,0.1-0.1,0.1C4.4,28.8,4.3,29,4.1,29C4,29,4,29.1,4,29.2c0,0.4-0.2,0.8-0.3,1.2c0,0.1-0.1,0.1-0.2,0.1C3.9,30.2,4,29.9,4,29.6z
			 M3.9,30.8c0.2,0.1,0.2,0.1,0.3-0.1v-0.1v-0.1c0.2,0.2,0.2,0.3,0,0.5l0,0H4.1C4,30.9,3.9,30.8,3.9,30.8
			C3.8,30.8,3.8,30.7,3.9,30.8z M4.6,33.6c-1.2,0-1.6-0.7-1.2-1.8c0.4,0.2,0.9,0.4,1.3,0.6C4.6,32.8,4.6,33.1,4.6,33.6z M6.6,34.6
			C6.7,34.6,6.7,34.6,6.6,34.6c0.2,0,0.3,0,0.4-0.1c0.1,0,0.2-0.1,0.1-0.2c0-0.1-0.1-0.1-0.2-0.1c-0.3,0.1-0.6,0.1-0.9,0.2
			c0.1-0.4,0.2-0.8,0.3-1.1c0-0.2,0.1-0.3,0.1-0.5c0-0.1,0.1-0.2,0.2-0.2c0.3,0,0.3,0,0.2,0.3c-0.1,0.4-0.2,0.7-0.3,1.1
			c0,0.1,0,0.2,0.1,0.2s0.1-0.1,0.2-0.2c0.1-0.3,0.1-0.5,0.2-0.8l0,0c0,0.2,0.1,0.2,0.3,0.1c0.3-0.2,0.7-0.4,1.1-0.5
			c0.1,0,0.2-0.1,0.2-0.1c0.1,0,0.2-0.1,0.1-0.2c0-0.1-0.1-0.1-0.2-0.1c-0.1,0-0.1,0-0.2,0.1c-0.5,0.2-0.9,0.4-1.3,0.7l0,0l0,0l0,0
			c0-0.1,0-0.1,0.1-0.2c0.4-0.2,0.7-0.4,1.1-0.6c0.1,0,0.2-0.1,0.3-0.1s0.2-0.1,0.1-0.2V32c0-0.5-0.1-0.9-0.2-1.4
			c0.2,0.1,0.3,0.2,0.4,0.2c-0.1,0.1-0.1,0.2-0.1,0.3c0.1,0.2,0.1,0.5,0.1,0.7c0,0.1,0,0.1,0,0.2v0.1c0,0.1,0.1,0.2,0.2,0.2
			c0.1,0,0.1-0.1,0.1-0.2c0-0.3,0-0.5-0.1-0.8c0-0.1-0.1-0.3-0.1-0.4c0.2,0,0.2,0.1,0.2,0.3c0,0.3,0,0.6,0,0.9v0.1
			c-0.1,0.2-0.2,0.4-0.4,0.6c0,0.1-0.1,0.2,0,0.2c0.1,0.1,0.2,0,0.2-0.1l0,0C8.9,33,9,33,9,33c0.1,0,0.1-0.1,0.1-0.1
			c0.2-0.3,0.4-0.6,0.5-0.9c0-0.1,0.1-0.1,0.2-0.2c0,0.1,0,0.1,0,0.1c-0.1,0.2-0.3,0.4-0.4,0.7c0,0.1-0.1,0.1-0.1,0.2
			c0,0.1,0,0.1,0.1,0.1s0.1,0,0.2-0.1c0.1-0.3,0.3-0.5,0.5-0.8c0-0.1,0.1-0.1,0.1-0.2s0-0.1,0-0.2c-0.1-0.1-0.1-0.1-0.2,0
			s-0.1,0-0.2,0c-0.1-0.1-0.2,0-0.2,0.1c-0.1,0.2-0.2,0.3-0.3,0.5c0.1-0.3,0.2-0.5,0.4-0.8l0.1-0.1c-0.1-0.2,0.1-0.1,0.2-0.1
			c0.3,0,0.6,0,0.9,0c0.2,0,0.3-0.1,0.3-0.2c0.1-0.2,0.1-0.4,0.2-0.6c0.1,0,0.1,0,0.2,0c-0.1,0.3-0.2,0.5-0.3,0.8
			c0,0.1-0.1,0.1,0,0.2c-0.4,0-0.9,0-1.3,0c-0.1,0-0.2,0-0.2,0.1s0.1,0.1,0.2,0.1c0.2,0,0.5,0,0.7,0c0.1,0,0.1,0,0.1,0.1
			s-0.1,0.1-0.1,0.1c-0.1,0-0.1,0.1-0.1,0.2c0,0.2,0,0.4,0.1,0.5c0.1,0.3,0.2,0.6,0.3,0.8c0,0.1,0.1,0.1,0,0.2
			c-0.2-0.5-0.4-0.9-0.5-1.4V32c0-0.1-0.1-0.1-0.1-0.1c-0.1,0-0.1,0.1-0.1,0.1c0,0.1-0.1,0.2-0.1,0.3c-0.2,0.3-0.4,0.6-0.5,0.9
			c0,0.1-0.1,0.1-0.2,0.1c-0.1,0-0.2,0-0.3-0.1c-0.1,0-0.2,0-0.2,0.1s0,0.1,0.1,0.1c0.4,0.1,0.9,0.2,1.3,0.3c0.1,0,0.1,0,0.2-0.1
			c0-0.1,0-0.1-0.1-0.2c-0.2-0.1-0.3-0.1-0.5-0.1c-0.1,0-0.2-0.1-0.1-0.2c0.1-0.3,0.3-0.5,0.4-0.8c0.1,0.2,0.1,0.3,0.1,0.4
			c0.1,0.2,0.1,0.4,0.2,0.6c0,0.1,0.1,0.2,0.2,0.1c-0.1,0.2-0.2,0.4-0.3,0.7c0,0.1-0.1,0.2-0.1,0.3c-0.1,0-0.2,0-0.3,0
			c0,0,0,0-0.1,0c-0.5-0.1-0.9-0.1-1.3-0.3c-0.1,0-0.1,0-0.1,0c0,0.1,0,0.1,0,0.2c0.1,0,0.1,0.1,0.2,0.1c0.1,0,0.2,0,0.2,0.1
			c-0.1,0-0.2,0-0.3,0s-0.2,0-0.4,0c-0.1-0.2-0.2-0.4-0.3-0.6c0-0.1,0-0.1,0.1-0.2c0.1-0.1,0.3-0.1,0.4-0.2c0.1,0,0.2-0.1,0.1-0.2
			c-0.1-0.1-0.2,0-0.2,0c-0.5,0.3-0.9,0.6-1.3,1c-0.1,0.1-0.1,0.1,0,0.2h0.1C7.2,34.6,6.9,34.6,6.6,34.6z M8.1,34.6
			C8.1,34.6,8,34.6,8.1,34.6c-0.1-0.1-0.2-0.1-0.2,0c-0.1,0-0.2,0-0.3,0c0,0,0.1,0,0.1-0.1c0.1-0.1,0.2-0.2,0.3-0.3
			C8.2,34,8.2,34,8.4,34.3c0,0.1,0.1,0.2,0.1,0.3C8.3,34.6,8.2,34.6,8.1,34.6z M12.2,38c-1.1,0.1-2.3,0-3.4-0.1
			c-0.3,0-0.8-0.2-0.9-0.4c-0.1-0.5-0.1-1.1,0-1.6c0-0.1,0.3-0.2,0.5-0.3c0.4,0,0.8,0,1.2,0c0.6,0,1.2-0.1,1.8-0.1
			c1-0.1,1.9,0.1,2.8,0.1C14.4,37.9,13.9,37.9,12.2,38z M21.3,36.6c0,0.7-0.2,1.2-0.9,1.2c-1.6,0.1-3.1,0-4.7,0
			c-0.4,0-0.7-0.3-0.6-0.7c0-0.5,0.1-1.1,0.1-1.7c1.9-0.3,4.2-0.1,6.1-0.1C21.3,35.9,21.3,36.2,21.3,36.6z M23.7,33.6
			c-0.1-0.2-0.2-0.5-0.2-0.7c0-0.1,0-0.3,0-0.5c0.2-0.1,0.5-0.2,0.7-0.3c0.2-0.1,0.4-0.2,0.8-0.3C24.9,33.1,24.8,33.3,23.7,33.6z"/>
		<path class="st1" d="M17.6,22.1c0.1,0,0.1,0,0.2,0c0.2,0,0.4-0.4,0.4-0.5c0-0.2-0.1-0.5-0.4-0.6c-0.2,0-0.4,0-0.5,0.1
			s-0.2,0.2-0.2,0.4c0,0.2,0,0.3,0.2,0.5C17.3,22,17.5,22.1,17.6,22.1z"/>
		<path class="st1" d="M10.4,22.1c0.1,0,0.1,0,0.2,0c0.2-0.1,0.6-0.3,0.6-0.7c0-0.2-0.1-0.3-0.2-0.4c-0.2-0.1-0.4-0.2-0.6-0.1
			C10,21,9.9,21.3,9.9,21.5s0,0.4,0.2,0.5C10.2,22,10.3,22.1,10.4,22.1z"/>
	</g>
</g>
</svg>
