<?xml version="1.0" encoding="utf-8"?>
<!-- Generator: Adobe Illustrator 25.0.1, SVG Export Plug-In . SVG Version: 6.00 Build 0)  -->
<svg version="1.1" id="Layer_1" xmlns="http://www.w3.org/2000/svg" xmlns:xlink="http://www.w3.org/1999/xlink" x="0px" y="0px"
	 viewBox="0 0 28 39" style="enable-background:new 0 0 28 39;" xml:space="preserve">
<style type="text/css">
	.st0{fill-rule:evenodd;clip-rule:evenodd;}
</style>
<g id="Layer_1_2_">
	<g id="Layer_1_1_">
	</g>
	<g id="texture">
	</g>
</g>
<g id="texture_1_">
</g>
<g>
	<path class="st0" d="M20.8,33.7c-0.4-0.2-0.8-0.4-1.2-0.7c-0.1,0-0.1-0.1-0.2,0c-0.1,0.1,0,0.1,0.1,0.2c0.2,0.1,0.3,0.2,0.5,0.3
		c0.3,0.1,0.5,0.3,0.8,0.4h0.1c0.1,0,0.1,0,0.1-0.1c0-0.1,0-0.1,0-0.1C20.9,33.8,20.8,33.7,20.8,33.7z"/>
	<path class="st0" d="M17.5,34.2c0,0.1,0.1,0.1,0.2,0.1h0.1c0.4,0,0.8-0.1,1.2-0.2c0-0.1,0-0.1,0-0.2c0-0.1-0.1-0.1-0.1-0.1
		C18.4,33.9,18,34,17.6,34C17.5,34,17.4,34,17.5,34.2z"/>
	<path class="st0" d="M7.6,33.3C7.5,33.2,7.5,33.3,7.6,33.3L7.6,33.3z"/>
	<path class="st0" d="M8.2,30.7C8.3,30.8,8.3,30.7,8.2,30.7L8.2,30.7z"/>
	<path class="st0" d="M8.1,30.6c-0.4,0.1-0.8,0.2-1.1,0.3c-0.1,0-0.2,0-0.2,0.1v0.1l0.1,0.1c0.1,0,0.2-0.1,0.3-0.1
		C7.5,31,7.8,30.9,8,30.9c0.1,0,0.1,0,0.2-0.2C8.2,30.6,8.1,30.6,8.1,30.6z"/>
	<path class="st0" d="M5.7,6.3c0.2,0,0.4,0,0.6,0c0.3,0,0.6,0,0.9,0.1c0.1,0,0.1,0,0.2-0.1c0-0.1,0-0.1-0.1-0.2c-0.1,0-0.2,0-0.4,0
		c-0.4,0-0.8,0-1.2,0c-0.1,0-0.2,0-0.2,0.1C5.5,6.3,5.6,6.3,5.7,6.3z"/>
	<path class="st0" d="M8.7,15.2c0-0.1-0.1-0.1-0.1-0.2c-0.1,0-0.2,0-0.3,0c-0.1,0-0.1,0.1,0,0.2c0.1,0.2,0.2,0.4,0.2,0.6
		c0,0.1,0,0.1,0.1,0.2c-0.2-0.1-0.2,0-0.2,0.1c-0.1,0.2-0.2,0.3-0.3,0.5c-0.1,0.1-0.2,0.2,0,0.3c0.1,0.1,0.2-0.1,0.2-0.2
		c0.1-0.2,0.3-0.4,0.4-0.7c0.1,0.2,0.1,0.3,0.2,0.5c0,0.1,0,0.1,0.1,0.2c0,0,0.1,0.1,0.2,0c0.1,0,0.1-0.1,0-0.1
		C9,16.1,8.9,15.7,8.7,15.2z"/>
	<path class="st0" d="M7.3,6.5c-0.1,0-0.1,0.1-0.1,0.2c0,0.3,0,0.6,0,1c0,0.3,0,0.6,0,0.9c0,0.1,0,0.2,0.1,0.2
		c0.1,0,0.1-0.1,0.1-0.2c0-0.2,0-0.4,0-0.6c0-0.4,0-0.8,0-1.3C7.4,6.6,7.4,6.5,7.3,6.5z"/>
	<path class="st0" d="M8.3,15.4c0-0.1,0.1-0.2-0.1-0.2c-0.1-0.1-0.1,0-0.2,0.1c-0.1,0.3-0.3,0.7-0.4,1c-0.1,0.1-0.1,0.3-0.1,0.4
		c0,0.1,0,0.1,0.1,0.1c0.1,0,0.1-0.1,0.1-0.1C7.8,16.5,7.9,16.2,8,16S8.2,15.6,8.3,15.4z"/>
	<path class="st0" d="M5,16.4c-0.1,0-0.2,0-0.2,0.1s0.1,0.1,0.2,0.1c0.3,0,0.6,0,0.8,0.1c0.2,0,0.3,0,0.5,0.1c0.1,0,0.1,0,0.2,0
		c0-0.1,0-0.1,0-0.2H6.4C6,16.5,5.5,16.5,5,16.4z"/>
	<path class="st0" d="M11,12.6c-0.2-0.2-0.4-0.4-0.6-0.6c0.3-0.1,0.5-0.1,0.7-0.2C11,11.9,10.9,12,10.8,12c-0.1,0-0.1,0.1-0.1,0.2
		c0.1,0.1,0.1,0.1,0.2,0c0.4-0.3,0.8-0.6,1.2-1c0.1,0,0.1-0.1,0-0.2c-0.1-0.1-0.1-0.1-0.2,0c-0.2,0.1-0.3,0.3-0.5,0.4
		c-0.2,0-0.4,0.1-0.6,0.1s-0.4,0.1-0.7,0.2c-0.1,0-0.1,0-0.1,0c0-0.1-0.1-0.1-0.2,0c-0.1,0-0.1,0.1,0,0.2C9.9,12,9.9,12,9.9,12.1
		c-0.1,0-0.1,0.1,0,0.2c0,0.1,0.1,0.2,0.1,0.2c0.2,0.3,0.5,0.6,0.8,0.9l0.1,0.1c0.1,0,0.2-0.1,0.1-0.2c0-0.1-0.1-0.2-0.2-0.2
		c-0.2-0.2-0.3-0.4-0.5-0.6c0.2,0.2,0.4,0.4,0.6,0.6c0.1,0.1,0.1,0.1,0.2,0c0.1,0,0.1-0.1,0-0.2C11.2,12.8,11.1,12.7,11,12.6z"/>
	<path class="st0" d="M12.4,11.4C12.5,11.3,12.4,11.3,12.4,11.4L12.4,11.4z"/>
	<path class="st0" d="M11.3,12.4c-0.1,0-0.1,0.1-0.1,0.2l0.1,0.1h0.1c0.3-0.4,0.7-0.6,1-0.9l0.1-0.1c0.1-0.1,0.1-0.1-0.1-0.3
		C12,11.7,11.7,12,11.3,12.4z"/>
	<path class="st0" d="M11.7,13.4c0.1-0.1,0.1-0.1,0.2-0.2l-0.1-0.1c-0.1,0.1-0.2,0.2-0.3,0.3c0,0,0,0,0.1,0
		C11.6,13.5,11.7,13.4,11.7,13.4z"/>
	<path class="st0" d="M9.9,31.1C10,31,10,31,9.9,31.1C9.9,31,9.9,31,9.9,31.1c0-0.1,0-0.1-0.1,0C9.8,31.2,9.8,31.2,9.9,31.1z"/>
	<path class="st0" d="M11.1,8.5C11.1,8.4,11.1,8.4,11.1,8.5C11,8.9,11,9.4,11,9.8C11,9.4,11,9,11.1,8.5z"/>
	<path class="st0" d="M12.1,13c0.1-0.1,0.1-0.1,0.1-0.2C12.1,12.8,12,12.9,12.1,13z"/>
	<path class="st0" d="M12.2,12.8C12.3,12.8,12.3,12.7,12.2,12.8L12.2,12.8z"/>
	<path class="st0" d="M25.3,19.2c-0.4,0.1-0.6,0.1-0.9,0.1c-0.7,0.1-1.1,0.5-1.2,1.2c0,0.3-0.1,0.6-0.2,0.8
		c-0.4,0.5-0.8,1.1-1.7,1.8c-0.1-0.3-0.2-0.6-0.3-0.9c0.9-0.7,1.4-1.9,1-3.4c-0.3-1.5-1.4-2.2-2-2.4c-0.2-0.1-0.4-0.2-0.5-0.4
		c-0.4-0.7-0.7-1.5-1.2-2.2c-2.8-4-10-11.4-12.2-13c-0.8-0.6-1.5-0.4-2,0C3.5,1.4,2.8,2.2,2.1,3C1.4,3.8,1.6,4.8,2.3,5.2
		C2.9,5.5,3.6,5.4,4.1,5C3.8,6.3,3.6,7.6,3.4,8.7c-0.1,1.1-0.3,2.1-0.3,3.2c-0.1,3,0,6,0.2,9c0,0.8,0.3,1.6-0.1,2.4
		c-0.3,0.9-0.2,1.8,0.1,2.6c0.3,0.8,1.1,1.3,1.8,1.8c-0.9,1.4-1.8,2.7-2.1,4.2c-0.2,1.2,0.2,2.4,1.8,2.4c0.1,0.6,0.6,1,1.8,1.1
		c0.1,0.7,0.2,1.8,0.3,2.5c0.1,0.4,0.4,0.6,0.7,0.6c1,0.1,4.8,0,5.2,0c0.4,0,0.6-0.2,0.7-0.3c0.3-0.2,0.5-0.4,0.8-0.3
		c0.3,0.1,0.2,0.6,0.8,0.6c0.6,0,3.8,0.1,4.8-0.2c1-0.2,1.4-0.7,1.4-1.8c0-0.5,0-1.2,0-1.6c0.7-0.1,1.4-0.2,1.8-0.3
		c0.7-0.2,0.8-0.8,0.6-1.6c-0.3-1.4-0.5-2.6-0.9-4c-0.2-0.7-0.2-1.1,0.2-1.6c0.8-1.1,1.6-2.2,2.4-3.3c0.3-0.5,0.7-0.9,1.1-1.3
		c0.5-0.6,1-1.2,0.9-2C27.5,19.8,26.4,18.9,25.3,19.2z M23.6,21.8c0.4,0.3,0.9,0.7,1.4,1c-0.2,0-0.3-0.1-0.5-0.1
		c-0.1,0-0.1,0-0.2,0.1c0,0.1,0,0.1,0.1,0.2h0.1c0.2,0,0.5,0.1,0.7,0.1c0,0.1-0.1,0-0.1,0.1c-0.2,0.1-0.4,0.1-0.5,0.2c0,0,0,0,0-0.1
		c0-0.1,0-0.1-0.2-0.2c-0.1,0-0.2-0.1-0.3-0.1c0,0-0.1,0-0.1-0.1c0-0.2-0.1-0.3-0.1-0.4c-0.2-0.3-0.3-0.4-0.4-0.6L23.6,21.8z
		 M23.3,22c0.1,0.2,0.2,0.3,0.4,0.5c0,0.1,0.1,0.1,0.1,0.2c-0.2,0-0.3-0.1-0.5-0.3c-0.1-0.1-0.1-0.2-0.2-0.2
		C23.2,22.2,23.3,22.1,23.3,22z M22.9,22.4c0,0,0.1,0.1,0.1,0.2c-0.2,0-0.2,0-0.3,0C22.8,22.6,22.9,22.5,22.9,22.4z M21.6,24.1
		c0-0.2,0.1-0.3,0.2-0.3c-0.1,0.1-0.1,0.2-0.2,0.4V24.1z M21.6,24.8c0.1,0.1,0.2,0.3,0.4,0.4c0.1,0.1,0.1,0.1,0.2,0.1
		c0.2-0.2,0.1-0.2,0.1-0.3s-0.1-0.1-0.2-0.2c0.2,0,0.3,0.1,0.4,0.2c0.1,0,0,0.1,0,0.1c-0.1,0.2-0.3,0.3-0.5,0.4h-0.1
		c-0.1-0.1-0.2-0.3-0.3-0.4C21.6,25,21.6,24.9,21.6,24.8z M22.1,28.4c-0.2,0-0.2,0-0.2,0.1c-0.1,0.5-0.2,0.9-0.2,1.4
		c0,0.3,0.3,0.1,0.3,0.2h0.1l0.1-0.1v-0.1c0-0.1,0-0.1,0.1-0.1c0.1,0,0.1,0,0.2,0c0,0.1,0,0.2,0.1,0.2c-0.1,0-0.1,0-0.2,0.1
		c-0.1,0-0.1,0.1-0.1,0.1c-0.3,0.1-0.3,0.2-0.2,0.2c0.1,0,0.2,0,0.2,0c0,0.1,0.1,0.3,0.1,0.4c-0.4,0.1-0.8,0.1-1.3,0
		c-0.1,0-0.2-0.1-0.3-0.2c-0.2-0.3-0.4-0.6-0.6-1c-0.1-0.1-0.1-0.2-0.1-0.4c0.3,0.4,0.6,0.8,0.8,1.2c0,0,0,0,0,0.1s0.1,0.2,0.2,0.2
		c0.3,0,0.5,0.1,0.8,0.1c0.1,0,0.2,0,0.2-0.1c0.1-0.2,0-0.3,0-0.3c-0.3,0-0.5,0-0.7-0.1c0,0-0.1,0-0.1-0.1c-0.1-0.2-0.3-0.5-0.4-0.7
		c0-0.1-0.1-0.1,0-0.2c0-0.2,0.1-0.5,0.2-0.7c0-0.1,0.1-0.1,0.2-0.1c0,0.1,0,0.1,0,0.1c0,0.3-0.1,0.5-0.1,0.8c0,0.1,0,0.2,0.1,0.2
		h0.1c0.1-0.1,0.1-0.1,0.1-0.2c0-0.1,0-0.1,0-0.2c0-0.2,0.1-0.4,0.1-0.6c0-0.1,0-0.2-0.1-0.3c0.2-0.1,0.3-0.1,0.4-0.2H22
		C22,28.2,22.1,28.3,22.1,28.4z M22,26.7c0.1,0,0.1,0,0.2,0c0.1,0.1,0.2,0.2,0.3,0.3c0,0.1-0.1,0.1-0.1,0.2
		c-0.1-0.1-0.1-0.1-0.2-0.1C22.1,27,22,26.8,22,26.7z M19.5,29.4c0.3,0.4,0.4,0.6,0.6,0.9c0.1,0.1,0.1,0.2,0.2,0.3
		c-0.2,0-0.2,0-0.2,0.2c0,0.5,0,0.9,0,1.4v0.1c-0.1,0-0.4-0.2-0.4-0.3c0-0.4,0-0.8,0.1-1.1c0-0.1,0.1-0.3,0.2-0.3s0.1-0.1,0-0.2
		C19.7,30.1,19.6,29.7,19.5,29.4c-0.1-0.1-0.2-0.1-0.2-0.2c0,0-0.1-0.1-0.1,0l-0.1,0.1c0,0.1,0,0.1-0.1,0.2c-0.3,0.4-0.7,0.6-1,1
		h-0.1c-0.4,0-0.7,0-1.1,0c0,0-0.1,0-0.1-0.1c0-0.1,0.1-0.1,0.1-0.1c0.3,0,0.7,0,1,0c0.1,0,0.2,0,0.2-0.2c0-0.1,0-0.2,0.1-0.3
		c0.2-0.2,0.4-0.4,0.6-0.7c0.1-0.1,0.1-0.1,0-0.2c0,0-0.1,0-0.2,0.1s-0.1,0.1-0.2,0.1c-0.2,0.2-0.2,0.2-0.4,0c0-0.1-0.1-0.1-0.1-0.2
		c0,0,0,0,0.1,0c0,0.1,0.1,0.1,0.2,0.1c0.1,0,0.1-0.1,0.1-0.1h0.1V29c0,0,0,0,0,0.1c0.1-0.1,0.1-0.1,0.2-0.2c0.1,0,0.1-0.1,0.2,0
		c0.3,0,0.5,0.1,0.8,0.2c0.1,0,0.2,0,0.2-0.1s0-0.1-0.1-0.1c-0.3,0-0.6-0.1-0.9-0.2c0.1-0.1,0.3-0.1,0.4-0.2c0.2,0,0.4,0.1,0.7,0.1
		c0.2,0,0.3,0,0.5-0.1c0.3-0.3,0.6-0.5,1-0.7c0.1,0,0.1,0.1,0.2,0.1c0.1,0.1,0,0.1-0.1,0.1c-0.3,0.2-0.6,0.3-0.8,0.5
		c-0.1,0.1-0.1,0.2,0,0.2c0.1,0,0.1,0.1,0,0.1c0,0.1,0,0.1-0.1,0.2h-0.1c-0.1-0.2-0.1-0.2-0.3,0c-0.2,0-0.2,0.1-0.2,0.2
		c0,0.1,0.1,0.2,0.1,0.3c0.1,0.3,0.3,0.5,0.5,0.8c0.1,0.1,0.1,0.2,0.1,0.2v0.1h-0.1c0-0.1-0.1-0.1-0.1-0.2c-0.2-0.4-0.5-0.7-0.7-1.1
		c0-0.1-0.1-0.2-0.2-0.1C19.4,29.2,19.4,29.3,19.5,29.4z M18.8,30.5c-0.2,0.2-0.3,0.3-0.4,0.1c0.3-0.3,0.5-0.6,0.8-0.9l0.1-0.1
		c0.1,0.1,0.1,0.2,0.2,0.3c0,0.1,0,0.1,0,0.1C19.3,30.2,19,30.4,18.8,30.5z M19.2,31.3c0,0.1-0.1,0.3-0.1,0.4c0,0.2,0,0.3-0.1,0.5
		c0-0.2,0-0.4,0-0.6C19,31.4,19.1,31.4,19.2,31.3z M18,31.7c-0.4,0-0.8,0-1.3,0c0-0.1,0-0.1,0-0.2c-0.1-0.3-0.2-0.6-0.3-0.9
		c0-0.1,0-0.1,0-0.1c0.1,0,0.1,0,0.1,0.1c0.1,0.3,0.3,0.5,0.3,0.8c0,0.2,0.1,0.2,0.3,0.2c0.3,0,0.6,0,0.9,0c0.1,0,0.2-0.1,0.2,0.1
		c0,0,0,0.1,0.1,0.1c0.2,0.2,0.3,0.5,0.4,0.7c-0.1-0.1-0.2-0.3-0.3-0.5c0-0.1-0.1-0.1-0.2-0.1c-0.1,0-0.1,0-0.2,0
		c0.1,0,0.2,0,0.2-0.1C18.2,31.7,18.1,31.7,18,31.7z M16.7,33.7c0.2,0.3,0.3,0.5,0.3,0.7c-0.1,0.1-0.3,0.1-0.4,0.1
		c-0.1-0.3-0.2-0.6-0.3-1c0.2,0.1,0.2,0,0.3-0.1c0-0.1,0.1-0.2,0.1-0.4c0.1-0.3,0.2-0.6,0.3-0.9c0,0.5-0.2,0.9-0.4,1.3
		C16.5,33.5,16.5,33.7,16.7,33.7z M15.7,34.6c-0.1,0-0.2,0-0.3,0c0-0.2-0.1-0.4,0-0.6c0-0.2-0.1-0.4-0.1-0.6c0-0.2,0.1-0.2,0.2-0.2
		s0.1,0,0.2,0c0.1,0,0.2,0,0.3,0.2c0.1,0.4,0.2,0.7,0.4,1.1c-0.2,0-0.3,0-0.4,0c-0.1-0.3-0.1-0.6-0.2-0.9c0-0.1-0.1-0.2-0.2-0.1
		c-0.1,0-0.1,0.1-0.1,0.2C15.5,34,15.6,34.3,15.7,34.6z M12,34c0,0.4,0,0.7,0,1.1c-0.1,0-0.3,0-0.4,0c0-0.4,0.1-0.7,0.1-1.1
		c0-0.1,0-0.2-0.1-0.2c-0.1,0-0.1,0.1-0.1,0.2c0,0.3,0,0.5-0.1,0.8c0-0.3,0-0.5,0-0.8c0-0.1,0-0.2-0.1-0.2c-0.1,0-0.1,0.1-0.2,0.2
		c0,0.1,0,0.3,0,0.5s0,0.5,0,0.7H11c0-0.4,0-0.9,0-1.3c0-0.1,0-0.3-0.2-0.2c0.1-0.1,0.2-0.3,0.3-0.4c0,0.1,0,0.2,0.1,0.3
		c0,0.1,0.1,0.1,0.2,0.1c0.1,0,0.1-0.1,0.1-0.2c0-0.1,0-0.2-0.1-0.3c0-0.3-0.1-0.6-0.2-1c0-0.1,0-0.1,0.1-0.2h0.1
		c-0.1-0.1-0.1-0.3-0.2-0.4c0-0.1,0-0.1,0-0.1c0.2,0,0.2,0,0.3,0c0-0.1,0-0.1,0-0.2h-0.1c-0.1,0-0.1,0-0.2,0.1
		c-0.3,0.1-0.5,0.2-0.8,0.4v-0.1c0.3-0.2,0.6-0.4,0.9-0.5c0.1,0,0.1-0.1,0.1-0.2c0,0,0-0.1-0.1-0.1c0.1,0,0.1,0,0.2,0
		c0,0.1,0,0.3,0,0.4c0.1,0,0.1,0,0.1,0.1c0,0.1,0,0.1-0.1,0.1c0.2,0.5,0.4,1,0.5,1.5c0,0.1,0,0.1-0.1,0.1c-0.1,0-0.1,0-0.2,0
		c0,0.1,0,0.1,0.1,0.2c0,0.1,0.1,0.2,0,0.3v0.1h0.1c0.1,0,0.1-0.1,0.2-0.1c0.4-0.1,0.6-0.2,1-0.2c-0.3,0.2-0.6,0.2-1,0.4
		C12,33.8,11.9,33.9,12,34z M10.8,32.2c-0.1-0.1-0.2,0-0.2,0.1c-0.2,0.3-0.3,0.5-0.5,0.8c0,0-0.1,0.1-0.1,0C9.9,33,9.7,33,9.8,32.9
		c0.3-0.4,0.5-0.8,1-0.9c0.1,0,0.1,0,0.1,0.1c0.1,0.2,0.1,0.4,0.1,0.6c0,0.1-0.1,0.1-0.1,0.2c-0.2,0-0.3,0.2-0.4,0.4
		c0,0.1-0.1,0.1-0.1,0.1c-0.1-0.1-0.2-0.1-0.1-0.2c0.2-0.2,0.3-0.5,0.5-0.8C10.9,32.3,10.9,32.2,10.8,32.2z M8.3,31.7
		c0.1,0.3,0.1,0.5,0.2,0.8c0,0.1,0,0.2,0.1,0.2c0.1,0.1,0,0.1,0,0.1c-0.2,0-0.2,0.1-0.3,0.1C8,32.5,8,32,7.8,31.4c0,0,0-0.1,0-0.2
		c0-0.1-0.1-0.1-0.2-0.1c-0.1,0-0.1,0.1-0.1,0.2c0.1,0.5,0.2,1,0.4,1.6c0,0.1,0,0.2,0.1,0.2c-0.1,0-0.1,0.1-0.2,0.1
		c-0.1-0.3-0.1-0.6-0.2-0.9c-0.1-0.3-0.1-0.5-0.2-0.8c0,0,0-0.1-0.1-0.1c0-0.1-0.1-0.1-0.2,0C7,31.5,7,31.6,7,31.6
		c0.3,0.5,0.4,1,0.6,1.7c0,0,0,0,0,0.1c-0.3,0.2-0.5,0.4-0.7,0.5c0.1-0.1,0-0.1,0-0.2c-0.1-0.1-0.2-0.3-0.3-0.4v-0.1
		c0.1,0,0.1-0.1,0.1-0.1C6.7,33,6.6,33,6.6,33c-0.1,0-0.1,0-0.2,0c-0.4,0-0.7,0-1,0v-0.1c0.3,0,0.6,0,0.9,0c0.1,0,0.2,0,0.3,0
		c0.1,0,0.2,0,0.2-0.1c0-0.1-0.1-0.1-0.1-0.1c-0.3,0-0.5,0-0.8,0c-0.1,0-0.1,0-0.2,0c-0.1,0-0.2,0-0.3,0v-0.1c0.4,0,0.8,0,1.2,0
		c0.1,0,0.2,0,0.2,0.1C6.9,32.9,7,33.2,7,33.4c0,0.1,0.1,0.2,0.2,0.1c0.1,0,0.1-0.1,0.1-0.2v-0.1c-0.2-0.6-0.4-1.1-0.6-1.7v-0.1
		c0.1-0.3,0-0.7,0-1c0-0.1,0-0.2,0.2-0.2c0.4,0,0.8,0,1.2-0.1l0.1,0.1c-0.4,0.1-0.7,0.2-1.1,0.1c-0.1,0-0.2,0-0.2,0.1
		c0,0.1,0.1,0.1,0.2,0.1c0.2,0,0.4,0,0.6,0c0.3-0.1,0.6-0.1,0.9-0.1C9,30.8,9.3,30.9,9.9,31c0,0,0,0-0.1-0.1c0.1,0,0.3,0,0.4,0
		c-0.1,0.1-0.3,0.2-0.4,0.3c0,0,0,0-0.1-0.1c-0.3-0.2-0.7-0.2-1-0.3c-0.1,0-0.1,0-0.2,0.1c0,0.1,0,0.1,0.1,0.1c0.1,0,0.2,0,0.2,0.1
		c0.2,0,0.5,0.1,0.7,0.2c0,0,0.1,0,0.1,0.1c0.1-0.1,0.1-0.1,0.1-0.1c0,0,0,0.1,0,0.1l0.1,0.1c0.1,0,0.1,0,0.2-0.1
		c0.1,0,0.1-0.1,0.2-0.1c-0.1,0.1-0.2,0.1-0.3,0.2c0,0-0.1,0.1-0.1,0.2C9.9,32,9.8,32,9.6,32c-0.1,0-0.2-0.1-0.2-0.1s-0.1,0-0.1-0.1
		c-0.1,0.1-0.1,0.2-0.2,0.1c-0.1,0.2-0.3,0.3-0.4,0.4c0-0.1-0.1-0.2-0.1-0.4v-0.1C8.5,31.8,8.4,31.8,8.3,31.7z M5.5,28.2
		c0-0.1,0.1-0.1,0.1-0.2c0,0.1,0,0.1,0.1,0.2c0,0.1,0.1,0.3,0.2,0.2c0.2,0,0.1-0.2,0-0.3V28c0.1,0,0.2,0.1,0.3,0.2
		c-0.1,0.1-0.1,0.2-0.1,0.3H6c-0.1,0-0.1,0-0.2,0.1c0,0.1,0.1,0.1,0.1,0.1c0,0.1-0.1,0.2-0.1,0.3c-0.1,0-0.1,0.1-0.1,0.2v0.1
		c-0.1,0.3-0.2,0.5-0.3,0.8c0-0.2,0.1-0.3,0.1-0.5c0.1-0.2,0.1-0.4,0.1-0.6c0-0.1-0.1-0.2-0.3-0.2c-0.1-0.2,0.1-0.2,0.2-0.3
		S5.6,28.3,5.5,28.2z M6.8,29.2c0.1,0,0.1-0.1,0-0.2l-0.1-0.1c0.1-0.1,0.1-0.2,0.1-0.3C6.9,28.8,7,29,7.1,29.2
		c-0.2,0-0.3,0.1-0.5,0.1l-0.1-0.1c0,0,0-0.1,0.1-0.1c0,0,0,0,0,0.1C6.7,29.2,6.7,29.3,6.8,29.2z M6.6,32.1c0.1,0.1,0.1,0.2-0.2,0.1
		C6.5,32.2,6.6,32.2,6.6,32.1z M5.6,31.9c0-0.1,0-0.2,0-0.3c0.2,0,0.4,0,0.6,0c0.3,0,0.3,0,0.4,0.3C6.3,31.9,5.9,31.9,5.6,31.9z
		 M6.6,29.6c0-0.1,0-0.1,0.1-0.1c0.1,0,0.2,0,0.2,0c0.1,0,0.2,0,0.3-0.1c0.1,0.1,0.2,0.1,0.2,0.2c-0.2,0-0.5,0-0.7,0
		C6.7,29.6,6.6,29.7,6.6,29.6z M6.4,31.5c-0.2,0-0.4,0-0.6,0c0-0.3,0-0.6,0.1-0.8c0,0.1,0,0.2,0,0.3s0,0.2,0.1,0.2s0.1-0.1,0.1-0.2
		c0-0.2,0-0.5,0-0.7c0-0.1,0-0.2,0-0.2s0-0.1,0.1-0.1c0,0.1,0,0.1,0,0.2c0,0.4,0,0.7,0,1.1C6.2,31.4,6.3,31.5,6.4,31.5l0.1-0.2
		C6.5,31.4,6.6,31.5,6.4,31.5z M10.5,31.1c0.1-0.1,0.3-0.2,0.4-0.2c0.1,0,0.2,0,0.3,0c0,0-0.1,0.1-0.2,0.1s-0.2,0-0.3,0
		C10.6,31,10.6,31.1,10.5,31.1z M12.4,31.2c0.2,0,0.1-0.1,0.1-0.2c0,0,0,0,0-0.1c0-0.1,0-0.2,0-0.4c0.1,0,0.1-0.1,0.2-0.1
		c0,0.1,0,0.2,0,0.3c0,0.1,0,0.2,0.1,0.2c0.1,0,0.1-0.1,0.1-0.2c0-0.1,0-0.3,0-0.4c0.1-0.1,0.2-0.1,0.4-0.2c0,0.2,0,0.3,0,0.5
		c0,0.1,0,0.2-0.1,0.2c-0.3,0.2-0.6,0.4-0.8,0.6c-0.1,0-0.1,0.1-0.1,0.2c0.1,0.1,0.1,0.1,0.2,0c0.1-0.1,0.1,0,0.1,0
		c0.1,0.1,0,0.2,0,0.3c0.2,0.2,0.2,0.5,0.2,0.7c0,0.3,0,0.2-0.2,0.3c-0.1,0-0.1,0-0.1-0.1c0-0.4-0.3-0.8-0.4-1.3v-0.1
		c0-0.3,0-0.4,0-0.6c0.1,0,0.1,0,0.2-0.1c0,0.1,0,0.2,0,0.3S12.3,31.2,12.4,31.2z M13.6,30.9c0.1-0.1,0.2,0,0.2,0.1s0,0.1-0.1,0.1
		c-0.3,0.2-0.5,0.3-0.8,0.6c-0.1,0-0.1-0.1-0.1-0.2c0,0.1-0.1,0,0,0C13.1,31.3,13.3,31.1,13.6,30.9z M13,31.9
		c0.1-0.1,0.2-0.2,0.4-0.3c0.2-0.1,0.4-0.3,0.6-0.4c0.1-0.1,0.1-0.1,0.2,0c-0.4,0.3-0.7,0.6-1,0.8C13.2,32,13.1,32.1,13,31.9z
		 M13.1,32.4v-0.1c0.4-0.3,0.7-0.6,1-0.8c0.1-0.1,0.1-0.1,0.1-0.2c0.1,0.1,0.2,0.1,0.2,0.1c0.2,0.1,0.2,0.1,0,0.2
		c-0.3,0.3-0.7,0.6-1,0.9c-0.1,0.1-0.2,0.1-0.2,0.2h-0.1C13.1,32.6,13.1,32.5,13.1,32.4z M14,30.7c-0.1-0.1-0.2-0.1-0.3-0.3
		c0.1,0,0.2,0.1,0.2,0.1c0.4,0.2,0.7,0.4,1.1,0.5c0.1,0,0.2,0.1,0.2,0s0-0.1-0.1-0.2c-0.5-0.2-0.9-0.5-1.3-0.7
		c-0.2,0.1-0.3,0-0.2-0.2c-0.1,0.1-0.1,0,0,0c0.1,0.1,0.1,0.1,0.1,0.1c0.4,0.2,0.8,0.4,1.2,0.6c0,0,0.1,0,0.1,0.1c0,0,0,0.1,0.1,0.1
		h0.1h0.1c0.1,0.2,0.1,0.3,0.2,0.5c-0.2,0-0.3,0-0.4,0c-0.1,0-0.2,0-0.2,0C14.6,31.1,14.3,30.9,14,30.7z M16.9,29.8
		c0.1,0.1,0.1,0.2,0.2,0.3c0.1,0.1,0,0.1-0.1,0.1s-0.2,0-0.3,0h-0.1c0-0.2,0.1-0.2,0.1-0.2C16.8,30,16.9,29.9,16.9,29.8
		c-0.1,0-0.2,0-0.3,0c-0.1,0.1-0.2,0.1-0.2,0c-0.1-0.2-0.3-0.1-0.4-0.2c-0.2,0.2-0.5,0.3-0.6,0.4c-0.2,0.1-0.3,0.1-0.4,0
		c0.2-0.1,0.3-0.2,0.5-0.3c0.2-0.1,0.5-0.3,0.7-0.4l0.1-0.1c0.1,0,0.1,0,0.2,0c0,0,0,0,0,0.1C16.7,29.4,16.7,29.6,16.9,29.8z
		 M17.8,29.5c-0.1-0.2-0.2-0.3-0.4-0.4c0.2,0,0.3,0,0.3,0c0.1,0.1,0.1,0.2,0.2,0.3c0.2,0.3,0.2,0.3,0,0.5L17.8,30
		c-0.1,0.1-0.1,0.1-0.2,0.1c0-0.1,0-0.1-0.1-0.2c-0.2-0.2-0.3-0.5-0.4-0.8c0.1,0,0.1,0,0.2,0c0.1,0.2,0.2,0.4,0.3,0.5
		c0,0.1,0.1,0.2,0.2,0.1C17.9,29.6,17.9,29.6,17.8,29.5z M16.4,31.2c0,0.1,0,0.2,0.2,0.3v0.1c0,0.1-0.1,0.1-0.1,0.1
		c0-0.1-0.1-0.2-0.1-0.3c-0.2-0.3-0.3-0.6-0.5-0.9c-0.1-0.1,0-0.1,0.1-0.2c0.1-0.1,0.1,0.1,0.1,0.1C16.2,30.7,16.3,30.9,16.4,31.2z
		 M14.8,29.7c-0.1,0.1-0.2,0.1-0.3,0c0.4-0.2,0.7-0.4,1-0.7c0.2,0.1,0.3,0.1,0.4,0.1C15.5,29.3,15.2,29.5,14.8,29.7z M14.3,29.6
		l-0.1,0.1c0,0,0,0-0.1,0v-0.1c0.2-0.2,0.5-0.4,0.8-0.6c0.2-0.1,0.2,0,0.3,0C14.9,29.2,14.6,29.4,14.3,29.6z M14.8,30.2
		c0.1,0,0.2,0.1,0.1,0.2c-0.3-0.2-0.7-0.3-1-0.5c-0.1,0-0.2-0.1-0.2-0.1c0.1,0,0.1,0,0.2,0C14.2,29.9,14.5,30.1,14.8,30.2z
		 M14.7,31.7c0-0.1,0.1-0.1,0.1-0.1c0.2,0,0.5,0,0.7,0s0.2,0.1,0.3,0.2c0,0.1,0,0.1-0.1,0.1c-0.4,0-0.7,0-1.1,0
		C14.7,31.8,14.7,31.8,14.7,31.7z M16,32.1c0.1,0,0.2,0,0.2-0.2c0-0.1,0-0.2-0.1-0.3c-0.1-0.3-0.3-0.5-0.4-0.8c0-0.1-0.1-0.1,0-0.2
		c0.1,0,0.1,0,0.1,0.1c0.2,0.3,0.3,0.6,0.5,0.9c0.1,0.1,0.2,0.2,0.3,0.1c-0.1,0.2-0.1,0.4-0.2,0.6c-0.1,0.1-0.1,0.2-0.2,0.2
		c-0.4,0-0.7,0-1.1,0H15c0-0.1-0.1-0.2-0.1-0.4C15.3,32.1,15.6,32.1,16,32.1z M15.2,32.8c0.1,0,0.3,0,0.4,0c0.1,0,0.3,0,0.4,0
		c0.1-0.1,0.2-0.1,0.2,0c0,0.1,0,0.2-0.1,0.2c-0.3,0-0.6,0-0.9,0c-0.1,0-0.1-0.1-0.1-0.2C15.1,32.7,15.2,32.8,15.2,32.8z M18.3,31.1
		c-0.4,0-0.7,0-1.1,0c-0.2,0-0.2,0-0.3-0.3c0.4,0,0.8,0,1.2,0c0.1,0,0.2,0,0.2,0.1c0.1,0,0.1,0.1,0.1,0.2H18.3z M18.6,31.3v0.4
		C18.3,31.4,18.3,31.4,18.6,31.3z M19.5,28.4c0.1,0,0.1-0.1,0.2-0.1c0,0,0.1,0,0.2,0c0.1,0,0.3,0,0.4-0.1c0.2-0.3,0.5-0.4,0.8-0.6
		c0,0,0.1-0.1,0.1,0c0.1,0.1,0,0.1-0.1,0.1c-0.3,0.2-0.6,0.4-0.9,0.7c-0.1,0.1-0.2,0.1-0.3,0.1C19.8,28.5,19.6,28.5,19.5,28.4z
		 M21.5,27.3c0,0.1,0.1,0.2,0.1,0.2C21.3,27.4,21.4,27.4,21.5,27.3z M21.2,26.5c0,0.1,0.1,0.3,0.2,0.6c-0.2,0.2-0.5,0.4-0.7,0.5
		c-0.2,0.1-0.4,0.3-0.6,0.5H20c0.2-0.2,0.5-0.5,0.7-0.8c0.2-0.1,0.3-0.3,0.5-0.3c0.1,0,0.1-0.1,0.1-0.1c0-0.1-0.1-0.1-0.1-0.1
		c-0.1,0-0.1,0-0.2,0C21.1,26.7,21.1,26.6,21.2,26.5z M18.6,17.4c1.5,4-1.6,7.8-4.9,8.6c-3.9,0.9-6.6,0-8.6-2.9
		c-0.6-0.8-0.5-1.3,0.1-2.2c1-1.4,2.4-2.3,3.9-3.1c1.6-0.8,3.8-1.6,5.9-1.6c0.8,0,1.8,0,2.8,0.2C18.2,16.6,18.5,17,18.6,17.4z
		 M4.6,20.3v0.1c-0.1,0.1-0.2,0.2-0.2,0.3H4.3c0-0.1,0-0.1,0-0.2c0,0,0,0,0.1,0c0.1,0,0.1-0.1,0.1-0.1c-0.1-0.5-0.1-1-0.1-1.5
		c0-0.1,0-0.2,0-0.4c0-0.1-0.1-0.1-0.2-0.1c0-0.1,0-0.1,0-0.2l0.1-0.1c-0.1-0.1,0-0.2,0.1-0.1c0.1,0,0.1,0,0.1-0.1
		c0.1-0.3,0.4-0.5,0.5-0.8c0,0,0-0.1,0.1-0.1c0.2,0,0.3,0,0.5,0.1c-0.2,0.3-0.5,0.6-0.7,0.8c-0.1,0.1-0.2,0.2-0.2,0.3
		c0,0.1,0,0.2-0.2,0.2c-0.1,0-0.1,0.1-0.1,0.1C4.5,19.1,4.5,19.7,4.6,20.3z M4.6,13.5c-0.2,0.1-0.4,0.3-0.6,0.4c0,0,0,0-0.1,0
		c0-0.1,0-0.2,0-0.4c0,0,0.1,0,0.1-0.1c0.2-0.1,0.3-0.2,0.5-0.4c0,0.1,0,0.1,0,0.2C4.5,13.3,4.6,13.4,4.6,13.5z M5.3,11.6
		c-0.2,0.2-0.4,0.3-0.5,0.4c-0.1,0.1-0.1,0.1-0.1,0.2C4.6,12.1,4.5,12,4.5,12C4.8,11.8,5,11.7,5.3,11.6z M4.4,11.8
		c-0.1-0.1-0.2-0.1-0.2-0.3c0.1,0.1,0.1,0,0.2,0c0.2-0.1,0.4-0.3,0.6-0.4c0,0.3-0.1,0.4-0.3,0.5C4.6,11.6,4.5,11.7,4.4,11.8z
		 M4.1,3.8C4.1,3.7,4,3.6,4,3.6c-0.1-0.1-0.1-0.1-0.1,0C3.8,3.5,3.7,3.4,3.7,3.3c0,0,0.1,0,0.1,0c0,0,0,0,0,0C3.9,3.3,3.9,3.5,4,3.6
		c0,0,0.1,0,0.1,0c0,0,0,0,0,0C4.1,3.7,4.1,3.7,4.1,3.8C4.2,3.7,4.1,3.8,4.1,3.8z M3.3,2.8c0.1-0.1,0.1-0.1,0.2-0.2
		c0.1,0.1,0.1,0.2,0.2,0.2c0,0,0.1,0.1,0.1,0.1c0,0,0,0,0,0c0,0,0,0,0,0c0,0-0.1,0.1-0.2,0.1C3.5,3,3.4,2.9,3.3,2.8z M6,6.9
		C6.1,7,6.1,7.1,6.2,7.2c0.1,0.1,0.1,0.1,0,0.3C6.1,7.3,5.9,7,5.8,6.8C5.7,6.7,5.7,6.7,5.6,6.6c0.1,0,0.2,0,0.3,0c0.1,0,0,0.1,0,0.2
		C6,6.9,6,6.9,6,6.9z M6.1,6.6c0.2,0,0.2,0,0.2,0.3C6.2,6.8,6.2,6.7,6.1,6.6z M6.2,8.1C6,8.2,5.9,8,5.8,7.9c0-0.2-0.1-0.4-0.2-0.6
		c0-0.1-0.1-0.1-0.1-0.2C5.4,7,5.4,7,5.3,7c-0.1,0-0.1,0.1,0,0.2C5.5,7.6,5.6,8,5.8,8.4c0,0.1,0.1,0.1,0.2,0.1
		c0.1-0.1,0.2-0.1,0.3,0h0.1c0.2-0.1,0.4,0.1,0.4,0.3C6.4,8.6,6,8.5,5.7,8.5c0-0.1,0-0.2,0-0.2C5.5,8.3,5.5,8.1,5.5,8
		C5.3,7.9,5.2,7.7,5.1,7.5L5,7.4c0-0.1,0-0.2-0.1-0.2C5.1,7.1,5.3,7,5.4,6.9c0.1,0,0.1,0,0.1,0C5.8,7.3,6,7.7,6.2,8.1z M7.9,7.1
		c0-0.2,0.2-0.3,0.4-0.4c0,0.6-0.1,1.1-0.1,1.6c0,0.2-0.1,0.3-0.2,0.3c0-0.1,0-0.1,0-0.2C7.8,8.1,7.8,7.6,7.9,7.1z M8.2,8.8
		c0.1-0.1,0.2-0.1,0.3-0.2c0,0.2,0.1,0.2,0.3,0.3C8.5,9.1,8.2,9.3,7.9,9.5H7.8c-0.1,0-0.2,0-0.4-0.1C7.7,9.2,8,9,8.2,8.8z M8.5,7.1
		c0.1,0.2,0.1,0.4,0.1,0.6s0,0.3,0,0.5c0,0,0,0.1-0.1,0.1S8.4,8.2,8.4,8.2C8.4,7.8,8.4,7.5,8.5,7.1z M8.4,6.7c0.1,0,0.2-0.1,0.3-0.1
		C8.6,6.7,8.7,6.8,8.4,6.7z M7.6,9.7c0,0,0.1,0,0.1,0.1c0,0.1,0,0.1-0.1,0.1C6.9,9.7,6.4,9.6,5.8,9.6c-0.1,0-0.2,0-0.2-0.2
		c0-0.2,0-0.2,0.2-0.1C6.4,9.4,7,9.6,7.6,9.7z M6.7,10.9c-0.1,0.4-0.3,0.7-0.4,1.1H6.2c-0.2,0-0.4,0-0.6,0v-0.1c0-0.1,0-0.1-0.1-0.1
		c0.1-0.1,0.2-0.2,0.2-0.3c0-0.4,0.2-0.8,0.4-1.2c0-0.1,0.1-0.1,0.2-0.1c0.1,0,0,0.1,0,0.1c0,0.1-0.1,0.2-0.1,0.3
		c-0.1,0.3-0.2,0.6-0.3,1c0,0.1,0,0.2,0.1,0.2s0.1,0,0.2-0.1v-0.1c0.1-0.4,0.2-0.8,0.4-1.2c0-0.1,0.1-0.1,0.1-0.1
		c0.1,0,0.1,0.1,0.1,0.1C6.8,10.6,6.7,10.7,6.7,10.9z M7,10.4c0-0.1,0.1-0.1,0.1-0.1c0.1,0,0.1,0,0.1,0.2c-0.1,0.4-0.2,0.9-0.4,1.3
		c0,0.2,0,0.2-0.3,0.2C6.7,11.5,6.9,10.9,7,10.4z M5.8,13.6c0,0,0,0,0.1,0c0,0,0,0,0.1,0c0.2,0,0.4,0,0.7,0c0,0,0.1,0,0.1,0
		c0,0,0,0,0,0c0.2,0,0.3,0,0.4,0.2c0,0.1,0.1,0.1,0.1,0.2c0,0.1,0.1,0.2,0.1,0.3c0,0,0.1,0,0.1,0c0,0.1,0.1,0.1,0,0.2
		c0,0-0.1,0-0.1,0c0,0,0,0,0,0.1c-0.1,0.2-0.1,0.3-0.2,0.5C7.1,15.6,7,16,6.9,16.4c0,0.1-0.1,0.3,0.1,0.5c0,0,0,0.1,0,0.2
		c0,0.4,0,0.8,0,1.1c-0.1,0-0.1,0.1-0.2,0.1c0-0.4,0-0.9,0-1.3c0-0.1,0-0.1-0.1-0.2c-0.1,0-0.1,0-0.1,0s0,0.1-0.1,0.1
		c-0.5-0.2-1.1-0.2-1.6-0.3H4.8c0-0.2-0.1-0.2-0.2-0.3c-0.2-0.3-0.3-0.7-0.5-1c0,0,0-0.1-0.1-0.1c0-0.2,0-0.5,0-0.7
		c0.2,0.4,0.5,0.9,0.7,1.3C4.7,16,4.8,16,4.9,16c0.4,0.3,0.9,0.2,1.3,0.3c0.1,0,0.2,0,0.3,0.1c0.1,0,0.1,0,0.2,0c0-0.1,0-0.1,0-0.2
		c-0.1,0-0.1-0.1-0.2-0.1c-0.6,0-1-0.1-1.5-0.2c-0.1,0-0.1,0-0.1-0.1c-0.1-0.2-0.1-0.3-0.2-0.5c-0.1-0.1-0.1-0.2,0.1-0.2h0.1
		c0,0.2,0,0.2,0.2,0.2c0.2,0,0.4,0,0.6,0c0.1,0,0.2,0,0.2,0.2c-0.3,0-0.6,0-0.8-0.1c-0.1,0-0.2-0.1-0.2,0.1c0,0.1,0.1,0.2,0.2,0.2
		c0.2,0,0.4,0,0.6,0.1c0.3,0,0.7,0.1,1,0.2c0.1,0,0.1,0,0.2-0.1c0-0.1,0-0.1-0.1-0.2c-0.1,0-0.2-0.1-0.3-0.1s-0.2-0.1-0.3-0.2
		c0.2,0,0.4,0,0.5,0.2h0.1c0.1,0,0.1-0.1,0-0.1c-0.1-0.1-0.1-0.2-0.2-0.4c-0.3-0.4-0.4-0.8-0.6-1.2v-0.1c0-0.1-0.1-0.1-0.2-0.1
		c-0.1,0-0.1,0.1,0,0.2C6,14.3,6.1,14.6,6.3,15c0,0,0.1,0.1,0.1,0.2c-0.1,0-0.2,0-0.3,0c-0.1,0-0.1,0-0.2-0.1
		c-0.1-0.3-0.3-0.6-0.4-0.9c-0.1-0.2-0.2-0.3-0.4-0.1C5,14.2,5,14.2,5,14.2l0.1-0.1C5,14,5,13.9,4.9,13.7v-0.1
		c0.1,0,0.1-0.1,0.2-0.1c0,0.1,0,0.1,0,0.2c0,0.1,0,0.1,0.2,0.2c0.1,0,0.1,0,0.2-0.2c0-0.1-0.1-0.2-0.1-0.4v-0.1
		c-0.1-0.3-0.2-0.7-0.3-1C5,12.1,5.1,12,5.2,12v0.1c0,0,0,0.1,0.1,0.2c0,0.2,0.1,0.3,0.1,0.5c0,0,0,0.1,0.1,0.1
		c0.1,0.2,0.1,0.3,0.2,0.5c-0.1,0-0.1,0-0.1,0.1S5.7,13.6,5.8,13.6z M6.6,13.2C6.8,13.1,7,13,7.2,12.9c0.2-0.1,0.3-0.2,0.5-0.3
		c0.2-0.1,0.3-0.1,0.5,0c0.1,0.1,0.2,0.1,0.3,0.2c0.2,0.1,0.2,0,0.3-0.1c0.1-0.1,0-0.2-0.1-0.2c-0.2-0.2-0.4-0.3-0.6-0.4
		C8,12,7.8,11.9,7.6,11.8c0.1,0,0.2,0,0.3,0.1c0.3,0.2,0.6,0.3,0.9,0.6c0.1,0.1,0.1,0.1,0.2,0s0-0.2-0.1-0.2
		c-0.3-0.2-0.6-0.4-0.9-0.6c-0.1-0.1-0.3-0.1-0.5-0.1c0-0.1,0.1-0.2,0.1-0.3c0.5,0.2,1.1,0.4,1.6,0.7C9,12.1,9,12.1,9.1,12.3
		c0.1,0.2,0.2,0.4,0.3,0.5c0,0,0,0.1,0.1,0.1s0.1,0,0.1,0.1c0.2,0.3,0.3,0.6,0.5,0.8c0,0.1,0,0.2,0,0.2c0,0.1-0.1,0.1-0.2,0.2
		c0-0.2-0.1-0.2-0.2-0.1c-0.2,0.1-0.4,0.2-0.6,0.3c-0.2,0.1-0.3,0.2-0.5,0.1h0.1c0.4-0.2,0.7-0.4,1.1-0.5c0.1,0,0.1-0.1,0.2,0
		c0,0,0,0,0.1,0c0,0,0-0.1-0.1-0.2c-0.2-0.4-0.4-0.6-0.5-0.9c0,0,0,0-0.1,0c-0.1,0-0.1,0.1-0.1,0.1c0,0.1-0.1,0.1-0.1,0.1
		c-0.4,0.2-0.9,0.5-1.4,0.6c-0.1,0-0.2,0.1-0.1,0.2C7.7,14,7.8,14,7.9,14c0.4-0.1,0.7-0.3,1.1-0.5c0.1-0.1,0.2-0.1,0.3-0.2
		c0.1-0.1,0.1,0,0.2,0.1c0.1,0.1,0.2,0.2,0.2,0.3c0,0.1-0.2,0.1-0.3,0.2c-0.3,0.1-0.6,0.3-0.9,0.4c-0.1,0-0.2,0.1-0.3,0.1
		c0.1-0.1,0.2-0.1,0.3-0.2C8.7,14.1,9,14,9.2,13.9c0.1,0,0.2-0.1,0.1-0.2c0-0.1-0.1-0.1-0.2-0.1c-0.3,0.2-0.7,0.3-1,0.5
		c-0.3,0.2-0.3,0.2-0.5-0.2c-0.1-0.1-0.2-0.3-0.2-0.4c0.3,0,0.6-0.2,0.8-0.2c0.1,0,0.2-0.1,0.2-0.2C8.4,13,8.3,13,8.2,13
		c-0.2,0.1-0.5,0.2-0.7,0.3H7.4c-0.3-0.2-0.4-0.1-0.4,0c0,0.1-0.1,0.1-0.1,0.1c-0.4,0-0.7,0-1,0c0-0.2-0.1-0.3-0.1-0.5
		c0.3,0,0.5,0,0.8,0c0.1,0,0.1,0,0.2,0C6.6,13,6.5,13,6.4,13.1C6.4,13.2,6.5,13.2,6.6,13.2z M7.4,12L7.4,12c0.2,0.1,0.3,0.2,0.4,0.2
		C7.7,12.2,7.5,12.1,7.4,12z M11.9,16.1c-0.1,0.1-0.1,0-0.1,0c-0.2,0-0.3,0.1-0.5,0.2c-0.2-0.1-0.5-0.2-0.7-0.3
		c-0.1,0-0.1,0-0.2-0.1c0.5,0,0.9,0,1.3,0.2h0.1H11.9L11.9,16.1c0-0.1,0-0.1,0-0.2c-0.1-0.1-0.2-0.1-0.3-0.1c-0.1,0-0.2,0-0.3-0.1
		c0.3-0.1,0.5-0.2,0.7-0.2v0.1C12,15.7,12,15.9,11.9,16.1C11.9,16,12,16,11.9,16.1z M10.1,16.6c0,0,0,0,0.1,0
		c-0.1,0-0.2,0.1-0.2,0.1c-0.1,0-0.2,0-0.2,0.1v-0.1c0-0.1-0.1-0.1-0.2-0.1c0,0-0.1,0-0.1,0.1C9.2,16.9,9,17,8.7,17.1
		c-0.1,0-0.3,0-0.4-0.1H8.2C8,17,8,17.1,8,17.1c0,0.2,0,0.3,0,0.5c-0.1,0-0.2,0.1-0.2,0.1s0-0.1,0-0.2s0-0.3,0-0.4
		c0-0.1,0-0.1-0.1-0.1c-0.1,0-0.1,0.1-0.1,0.1v0.1c0,0.4,0,0.5,0,0.7C7.5,18,7.4,18,7.3,18.1c0-0.4,0-0.7,0-1.1
		c0-0.3,0.1-0.4,0.2-0.6c0.2-0.3,0.3-0.6,0.4-1c0-0.1,0.1-0.2,0.1-0.3c0-0.1,0-0.2-0.1-0.2c-0.1,0-0.1,0.1-0.1,0.1
		c0,0.3-0.2,0.5-0.3,0.8c0,0,0,0-0.1,0.1c0.1-0.2,0.1-0.4,0.2-0.6c0.1-0.2,0.1-0.4,0.2-0.6c0-0.1,0.1-0.1,0.2-0.2h0.1
		c0,0.1,0.1,0.1,0.2,0.1c0,0,0.1,0,0.2,0c0,0,0-0.1,0-0.1c0,0.1,0,0.1,0,0.1c0,0,0,0,0,0c-0.1,0.1-0.2,0.1-0.3,0.1
		c0,0-0.1,0.1,0,0.1c0,0.1,0,0.1,0.1,0.1c0.1,0,0.1,0,0.2-0.1c0.1-0.1,0.2,0,0.2,0.1C8.8,15.3,9,15.7,9.1,16
		c0.1,0.1,0.1,0.3,0.2,0.4c0,0.1,0.1,0.1,0.2,0.1s0.1-0.1,0-0.2c-0.3-0.5-0.4-1-0.7-1.6c0-0.1,0-0.1,0-0.1c0.1-0.1,0.1,0,0.2,0.1
		c0.1,0.4,0.3,0.8,0.4,1.3c0,0.1,0.1,0.2,0.2,0.1c0.1,0,0.1-0.1,0.1-0.2c0-0.2-0.1-0.3-0.1-0.5c-0.1-0.3-0.2-0.5-0.3-0.8
		c-0.1-0.1,0-0.2,0.1-0.2c0,0.1,0,0.2,0.1,0.2c0.2,0.3,0.4,0.7,0.5,1.1v0.1c-0.1,0.1,0,0.2,0.1,0.2c0.3,0.1,0.7,0.2,1,0.3
		c-0.1,0-0.2,0.1-0.4,0.1s-0.3-0.1-0.5-0.1c-0.1,0-0.2,0-0.2,0.1C10,16.5,10,16.5,10.1,16.6z M10.2,15.8c0.2,0,0.2,0.1,0.1,0.1
		C10.2,15.9,10.2,15.8,10.2,15.8c-0.1-0.4-0.3-0.8-0.5-1.2c0-0.1-0.1-0.2-0.2-0.2c0.1,0,0.2-0.3,0.3,0c0.1,0,0.1,0.1,0.1,0.2v0.1
		C10.1,15,10.2,15.4,10.2,15.8z M11.5,15.4c-0.1,0.1-0.3,0.1-0.4,0.2c-0.1,0.1-0.2,0.1-0.4,0.1c0.5-0.2,1-0.4,1.5-0.7
		c0.1,0,0.1,0,0.2,0.1C12.1,15.3,11.7,15.3,11.5,15.4z M10.6,15.4c0-0.1,0-0.1,0.1-0.1c0.3-0.1,0.6-0.3,0.9-0.5
		c0.1,0,0.2-0.1,0.3-0.2c0.1-0.1,0.1,0.1,0.2,0.1c0.1,0.1,0,0.1-0.1,0.1c-0.4,0.2-0.7,0.4-1.1,0.5c-0.1,0-0.1,0-0.2,0.1
		C10.7,15.4,10.7,15.4,10.6,15.4z M12.4,15.3c0.2-0.1,0.2-0.1,0.2,0c-0.1,0.2-0.1,0.4-0.1,0.7c-0.1,0-0.1,0-0.2,0.1
		C12.3,15.8,12.3,15.6,12.4,15.3z M11.8,13.9c0.3,0.2,0.6,0.5,0.8,0.8c0.1,0.1,0.1,0.2,0,0.3C12.3,14.7,12,14.3,11.8,13.9z
		 M11.8,14.5c-0.3,0.2-0.7,0.4-1,0.5c0,0-0.1,0-0.1,0.1c-0.1-0.1-0.1-0.2-0.1-0.3c-0.2-0.1-0.2-0.1-0.1-0.1c0.3-0.2,0.6-0.3,0.9-0.5
		c0.3-0.2,0.3-0.2,0.4,0.1C11.9,14.4,11.8,14.4,11.8,14.5z M11.3,13.9c-0.3,0.2-0.6,0.3-1,0.6c-0.1-0.1-0.1-0.2,0-0.2
		c0.3-0.2,0.6-0.4,0.9-0.6c0,0,0.1-0.1,0.1,0C11.3,13.8,11.4,13.8,11.3,13.9z M10.4,13.9c-0.1,0-0.1,0-0.1,0c0-0.3-0.1-0.5-0.3-0.7
		c0.2,0.2,0.3,0.4,0.4,0.6C10.4,13.8,10.5,13.8,10.4,13.9z M6.4,17.7l-0.1,0.1c-0.3,0.3-0.6,0.5-0.9,0.8c0.1-0.1,0.1-0.2,0.2-0.3
		c0.2-0.2,0.4-0.4,0.6-0.6c0.1-0.1,0.1-0.2,0-0.2c-0.1-0.1-0.1,0-0.2,0.1c-0.3,0.3-0.6,0.7-0.9,1L5,18.7c-0.1,0-0.2,0.1-0.1,0.2
		c0.1,0.3,0.2,0.7,0.2,1c-0.1,0-0.2,0.1-0.3,0.2c0-0.5-0.1-1-0.1-1.7c0.1,0,0.1-0.1,0.2-0.1c0.3-0.4,0.6-0.7,1-1.1L6,17.1
		c0.2,0,0.4,0,0.5,0.1c0.1,0,0,0.2,0,0.4C6.5,17.7,6.5,17.7,6.4,17.7z M6.5,18c-0.2,0.4-0.4,0.7-0.8,1c0-0.2,0-0.3,0.1-0.4
		C6,18.4,6.3,18.2,6.5,18z M5.5,19.3c0,0.1,0,0.1,0,0.1c-0.1,0.1-0.1,0.1-0.2,0.2c0-0.1,0-0.2-0.1-0.4c0-0.1-0.1-0.1,0-0.1
		C5.3,19,5.4,19,5.5,18.9c0,0.1,0,0.1,0,0.1C5.4,19.1,5.4,19.2,5.5,19.3z M5,15.1c0.2-0.2,0.4-0.2,0.5-0.3c0.1,0.1,0.1,0.2,0.1,0.3
		C5.4,15.1,5.2,15.1,5,15.1z M4.8,13.4c0-0.2-0.1-0.3-0.1-0.5c0,0,0.1-0.1,0.2-0.1C4.9,13,5,13.1,5,13.3C4.9,13.3,4.9,13.4,4.8,13.4
		z M5.4,9.1c-0.1,0.2,0,0.5-0.1,0.6C5.3,9.5,5.3,9.3,5.4,9.1z M4.9,8.2c-0.1,0-0.2,0.1-0.2,0.1C4.6,8.8,4.5,9.2,4.5,9.7
		c0,0.1,0,0.2,0,0.2c0.1,0.2,0,0.2-0.1,0.2c-0.1,0-0.1,0-0.2,0.1c0.1-0.4,0.1-0.9,0.2-1.4c0-0.2,0-0.3,0.1-0.5c0-0.1,0-0.1,0.1-0.2
		c0.1,0,0.3,0,0.4-0.2C5.1,8,5.2,8.2,5.2,8.4v0.1c-0.1,0,0,0.2-0.1,0.3c0,0.3-0.2,0.7-0.2,1c0,0.1-0.1,0.1-0.2,0.1
		c-0.1,0,0-0.1,0-0.1c0-0.5,0.1-0.9,0.2-1.4C5,8.3,5,8.2,4.9,8.2z M5,7.7C4.8,7.8,4.6,7.9,4.4,8V7.9c0.1-0.1,0.2-0.1,0.3-0.2
		C4.9,7.6,4.9,7.6,5,7.7z M4.7,7.4C4.6,7.5,4.6,7.5,4.5,7.6c0-0.1,0-0.1,0-0.2C4.6,7.4,4.6,7.3,4.7,7.4C4.8,7.3,4.8,7.4,4.7,7.4z
		 M4.2,3.2C4.2,3.2,4.2,3.2,4.2,3.2C4.1,3.2,4.1,3.1,4.1,3.1C4.3,3,4.6,2.9,4.9,2.7c0.2-0.1,0.3,0,0.5,0C5.3,2.8,5.2,2.9,5.2,3
		c0-0.1-0.1,0-0.2,0c0,0-0.1,0-0.2,0C4.7,3.1,4.6,3.1,4.5,3.2C4.3,3.3,4.3,3.3,4.2,3.2z M4.2,10.4c0.3-0.1,0.7-0.2,1.1-0.4
		c0,0.1,0,0.2-0.1,0.2c-0.3,0.2-0.6,0.3-1,0.5C4.2,10.6,4.2,10.5,4.2,10.4z M5.5,10.8c0.1-0.2,0.1-0.2,0-0.2s-0.1-0.1-0.1-0.1
		c0-0.1,0.1-0.1,0.2-0.1c0.1-0.1,0.1-0.1,0-0.3c0,0,0,0,0-0.1c0,0,0,0,0.1-0.1c0.1,0,0.3,0.2,0.2,0.3c-0.1,0.4-0.3,0.7-0.4,1.1
		c-0.1-0.1-0.2,0-0.3,0C5.2,11.1,5.2,10.9,5.5,10.8z M4.8,14.3c-0.1,0.1-0.2,0.1-0.3,0.2c0.2-0.1,0.4-0.2,0.6-0.3
		c0.2-0.1,0.2-0.1,0.3,0.1c0.1,0.2,0.1,0.2-0.2,0.4C5,14.8,4.8,14.9,4.5,15c0,0,0,0,0-0.1c0,0,0-0.1-0.1-0.1c-0.1-0.1-0.1-0.1,0-0.2
		c-0.1,0-0.1,0.1-0.2,0H4.1C4,14.3,4,14.2,4,14.2h0.1c0,0,0.1,0,0.1-0.1c0.1-0.1,0.3-0.2,0.5-0.3c0,0.1,0,0.2,0,0.3
		C4.7,14.2,4.7,14.2,4.8,14.3z M4,15.8c0.1,0.2,0.2,0.4,0.3,0.6c0.1,0.2,0.1,0.3-0.1,0.5c0-0.1-0.1-0.3-0.2-0.4
		C4,16.3,4,16.1,4,15.8z M4.1,17.6c0,0,0-0.1,0.1-0.2c0.1-0.1,0.1-0.1,0.2-0.2c0.1-0.3,0.2-0.3,0.4-0.2c-0.1,0.2-0.3,0.4-0.4,0.6
		c-0.1,0.1-0.1,0.2-0.2,0.2c0,0-0.1,0-0.1,0.1C4.1,17.8,4.1,17.7,4.1,17.6z M18.2,15.6c-0.1,0.1-0.2,0.1-0.3,0c0-0.1,0-0.1,0-0.2
		c0.1,0,0.2,0,0.3,0C18.2,15.5,18.2,15.6,18.2,15.6z M17.1,13.7c-0.1,0-0.2,0.2-0.4,0.2c0.1-0.2,0.1-0.3,0.2-0.5
		C16.9,13.5,17,13.6,17.1,13.7z M16.7,13.2c-0.1,0.2-0.1,0.3-0.2,0.5c-0.1,0.4-0.3,0.7-0.7,0.8c0,0,0,0-0.1,0h-0.1
		c-0.3-0.1-0.7,0-1,0c-0.2,0-0.3,0-0.5,0c0.1-0.2,0.4-0.3,0.6-0.2c0.1,0,0.1,0,0.2,0H15c0.2,0,0.5,0,0.7,0c0.3,0,0.4,0,0.5-0.3
		c0.1-0.3,0.2-0.6,0.4-1C16.6,13.1,16.7,13.2,16.7,13.2z M16.3,12.7l0.1,0.1c-0.1,0.4-0.3,0.8-0.5,1.2c0,0,0,0.1-0.1,0.1
		c-0.1,0-0.2,0-0.1-0.1c0.1-0.3,0.3-0.7,0.3-1.1C16.1,12.8,16.2,12.7,16.3,12.7z M15.9,12.6c-0.1,0.1,0,0.1,0,0.2c0,0.1,0,0.1,0,0.2
		c-0.1,0.4-0.2,0.7-0.4,1c0,0.1,0,0.2-0.1,0.1c-0.1,0,0-0.1,0-0.2c0.1-0.4,0.2-0.8,0.4-1.2C15.8,12.7,15.8,12.6,15.9,12.6z
		 M14.8,10.9c0.1,0.2,0.2,0.4,0.3,0.6c0.1,0.2,0.2,0.4,0.2,0.7c0,0.1,0.1,0.2,0.2,0.1c0.1,0,0.1-0.1,0.1-0.2c0-0.1,0-0.2-0.1-0.3
		c0-0.1-0.1-0.2-0.1-0.3c0.1,0.1,0.1,0.2,0.2,0.3c0,0.1,0.1,0.3,0.1,0.4c0,0.1,0.1,0.2-0.1,0.2c-0.1,0-0.1,0.1-0.1,0.1
		c-0.1,0.5-0.3,1-0.4,1.5c0,0,0,0.1-0.1,0.1s0-0.1,0-0.1c0.1-0.3,0.2-0.6,0.2-0.9c0-0.2,0-0.2-0.2-0.2c0,0,0-0.1,0.1-0.1
		c0.1,0,0.1-0.1,0.1-0.2c-0.1-0.5-0.3-1-0.5-1.4c0-0.1-0.1-0.1-0.1-0.1c-0.2,0.1-0.2,0-0.2-0.1c0.1-0.2,0.2-0.2,0.3-0.2L14.8,10.9z
		 M14.3,10.4c0.1,0.1,0.1,0.1,0.2,0.2c-0.1,0-0.2,0-0.3,0.1c0,0-0.1,0-0.1-0.2C14.2,10.5,14.3,10.4,14.3,10.4z M12.8,9.7
		c0.2,0.1,0.3,0.2,0.4,0.4c0.2,0.3,0.4,0.6,0.7,0.9c0,0.1,0.1,0.1,0.2,0.1c0.1-0.1,0.1-0.1,0-0.2c0,0,0,0,0-0.1
		c-0.2-0.3-0.4-0.6-0.7-0.9c-0.1-0.1-0.2-0.3-0.3-0.3c-0.3-0.1-0.2-0.3-0.2-0.4c0-0.1,0-0.2,0-0.2c0-0.1,0-0.1,0.1-0.1
		c0,0,0,0,0.1,0.1L13,9.1l-0.1,0.1c0,0.1,0,0.1,0.1,0.1s0.1,0.1,0.1,0.1c0.1,0.2,0.2,0.4,0.4,0.5c0.1,0.2,0.3,0.5,0.5,0.7
		c0.1,0.2,0.2,0.4,0.4,0.6c-0.2,0-0.4,0-0.6-0.1c-0.1,0-0.1,0-0.1-0.1c-0.2-0.3-0.5-0.7-0.8-1C12.7,10,12.7,9.9,12.8,9.7z
		 M12.7,10.3c0,0,0,0.1,0.1,0.1c0.3,0.3,0.5,0.6,0.8,1c0,0.1,0.1,0.2,0.2,0.1c0.2-0.1,0.4,0,0.6,0c0.1,0,0.1,0.1,0.1,0.2
		c0,0.1-0.1,0-0.1,0h-0.1c-0.2,0-0.4,0-0.6,0c-0.1,0-0.1,0-0.1,0.1c0,0.1,0.1,0.1,0.1,0.1s0.1,0,0.2,0c0.2,0,0.5,0,0.7,0.1
		c0,0,0,0,0.1,0c0,0,0,0,0,0c0-0.1-0.1-0.2-0.1-0.3c0.1,0.1,0.1,0.2,0.1,0.3c0.1,0.2,0.1,0.3,0.2,0.5c0,0.1-0.1,0.1-0.1,0.1
		c-0.5,0.2-1,0.5-1.4,0.9c0,0-0.1,0.1-0.2,0c-0.1-0.1-0.1-0.1,0-0.2c0.1-0.1,0.3-0.2,0.4-0.3c0.3-0.2,0.6-0.4,1-0.5
		c0.2,0,0.3-0.1,0.2-0.2c0,0,0-0.1-0.1-0.1v0.1c0,0-0.1,0.1-0.1,0c0-0.1-0.1-0.1-0.2-0.1c-0.4,0-0.8-0.1-1.2-0.2
		c-0.1,0-0.1,0-0.2-0.1c0-0.1-0.1-0.1-0.2,0c-0.1,0.1-0.3,0.1-0.3,0.3l-0.1,0.1c-0.2,0.2-0.5,0.4-0.7,0.6c-0.1,0.1-0.2,0.1-0.1,0.2
		c0.1,0.1,0.2,0,0.3-0.1c0.1-0.1,0.3-0.3,0.4-0.4c0-0.1,0.1-0.1,0.2-0.2c0.1-0.1,0.2-0.1,0.4-0.1c0.2,0,0.4,0.1,0.6,0.1
		s0.5,0.1,0.8,0.1c-0.2,0-0.4,0.1-0.5,0.2c0-0.2-0.1-0.2-0.2-0.2c-0.3,0-0.5-0.1-0.8,0h-0.1c-0.1-0.1-0.2,0-0.2,0s-0.1,0.1-0.2,0.1
		c0,0.1,0,0.1,0,0.2v0.1c0.2,0.3,0.5,0.6,0.7,1c0,0.1,0.1,0.1,0.2,0.1c0.1,0,0.1-0.1,0.1-0.1s0,0,0-0.1c0.3-0.2,0.6-0.5,0.9-0.7
		c0.2-0.2,0.5-0.3,0.8-0.4c-0.1,0.1-0.1,0.3-0.3,0.4c-0.3,0.2-0.5,0.4-0.8,0.6c-0.2,0.2-0.5,0.3-0.7,0.5c-0.1,0.1-0.1,0.1-0.1,0.2
		c0.1,0.1,0.1,0.1,0.2,0c0.4-0.3,0.8-0.5,1.1-0.8c0.1-0.1,0.2-0.1,0.3-0.2c0,0.1,0,0.2-0.1,0.2c0,0.1,0,0.2-0.2,0.2
		c0,0-0.1,0-0.1,0.1c-0.4,0.3-0.7,0.7-1.1,0.9l-0.1,0.1c0,0.1,0.1,0.1,0.1,0.1c0.1,0,0.2-0.1,0.3-0.1l0.1-0.1c0.2,0,0.3,0,0.5,0
		c0.4,0,0.8,0,1.2,0c0.1,0,0.2,0,0.4-0.1c0.1-0.1,0.2-0.2,0.4-0.2c0.1,0,0.1,0,0.1-0.1c0-0.1,0.1-0.2,0.2-0.2
		c0.1-0.1,0.3-0.2,0.4-0.3c0.3,0.1,0.3,0,0.4,0c0.2,0.3,0.4,0.6,0.5,0.8h-0.1c-0.1,0-0.1,0-0.1,0.1c0,0.1,0.1,0.1,0.2,0.1
		c0.1,0,0.2,0,0.2,0c0,0.1,0.1,0.1,0.1,0.2c-0.1,0-0.2,0-0.3,0c-0.1,0-0.1,0-0.1,0.1c0,0.1,0,0.1,0.1,0.1h0.1l-0.1,0.1h-0.1
		c-0.2,0-0.4,0-0.6,0c0.1-0.1,0.2-0.1,0.3-0.2l0.1-0.1c0,0,0-0.1-0.1-0.1c-0.1,0-0.1,0-0.2,0c-0.2,0.1-0.4,0.3-0.6,0.4
		c-0.2,0-0.3,0-0.5,0c0.4-0.1,0.8-0.4,1.2-0.6c0.1,0,0.1-0.1,0.1-0.2c0.1-0.1,0.1-0.1,0-0.2c-0.1-0.1-0.1,0-0.2,0
		c-0.3,0.3-0.7,0.5-1.1,0.7c-0.1-0.1-0.2,0-0.3-0.1h-0.1c-0.4,0-0.8,0-1.2,0c-0.1,0-0.2,0-0.2,0.1c0,0-0.1,0.1,0,0.2
		c0,0,0.1,0.1,0.1,0c0.4-0.1,0.8,0,1.3,0c0.1,0,0.1,0,0.2,0c0,0-0.1,0-0.1,0.1c-0.4,0-0.8,0-1.1,0c-0.3-0.1-0.3,0-0.5,0.2v-0.1
		c0-0.1,0-0.2-0.1-0.2s-0.1,0-0.2,0.1c0,0.1-0.1,0.2-0.1,0.2c-0.1,0-0.2,0-0.4,0.1c0-0.2,0.1-0.3,0.2-0.5c0-0.1,0-0.1-0.1-0.2
		c-0.1,0-0.1,0-0.2,0c0,0.1-0.1,0.1-0.1,0.2C13,15.5,13,15.5,13,15.7c-0.1,0-0.2,0-0.4,0.1c0-0.3,0.1-0.4,0.1-0.8
		c0-0.1,0-0.1,0.1-0.1c0.2-0.1,0.1-0.1,0-0.2c-0.2-0.3-0.5-0.6-0.7-0.9c-0.1-0.1-0.2-0.2-0.3-0.3c-0.1,0-0.1,0-0.2,0
		c0,0-0.1,0.1,0,0.1c-0.1,0-0.2,0-0.1-0.2c-0.1,0-0.1,0-0.1,0c-0.2,0.1-0.3,0.2-0.5,0.3c0,0-0.1,0.1-0.1,0c-0.3-0.5-0.7-0.9-1-1.4
		c-0.1-0.1-0.2-0.2-0.3,0c-0.1-0.1-0.1-0.1,0-0.2c0.1-0.1,0.1-0.1,0-0.2c0-0.1-0.1-0.1-0.2-0.1c-0.5-0.2-1-0.5-1.5-0.7
		c0,0-0.1,0-0.1-0.1c0-0.2,0.1-0.3,0.3-0.2h0.1c-0.1,0-0.2,0-0.1,0.1C8,11,8.1,11,8.1,11c0.1,0.1,0.2,0.1,0.4,0.2
		c0.3,0.2,0.6,0.3,0.9,0.5c0.1,0,0.2,0.1,0.2,0c0-0.1,0-0.1-0.1-0.2c0,0-0.1,0-0.1-0.1c-0.2-0.1-0.5-0.2-0.7-0.4
		c0.3,0.1,0.6,0.2,0.8,0.3c0.1,0,0.2,0.1,0.3,0c0,0.1,0.1,0.1,0.2,0.1c-0.1-0.2-0.3-0.1-0.5-0.3C9.6,11,9.8,10.9,10,11
		c0.1,0.1,0.3,0.1,0.5,0.1c0.1,0,0.2,0,0.4,0c0,0-0.1,0-0.1,0.1c-0.2,0-0.4,0-0.6,0.1c-0.1,0-0.2,0-0.2,0.1c0.4-0.1,0.8-0.1,1.2-0.2
		c0.1,0,0.2,0,0.3-0.1c0.1,0,0-0.1,0.1-0.2c0.1,0,0.1-0.1,0.1-0.1c0-0.1-0.1-0.1-0.2-0.1c-0.5,0-1,0-1.4,0c0,0-0.1,0-0.1-0.1h0.1
		c0.6,0,1.1,0,1.7-0.1c0.1,0,0.2,0,0.2,0.1c0.3,0.4,0.7,0.7,1,1.1c0,0.1,0.1,0.1,0.2,0.1c0.1-0.1,0-0.1,0-0.2c0,0-0.1-0.1,0-0.1
		c0.1-0.1,0.1-0.2,0-0.2c-0.1-0.2-0.3-0.5-0.4-0.9C12.7,10.4,12.6,10.4,12.7,10.3z M13.1,13.2c-0.1-0.2-0.2-0.4-0.3-0.5
		c0.3,0,0.6,0,0.9,0.1c-0.2,0.1-0.4,0.3-0.5,0.4H13.1z M12.8,13.2c-0.1-0.1-0.3-0.3-0.3-0.4C12.6,12.9,12.7,13.1,12.8,13.2z
		 M8.6,10.6c0.2-0.1,0.3,0,0.4,0.1c-0.1,0.1-0.2,0.2-0.3,0.2c-0.2-0.1-0.4-0.2-0.6-0.2c0.1-0.1,0.2-0.2,0.3-0.2c0,0,0.1,0,0,0.1
		C8.5,10.7,8.6,10.6,8.6,10.6z M9.1,10.8c0.2-0.2,0.3-0.2,0.4-0.1c-0.1,0.1-0.2,0.1-0.2,0.2c0,0.1-0.1,0.1-0.1,0
		C9.2,10.9,9.1,10.9,9.1,10.8z M12.4,8.1c0.1,0,0.1,0,0.2,0.1c0,0.2-0.1,0.4-0.1,0.4v0.1c0,0.2,0,0.4,0,0.6c0,0.1,0,0.1-0.1,0.1
		c-0.1,0-0.1,0.1-0.1,0.1c0-0.3,0.1-0.7,0.1-1c0-0.1,0-0.1,0-0.2C12.3,8.2,12.3,8.2,12.4,8.1z M12.3,9.6c0.1,0.1,0.1,0.2,0,0.3
		C12.3,9.8,12.3,9.6,12.3,9.6z M11.2,7C11.1,7.1,11,7.2,11,7.2C11.1,7.1,11.1,7.1,11.2,7z M11,7.8c0.2-0.1,0.3-0.2,0.3-0.3
		c0.1,0.1,0.2,0.2,0.3,0.3l-0.1,0.1c-0.1,0.1-0.2,0.2-0.2,0.4c0.1,0.6,0,1.1,0,1.7c0.2,0,0.4,0,0.5,0.1c0.1,0,0.1,0,0.2-0.1
		c0-0.1,0-0.1-0.1-0.1c-0.1,0-0.1-0.1-0.1-0.2c0-0.6,0-1.2,0-1.7c0-0.1,0-0.2,0.1-0.3c0,0.2,0.1,0.2,0.1,0.2C12.1,8,12.1,8,12.2,8.1
		c-0.1,0.1-0.2,0.2,0,0.4v0.1C12.1,9,12,9.4,12,9.8c0,0.1,0,0.2,0,0.2c0,0.1,0.1,0.1,0.2,0.1c0,0,0,0,0.1,0c0,0.1,0.1,0.2,0.1,0.2
		c0.1,0.1,0.1,0.2,0.2,0.3c-0.1-0.1-0.3-0.2-0.4-0.4c-0.1-0.1-0.1-0.1-0.2-0.1c-0.2,0-0.5,0-0.7,0.1h-0.1c-0.2,0-0.4,0-0.7,0
		c0.1-0.1,0.2-0.2,0.3-0.2c0-0.5,0-1,0-1.5c0,0,0-0.1,0.1-0.1c0.1,0,0.1,0,0.2,0c0-0.1,0-0.1,0-0.2c0-0.1,0-0.1-0.1-0.2
		c-0.1,0-0.1,0-0.2,0.1c0,0.1,0.1,0.1-0.1,0.2c0.1-0.1,0.1-0.1,0.1-0.2c0,0,0,0,0-0.1s-0.1-0.1-0.2,0c0,0.1-0.1,0.1-0.2,0.1
		c-0.1,0-0.2,0-0.3,0C9.7,8,9.4,8,9,8C8.9,8,8.9,8,8.8,8.1c0,0.1,0.1,0.1,0.1,0.1c0.1,0,0.1,0,0.2,0c0.4,0,0.8,0,1.2,0.1
		c0.1,0,0.2,0.1,0.2,0.2v0.1c0,0.1,0,0.1,0,0.2c0,0,0.1,0,0.1,0.1c0,0.1,0,0.1-0.1,0.1c0,0.3,0,0.6,0,0.9c0,0.1,0,0.2-0.1,0.2
		c-0.1,0-0.1,0.1-0.1,0.1c0.1,0.1,0,0.1-0.1,0.2c-0.1,0.1-0.2,0.1-0.3,0.2c-0.2,0.1-0.3,0.2-0.5,0c0-0.1,0.1-0.1,0.1-0.1
		c0.2-0.1,0.4-0.3,0.6-0.4c0.1,0,0.1-0.1,0.1-0.2c-0.1-0.1-0.1-0.1-0.2,0c0,0.1-0.3,0.3-0.5,0.4c-0.2,0.1-0.3,0.1-0.5,0l0.1-0.1
		c0.4-0.2,0.8-0.5,1.2-0.7c0.1,0,0.1-0.1,0.1-0.2c0-0.1-0.1-0.1-0.2,0c-0.1,0-0.1,0.1-0.2,0.1c-0.4,0.3-0.8,0.5-1.2,0.8
		c-0.1,0.1-0.2,0.1-0.2,0c0-0.1,0.1-0.1,0.1-0.1C9,9.8,9.3,9.6,9.5,9.3c0.1-0.1,0.1-0.1,0-0.2C9.4,9,9.4,9,9.3,9.1
		c-0.5,0.4-1,0.8-1.5,1.2c-0.1,0.1-0.2,0-0.3,0.1c0,0.1,0,0.2,0,0.3c-0.1,0.3-0.2,0.7-0.3,1.1c0,0.1,0,0.1,0,0.2s0,0.1,0.1,0.2
		c0.1,0.1,0.2,0.1,0.3,0.2c-0.3,0.2-0.6,0.3-0.9,0.3c-0.4-0.1-0.7,0-1,0c0-0.2-0.1-0.3-0.1-0.5c0.3,0,0.7,0,1,0c0.1,0,0.2,0,0.2,0.1
		c0.1,0.1,0.2,0,0.2,0c0.1,0,0.1-0.1,0-0.2C7,12,7,12,7,11.9c0.1-0.4,0.3-0.9,0.4-1.3c0-0.1,0-0.2,0-0.3c0-0.1-0.1-0.1-0.3-0.2
		c-0.1,0-0.1,0-0.2-0.1c0.3,0.1,0.6,0.2,0.8-0.1c0,0.1,0,0.1-0.1,0.1l-0.1,0.1c-0.1,0.1-0.1,0.1-0.1,0.2c0.1,0.1,0.2,0,0.2,0
		C8,10.1,8.2,10,8.4,9.8c0.2-0.2,0.5-0.4,0.7-0.6c0.1-0.1,0.1-0.2,0-0.3c0.1,0,0.2,0,0.2,0c0.4,0,0.7,0,1.1,0.1h0.1
		c0-0.1,0-0.1,0-0.2c-0.1,0-0.2,0-0.4-0.1c0.1,0,0.2,0,0.3,0c0.1,0,0.1,0,0.1-0.1c0-0.1,0-0.1-0.1-0.1c-0.1,0-0.2,0-0.3,0
		c-0.4,0-0.8,0-1.2-0.1c-0.1,0-0.1-0.1-0.1-0.2c0-0.1-0.1-0.3,0-0.4c0.1-0.1,0.3,0,0.4,0c0.5,0,1,0,1.5,0.1c0.1,0,0.2-0.1,0.1-0.2
		c-0.2-0.2,0-0.2,0-0.3c0,0.1-0.1,0.2,0,0.2h0.1L11,7.5c0,0.1,0,0.1-0.1,0.1C10.9,7.7,10.9,7.7,11,7.8z M10,6c0.1-0.1,0.2,0,0.3,0.1
		c0,0.1,0,0.3,0,0.4s0,0.1,0,0.2c0,0.1,0.1,0.1,0.1,0.1c0.1,0,0.1-0.1,0.1-0.1c0-0.1,0-0.2,0-0.3c0.1,0.1,0.3,0.3,0.4,0.5
		c-0.1,0.1-0.2,0.2-0.2,0.3c0,0.1,0,0.2-0.1,0.2c0,0,0,0.1-0.1,0.1c0,0.1-0.1,0-0.1,0c-0.5,0-1,0-1.5,0H8.8c-0.1,0,0-0.1,0-0.1
		s0,0,0.1,0c0.5,0,1,0,1.6,0c0,0,0,0,0.1,0c0-0.1,0.1-0.1,0.1-0.2V7.1c0,0,0-0.1-0.1-0.1c-0.1,0-0.2,0-0.3,0c-0.1,0-0.2,0-0.2-0.1
		c0-0.2,0-0.3-0.1-0.5C10,6.3,10,6.1,10,6z M8.8,6.5c0.1,0,0.2-0.1,0.3-0.1c0.1,0.1,0,0.2,0.2,0.4c-0.1,0-0.4,0.1-0.4-0.2
		C8.9,6.6,8.9,6.6,8.8,6.5z M9.5,6.6c0.2,0,0.2-0.1,0.2-0.3c0-0.3,0-0.5,0-0.8c0.1,0.3,0.1,0.6,0.1,0.9c0,0.4,0,0.4-0.4,0.4
		C9.4,6.7,9.4,6.6,9.5,6.6z M9.4,5.2c0,0.4,0,0.8,0,1.1C9.3,5.9,9.3,5.4,9.2,5C9.3,5.1,9.4,5.1,9.4,5.2z M8.2,4c0,0.1,0,0.2-0.1,0.1
		C8,4,8.1,4,8.2,4z M8,3.7c-0.1,0-0.1,0-0.1-0.1L8,3.7z M8.4,4.2c0.1,0.1,0.1,0.1,0.2,0.2C8.4,4.5,8.2,4.6,8,4.7
		C7.7,5,7.4,5.2,7,5.4C6.8,5.6,6.6,5.6,6.3,5.6c-0.2,0-0.4,0-0.6,0c-0.1,0-0.1,0-0.2,0.1c0,0.1,0,0.1,0.1,0.2c0.1,0,0.1,0,0.2,0
		c0.4,0,0.8,0,1.1,0c0.1,0,0.2,0,0.3-0.1c0.5-0.4,1.1-0.6,1.6-0.9C9,4.9,9,5,9,5.2c0,0.1-0.2,0.1-0.3,0.1C8.3,5.5,7.9,5.7,7.5,5.9
		c0,0.1-0.1,0.1,0,0.2c0,0.1,0.1,0.1,0.2,0C7.8,6.1,8,6,8.2,5.9C8.5,5.7,8.7,5.5,9,5.4c0.1,0.3,0.1,0.3-0.2,0.4
		C8.6,6,8.4,6.1,8.1,6.2H8c-0.1,0-0.1,0.1-0.1,0.2c0,0.1,0.1,0.1,0.2,0C8.4,6.3,8.7,6.2,9,6.1C9,6,9,6,9.1,6c0.1,0.1,0,0.2-0.1,0.2
		C8.6,6.4,8.2,6.5,7.9,6.6c-0.1,0-0.2,0.1-0.2,0.3c0,0.1,0,0.3-0.1,0.4c0,0.4,0,0.8,0,1.2c0,0.1,0,0.2,0,0.2c0.1,0.1,0,0.2-0.1,0.2
		c0,0.1-0.1,0.2-0.1,0.3C7.2,9.3,7.1,9.4,6.8,9.3c-0.3-0.1-0.7-0.2-1-0.2C5.6,9,5.6,8.9,5.6,8.8c0.2,0.1,0.5,0,0.8,0.1
		c0.2,0,0.4,0,0.6,0.1c0.1,0,0.1,0.1,0.2,0c0.1-0.1,0-0.1,0-0.2c-0.1,0-0.1-0.1-0.1-0.2C7,8.1,7,7.5,7,7V6.9c0-0.1,0-0.1-0.1-0.2
		c-0.1,0-0.1,0-0.1,0.1c0,0.1,0,0.1,0,0.2c0,0.4,0,0.7,0,1.1v0.1c-0.1,0-0.2,0-0.3-0.1c0-0.1,0-0.2,0-0.3c0-0.1,0-0.1,0.1-0.1
		c0.1,0,0.2-0.2,0.1-0.2C6.5,7.3,6.5,7.1,6.6,6.9c0-0.5,0-0.5-0.4-0.5c-0.2,0-0.5,0-0.7,0c-0.1,0-0.2,0-0.2,0.1s0.1,0.1,0.2,0.2
		c-0.1,0-0.1,0.1-0.2,0.1C5,6.9,4.8,7,4.6,7.1c0-0.1,0-0.2,0-0.3c0.1-0.1,0.2-0.1,0.3-0.2C5,6.5,5,6.5,5,6.4c0-0.1-0.1-0.2-0.2-0.1
		c0,0.1-0.1,0.1-0.2,0.2c0-0.1,0-0.3,0.1-0.4C4.8,6,4.8,6,4.9,5.9c0.1,0,0.2-0.1,0.3-0.2c0.1,0,0.1-0.1,0-0.2c0-0.1-0.1-0.1-0.2,0
		S4.8,5.7,4.7,5.8c0-0.1,0-0.2,0-0.3c0,0,0.1,0,0.3-0.1c0.1,0,0.1-0.1,0.1-0.2c0-0.1-0.1-0.1-0.2-0.1H4.8c0-0.1,0-0.2,0-0.3
		C5,4.7,5,4.6,4.8,4.5c0-0.1,0-0.2,0-0.2V4.2C5,4.1,5,3.9,5.1,3.7c0.1-0.3,0.3-0.6,0.5-0.9c0.1-0.1,0.2,0,0.2,0c0.1,0,0,0.1,0,0.1
		C5.6,3.3,5.4,3.7,5.2,4.1v0.1c0,0.1,0,0.1,0,0.1c0.1,0,0.1,0,0.1,0s0.1-0.1,0.1-0.2C5.6,3.8,5.8,3.4,6,3c0.1-0.1,0.1-0.1,0.2-0.1
		c0.1,0,0.2,0.1,0.3,0c0,0,0,0,0.1,0c0,0,0,0,0,0.1c0.1,0.2,0.2,0.3,0.3,0.5c0,0.2-0.2,0.3-0.3,0.5c0,0.1-0.1,0.2-0.1,0.2
		c0,0.2-0.2,0.3-0.3,0.3C6,4.4,6,4.4,6.1,4.3C6.2,4,6.3,3.8,6.5,3.5c0-0.1,0.1-0.2,0.1-0.2c0-0.1,0-0.1-0.1-0.2
		c-0.1,0-0.1,0-0.2,0.1c0,0.1,0,0.2-0.1,0.3C6.1,3.8,5.9,4.1,5.8,4.3c0,0.1-0.1,0.1-0.2,0.1c-0.2,0-0.3,0-0.5,0c0,0-0.1,0-0.1,0.1
		s0,0.1,0.1,0.2c0.1,0,0.2,0,0.3,0c0.2,0,0.5,0,0.7,0c0.1,0,0.2,0,0.2,0.1C6.3,4.8,6.1,5,6,5C5.8,5,5.6,5,5.4,5C5.3,5,5.2,5,5.2,5.1
		c0,0.1,0.1,0.1,0.2,0.1c0.3,0,0.7,0,1,0.1c0.1,0,0.1,0,0.1-0.1c0-0.1,0-0.1-0.1-0.1H6.3c0.3-0.3,0.4-0.7,0.6-1C7.2,4,7.2,4,7.3,4.1
		c0,0.1,0,0.1,0,0.1s0,0-0.1,0C7.1,4.3,7,4.4,7.1,4.5c0.1,0.1,0.2,0,0.2,0s0,0,0.1,0h0.1v0.1C7.3,4.6,7.1,4.7,7,4.8L6.9,4.9
		C6.8,5,6.8,5,6.8,5.1c0.1,0.1,0.1,0,0.2,0c0.2-0.2,0.5-0.4,0.8-0.5C8,4.4,8.2,4.3,8.4,4.2z M3.8,2.4c0.5,0,0.9-0.2,1.2-0.3
		C5.1,2,5.2,2,5.2,1.9C5.1,1.7,5,1.8,4.9,1.8C4.7,2,4.4,2.1,4.2,2.2C4.4,2,4.7,1.8,4.9,1.6c0.3-0.3,0.6-0.1,0.9,0.1
		C5.9,1.8,6.2,2,6.5,2.3c-0.1,0-0.2-0.1-0.4-0.1C5.9,2.1,5.7,2,5.5,2C5.4,2,5.3,2,5.3,2.1c0,0.1,0.1,0.1,0.1,0.2
		c0.4,0.1,0.7,0.2,1.1,0.4c0.2-0.1,0.2,0,0.3,0.1c0.1-0.1,0.2,0,0.3,0.1c0.2,0.3,0.4,0.6,0.6,0.9c0,0.1,0,0.2-0.1,0.2
		C7.5,4.1,7.5,4,7.5,4C7.2,3.6,7,3.2,6.8,2.8c-0.1,0-0.2-0.1-0.3-0.1H6.4C6,2.6,5.6,2.5,5.2,2.4c-0.2,0-0.3,0-0.4,0.1
		C4.5,2.6,4.3,2.7,4,2.8c0,0-0.1,0-0.1,0C3.8,2.7,3.7,2.6,3.6,2.5C3.7,2.4,3.7,2.4,3.8,2.4L3.8,2.4z M3.2,2.9C3.2,3,3.3,3.1,3.4,3.2
		C3.1,3.3,2.9,3.5,2.7,3.7c0.1-0.2,0.1-0.3,0.2-0.5C3,3.1,3.1,3,3.2,2.9z M3.5,4.4C3.3,4.2,3.2,4.1,3,3.9c0-0.1-0.1-0.1-0.2,0
		c0,0,0,0.1,0,0.2C3,4.2,3.1,4.3,3.2,4.4c-0.1,0-0.2,0-0.3,0c0,0,0,0-0.1-0.1L2.7,4.2C2.6,4.1,2.6,4,2.6,3.9C2.7,3.9,2.9,3.8,3,3.7
		c0,0,0,0,0,0c0,0,0,0.1,0.1,0.1c0,0.1,0.1,0.1,0.1,0.2c0.1,0,0.3,0.2,0.4,0.3C3.6,4.3,3.5,4.3,3.5,4.4z M3.3,3.6
		C3.3,3.6,3.3,3.5,3.3,3.6c0-0.1,0.1-0.2,0.2-0.2c0.1,0.2,0.3,0.4,0.3,0.7c0,0,0,0,0,0C3.6,4,3.4,3.8,3.3,3.6z M4.2,11
		c0.3-0.2,0.6-0.3,0.9-0.5c0,0.1-0.1,0.2-0.2,0.3c-0.2,0.1-0.4,0.2-0.6,0.4l-0.1,0.1c0,0,0,0.1-0.1,0.1C4.1,11.3,4.1,11.2,4.2,11z
		 M3.8,13c0.1-0.1,0.1-0.1,0-0.2c0-0.1,0-0.2,0-0.3l0.1,0.1c0.1,0,0.1,0,0.1-0.1v-0.1c-0.1-0.1-0.1-0.1-0.2-0.2c0-0.1,0-0.2,0-0.3
		c0.2,0.2,0.3,0.3,0.5,0.5c0,0,0,0,0.1,0c0,0,0,0,0,0.1c0.1,0,0.2-0.1,0.2-0.1c0,0.1,0,0.1,0.1,0.2c0,0-0.1,0-0.2,0
		c0-0.1,0-0.1-0.1-0.1c0,0,0,0.1,0,0.1v0.1c-0.1,0-0.1,0.1-0.2,0.1C4.1,13,4,13.1,3.8,13.2C3.8,13.1,3.8,13.1,3.8,13z M3.8,24.4
		c0-0.3,0.3-1.4,0.4-1.4c1.4,2.4,4.9,5.7,10.3,3.4c5.5-2.3,5.4-6.8,4.9-9.1c1,0.3,1.5,1,1.7,1.8c0.3,1.3,0,2.2-1.2,2.9
		c0.2,0.5,0.4,0.9,0.6,1.3c0.7,2.4-0.7,4.6-2.8,5c-0.7,0.2-1.7,0.1-2.5,0c-0.5-0.1-0.9-0.1-1.3,0.3c-0.4,0.5-1,0.9-1.6,1.2
		c-1,0.5-2.2,0.6-3.2,0.2c-0.8-0.3-1.5-1.3-1.8-2c-0.2-0.5-0.6-0.7-1.1-0.8c-0.1,0-0.3,0-0.4-0.1C4.5,26.6,3.8,25.7,3.8,24.4z
		 M4.4,30.2c0,0.2,0,0.2-0.1,0.2C4.3,30.3,4.3,30.2,4.4,30.2z M4.2,30.6c0.1,0.1,0.1,0.1,0.2,0.2c0,0,0,0,0,0.1c0,0,0,0.1-0.1,0
		c-0.1-0.1-0.1-0.1-0.2-0.1C4.1,30.7,4.1,30.6,4.2,30.6z M3.9,31.1C4,31.1,4,31,4.1,31h0.1c-0.1,0.1-0.2,0.2-0.3,0.3
		C3.9,31.2,3.9,31.2,3.9,31.1z M4.5,33.6c-0.7,0-1.2-0.9-0.7-1.9c0.3,0.1,0.7,0.2,1,0.3C4.7,32.6,4.5,33.2,4.5,33.6z M4.7,31.7
		c-0.1,0-0.1,0-0.2,0c0.2-0.2,0.3-0.3,0.5-0.5C4.9,31.5,4.9,31.7,4.7,31.7z M5.3,29.2c-0.1,0.3-0.1,0.7-0.3,1c0,0,0,0,0,0.1
		c0,0.1,0,0.1-0.1,0.1v0.1c0.1,0.1,0,0.2-0.1,0.3c-0.1,0.1-0.3,0.3-0.4,0.4c0,0,0,0.1-0.1,0v-0.1c0.1-0.1,0.2-0.2,0.3-0.4
		c0-0.1,0-0.1,0.1-0.1c0,0-0.1,0-0.2-0.1c0.1-0.1,0.1-0.3,0.1-0.4c0.1-0.3,0.1-0.5,0.2-0.8C4.9,29.2,5,29,5,28.9
		c0,0.4-0.1,0.8-0.3,1.2v0.1c0,0.1,0,0.2,0.1,0.2h0.1c0,0,0.1-0.1,0.1-0.2c0.1-0.4,0.2-0.8,0.3-1.2c0,0,0,0,0-0.1
		C5.4,29,5.4,29.1,5.3,29.2z M5.4,33.5c0.2,0.4,0.4,0.7,0.6,1C5.7,34.4,5.5,34,5.4,33.5z M7.1,34.8c-0.2,0-0.5,0-0.7-0.1H6.3
		c-0.2-0.4-0.4-0.8-0.7-1.2c-0.1-0.1-0.1-0.3-0.2-0.2c0-0.1,0-0.1,0-0.2h0.1c0.1,0,0.2,0,0.2,0.1c0,0.1,0.1,0.1,0.1,0.2
		c0.3,0.3,0.5,0.7,0.6,1.1c0,0.1,0.1,0.1,0.1,0.1c0.1,0,0.1-0.1,0.1-0.1c0-0.1,0-0.2-0.1-0.2c-0.2-0.4-0.4-0.7-0.6-1l-0.1-0.1
		c0.1,0,0.2,0,0.4,0c0,0,0.1,0,0.1,0.1c0,0.2,0.2,0.4,0.4,0.6C6.8,34,6.8,34,6.8,34v0.1c0.1,0.1,0.1,0,0.2,0c0,0,0.1,0,0.1-0.1
		c0.4-0.3,0.7-0.6,1.1-0.8c0,0,0.1,0,0.1-0.1c0.1,0,0.2-0.1,0.3-0.1l0.1-0.1c0.2-0.3,0.5-0.6,0.7-0.9c0,0,0,0,0.1,0s0.2,0,0.3,0.1
		c0,0.1-0.1,0.1-0.1,0.2c0,0.1-0.1,0.1-0.1,0.2c-0.1,0.1-0.1,0.1-0.2,0c-0.1,0-0.1,0-0.2,0c0,0.1,0,0.1,0,0.1c0.1,0.1,0.1,0.2,0,0.2
		c0,0,0,0-0.1,0.1c0,0.1-0.1,0.1,0,0.2c0.1,0.1,0.1,0,0.2,0c0.1,0,0.1-0.1,0.1-0.1c0-0.1,0.1-0.1,0.1,0c0.1,0.1,0.3,0.1,0.1,0.3v0.1
		c-0.1,0-0.1-0.1-0.2-0.1c-0.1-0.1-0.2-0.1-0.2,0c-0.1,0.1,0,0.2,0.1,0.2c0.2,0.1,0.3,0.2,0.5,0.3c0.2,0.1,0.4,0.2,0.5,0.4
		c0.1,0.1,0.1,0.1,0.2,0.1c0-0.1,0-0.1,0-0.2c-0.1-0.1-0.1-0.2-0.2-0.2c-0.1-0.1,0-0.1,0-0.2c0-0.1,0.1,0,0.1,0
		c0.1,0.1,0.2,0.1,0.1,0.3v0.1c0.1,0.1,0.1,0.1,0,0.2c0,0.1,0,0.3,0,0.4c0.1,0.2-0.1,0.2-0.2,0.2c-0.3-0.3-0.6-0.6-0.9-1
		c-0.1-0.1-0.2-0.2-0.4-0.3H8.9l-0.1,0.1c0,0.1,0,0.1,0.1,0.1c0.4,0.2,0.7,0.7,1,1c-0.1,0-0.2,0-0.4,0c-0.1-0.1-0.2-0.2-0.3-0.3
		c-0.1-0.2-0.3-0.3-0.4-0.5c0.1,0,0,0,0-0.1c0,0-0.1,0-0.2,0c0,0,0,0.1,0,0.2c0,0,0,0.1,0.1,0.1c-0.1,0-0.1,0-0.2,0.1
		c-0.1,0.2-0.3,0.4-0.5,0.6c-0.2,0-0.4,0-0.6,0c0.4-0.5,0.8-0.9,1.3-1.2h0.1c0-0.1,0-0.1,0.1-0.1C9,33.5,9,33.5,9,33.4
		c0-0.1-0.1-0.1-0.2-0.1c-0.1,0-0.1,0.1-0.2,0.1C8,33.8,7.6,34.2,7.1,34.8z M9.4,35c-0.2-0.1-0.2-0.1-0.2-0.1s-0.1-0.1-0.1,0H9
		c-0.2,0-0.4,0-0.6,0c0.1-0.1,0.1-0.1,0.2-0.2c0.1-0.1,0.2-0.2,0.2-0.4C9,34.5,9.2,34.8,9.4,35z M13.5,36.9c-0.1,0.6-0.1,0.9-1,1
		c-1.5,0.2-2.7,0.1-4.1,0c-0.3,0-0.7-0.1-0.8-0.5c-0.1-0.4-0.1-1-0.2-1.7c2.2,0,4.2-0.1,6.1-0.2C13.6,36.2,13.6,36.4,13.5,36.9z
		 M14,34.8c-0.3,0-0.6,0-0.9,0.1c0.3-0.2,0.7-0.4,1.1-0.6c0.1,0,0.2-0.1,0.2-0.2c0,0.1,0.1,0.2,0.1,0.2c0,0.1,0.1,0.1,0.2,0.1
		c0.1,0,0.1-0.1,0-0.2c0-0.1-0.1-0.1-0.1-0.2c0.1,0,0.1,0,0.1,0c0-0.1,0.3-0.1,0.2-0.3c-0.1-0.4-0.2-0.9-0.4-1.3
		c0-0.1-0.1-0.2-0.2-0.1c-0.1,0-0.1,0.1,0,0.2c0.1,0.2,0.1,0.3,0.2,0.5c-0.1-0.1-0.2-0.2-0.2-0.4c0-0.1-0.1-0.1-0.2-0.1
		c-0.1,0-0.1,0.1-0.1,0.2c0.1,0.3,0.3,0.6,0.4,0.9c-0.1-0.2-0.2-0.4-0.3-0.6c0-0.1-0.1-0.1-0.1-0.1c-0.1-0.1-0.1,0-0.2,0
		c0,0.1,0,0.1,0,0.2c0.2,0.3,0.4,0.6,0.5,0.9c-0.4,0.1-0.7,0.3-1,0.5c-0.2,0.1-0.4,0.3-0.6,0.4c-0.1,0-0.2,0-0.4,0
		c0-0.2,0-0.4,0-0.6c0,0.1,0.1,0.1,0.2,0.1c0.5-0.2,0.9-0.4,1.4-0.5c0.1,0,0.1-0.1,0.1-0.1c0-0.1-0.1-0.1-0.2-0.1
		c-0.1,0-0.1,0-0.2,0.1c-0.3,0-0.8,0.1-1.2,0.3h-0.1c0-0.1,0-0.2,0-0.2c0-0.1,0.2-0.1,0.3-0.1c0.4-0.1,0.7-0.3,1.1-0.4
		c0.1,0,0.1-0.1,0.1-0.1c0-0.1-0.1-0.1-0.1-0.1c-0.1,0-0.2,0-0.3,0.1c-0.1,0-0.1,0-0.2,0.1c0-0.1,0.1-0.1,0.2-0.2
		c0.1,0,0.3,0,0.2-0.2c0,0,0,0,0-0.1c0.3-0.3,0.6-0.5,0.9-0.8c0.2,0.4,0.4,0.8,0.5,1.2c0.1,0.2,0.2,0.4,0.2,0.6c0,0.3,0,0.6,0.1,0.9
		c-0.3-0.1-0.5-0.1-0.7-0.1c0-0.1-0.1-0.1-0.2,0C14.3,34.7,14.1,34.8,14,34.8z M20.3,37.2c-0.1,0.4-0.5,0.6-1.3,0.7
		c-1,0-2.8,0-3.7-0.1c-0.7-0.1-0.8-0.2-0.8-0.8c0-0.5,0-0.9,0-1.5c1.7-0.1,4.1-0.3,5.9-0.3C20.5,35.9,20.4,36.7,20.3,37.2z
		 M19.8,34.3c0.1-0.2,0.1-0.2,0.3,0C20,34.3,19.9,34.3,19.8,34.3z M20.4,34.3c-0.3-0.3-0.7-0.6-1.1-0.8c-0.1,0-0.2-0.1-0.2,0
		c-0.1,0.1,0,0.2,0.1,0.2c0.1,0.1,0.2,0.2,0.4,0.2c0.1,0,0.1,0.1,0.1,0.2c0,0.1-0.1,0.2-0.1,0.2c-0.1,0-0.3,0-0.4,0
		c0-0.1-0.1-0.1-0.1,0c0,0-0.1,0-0.1,0.1c-0.1,0-0.3,0-0.4,0c-0.4,0-0.8,0-1.1,0.1c0,0,0,0,0-0.1c-0.1-0.2-0.2-0.4-0.3-0.7
		c0.1,0,0.2,0,0.2-0.1c0.1-0.2,0.1-0.4,0.2-0.6c0-0.1,0.1-0.3,0.1-0.4c0.2,0.3,0.3,0.5,0.4,0.8c0.1,0.1,0,0.2-0.1,0.2
		c-0.2,0-0.3,0.1-0.5,0.1c-0.1,0-0.1,0.1-0.1,0.2c0,0.1,0.1,0.1,0.2,0.1c0.4-0.1,0.9-0.2,1.3-0.3c0.1,0,0.1-0.1,0.1-0.1
		c0-0.1-0.1-0.1-0.2-0.1c-0.1,0-0.2,0-0.3,0.1c-0.1,0-0.1,0-0.2-0.1c-0.1-0.3-0.3-0.6-0.5-0.9c-0.1-0.1-0.1-0.1-0.1-0.3
		c0-0.1,0-0.1-0.1-0.1c-0.1,0-0.1,0-0.1,0.1v0.1c-0.1,0.5-0.3,1-0.5,1.4c0-0.1,0-0.1,0-0.2c0.1-0.3,0.2-0.6,0.3-0.8
		c0.1-0.2,0.1-0.3,0.1-0.5c0-0.1,0-0.1-0.1-0.2c0,0-0.1,0-0.1-0.1s0.1-0.1,0.1-0.1c0.1,0,0.3,0,0.5,0c-0.1,0.1-0.1,0.1,0,0.2
		c0,0.1,0.1,0.1,0.1,0.2c0.2,0.3,0.4,0.5,0.5,0.8c0,0.1,0.1,0.1,0.2,0.1c0.1,0,0.1-0.1,0.1-0.1c0-0.1,0-0.1-0.1-0.2
		c-0.1-0.2-0.3-0.4-0.4-0.7c0,0-0.1-0.1,0-0.1c0.1,0,0.1,0.1,0.2,0.2c0.2,0.3,0.3,0.6,0.5,0.9c0,0.1,0.1,0.1,0.1,0.1
		c0.1,0,0.1-0.1,0.1-0.1c0,0.1,0.1,0.2,0.2,0.1c0.1-0.1,0-0.2,0-0.2c-0.1-0.1-0.1-0.3-0.2-0.4c-0.1,0-0.1-0.1-0.1-0.2
		c0,0-0.1-0.1,0-0.1c0,0,0,0.1,0,0.1c0,0.1,0.1,0.1,0.1,0.2c0.1,0,0.1-0.1,0.2-0.2v-0.1c0-0.1,0-0.1,0-0.2c0-0.2,0.1-0.5,0.1-0.7
		c0-0.1,0.1-0.2-0.1-0.3c0.2-0.1,0.3-0.2,0.4-0.2c-0.1,0.5-0.1,0.9-0.2,1.4v0.1c-0.1,0.1-0.1,0.1-0.1,0.1s0,0,0,0.1
		c0,0.1,0.1,0.1,0.1,0.2c0.1,0,0.2,0,0.2,0.1c0.4,0.2,0.7,0.3,1.1,0.5c0.2,0.1,0.2,0.1,0.3,0v0.1c0.1,0.2,0.1,0.5,0.2,0.9
		C21,34.2,20.7,34.3,20.4,34.3z M21.6,34.2c-0.1,0-0.1-0.1-0.1-0.1c-0.1-0.4-0.2-0.7-0.2-1.1c-0.1-0.3-0.1-0.3,0.2-0.3
		c0.1,0,0.2,0,0.2,0.2c0,0.2,0.1,0.3,0.1,0.5c0.1,0.3,0.1,0.5,0.2,0.8C21.9,34.2,21.7,34.2,21.6,34.2z M22.2,34.4
		c-0.1-0.7-0.2-1.1-0.3-1.6c0-0.1-0.1-0.2,0.1-0.3c0,0,0.1-0.1,0-0.1c-0.1-0.1,0-0.1,0-0.2c0.1-0.3,0.3-0.6,0.3-0.9
		c0-0.1,0.1-0.2,0-0.2c-0.1,0-0.2,0-0.2,0.1c0,0.1-0.1,0.2-0.1,0.3c-0.1,0.3-0.2,0.5-0.3,0.8c0,0.1,0,0.1-0.1,0.1
		c-0.1,0-0.3,0.1-0.5,0c-0.1,0-0.1-0.2-0.1-0.2c0.2,0,0.3,0,0.5,0c0.1,0,0.2,0,0.2-0.1c0-0.1-0.1-0.1-0.2-0.1c-0.3,0-0.7,0-1,0
		c-0.1,0-0.1,0-0.1-0.1c0-0.2,0-0.3,0-0.5c0-0.1,0-0.2,0-0.3c0-0.1,0-0.1,0-0.2c0.1,0.1,0.1,0.2,0.2,0.2c0.4,0,0.7,0.1,1.1,0.2
		c0.1,0,0.1,0,0.2,0c0.1-0.1,0-0.1,0-0.2c0.2,0,0.4-0.1,0.6-0.1c0,0.2,0.1,0.4,0.1,0.6c-0.1,0.2-0.2,0.5-0.3,0.7
		c-0.1,0.1-0.1,0.3-0.2,0.4c-0.1,0.1-0.1,0.2,0,0.3c0.1,0.3,0.2,0.6,0.2,0.9c0,0.1,0.1,0.2,0.1,0.4C22.3,34.3,22.2,34.3,22.2,34.4z
		 M22.7,31.8c0,0.1,0,0.2,0.1,0.2c0,0.1-0.1,0.2-0.1,0.3c0,0.1,0,0.1,0,0.2c0.1,0,0.1,0,0.2,0c0,0.1,0,0.2,0.1,0.3
		c0,0.2,0.1,0.4,0,0.6c-0.1-0.2-0.1-0.4-0.2-0.6c0-0.1-0.1-0.1-0.2-0.1c-0.1,0-0.1,0.1-0.1,0.1c0.1,0.3,0.2,0.6,0.3,0.9
		c0,0.1-0.1,0.1-0.2,0.2c0-0.2-0.1-0.4-0.1-0.5c-0.1-0.2-0.1-0.4-0.2-0.7c0-0.1,0-0.2,0.1-0.2c0,0,0.1,0,0.1-0.1
		C22.6,32.2,22.7,32,22.7,31.8z M24.1,25.2c-0.1,0-0.1,0-0.2,0c-0.1,0-0.1,0.1-0.2,0.1c0,0.1,0,0.1-0.1,0.1c0,0-0.1,0-0.1,0.1
		c0,0-0.1,0.1-0.2,0.1c-0.1,0.1-0.2,0.2-0.3,0.2c-0.2,0.2-0.4,0.3-0.5,0.5c-0.1,0.1-0.2,0.1-0.1,0.3c0.1,0.1,0.2,0,0.3-0.1
		c0.2-0.2,0.4-0.4,0.7-0.5c-0.2,0.2-0.3,0.4-0.5,0.6c0,0,0,0-0.1,0.1c-0.1,0.1-0.1,0.1-0.1,0.1l-0.1,0.1c-0.1-0.1-0.2-0.2-0.3-0.3
		c-0.1-0.1-0.1-0.1-0.2-0.1c-0.1,0-0.1,0-0.1,0c-0.1-0.2-0.1-0.4-0.2-0.6c0,0,0,0,0.1,0.1c0.1,0,0.1,0,0.2-0.1
		c0.2-0.2,0.4-0.3,0.6-0.5c0.2-0.2,0.3-0.2,0.4-0.1c-0.2,0.2-0.4,0.4-0.6,0.5c-0.1,0.1-0.2,0.2-0.3,0.3c-0.1,0.1-0.1,0.1,0,0.2
		c0,0.1,0.1,0.1,0.2,0c0.2-0.2,0.4-0.3,0.6-0.5c0.1-0.1,0.2-0.2,0.4-0.3c0,0,0,0,0.1,0c0,0,0,0,0-0.1c0-0.1,0,0,0.1,0
		c0,0,0.1,0,0.1-0.1v-0.1c0-0.1-0.1-0.1-0.2-0.1s-0.1,0-0.2,0c-0.4-0.1-0.7-0.3-1-0.5c-0.1,0-0.2-0.1-0.3-0.1c0-0.2,0-0.2,0.2-0.1
		c0.6,0.2,1.1,0.4,1.7,0.8c0.1-0.1,0.1-0.1,0.5-0.1C24.3,25.1,24.2,25.2,24.1,25.2z M24.3,24.8c-0.2,0-0.3,0-0.5,0.1h-0.1
		c-0.1-0.1-0.2-0.1-0.3-0.2c0.3-0.1,0.5-0.1,0.8-0.1c0.1,0,0.3,0,0.4,0C24.4,24.6,24.3,24.7,24.3,24.8z M24.6,24.4
		c-0.3,0-0.5,0.1-0.9,0.1c-0.1,0-0.2,0-0.2,0.1h-0.1c-0.5-0.1-0.9-0.4-1.4-0.5c-0.1,0-0.1-0.1,0-0.1c0.1-0.2,0.2-0.3,0.2-0.5
		c0,0,0,0,0-0.1c0.1-0.1,0.1-0.1,0.2-0.2c0,0.1,0.1,0.1,0.2,0.1c0.4,0.1,0.8,0.3,1.2,0.5c0.1,0,0.1,0.1,0.2,0.1c-0.1,0-0.1,0-0.2,0
		c-0.1,0-0.1,0-0.1,0c-0.4-0.1-0.8-0.3-1.2-0.4c-0.1,0-0.2,0-0.2,0.1c0,0.1,0.1,0.1,0.1,0.2c0.4,0.2,0.8,0.3,1.2,0.5h0.1
		c0.1-0.1,0.3-0.1,0.5-0.1c0.1,0,0.4-0.1,0.6-0.1C24.7,24.2,24.7,24.3,24.6,24.4z M25.3,23.5c-0.1,0.1-0.2,0.1-0.2,0.2
		c-0.2,0.1-0.4,0.1-0.6,0.1c0,0,0,0,0,0c0,0,0,0-0.1,0c-0.1,0-0.2,0-0.2,0c0,0,0,0,0,0.1c0,0,0-0.1-0.1-0.1
		c-0.2-0.1-0.3-0.2-0.5-0.3c-0.2-0.1-0.4-0.2-0.6-0.3c0.4,0,0.7,0.1,1,0.2c0.1,0,0.3,0.1,0.4,0.1c-0.1,0-0.1,0.1-0.1,0.2
		c0,0.1,0.1,0.1,0.1,0.1c0,0,0.1,0,0.1,0C24.8,23.6,25,23.5,25.3,23.5c0-0.1,0-0.1,0.1-0.2c0,0,0,0,0,0.1
		C25.5,23.5,25.4,23.5,25.3,23.5z M26,22.7c-0.1-0.1-1.6-1.1-2.1-1.7c-0.1-0.2-0.3-0.9,0.2-1c0.2-0.1,0.4,0,0.6,0.1
		c0.6-0.5,1.5-0.4,1.9,0.2C27.2,21.1,26.7,22,26,22.7z"/>
	<path class="st0" d="M5.5,10.8C5.6,10.8,5.6,10.7,5.5,10.8L5.5,10.8z"/>
	<path class="st0" d="M7,13.9c0,0.2,0.1,0.3,0.2,0.5l0.1,0.1c0.1,0,0.1,0,0.1,0c0-0.1,0-0.2,0-0.3C7.2,14.2,7,14.1,7,13.9z"/>
	<path class="st0" d="M6.4,13.1C6.4,13,6.3,13,6.4,13.1L6.4,13.1z"/>
	<path class="st0" d="M20.9,31.3c-0.1,0-0.3,0-0.4,0s-0.1,0-0.1,0.1c0,0.1,0.1,0.1,0.2,0.1c0.4,0,0.8,0,1.2,0.1c0.1,0,0.2,0,0.2-0.1
		c-0.1-0.1-0.2-0.1-0.3-0.1C21.4,31.3,21.2,31.3,20.9,31.3z"/>
	<path class="st0" d="M9.3,6.8C9.2,6.7,9.2,6.8,9.3,6.8L9.3,6.8z"/>
	<path class="st0" d="M6.9,14.8c-0.2-0.3-0.4-0.6-0.5-0.9c0,0,0-0.1-0.1-0.1H6.2l-0.1,0.1V14c0.3,0.4,0.5,0.8,0.8,1.1
		c0.1,0.1,0.2,0.2,0.3,0V15C7.1,15,7,14.9,6.9,14.8z"/>
	<path class="st0" d="M4.4,14.6C4.4,14.6,4.4,14.6,4.4,14.6c0.1,0,0.1-0.1,0.2-0.1c0,0,0,0,0,0C4.4,14.5,4.4,14.6,4.4,14.6z"/>
	<path class="st0" d="M7,13.9c0,0,0-0.1,0-0.1c-0.1-0.1-0.1-0.2-0.2-0.2c0,0.1,0.1,0.1,0.1,0.2C6.9,13.8,6.9,13.9,7,13.9z"/>
	<path class="st0" d="M12.5,13.6c-0.1-0.2-0.3-0.4-0.4-0.6c-0.1,0.1-0.1,0.1-0.2,0.2c0.1,0.2,0.2,0.3,0.3,0.5
		c0.2,0.3,0.4,0.6,0.7,0.9c0.1,0.1,0.1,0.1,0.2,0c0.1-0.1,0-0.1,0-0.2C12.8,14.2,12.7,13.9,12.5,13.6z"/>
	<path class="st0" d="M8.1,31.6c0-0.1,0-0.2-0.1-0.3C8.1,31.1,8,31,8,31c-0.1,0-0.1,0.1-0.1,0.1c0,0.1,0,0.2,0,0.2
		c0,0.5,0.2,0.9,0.3,1.4c0,0.1,0.1,0.1,0.1,0.1c0.1,0,0.1-0.1,0.1-0.2c0-0.1,0-0.1,0-0.2c-0.1-0.3-0.1-0.5-0.2-0.7
		C8.1,31.8,8.1,31.7,8.1,31.6z"/>
	<path class="st0" d="M11.1,10.1c0,0.1,0,0.1,0.1,0.1c0.1,0,0.1-0.1,0.1-0.1V10C11.2,10,11.2,10,11.1,10.1L11.1,10.1z"/>
	<path class="st0" d="M11.1,10C11,9.9,11,9.9,11,9.8c0,0.1,0,0.1-0.1,0.2C11,10,11,10,11.1,10z"/>
	<path class="st0" d="M11.5,32.3c0-0.1-0.1-0.2-0.1-0.3c0,0,0,0,0,0.1C11.4,32.2,11.5,32.2,11.5,32.3z"/>
	<path class="st0" d="M11.6,33c0,0.1,0,0.1,0.1,0.1c0-0.2-0.1-0.5-0.2-0.8C11.5,32.5,11.6,32.7,11.6,33z"/>
	<path class="st0" d="M9.4,31.7c0,0,0.1,0,0.1-0.1v-0.1H9.4c-0.3-0.1-0.7-0.2-1-0.2c-0.1,0-0.1,0-0.2,0.1c0,0.1,0,0.1,0.1,0.1
		c0.1,0,0.2,0.1,0.2,0.1c0.3,0.1,0.6,0.1,0.8,0.2C9.3,31.7,9.3,31.7,9.4,31.7z"/>
	<path class="st0" d="M8.2,31.6v0.1h0.1C8.3,31.7,8.3,31.6,8.2,31.6z"/>
	<path class="st0" d="M8.6,31.8c0.2,0,0.4,0.1,0.5,0.1C8.9,31.8,8.8,31.8,8.6,31.8z"/>
	<path class="st0" d="M8.5,21.6C8.2,21.6,8,22,8,22.3s0.2,0.6,0.5,0.5c0.2,0,0.6-0.2,0.6-0.5C9.1,21.9,8.8,21.6,8.5,21.6z"/>
	<path class="st0" d="M15.2,19.4c-0.3-0.1-0.6,0.1-0.6,0.5c0,0.3,0.2,0.5,0.5,0.6c0.3,0.1,0.6-0.2,0.6-0.5
		C15.7,19.6,15.4,19.4,15.2,19.4z"/>
</g>
</svg>
