<?xml version="1.0" encoding="utf-8"?>
<!-- Generator: Adobe Illustrator 25.0.1, SVG Export Plug-In . SVG Version: 6.00 Build 0)  -->
<svg version="1.1" id="Layer_1" xmlns="http://www.w3.org/2000/svg" xmlns:xlink="http://www.w3.org/1999/xlink" x="0px" y="0px"
	 viewBox="0 0 28 39" style="enable-background:new 0 0 28 39;" xml:space="preserve">
<style type="text/css">
	.st0{fill-rule:evenodd;clip-rule:evenodd;}
</style>
<g id="Layer_1_2_">
	<g id="Layer_1_1_">
	</g>
	<g id="texture">
	</g>
</g>
<g id="texture_1_">
</g>
<g id="Layer_1_3_">
	<g id="Layer_1_4_">
	</g>
	<g id="texture_3_">
	</g>
</g>
<g id="texture_2_">
</g>
<g>
	<path class="st0" d="M7,33.9C7,33.9,7,33.9,7,33.9c0,0.2,0,0.2,0.1,0.2h0.1C7.5,34,7.7,33.8,8,33.7c0.2-0.1,0.3-0.2,0.5-0.3
		c0.1-0.1,0.2-0.1,0.1-0.2s-0.1,0-0.2,0c-0.4,0.3-0.8,0.5-1.2,0.7C7.2,33.9,7.1,34,7,33.9z"/>
	<path class="st0" d="M10.4,34.2c-0.4,0-0.8-0.1-1.3-0.2c0,0-0.1,0-0.1,0.1c0,0.1,0,0.1,0,0.2c0.4,0.1,0.8,0.2,1.2,0.2h0.1
		c0.1,0,0.2,0,0.2-0.1C10.6,34.2,10.5,34.2,10.4,34.2z"/>
	<path class="st0" d="M20.4,33.5C20.5,33.5,20.5,33.4,20.4,33.5L20.4,33.5z"/>
	<path class="st0" d="M19.8,30.9C19.7,30.9,19.7,31,19.8,30.9L19.8,30.9z"/>
	<path class="st0" d="M19.8,30.9c0.1,0.2,0.1,0.2,0.2,0.2c0.2,0,0.5,0.1,0.8,0.2c0.1,0,0.2,0.1,0.3,0.1l0.1-0.1v-0.1
		c0-0.1-0.1-0.1-0.2-0.1c-0.3-0.1-0.7-0.2-1.1-0.3C19.9,30.8,19.8,30.8,19.8,30.9z"/>
	<path class="st0" d="M22.5,6.4c0-0.1-0.1-0.1-0.2-0.1c-0.4,0-0.8,0-1.2,0c-0.2,0-0.3,0-0.4,0c-0.1,0.1-0.1,0.1-0.1,0.2
		c0.1,0.1,0.1,0.1,0.2,0.1c0.3-0.1,0.6-0.1,0.9-0.1c0.2,0,0.4,0,0.6,0C22.4,6.5,22.5,6.5,22.5,6.4z"/>
	<path class="st0" d="M18.8,16.8c-0.1,0-0.1,0.1,0,0.1c0.1,0.1,0.2,0,0.2,0c0.1-0.1,0.1-0.1,0.1-0.2c0.1-0.2,0.1-0.3,0.2-0.5
		c0.1,0.3,0.3,0.5,0.4,0.7c0,0.1,0.1,0.3,0.2,0.2c0.2-0.1,0.1-0.2,0-0.3c-0.1-0.2-0.2-0.3-0.3-0.5c0-0.1,0-0.2-0.2-0.1
		c0.1-0.1,0.1-0.1,0.1-0.2c0-0.2,0.1-0.4,0.2-0.6c0.1-0.1,0.1-0.2,0-0.2s-0.2,0-0.3,0c0,0.1-0.1,0.1-0.1,0.2
		C19.1,15.9,19,16.3,18.8,16.8z"/>
	<path class="st0" d="M20.6,6.9c0,0.5,0,0.9,0,1.3c0,0.2,0,0.4,0,0.6c0,0.1,0,0.2,0.1,0.2s0.1-0.1,0.1-0.2c0-0.3,0-0.6,0-0.9
		c0-0.4,0-0.7,0-1c0-0.1,0-0.2-0.1-0.2S20.6,6.8,20.6,6.9z"/>
	<path class="st0" d="M20,16.2c0.1,0.2,0.2,0.5,0.3,0.7c0,0,0,0.1,0.1,0.1s0.1,0,0.1-0.1s0-0.3-0.1-0.4c-0.1-0.3-0.3-0.7-0.4-1
		c-0.1-0.1-0.1-0.2-0.2-0.1c-0.2,0-0.1,0.1-0.1,0.2C19.8,15.8,19.9,16,20,16.2z"/>
	<path class="st0" d="M21.6,16.8L21.6,16.8c-0.1,0.1-0.1,0.1-0.1,0.2c0.1,0,0.1,0,0.2,0c0.2-0.1,0.3-0.1,0.5-0.1
		c0.2-0.1,0.5-0.1,0.8-0.1c0.1,0,0.2,0,0.2-0.1s-0.1-0.1-0.2-0.1C22.5,16.7,22,16.7,21.6,16.8z"/>
	<path class="st0" d="M16.9,13.1c-0.1,0.1-0.1,0.2,0,0.2c0.1,0.1,0.1,0.1,0.2,0c0.2-0.2,0.4-0.4,0.6-0.6c-0.2,0.2-0.3,0.4-0.5,0.6
		c-0.1,0-0.2,0.1-0.2,0.2c-0.1,0.1,0,0.2,0.1,0.2l0.1-0.1c0.3-0.3,0.6-0.6,0.8-0.9c0,0,0.1-0.1,0.1-0.2c0.1-0.1,0.1-0.2,0-0.2
		c0-0.1,0-0.1,0.1-0.2c0.1-0.1,0.1-0.2,0-0.2c-0.1-0.1-0.2-0.1-0.2,0c0,0,0,0-0.1,0c-0.3-0.1-0.5-0.2-0.7-0.2s-0.4-0.1-0.6-0.1
		c-0.2-0.1-0.3-0.3-0.5-0.4c-0.1-0.1-0.1-0.1-0.2,0c-0.1,0.1-0.1,0.2,0,0.2c0.4,0.4,0.8,0.7,1.2,1c0.1,0.1,0.1,0.1,0.2,0
		c0-0.1,0-0.2-0.1-0.2c-0.1,0-0.2-0.1-0.3-0.2c0.2,0.1,0.4,0.1,0.7,0.2c-0.2,0.2-0.4,0.4-0.6,0.6C16.9,12.9,16.8,13,16.9,13.1z"/>
	<path class="st0" d="M15.6,11.6C15.6,11.5,15.5,11.5,15.6,11.6L15.6,11.6z"/>
	<path class="st0" d="M15.6,11.6c-0.2,0.2-0.2,0.2-0.1,0.3l0.1,0.1c0.3,0.3,0.7,0.5,1,0.9h0.1l0.1-0.1c0-0.1,0-0.2-0.1-0.2
		C16.3,12.2,16,11.9,15.6,11.6z"/>
	<path class="st0" d="M16.4,13.6c0.1,0,0.1,0,0.1,0c-0.1-0.1-0.2-0.2-0.3-0.3l-0.1,0.1c0.1,0.1,0.1,0.1,0.2,0.2
		C16.3,13.6,16.4,13.7,16.4,13.6z"/>
	<path class="st0" d="M18.2,31.3c-0.1-0.1-0.1-0.1-0.1,0c0-0.1,0-0.1,0,0c-0.1-0.1-0.1-0.1,0,0C18.2,31.4,18.2,31.4,18.2,31.3z"/>
	<path class="st0" d="M17,10c0-0.4,0-0.9-0.1-1.3c0-0.1,0-0.1,0,0C17,9.2,17,9.6,17,10z"/>
	<path class="st0" d="M15.8,13c0,0.1,0,0.1,0.1,0.2C16,13.1,15.9,13,15.8,13z"/>
	<path class="st0" d="M15.8,13C15.7,12.9,15.7,13,15.8,13L15.8,13z"/>
	<path class="st0" d="M0.6,21c-0.1,0.8,0.4,1.4,0.9,2c0.4,0.4,0.8,0.8,1.1,1.3c0.8,1.1,1.6,2.2,2.4,3.3c0.4,0.5,0.4,0.9,0.2,1.6
		c-0.4,1.4-0.6,2.6-0.9,4c-0.2,0.8-0.1,1.4,0.6,1.6C5.3,34.9,6,35,6.7,35.1c0,0.4,0,1.1,0,1.6c0,1.1,0.4,1.6,1.4,1.8
		c1,0.3,4.2,0.2,4.8,0.2s0.5-0.5,0.8-0.6c0.3-0.1,0.5,0.1,0.8,0.3c0.1,0.1,0.3,0.3,0.7,0.3s4.2,0.1,5.2,0c0.3,0,0.6-0.2,0.7-0.6
		c0.1-0.7,0.2-1.8,0.3-2.5c1.2-0.1,1.7-0.5,1.8-1.1c1.6,0,2-1.2,1.8-2.4c-0.3-1.5-1.2-2.8-2.1-4.2c0.7-0.5,1.5-1,1.8-1.8
		c0.3-0.8,0.4-1.7,0.1-2.6c-0.4-0.8-0.1-1.6-0.1-2.4c0.2-3,0.3-6,0.2-9c0-1.1-0.2-2.1-0.3-3.2c-0.2-1.1-0.4-2.4-0.7-3.7
		c0.5,0.4,1.2,0.5,1.8,0.2C26.4,5,26.6,4,25.9,3.2c-0.7-0.8-1.4-1.6-2-2.2c-0.5-0.4-1.2-0.6-2,0c-2.2,1.6-9.4,9-12.2,13
		c-0.5,0.7-0.8,1.5-1.2,2.2c-0.1,0.2-0.3,0.3-0.5,0.4c-0.6,0.2-1.7,0.9-2,2.4c-0.4,1.5,0.1,2.7,1,3.4c-0.1,0.3-0.2,0.6-0.3,0.9
		C5.8,22.6,5.4,22,5,21.5c-0.1-0.2-0.2-0.5-0.2-0.8c-0.1-0.7-0.5-1.1-1.2-1.2c-0.3,0-0.5,0-0.9-0.1C1.6,19.1,0.5,20,0.6,21z
		 M4.5,22.1c-0.1,0.2-0.2,0.3-0.4,0.6c0,0.1-0.1,0.2-0.1,0.4c0,0.1-0.1,0.1-0.1,0.1c-0.1,0-0.2,0.1-0.3,0.1
		c-0.2,0.1-0.2,0.1-0.2,0.2s0,0.1,0,0.1c-0.1-0.1-0.3-0.1-0.5-0.2c0-0.1-0.1,0-0.1-0.1c0.2,0,0.5-0.1,0.7-0.1h0.1
		c0.1-0.1,0.1-0.1,0.1-0.2c-0.1-0.1-0.1-0.1-0.2-0.1C3.3,22.9,3.2,23,3,23c0.5-0.3,1-0.7,1.4-1L4.5,22.1z M4.9,22.4
		c-0.1,0-0.1,0.1-0.2,0.2c-0.2,0.2-0.3,0.3-0.5,0.3c0-0.1,0.1-0.1,0.1-0.2c0.2-0.2,0.3-0.3,0.4-0.5C4.7,22.3,4.8,22.4,4.9,22.4z
		 M5.3,22.8c-0.1,0-0.1,0-0.3,0c0-0.1,0.1-0.2,0.1-0.2C5.1,22.7,5.2,22.8,5.3,22.8z M6.4,24.4c-0.1-0.2-0.1-0.3-0.2-0.4
		c0.1,0,0.2,0.1,0.2,0.3V24.4z M6.4,25.3c-0.1,0.1-0.2,0.3-0.3,0.4H6c-0.2-0.1-0.4-0.2-0.5-0.4c0,0-0.1-0.1,0-0.1
		C5.6,25.1,5.7,25,5.9,25c-0.1,0.1-0.2,0.1-0.2,0.2s-0.1,0.1,0.1,0.3c0.1,0,0.1,0,0.2-0.1c0.2-0.1,0.3-0.3,0.4-0.4
		C6.4,25.1,6.4,25.2,6.4,25.3z M6,28.3L6,28.3c0.2,0.1,0.3,0.1,0.5,0.2c-0.1,0.1-0.1,0.2-0.1,0.3c0,0.2,0.1,0.4,0.1,0.6
		c0,0.1,0,0.1,0,0.2s0,0.1,0.1,0.2h0.1c0.1,0,0.1-0.1,0.1-0.2c0-0.3-0.1-0.5-0.1-0.8c0,0,0,0,0-0.1c0.1,0,0.2,0,0.2,0.1
		C7,29,7.1,29.3,7.1,29.5c0.1,0.1,0,0.1,0,0.2c-0.1,0.2-0.3,0.5-0.4,0.7c0,0.1-0.1,0.1-0.1,0.1c-0.2,0.1-0.4,0.1-0.7,0.1
		c0,0-0.1,0.1,0,0.3C5.9,31,6,31,6.1,31c0.3,0,0.5-0.1,0.8-0.1c0.1,0,0.2-0.1,0.2-0.2s0-0.1,0-0.1c0.2-0.4,0.5-0.8,0.8-1.2
		c0,0.2,0,0.3-0.1,0.4c-0.2,0.4-0.4,0.7-0.6,1C7.1,30.9,7,31,6.9,31c-0.5,0.1-0.9,0.1-1.3,0c0-0.1,0.1-0.3,0.1-0.4c0,0,0.1,0,0.2,0
		c0.1,0,0.1-0.1-0.2-0.2c0,0,0-0.1-0.1-0.1c-0.1-0.1-0.1-0.1-0.2-0.1c0.1,0,0.1-0.1,0.1-0.2c0.1,0,0.1,0,0.2,0s0.1,0,0.1,0.1v0.1
		l0.1,0.1H6c0-0.1,0.3,0.1,0.3-0.2c0-0.5-0.1-0.9-0.2-1.4c0-0.1,0-0.1-0.2-0.1C5.9,28.5,6,28.4,6,28.3z M5.8,27.3
		c-0.1,0-0.1,0-0.2,0.1c0-0.1-0.1-0.1-0.1-0.2c0.1-0.1,0.2-0.2,0.3-0.3c0.1,0,0.1,0,0.2,0C6,27,5.9,27.2,5.8,27.3z M8.5,29.4
		c-0.1-0.1-0.2,0-0.2,0.1c-0.2,0.4-0.5,0.7-0.7,1.1c0,0.1-0.1,0.1-0.1,0.2H7.4v-0.1c0,0,0-0.1,0.1-0.2C7.7,30.2,7.9,30,8,29.7
		c0-0.1,0.1-0.2,0.1-0.3s0-0.2-0.2-0.2c-0.2-0.2-0.2-0.2-0.3,0H7.5c-0.1-0.1-0.1-0.1-0.1-0.2c-0.1,0-0.1-0.1,0-0.1s0.1-0.1,0-0.2
		c-0.2-0.2-0.5-0.3-0.8-0.5c-0.1,0-0.2,0-0.1-0.1c0.1,0,0.1-0.1,0.2-0.1c0.4,0.2,0.7,0.4,1,0.7c0.2,0.1,0.3,0.1,0.5,0.1
		c0.3,0,0.5-0.1,0.7-0.1c0.1,0.1,0.3,0.1,0.4,0.2C9,29,8.7,29.1,8.4,29.1c-0.1,0-0.1,0-0.1,0.1S8.4,29.3,8.5,29.4
		c0.3-0.2,0.5-0.3,0.8-0.3c0.1-0.1,0.1,0,0.2,0c0.1,0.1,0.1,0.1,0.2,0.2c0-0.1,0-0.1,0-0.1v-0.1h0.1c0,0,0,0.1,0.1,0.1
		s0.2,0,0.2-0.1c0.1,0,0.1,0,0.1,0c0,0.1-0.1,0.1-0.1,0.2c-0.2,0.2-0.2,0.2-0.4,0c-0.1,0-0.1,0-0.2-0.1s-0.2-0.1-0.2-0.1
		c-0.1,0.1-0.1,0.1,0,0.2c0.2,0.3,0.4,0.5,0.6,0.7c0.1,0.1,0.1,0.2,0.1,0.3c0,0.2,0.1,0.2,0.2,0.2c0.3,0,0.7,0,1,0
		c0,0,0.1,0,0.1,0.1s-0.1,0.1-0.1,0.1c-0.4,0-0.7,0-1.1,0H10c-0.3-0.4-0.7-0.6-1-1c-0.1-0.1-0.1-0.1-0.1-0.2l-0.1-0.1
		c0-0.1-0.1,0-0.1,0c0,0.1-0.1,0.1-0.2,0.2c-0.1,0.3-0.2,0.7-0.5,1c-0.1,0.1-0.1,0.2,0,0.2s0.2,0.2,0.2,0.3c0.1,0.3,0.1,0.7,0.1,1.1
		c0,0.1-0.3,0.3-0.4,0.3v-0.1c0-0.5,0-0.9,0-1.4c0-0.2,0-0.2-0.2-0.2c0.1-0.1,0.1-0.2,0.2-0.3c0.2-0.3,0.3-0.5,0.6-0.9
		C8.6,29.5,8.6,29.4,8.5,29.4z M8.5,30.2c0,0,0,0,0-0.1c0.1-0.1,0.1-0.2,0.2-0.3l0.1,0.1c0.3,0.3,0.5,0.6,0.8,0.9
		c-0.1,0.2-0.2,0.1-0.4-0.1C9,30.6,8.7,30.4,8.5,30.2z M9,31.8c0,0.2,0,0.4,0,0.6c-0.1-0.2-0.1-0.3-0.1-0.5c0-0.1-0.1-0.3-0.1-0.4
		C8.9,31.6,9,31.6,9,31.8z M9.8,32c0,0.1,0.1,0.1,0.2,0.1c-0.1,0-0.1,0-0.2,0s-0.2,0-0.2,0.1c-0.1,0.2-0.2,0.4-0.3,0.5
		c0.1-0.2,0.2-0.5,0.4-0.7C9.8,32,9.8,31.9,9.8,32c0-0.3,0.1-0.2,0.2-0.2c0.3,0,0.6,0,0.9,0c0.2,0,0.3,0,0.3-0.2
		c0-0.3,0.2-0.5,0.3-0.8c0-0.1,0-0.1,0.1-0.1c0,0,0,0,0,0.1c-0.1,0.3-0.2,0.6-0.3,0.9c0,0.1,0,0.1,0,0.2c-0.5,0-0.9,0-1.3,0
		C9.9,31.9,9.8,31.9,9.8,32z M11.4,33.6c-0.2-0.4-0.4-0.8-0.4-1.3c0.1,0.3,0.2,0.6,0.3,0.9C11.3,33.4,11.4,33.5,11.4,33.6
		c0.1,0.1,0.1,0.2,0.3,0.1c-0.1,0.4-0.2,0.7-0.3,1c-0.1,0-0.3,0-0.4-0.1c0-0.2,0.1-0.4,0.3-0.7C11.5,33.9,11.5,33.7,11.4,33.6z
		 M12.5,33.9c0-0.1,0-0.2-0.1-0.2c-0.1-0.1-0.2,0-0.2,0.1c-0.1,0.3-0.1,0.6-0.2,0.9c-0.1,0-0.2,0-0.4,0c0.2-0.4,0.3-0.7,0.4-1.1
		c0.1-0.2,0.2-0.2,0.3-0.2c0.1,0,0.1,0,0.2,0s0.2,0,0.2,0.2c0,0.2-0.1,0.4-0.1,0.6c0.1,0.2,0,0.4,0,0.6c-0.1,0-0.2,0-0.3,0
		C12.4,34.5,12.5,34.2,12.5,33.9z M15.9,34c-0.4-0.2-0.7-0.2-1-0.4c0.4,0,0.6,0.1,1,0.2c0.1,0,0.1,0.1,0.2,0.1h0.1v-0.1
		c-0.1-0.1,0-0.2,0-0.3c0.1-0.1,0.1-0.1,0.1-0.2c-0.1,0-0.1,0-0.2,0s-0.1,0-0.1-0.1c0.1-0.5,0.3-1,0.5-1.5c-0.1,0-0.1,0-0.1-0.1
		s0-0.1,0.1-0.1c0-0.1,0-0.3,0-0.4c0.1,0,0.1,0,0.2,0c-0.1,0-0.1,0.1-0.1,0.1c0,0.1,0,0.2,0.1,0.2c0.3,0.1,0.6,0.3,0.9,0.5V32
		c-0.3-0.2-0.5-0.3-0.8-0.4c-0.1-0.1-0.1-0.1-0.2-0.1h-0.1c0,0.1,0,0.1,0,0.2c0.1,0,0.1,0,0.3,0c0,0,0,0,0,0.1
		c-0.1,0.1-0.1,0.3-0.2,0.4h0.1c0.1,0.1,0.1,0.1,0.1,0.2c-0.1,0.4-0.2,0.7-0.2,1c-0.1,0.1-0.1,0.2-0.1,0.3c0,0.1,0,0.2,0.1,0.2
		s0.2,0,0.2-0.1c0.1-0.1,0.1-0.2,0.1-0.3c0.1,0.1,0.2,0.3,0.3,0.4C17,33.8,17,34,17,34.1c0,0.4,0,0.9,0,1.3h-0.1c0-0.2,0-0.5,0-0.7
		s0-0.4,0-0.5c-0.1-0.1-0.1-0.2-0.2-0.2s-0.1,0.1-0.1,0.2c0,0.3,0,0.5,0,0.8c-0.1-0.3-0.1-0.5-0.1-0.8c0-0.1,0-0.2-0.1-0.2
		s-0.1,0.1-0.1,0.2c0,0.4,0.1,0.7,0.1,1.1c-0.1,0-0.3,0-0.4,0c0-0.4,0-0.7,0-1.1C16.1,34.1,16,34,15.9,34z M17.2,32.6
		c0.2,0.3,0.3,0.6,0.5,0.8c0.1,0.1,0,0.1-0.1,0.2c0,0-0.1,0-0.1-0.1c-0.1-0.2-0.2-0.4-0.4-0.4c0-0.1-0.1-0.1-0.1-0.2
		c0-0.2,0-0.4,0.1-0.6c0-0.1,0-0.1,0.1-0.1c0.5,0.1,0.7,0.5,1,0.9c0.1,0.1-0.1,0.1-0.2,0.2c0,0.1-0.1,0-0.1,0
		c-0.2-0.3-0.3-0.5-0.5-0.8c0-0.1-0.1-0.2-0.2-0.1C17.1,32.4,17.1,32.5,17.2,32.6z M19.4,32v0.1c0,0.2-0.1,0.3-0.1,0.4
		c-0.1-0.1-0.3-0.2-0.4-0.4c-0.1,0.1-0.1,0-0.2-0.1c0,0.1-0.1,0.1-0.1,0.1s-0.1,0.1-0.2,0.1c-0.2,0-0.3,0-0.2-0.3
		c0-0.1-0.1-0.2-0.1-0.2c-0.1-0.1-0.2-0.1-0.3-0.2c0.1,0,0.1,0.1,0.2,0.1c0.1,0.1,0.1,0.1,0.2,0.1l0.1-0.1v-0.1c0,0,0,0,0.1,0.1
		c0-0.1,0.1-0.1,0.1-0.1c0.2-0.1,0.5-0.2,0.7-0.2c0-0.1,0.1-0.1,0.2-0.1s0.1,0,0.1-0.1C19.4,31,19.4,31,19.3,31
		c-0.3,0.1-0.7,0.1-1,0.3c-0.1,0.1-0.1,0.1-0.1,0.1c-0.1-0.1-0.3-0.2-0.4-0.3c0.1,0,0.3,0,0.4,0c-0.1,0.1-0.1,0.1-0.1,0.1
		c0.6-0.1,0.9-0.2,1.3-0.6c0.3,0,0.6,0,0.9,0.1c0.2,0,0.4,0,0.6,0c0.1,0,0.2,0,0.2-0.1s-0.1-0.1-0.2-0.1c-0.4,0.1-0.7,0-1.1-0.1
		l0.1-0.1c0.4,0.1,0.8,0.1,1.2,0.1c0.2,0,0.2,0.1,0.2,0.2c0,0.3-0.1,0.7,0,1v0.1c-0.2,0.6-0.4,1.1-0.6,1.7v0.1c0,0.1,0,0.2,0.1,0.2
		c0.1,0.1,0.2,0,0.2-0.1c0-0.2,0.1-0.5,0.2-0.7c0-0.1,0.1-0.1,0.2-0.1c0.4,0,0.8,0,1.2,0v0.1c-0.1,0-0.2,0-0.3,0s-0.1,0-0.2,0
		c-0.3,0-0.5,0-0.8,0c0,0-0.1,0-0.1,0.1s0.1,0.1,0.2,0.1s0.2,0,0.3,0c0.3,0,0.6,0,0.9,0v0.1c-0.3,0-0.6,0-1,0c-0.1,0-0.1,0-0.2,0
		c0,0-0.1,0-0.1,0.1c0,0,0,0.1,0.1,0.1v0.1c-0.1,0.1-0.2,0.3-0.3,0.4c0,0.1-0.1,0.1,0,0.2c-0.2-0.1-0.4-0.3-0.7-0.5
		c0-0.1,0-0.1,0-0.1c0.2-0.7,0.3-1.2,0.6-1.7c0,0,0-0.1-0.1-0.2c-0.1-0.1-0.2-0.1-0.2,0c-0.1,0-0.1,0.1-0.1,0.1
		c-0.1,0.3-0.1,0.5-0.2,0.8c-0.1,0.3-0.1,0.6-0.2,0.9c-0.1,0-0.1-0.1-0.2-0.1c0.1,0,0.1-0.1,0.1-0.2c0.2-0.6,0.3-1.1,0.4-1.6
		c0-0.1,0-0.2-0.1-0.2c-0.1,0-0.2,0-0.2,0.1s0,0.2,0,0.2c-0.2,0.6-0.2,1.1-0.5,1.5c-0.1,0-0.1-0.1-0.3-0.1c0,0-0.1,0,0-0.1
		c0.1,0,0.1-0.1,0.1-0.2c0.1-0.3,0.1-0.5,0.2-0.8C19.6,32,19.5,32,19.4,32z M22.5,28.7c0.1,0.1,0.3,0.1,0.2,0.3
		c-0.2,0-0.3,0.1-0.3,0.2c0,0.2,0,0.4,0.1,0.6c0,0.2,0.1,0.3,0.1,0.5c-0.1-0.3-0.2-0.5-0.3-0.8v-0.1c0-0.1,0-0.2-0.1-0.2
		c0-0.1-0.1-0.2-0.1-0.3c0,0,0.1,0,0.1-0.1c-0.1-0.1-0.1-0.1-0.2-0.1h-0.1c0-0.1,0-0.2-0.1-0.3c0.1-0.1,0.2-0.2,0.3-0.2v0.1
		c-0.1,0.1-0.2,0.3,0,0.3c0.1,0.1,0.2-0.1,0.2-0.2c0.1-0.1,0.1-0.1,0.1-0.2c0,0.1,0.1,0.1,0.1,0.2C22.4,28.5,22.4,28.6,22.5,28.7z
		 M21.4,29.4c0-0.1,0-0.1,0-0.1c0.1,0,0.1,0.1,0.1,0.1l-0.1,0.1c-0.2,0-0.3-0.1-0.5-0.1c0.1-0.2,0.2-0.4,0.3-0.6
		c0,0.1,0,0.2,0.1,0.3l-0.1,0.1c-0.1,0.1-0.1,0.2,0,0.2C21.3,29.5,21.3,29.4,21.4,29.4z M21.6,32.4c-0.3,0.1-0.3,0-0.2-0.1
		C21.4,32.4,21.5,32.4,21.6,32.4z M21.4,32.1c0.1-0.3,0.1-0.3,0.4-0.3c0.2,0,0.4,0,0.6,0c0,0.1,0,0.2,0,0.3
		C22.1,32.1,21.7,32.1,21.4,32.1z M21.3,29.8c-0.2,0-0.5,0-0.7,0c0-0.1,0.1-0.1,0.2-0.2c0.1,0.1,0.2,0.1,0.3,0.1c0,0,0.1,0,0.2,0
		s0.1,0,0.1,0.1S21.3,29.8,21.3,29.8z M21.5,31.5l0.1,0.2c0.1,0,0.2-0.1,0.2-0.2c0-0.4,0-0.7,0-1.1c0-0.1,0-0.1,0-0.2
		c0.1,0,0.1,0.1,0.1,0.1s0,0.1,0,0.2c0,0.2,0,0.5,0,0.7c0,0.1,0,0.2,0.1,0.2c0.1,0,0.1-0.1,0.1-0.2s0-0.2,0-0.3
		c0.1,0.2,0.1,0.5,0.1,0.8c-0.2,0-0.4,0-0.6,0C21.4,31.7,21.5,31.6,21.5,31.5z M17.3,31.2c-0.1,0-0.2,0-0.3,0
		c-0.1,0-0.2-0.1-0.2-0.1c0.1,0,0.2,0,0.3,0c0.1,0,0.3,0.1,0.4,0.2C17.4,31.3,17.4,31.2,17.3,31.2z M15.7,31.2c0-0.1,0-0.2,0-0.3
		c0.1,0.1,0.1,0.1,0.2,0.1c0,0.2,0,0.3,0,0.6v0.1c-0.1,0.5-0.4,0.9-0.4,1.3c0,0.1,0,0.1-0.1,0.1c-0.2-0.1-0.2,0-0.2-0.3
		c0-0.2,0-0.5,0.2-0.7c0-0.1-0.1-0.2,0-0.3c0,0,0-0.1,0.1,0c0.1,0.1,0.1,0.1,0.2,0c0-0.1,0-0.2-0.1-0.2c-0.2-0.2-0.5-0.4-0.8-0.6
		c-0.1,0-0.1-0.1-0.1-0.2c0-0.2,0-0.3,0-0.5c0.2,0.1,0.3,0.1,0.4,0.2c0,0.1,0,0.3,0,0.4s0,0.2,0.1,0.2s0.1-0.1,0.1-0.2
		c0-0.1,0-0.2,0-0.3c0.1,0,0.1,0.1,0.2,0.1c0,0.2,0,0.3,0,0.4s0,0.1,0,0.1c0,0.1-0.1,0.2,0.1,0.2C15.7,31.4,15.7,31.3,15.7,31.2z
		 M15.2,31.7C15.3,31.7,15.2,31.8,15.2,31.7c0,0.1,0,0.2-0.1,0.2c-0.3-0.3-0.5-0.4-0.8-0.6c-0.1,0-0.1,0-0.1-0.1s0.1-0.2,0.2-0.1
		C14.7,31.3,14.9,31.5,15.2,31.7z M14.8,32.2c-0.3-0.2-0.6-0.5-1-0.8c0.1-0.1,0.1-0.1,0.2,0c0.2,0.1,0.4,0.3,0.6,0.4
		c0.2,0.1,0.3,0.2,0.4,0.3C14.9,32.3,14.8,32.2,14.8,32.2z M14.9,32.9h-0.1c0-0.1-0.1-0.1-0.2-0.2c-0.3-0.3-0.7-0.6-1-0.9
		c-0.2-0.1-0.2-0.1,0-0.2c0,0,0.1,0,0.2-0.1c0,0.1,0,0.1,0.1,0.2c0.3,0.2,0.6,0.5,1,0.8v0.1C14.9,32.7,14.9,32.8,14.9,32.9z
		 M13.1,31.5c0,0-0.1,0-0.2,0c-0.1,0-0.2,0-0.4,0c0.1-0.2,0.1-0.3,0.2-0.5h0.1h0.1c0.1,0,0.1-0.1,0.1-0.1c0-0.1,0.1-0.1,0.1-0.1
		c0.4-0.2,0.8-0.4,1.2-0.6c0,0,0,0,0.1-0.1c0.1,0,0.1,0.1,0,0c0.1,0.2,0,0.3-0.2,0.2c-0.4,0.2-0.8,0.5-1.3,0.7
		c-0.1,0.1-0.1,0.1-0.1,0.2s0.1,0,0.2,0c0.4-0.1,0.7-0.3,1.1-0.5c0,0,0.1-0.1,0.2-0.1c-0.1,0.2-0.2,0.2-0.3,0.3
		C13.7,31.1,13.4,31.3,13.1,31.5z M11.5,29.5c0-0.1,0-0.1,0-0.1c0.1,0,0.1,0,0.2,0l0.1,0.1c0.2,0.1,0.5,0.3,0.7,0.4
		c0.2,0.1,0.3,0.2,0.5,0.3c-0.1,0.1-0.2,0.1-0.4,0c-0.1-0.1-0.4-0.2-0.6-0.4c-0.1,0.1-0.3,0-0.4,0.2c0,0.1-0.1,0.1-0.2,0
		c-0.1,0-0.2,0-0.3,0c0,0.1,0.1,0.2,0.2,0.2c0,0,0.1,0,0.1,0.2h-0.1c-0.1,0-0.2,0-0.3,0s-0.2,0-0.1-0.1c0.1-0.1,0.1-0.2,0.2-0.3
		C11.3,29.8,11.3,29.6,11.5,29.5z M10.2,29.9c0.1,0.1,0.2,0,0.2-0.1c0.1-0.1,0.2-0.3,0.3-0.5c0.1,0,0.1,0,0.2,0
		c-0.1,0.3-0.2,0.6-0.4,0.8c-0.1,0.1-0.1,0.1-0.1,0.2c-0.1,0-0.1,0-0.2-0.1l-0.1-0.1c-0.2-0.2-0.2-0.2,0-0.5
		c0.1-0.1,0.1-0.2,0.2-0.3c0,0,0.1,0,0.3,0c-0.2,0.1-0.3,0.2-0.4,0.4C10.1,29.8,10.1,29.8,10.2,29.9z M11.9,30.6c0,0,0-0.2,0.1-0.1
		s0.2,0.1,0.1,0.2c-0.2,0.3-0.3,0.6-0.5,0.9c0,0.1-0.1,0.2-0.1,0.3c0,0-0.1,0-0.1-0.1v-0.1c0.2-0.1,0.2-0.2,0.2-0.3
		C11.7,31.1,11.8,30.9,11.9,30.6z M12.1,29.3c0.1,0,0.2,0,0.4-0.1c0.3,0.3,0.6,0.5,1,0.7c-0.1,0.1-0.2,0.1-0.3,0
		C12.8,29.7,12.5,29.5,12.1,29.3z M12.8,29.2c0.1,0,0.1-0.1,0.3,0c0.3,0.2,0.6,0.4,0.8,0.6v0.1c-0.1,0-0.1,0-0.1,0l-0.1-0.1
		C13.4,29.6,13.1,29.4,12.8,29.2z M14.1,30c0.1,0,0.1,0,0.2,0c0,0-0.1,0.1-0.2,0.1c-0.3,0.2-0.7,0.3-1,0.5c-0.1-0.1,0-0.2,0.1-0.2
		C13.5,30.3,13.8,30.1,14.1,30z M13.4,32.1c-0.4,0-0.7,0-1.1,0c-0.1,0-0.1,0-0.1-0.1c0.1-0.1,0.1-0.2,0.3-0.2s0.5,0,0.7,0
		c0,0,0.1,0,0.1,0.1C13.3,32,13.3,32,13.4,32.1z M13.1,32.3c0,0.2-0.1,0.3-0.1,0.4h-0.1c-0.4,0-0.7,0-1.1,0c-0.1,0-0.1-0.1-0.2-0.2
		c-0.1-0.2-0.1-0.4-0.2-0.6c0.1,0.1,0.2,0,0.3-0.1c0.2-0.3,0.3-0.6,0.5-0.9c0-0.1,0-0.1,0.1-0.1c0.1,0.1,0,0.1,0,0.2
		c-0.1,0.3-0.3,0.5-0.4,0.8c-0.1,0.1-0.1,0.2-0.1,0.3c0,0.2,0.1,0.2,0.2,0.2C12.4,32.3,12.7,32.3,13.1,32.3z M12.9,33
		c0,0.1,0,0.2-0.1,0.2c-0.3,0-0.6,0-0.9,0c-0.1,0-0.1-0.1-0.1-0.2s0.1-0.1,0.2,0c0.1,0,0.3,0,0.4,0c0.1,0,0.3,0,0.4,0
		C12.8,33,12.9,32.9,12.9,33z M9.6,31.3c0-0.1,0-0.2,0.1-0.2C9.7,31,9.8,31,9.9,31c0.4,0,0.8,0,1.2,0c-0.1,0.3-0.1,0.3-0.3,0.3
		c-0.4,0-0.7,0-1.1,0C9.7,31.3,9.6,31.3,9.6,31.3z M9.4,31.9v-0.4C9.7,31.6,9.7,31.6,9.4,31.9z M8.1,28.7c-0.1,0-0.2,0-0.3-0.1
		c-0.3-0.3-0.6-0.5-0.9-0.7c-0.1,0-0.2,0-0.1-0.1c0-0.1,0.1,0,0.1,0c0.3,0.2,0.6,0.3,0.8,0.6c0.1,0.1,0.3,0.1,0.4,0.1s0.2,0,0.2,0
		c0.1,0,0.1,0.1,0.2,0.1C8.4,28.7,8.2,28.7,8.1,28.7z M6.4,27.7c0,0,0.1-0.1,0.1-0.2C6.6,27.6,6.7,27.6,6.4,27.7z M7,27
		c-0.1,0-0.1,0-0.2,0c0,0-0.1,0-0.1,0.1c0,0,0,0.1,0.1,0.1c0.2,0,0.3,0.2,0.5,0.3c0.2,0.3,0.5,0.6,0.7,0.8H7.9
		c-0.2-0.2-0.4-0.4-0.6-0.5s-0.5-0.3-0.7-0.5c0.1-0.3,0.2-0.5,0.2-0.6C6.9,26.8,6.9,26.9,7,27z M10.2,16.6c1-0.2,2-0.2,2.8-0.2
		c2.1,0,4.3,0.8,5.9,1.6c1.5,0.8,2.9,1.7,3.9,3.1c0.6,0.9,0.7,1.4,0.1,2.2c-2,2.9-4.7,3.8-8.6,2.9c-3.3-0.8-6.4-4.6-4.9-8.6
		C9.5,17.2,9.8,16.8,10.2,16.6z M23.6,18.7c0,0,0-0.1-0.1-0.1c-0.2,0-0.2-0.1-0.2-0.2c0-0.1-0.1-0.2-0.2-0.3
		c-0.2-0.2-0.5-0.5-0.7-0.8c0.2-0.1,0.3-0.1,0.5-0.1c0.1,0,0.1,0.1,0.1,0.1c0.1,0.3,0.4,0.5,0.5,0.8c0,0.1,0,0.1,0.1,0.1
		c0.1-0.1,0.2,0,0.1,0.1l0.1,0.1c0,0.1,0,0.1,0,0.2C23.7,18.6,23.6,18.6,23.6,18.7c0,0.2,0,0.3,0,0.4c0,0.5,0,1-0.1,1.5
		c0,0,0,0.1,0.1,0.1c0.1,0,0.1,0,0.1,0c0,0.1,0,0.1,0,0.2h-0.1c0-0.1-0.1-0.2-0.2-0.3v-0.1C23.5,19.9,23.5,19.3,23.6,18.7z
		 M23.5,13.4c0-0.1,0-0.1,0-0.2c0.2,0.2,0.3,0.3,0.5,0.4c0,0.1,0.1,0.1,0.1,0.1c0,0.2,0,0.3,0,0.4c-0.1,0-0.1,0-0.1,0
		c-0.2-0.1-0.4-0.3-0.6-0.4C23.4,13.6,23.5,13.5,23.5,13.4z M23.5,12.2c0,0-0.1,0.1-0.2,0.2c0-0.1,0-0.1-0.1-0.2
		c-0.1-0.1-0.3-0.2-0.5-0.4C23,11.9,23.2,12,23.5,12.2z M23.3,11.8c-0.2-0.1-0.3-0.2-0.3-0.5c0.2,0.1,0.4,0.3,0.6,0.4
		c0.1,0,0.1,0.1,0.2,0c0,0.2-0.1,0.2-0.2,0.3C23.5,11.9,23.4,11.8,23.3,11.8z M23.9,4c0-0.1,0-0.1,0-0.2l0,0H24
		c0.1-0.1,0.1-0.3,0.2-0.3l0,0h0.1c0,0.1-0.1,0.2-0.2,0.3c0-0.1,0-0.1-0.1,0C24,3.8,23.9,3.9,23.9,4C23.9,4,23.8,3.9,23.9,4z
		 M24.4,3.2c-0.1,0-0.2-0.1-0.2-0.1l0,0l0,0L24.3,3c0.1,0,0.1-0.1,0.2-0.2c0.1,0.1,0.1,0.1,0.2,0.2C24.6,3.1,24.5,3.2,24.4,3.2z
		 M22.1,7c0-0.1-0.1-0.2,0-0.2c0.1,0,0.2,0,0.3,0c-0.1,0.1-0.1,0.1-0.2,0.2c-0.1,0.2-0.3,0.5-0.4,0.7c-0.1-0.2-0.1-0.2,0-0.3
		s0.1-0.2,0.2-0.3C22,7.1,22,7.1,22.1,7z M21.7,7.1c0-0.3,0-0.3,0.2-0.3C21.8,6.9,21.8,7,21.7,7.1z M22.5,7.1
		C22.5,7.1,22.5,7.1,22.5,7.1c0.2,0.1,0.4,0.2,0.6,0.3C23,7.4,23,7.5,23,7.6l-0.1,0.1c-0.1,0.2-0.2,0.4-0.4,0.5c0,0.1,0,0.3-0.2,0.3
		c0,0,0,0.1,0,0.2c-0.3,0-0.7,0.1-1.1,0.3c0-0.2,0.2-0.4,0.4-0.3h0.1c0.1-0.1,0.2-0.1,0.3,0c0.1,0,0.2,0,0.2-0.1
		c0.2-0.4,0.3-0.8,0.5-1.2c0.1-0.1,0.1-0.2,0-0.2s-0.1,0-0.2,0.1c0,0.1-0.1,0.1-0.1,0.2c-0.1,0.2-0.2,0.4-0.2,0.6
		c-0.1,0.1-0.2,0.3-0.4,0.2C22,7.9,22.2,7.5,22.5,7.1z M20,8.6c0,0.1,0,0.1,0,0.2c-0.1,0-0.2-0.1-0.2-0.3c0-0.5-0.1-1-0.1-1.6
		c0.2,0.1,0.4,0.2,0.4,0.4C20.2,7.8,20.2,8.3,20,8.6z M20.6,9.6c-0.2,0.1-0.3,0.1-0.4,0.1h-0.1c-0.3-0.2-0.6-0.4-0.9-0.6
		C19.4,9,19.5,9,19.5,8.8c0.1,0.1,0.2,0.1,0.3,0.2C20,9.2,20.3,9.4,20.6,9.6z M19.6,8.4c0,0,0,0.1-0.1,0.1s-0.1-0.1-0.1-0.1
		c0-0.2,0-0.3,0-0.5c0-0.2,0-0.4,0.1-0.6C19.6,7.7,19.6,8,19.6,8.4z M19.3,6.8c0.1,0,0.2,0.1,0.3,0.1C19.3,7,19.4,6.9,19.3,6.8z
		 M22.2,9.5c0.2-0.1,0.2-0.1,0.2,0.1s-0.1,0.2-0.2,0.2c-0.6,0-1.1,0.1-1.8,0.3c-0.1,0-0.1,0-0.1-0.1s0.1-0.1,0.1-0.1
		C21,9.8,21.6,9.6,22.2,9.5z M21.2,10.6c0,0,0-0.1,0.1-0.1c0,0,0.1,0,0.1,0.1c0.2,0.4,0.3,0.8,0.4,1.2v0.1C21.9,12,21.9,12,22,12
		s0.1-0.1,0.1-0.2c-0.1-0.4-0.2-0.7-0.3-1c0-0.1-0.1-0.2-0.1-0.3c0,0-0.1-0.1,0-0.1c0.1,0,0.2,0,0.2,0.1c0.2,0.4,0.4,0.8,0.4,1.2
		c0,0.1,0.1,0.2,0.2,0.3c-0.1,0-0.1,0-0.1,0.1v0.1c-0.2,0-0.4,0-0.6,0h-0.1c-0.1-0.4-0.3-0.7-0.4-1.1C21.3,10.9,21.2,10.8,21.2,10.6
		z M21.5,12.2c-0.3,0-0.3,0-0.3-0.2c-0.2-0.4-0.3-0.9-0.4-1.3c0-0.2,0-0.2,0.1-0.2c0,0,0.1,0,0.1,0.1C21.1,11.1,21.3,11.7,21.5,12.2
		z M22.4,13.7c0-0.1,0-0.1-0.1-0.1c0.1-0.2,0.1-0.3,0.2-0.5c0.1,0,0.1-0.1,0.1-0.1c0-0.2,0.1-0.3,0.1-0.5c0.1-0.1,0.1-0.2,0.1-0.2
		v-0.1c0.1,0,0.2,0.1,0.1,0.2c-0.1,0.3-0.2,0.7-0.3,1v0.1c0,0.2-0.1,0.3-0.1,0.4c0.1,0.2,0.1,0.2,0.2,0.2c0.2-0.1,0.2-0.1,0.2-0.2
		c0-0.1,0-0.1,0-0.2c0.1,0,0.1,0.1,0.2,0.1v0.1c-0.1,0.2-0.1,0.3-0.2,0.4l0.1,0.1c0,0,0,0-0.1-0.1c-0.2-0.2-0.3-0.1-0.4,0.1
		c-0.1,0.3-0.3,0.6-0.4,0.9c-0.1,0.1-0.1,0.1-0.2,0.1s-0.2,0-0.3,0c0-0.1,0.1-0.2,0.1-0.2c0.2-0.4,0.3-0.7,0.5-1.1
		c0.1-0.1,0.1-0.2,0-0.2c-0.1,0-0.2,0-0.2,0.1v0.1c-0.2,0.4-0.3,0.8-0.6,1.2c-0.1,0.2-0.1,0.3-0.2,0.4c-0.1,0-0.1,0.1,0,0.1h0.1
		c0.1-0.2,0.3-0.2,0.5-0.2c-0.1,0.1-0.2,0.2-0.3,0.2s-0.2,0.1-0.3,0.1c-0.1,0.1-0.1,0.1-0.1,0.2c0.1,0.1,0.1,0.1,0.2,0.1
		c0.3-0.1,0.7-0.2,1-0.2c0.2-0.1,0.4-0.1,0.6-0.1c0.1,0,0.2-0.1,0.2-0.2c0-0.2-0.1-0.1-0.2-0.1c-0.2,0.1-0.5,0.1-0.8,0.1
		c0-0.2,0.1-0.2,0.2-0.2c0.2,0,0.4,0,0.6,0c0.2,0,0.2,0,0.2-0.2h0.1c0.2,0,0.2,0.1,0.1,0.2c-0.1,0.2-0.1,0.3-0.2,0.5
		c0,0.1,0,0.1-0.1,0.1c-0.5,0.1-0.9,0.2-1.5,0.2c-0.1,0-0.1,0.1-0.2,0.1c0,0.1,0,0.1,0,0.2c0.1,0,0.1,0,0.2,0
		c0.1-0.1,0.2-0.1,0.3-0.1c0.4-0.1,0.9,0,1.3-0.3c0.1,0,0.2,0,0.2-0.2c0.2-0.4,0.5-0.9,0.7-1.3c0,0.2,0,0.5,0,0.7
		c-0.1,0-0.1,0.1-0.1,0.1c-0.2,0.3-0.3,0.7-0.5,1c-0.1,0.1-0.2,0.1-0.2,0.3h-0.1c-0.5,0.1-1.1,0.1-1.6,0.3c-0.1,0-0.1-0.1-0.1-0.1
		s0,0-0.1,0c-0.1,0.1-0.1,0.1-0.1,0.2c0,0.4,0,0.9,0,1.3c-0.1,0-0.1-0.1-0.2-0.1c0-0.3,0-0.7,0-1.1c0-0.1,0-0.2,0-0.2
		c0.2-0.2,0.1-0.4,0.1-0.5c-0.1-0.4-0.2-0.8-0.3-1.3c-0.1-0.2-0.1-0.3-0.2-0.5c0-0.1,0-0.1,0-0.1h-0.1c-0.1-0.1,0-0.1,0-0.2h0.1
		c0-0.1,0.1-0.2,0.1-0.3c0-0.1,0.1-0.1,0.1-0.2c0.1-0.2,0.2-0.2,0.4-0.2l0,0h0.1c0.3,0,0.5,0,0.7,0c0.1,0,0.1,0,0.1,0
		c0.1,0,0.1,0,0.1,0C22.3,13.8,22.4,13.8,22.4,13.7z M21.6,13.3c-0.1-0.1-0.2-0.1-0.4-0.2c0.1,0,0.1,0,0.2,0c0.3,0,0.5,0,0.8,0
		c0,0.2-0.1,0.3-0.1,0.5c-0.3,0-0.6,0-1,0c0,0-0.1,0-0.1-0.1s-0.1-0.2-0.4,0h-0.1c-0.2-0.1-0.5-0.2-0.7-0.3c-0.1,0-0.2,0-0.2,0.1
		c0,0.1,0.1,0.2,0.2,0.2c0.2,0,0.5,0.2,0.8,0.2c0,0.1-0.1,0.3-0.2,0.4c-0.2,0.4-0.2,0.4-0.5,0.2c-0.3-0.2-0.7-0.3-1-0.5
		c-0.1,0-0.2,0-0.2,0.1c-0.1,0.1,0,0.2,0.1,0.2c0.2,0.1,0.5,0.2,0.7,0.3c0.1,0.1,0.2,0.1,0.3,0.2c-0.1,0-0.2-0.1-0.3-0.1
		c-0.3-0.1-0.6-0.3-0.9-0.4c-0.1-0.1-0.3-0.1-0.3-0.2s0.1-0.2,0.2-0.3c0.1-0.1,0.1-0.2,0.2-0.1c0.1,0.1,0.2,0.1,0.3,0.2
		c0.4,0.2,0.7,0.4,1.1,0.5c0.1,0,0.2,0,0.2-0.1c0.1-0.1,0-0.2-0.1-0.2c-0.5-0.1-1-0.4-1.4-0.6c0,0-0.1,0-0.1-0.1c0,0,0-0.1-0.1-0.1
		s-0.1,0-0.1,0c-0.1,0.3-0.3,0.5-0.5,0.9c-0.1,0.1-0.1,0.2-0.1,0.2c0.1,0,0.1,0,0.1,0c0.1-0.1,0.1,0,0.2,0c0.4,0.1,0.7,0.3,1.1,0.5
		h0.1c-0.2,0.1-0.3,0-0.5-0.1s-0.4-0.2-0.6-0.3c-0.1-0.1-0.2-0.1-0.2,0.1c-0.1-0.1-0.2-0.1-0.2-0.2c0,0,0-0.1,0-0.2
		c0.2-0.2,0.3-0.5,0.5-0.8c0-0.1,0-0.1,0.1-0.1s0.1-0.1,0.1-0.1c0.1-0.1,0.2-0.3,0.3-0.5s0.1-0.2-0.1-0.3c0.5-0.3,1.1-0.5,1.6-0.7
		c0,0.1,0.1,0.2,0.1,0.3c-0.2,0-0.4,0-0.5,0.1c-0.3,0.2-0.6,0.4-0.9,0.6c-0.1,0-0.2,0.1-0.1,0.2c0.1,0.1,0.1,0.1,0.2,0
		c0.3-0.3,0.6-0.4,0.9-0.6c0.1-0.1,0.2-0.1,0.3-0.1c-0.2,0.1-0.4,0.2-0.5,0.3c-0.2,0.1-0.4,0.2-0.6,0.4c-0.1,0-0.2,0.1-0.1,0.2
		s0.1,0.2,0.3,0.1c0.1-0.1,0.2-0.1,0.3-0.2c0.2-0.1,0.3-0.1,0.5,0c0.2,0.1,0.3,0.2,0.5,0.3c0.2,0.1,0.4,0.2,0.6,0.3
		C21.5,13.4,21.6,13.4,21.6,13.3z M20.2,12.4c0.1,0,0.2-0.1,0.4-0.2l0,0C20.5,12.3,20.3,12.4,20.2,12.4z M16.1,16.3
		C16,16.1,16,15.9,16,15.8v-0.1c0.2,0,0.4,0.1,0.7,0.2C16.6,16,16.5,16,16.4,16s-0.2,0-0.3,0.1C16.1,16.2,16.1,16.2,16.1,16.3
		L16.1,16.3L16.1,16.3l0.2,0c0.4-0.2,0.8-0.2,1.3-0.2c-0.1,0.1-0.1,0.1-0.2,0.1c-0.2,0.1-0.5,0.2-0.7,0.3c-0.2-0.1-0.3-0.2-0.5-0.2
		C16.2,16.3,16.2,16.4,16.1,16.3C16,16.2,16.1,16.2,16.1,16.3z M18,16.6c0-0.1-0.1-0.1-0.2-0.1c-0.2,0-0.3,0.1-0.5,0.1
		c-0.2,0-0.3-0.1-0.4-0.1c0.3-0.1,0.7-0.2,1-0.3c0.1,0,0.2-0.1,0.1-0.2v-0.1c0.1-0.4,0.3-0.8,0.5-1.1c0.1,0,0.1-0.1,0.1-0.2
		c0.1,0,0.2,0.1,0.1,0.2c-0.1,0.3-0.2,0.5-0.3,0.8c0,0.2-0.1,0.3-0.1,0.5c0,0.1,0,0.2,0.1,0.2c0.1,0.1,0.2,0,0.2-0.1
		c0.1-0.5,0.3-0.9,0.4-1.3c0.1-0.1,0.1-0.2,0.2-0.1c0,0,0,0,0,0.1c-0.3,0.6-0.4,1.1-0.7,1.6c-0.1,0.1-0.1,0.2,0,0.2
		c0.1,0,0.2,0,0.2-0.1c0.1-0.1,0.1-0.3,0.2-0.4c0.1-0.3,0.3-0.7,0.4-1.1c0-0.1,0.1-0.2,0.2-0.1s0.1,0.1,0.2,0.1s0.1,0,0.1-0.1
		c0.1,0,0-0.1,0-0.1c-0.1,0-0.2,0-0.3-0.1l0,0c0,0,0,0,0-0.1v0.1c0.1,0,0.2,0,0.2,0c0.1,0,0.2,0,0.2-0.1H20c0.1,0.1,0.2,0.1,0.2,0.2
		c0.1,0.2,0.1,0.4,0.2,0.6c0.1,0.2,0.1,0.4,0.2,0.6C20.5,16,20.5,16,20.5,16c-0.1-0.3-0.3-0.5-0.3-0.8c0,0,0-0.1-0.1-0.1
		c-0.1,0-0.1,0.1-0.1,0.2s0.1,0.2,0.1,0.3c0.1,0.4,0.2,0.7,0.4,1c0.1,0.2,0.2,0.3,0.2,0.6c0,0.4,0,0.7,0,1.1
		c-0.1-0.1-0.2-0.1-0.3-0.2c0-0.2,0-0.3,0-0.7v-0.1c0,0,0-0.1-0.1-0.1s-0.1,0-0.1,0.1s0,0.3,0,0.4s0,0.2,0,0.2s-0.1-0.1-0.2-0.1
		c0-0.2,0-0.3,0-0.5c0,0,0-0.1-0.2-0.1h-0.1c-0.1,0.1-0.3,0.1-0.4,0.1c-0.3-0.1-0.5-0.2-0.8-0.4c0-0.1-0.1-0.1-0.1-0.1
		c-0.1,0-0.2,0-0.2,0.1V17c0-0.1-0.1-0.1-0.2-0.1c0,0-0.1-0.1-0.2-0.1c0.1,0,0.1,0,0.1,0C18,16.7,18,16.7,18,16.6z M18.1,14.9v-0.1
		c0-0.1,0-0.2,0.1-0.2c0.1-0.3,0.2,0,0.3,0c-0.1,0-0.2,0.1-0.2,0.2c-0.2,0.4-0.4,0.8-0.5,1.2c0,0,0,0.1-0.1,0.1
		c-0.1,0-0.1-0.1,0.1-0.1C17.8,15.6,17.9,15.2,18.1,14.9z M15.6,15.3c0.1-0.1,0.1-0.1,0.2-0.1c0.5,0.3,1,0.5,1.5,0.7
		c-0.2,0-0.3,0-0.4-0.1c-0.1-0.1-0.3-0.1-0.4-0.2C16.3,15.5,15.9,15.5,15.6,15.3z M17.3,15.6c-0.1-0.1-0.1-0.1-0.2-0.1
		c-0.4-0.1-0.7-0.3-1.1-0.5c-0.1,0-0.2,0-0.1-0.1c0.1,0,0.1-0.2,0.2-0.1c0.1,0.1,0.2,0.2,0.3,0.2c0.3,0.2,0.6,0.4,0.9,0.5
		c0.1,0,0.1,0,0.1,0.1C17.3,15.6,17.3,15.6,17.3,15.6z M15.7,16.3c-0.1-0.1-0.1-0.1-0.2-0.1c0-0.3,0-0.5-0.1-0.7c0-0.1,0-0.1,0.2,0
		C15.7,15.8,15.7,16,15.7,16.3z M15.4,15.2c-0.1-0.1-0.1-0.2,0-0.3c0.2-0.3,0.5-0.6,0.8-0.8C16,14.5,15.7,14.9,15.4,15.2z
		 M16.2,14.5c0.1-0.3,0.1-0.3,0.4-0.1s0.6,0.3,0.9,0.5c0.1,0,0.1,0-0.1,0.1c0,0.1,0,0.2-0.1,0.3c0-0.1-0.1-0.1-0.1-0.1
		c-0.3-0.1-0.7-0.3-1-0.5C16.2,14.6,16.1,14.6,16.2,14.5z M16.7,13.9c0-0.1,0.1,0,0.1,0c0.3,0.2,0.6,0.4,0.9,0.6
		c0.1,0,0.1,0.1,0,0.2c-0.4-0.3-0.7-0.4-1-0.6C16.6,14,16.7,14,16.7,13.9z M17.6,14c0.1-0.2,0.2-0.4,0.4-0.6
		c-0.2,0.2-0.3,0.4-0.3,0.7C17.7,14.1,17.7,14.1,17.6,14C17.5,14,17.6,14,17.6,14z M21.5,17.8c0-0.2-0.1-0.4,0-0.4
		c0.1-0.1,0.3-0.1,0.5-0.1l0.1,0.1c0.4,0.4,0.7,0.7,1,1.1c0.1,0,0.1,0.1,0.2,0.1c0,0.7-0.1,1.2-0.1,1.7c-0.1-0.1-0.2-0.2-0.3-0.2
		c0-0.3,0.1-0.7,0.2-1c0.1-0.1,0-0.2-0.1-0.2l-0.1-0.1c-0.3-0.3-0.6-0.7-0.9-1c-0.1-0.1-0.1-0.2-0.2-0.1c-0.1,0-0.1,0.1,0,0.2
		c0.2,0.2,0.4,0.4,0.6,0.6c0.1,0.1,0.1,0.2,0.2,0.3c-0.3-0.3-0.6-0.5-0.9-0.8l-0.1-0.1C21.5,17.9,21.5,17.9,21.5,17.8z M22.2,18.8
		c0.1,0.1,0.1,0.2,0.1,0.4c-0.4-0.3-0.6-0.6-0.8-1C21.7,18.4,22,18.6,22.2,18.8z M22.5,19.2c0,0,0,0,0-0.1c0.1,0.1,0.2,0.1,0.3,0.2
		c0.1,0,0,0,0,0.1c-0.1,0.2-0.1,0.3-0.1,0.4c-0.1-0.1-0.1-0.1-0.2-0.2c0,0,0,0,0-0.1C22.6,19.4,22.6,19.3,22.5,19.2z M22.4,15.3
		c0-0.1,0-0.2,0.1-0.3c0.1,0.1,0.3,0.1,0.5,0.3C22.8,15.3,22.6,15.3,22.4,15.3z M23,13.5c0-0.2,0.1-0.3,0.1-0.5
		c0.1,0,0.2,0.1,0.2,0.1c0,0.2-0.1,0.3-0.1,0.5C23.1,13.6,23.1,13.5,23,13.5z M22.7,9.9c-0.1-0.1,0-0.4-0.1-0.6
		C22.7,9.5,22.7,9.7,22.7,9.9z M23.1,8.6c0.1,0.5,0.2,0.9,0.2,1.4c0,0,0.1,0.1,0,0.1s-0.2,0-0.2-0.1c0-0.3-0.2-0.7-0.2-1
		c-0.1-0.1,0-0.3-0.1-0.3V8.6c0-0.2,0.1-0.4,0.2-0.5c0.1,0.2,0.3,0.2,0.4,0.2c0.1,0.1,0.1,0.1,0.1,0.2c0.1,0.2,0.1,0.3,0.1,0.5
		c0.1,0.5,0.1,1,0.2,1.4c-0.1-0.1-0.1-0.1-0.2-0.1c-0.1,0-0.2,0-0.1-0.2c0,0,0-0.1,0-0.2c0-0.5-0.1-0.9-0.2-1.4c0,0-0.1-0.1-0.2-0.1
		C23,8.4,23,8.5,23.1,8.6z M23.3,7.9C23.4,8,23.5,8,23.6,8.1v0.1C23.4,8.1,23.2,8,23,7.9C23.1,7.8,23.1,7.8,23.3,7.9z M23.3,7.6
		c0.1-0.1,0.1,0,0.2,0c0,0.1,0,0.1,0,0.2C23.4,7.7,23.4,7.7,23.3,7.6C23.2,7.6,23.2,7.5,23.3,7.6z M23.5,3.4
		c-0.1-0.1-0.2-0.1-0.3-0.2c-0.1,0-0.2,0-0.2,0c-0.1,0-0.2-0.1-0.2,0c0-0.1-0.1-0.2-0.2-0.3c0.2,0,0.3-0.1,0.5,0
		c0.3,0.2,0.6,0.3,0.8,0.4c0,0,0,0.1-0.1,0.1l0,0C23.7,3.5,23.7,3.5,23.5,3.4z M23.8,10.9c-0.4-0.2-0.7-0.3-1-0.5
		c-0.1,0-0.1-0.1-0.1-0.2c0.4,0.2,0.8,0.3,1.1,0.4C23.8,10.7,23.8,10.8,23.8,10.9z M22.8,11.5c-0.1,0-0.2-0.1-0.3,0
		c-0.1-0.4-0.3-0.7-0.4-1.1c-0.1-0.1,0.1-0.3,0.2-0.3c0.1,0.1,0.1,0.1,0.1,0.1c0,0.1,0,0.1,0,0.1c-0.1,0.2-0.1,0.2,0,0.3
		c0.1,0,0.2,0,0.2,0.1c0,0,0,0.1-0.1,0.1c-0.1,0-0.1,0,0,0.2C22.8,11.1,22.8,11.3,22.8,11.5z M23.3,14.3c0-0.1,0-0.2,0-0.3
		c0.2,0.1,0.4,0.2,0.5,0.3c0,0.1,0.1,0.1,0.1,0.1H24c0,0,0,0.1-0.1,0.4h-0.1c-0.1,0.1-0.1,0-0.2,0c0.1,0.1,0.1,0.1,0,0.2
		c-0.1,0-0.1,0.1-0.1,0.1c0,0.1,0,0.1,0,0.1c-0.3-0.1-0.5-0.2-0.7-0.3c-0.3-0.2-0.3-0.2-0.2-0.4c0.1-0.2,0.1-0.2,0.3-0.1
		c0.2,0.1,0.4,0.2,0.6,0.3c-0.1-0.1-0.2-0.1-0.3-0.2C23.3,14.4,23.3,14.4,23.3,14.3z M24,16.7c-0.1,0.1-0.2,0.3-0.2,0.4
		c-0.2-0.2-0.2-0.3-0.1-0.5c0.1-0.2,0.2-0.4,0.3-0.6C24,16.3,24,16.5,24,16.7z M23.9,18.1c0-0.1-0.1-0.1-0.1-0.1
		c-0.1,0-0.1-0.1-0.2-0.2c-0.1-0.2-0.3-0.4-0.4-0.6c0.2-0.1,0.3-0.1,0.4,0.2c0.1,0.1,0.1,0.1,0.2,0.2s0.1,0.2,0.1,0.2
		C23.9,17.9,23.9,18,23.9,18.1z M9.8,15.6c0.1,0,0.2,0,0.3,0c0,0.1,0,0.1,0,0.2c-0.1,0.1-0.2,0.1-0.3,0C9.8,15.8,9.8,15.7,9.8,15.6z
		 M11.1,13.6c0.1,0.2,0.1,0.3,0.2,0.5c-0.2,0-0.3-0.2-0.4-0.2C11,13.8,11.1,13.7,11.1,13.6z M11.4,13.2c0.2,0.4,0.3,0.7,0.4,1
		s0.2,0.3,0.5,0.3c0.2,0,0.5,0,0.7,0h0.1c0.1,0,0.1,0,0.2,0c0.2-0.1,0.5,0,0.6,0.2c-0.2,0-0.3,0-0.5,0c-0.3,0-0.7-0.1-1,0h-0.1
		c-0.1,0-0.1,0-0.1,0c-0.4-0.1-0.6-0.4-0.7-0.8c-0.1-0.2-0.1-0.3-0.2-0.5C11.3,13.4,11.4,13.3,11.4,13.2z M12,13.1
		c0,0.4,0.2,0.8,0.3,1.1c0.1,0.1,0,0.1-0.1,0.1s-0.1-0.1-0.1-0.1c-0.2-0.4-0.4-0.8-0.5-1.2l0.1-0.1C11.8,12.9,11.9,13,12,13.1z
		 M12.2,12.9c0.2,0.4,0.3,0.8,0.4,1.2c0,0.1,0.1,0.2,0,0.2c-0.1,0.1-0.1,0-0.1-0.1c-0.2-0.3-0.3-0.6-0.4-1c0-0.1,0-0.1,0-0.2
		c0-0.1,0.1-0.1,0-0.2C12.2,12.8,12.2,12.9,12.2,12.9z M13.3,11c0.1,0,0.2,0,0.3,0.2c0,0.1,0,0.2-0.2,0.1c0,0-0.1,0-0.1,0.1
		c-0.2,0.4-0.4,0.9-0.5,1.4c0,0.1,0,0.2,0.1,0.2s0.1,0.1,0.1,0.1c-0.2,0-0.2,0-0.2,0.2c0,0.3,0.1,0.6,0.2,0.9c0,0,0.1,0.1,0,0.1
		s-0.1-0.1-0.1-0.1c-0.1-0.5-0.3-1-0.4-1.5c0,0,0-0.1-0.1-0.1c-0.2,0-0.1-0.1-0.1-0.2c0-0.1,0.1-0.3,0.1-0.4
		c0.1-0.1,0.1-0.2,0.2-0.3c0,0.1-0.1,0.2-0.1,0.3c-0.1,0.1-0.1,0.2-0.1,0.3c0,0.1,0,0.2,0.1,0.2c0.1,0.1,0.2,0,0.2-0.1
		c0-0.3,0.1-0.5,0.2-0.7c0.1-0.2,0.2-0.4,0.3-0.6L13.3,11z M13.9,10.7c0,0.2-0.1,0.2-0.1,0.2c-0.1-0.1-0.2-0.1-0.3-0.1
		c0.1-0.1,0.1-0.1,0.2-0.2C13.7,10.6,13.8,10.7,13.9,10.7z M15.1,10.2c-0.3,0.3-0.6,0.7-0.8,1c0,0.1,0,0.1-0.1,0.1
		c-0.2,0.1-0.4,0.1-0.6,0.1c0.2-0.2,0.3-0.4,0.4-0.6c0.2-0.2,0.4-0.5,0.5-0.7c0.2-0.1,0.3-0.3,0.4-0.5c0,0,0-0.1,0.1-0.1
		s0.1,0,0.1-0.1L15,9.3l-0.1-0.1C15,9.1,15,9.1,15,9.1c0.1,0,0.1,0,0.1,0.1c0,0,0,0.1,0,0.2c0,0.1,0.1,0.3-0.2,0.4
		c-0.1,0-0.2,0.2-0.3,0.3c-0.3,0.3-0.5,0.6-0.7,0.9c0,0.1,0,0.1,0,0.1c-0.1,0.1-0.1,0.1,0,0.2c0.1,0,0.2,0,0.2-0.1
		c0.3-0.3,0.5-0.6,0.7-0.9c0.1-0.2,0.2-0.3,0.4-0.4C15.3,10.1,15.3,10.2,15.1,10.2z M15.2,10.6c-0.1,0.4-0.3,0.7-0.4,0.9
		c-0.1,0-0.1,0.1,0,0.2c0.1,0,0,0.1,0,0.1c0,0.1-0.1,0.1,0,0.2c0.1,0,0.2,0,0.2-0.1c0.3-0.4,0.7-0.7,1-1.1c0-0.1,0.1-0.1,0.2-0.1
		c0.6,0.1,1.1,0.1,1.7,0.1H18c0,0.1-0.1,0.1-0.1,0.1c-0.4,0-0.9,0-1.4,0c-0.1,0-0.2,0-0.2,0.1c0,0,0,0.1,0.1,0.1
		c0.1,0.1,0,0.2,0.1,0.2c0.1,0.1,0.2,0.1,0.3,0.1c0.4,0.1,0.8,0.1,1.2,0.2c0-0.1-0.1-0.1-0.2-0.1c-0.2-0.1-0.4-0.1-0.6-0.1
		c0-0.1-0.1-0.1-0.1-0.1c0.2,0,0.3,0,0.4,0c0.2,0,0.4,0,0.5-0.1c0.2-0.1,0.4,0,0.5,0.1c-0.2,0.2-0.4,0.1-0.5,0.3
		c0.1,0,0.2,0,0.2-0.1c0.1,0.1,0.2,0,0.3,0c0.2-0.1,0.5-0.2,0.8-0.3c-0.2,0.2-0.5,0.3-0.7,0.4c0,0.1-0.1,0.1-0.1,0.1
		c-0.1,0.1-0.1,0.1-0.1,0.2s0.1,0,0.2,0c0.3-0.2,0.6-0.3,0.9-0.5c0.2-0.1,0.3-0.1,0.4-0.2c0,0,0.1,0,0.1-0.1c0.1-0.1,0-0.1-0.1-0.1
		H20c0.2-0.1,0.3,0,0.3,0.2c0,0.1-0.1,0.1-0.1,0.1c-0.5,0.2-1,0.5-1.5,0.7c-0.1,0-0.2,0-0.2,0.1c-0.1,0.1-0.1,0.1,0,0.2
		c0.1,0.1,0.1,0.1,0,0.2c-0.1-0.2-0.2-0.1-0.3,0c-0.3,0.5-0.7,0.9-1,1.4c0,0.1-0.1,0-0.1,0c-0.2-0.1-0.3-0.2-0.5-0.3c0,0,0,0-0.1,0
		c0.1,0.2,0,0.2-0.1,0.2c0.1,0,0-0.1,0-0.1c-0.1,0-0.1,0-0.2,0c-0.1,0.1-0.2,0.2-0.3,0.3c-0.2,0.3-0.5,0.6-0.7,0.9
		c-0.1,0.1-0.2,0.1,0,0.2c0.1,0,0.1,0,0.1,0.1c0,0.4,0.1,0.5,0.1,0.8c-0.2-0.1-0.3-0.1-0.4-0.1c0-0.2,0-0.2-0.1-0.5
		c0-0.1-0.1-0.1-0.1-0.2c-0.1,0-0.1,0-0.2,0c-0.1,0.1-0.1,0.1-0.1,0.2c0.1,0.2,0.2,0.3,0.2,0.5c-0.2-0.1-0.3-0.1-0.4-0.1
		c0,0-0.1-0.1-0.1-0.2c-0.1-0.1-0.1-0.1-0.2-0.1s-0.1,0.1-0.1,0.2v0.1c-0.2-0.2-0.2-0.3-0.5-0.2c-0.3,0-0.7,0-1.1,0
		c0-0.1-0.1-0.1-0.1-0.1c0.1,0,0.1,0,0.2,0c0.5,0,0.9-0.1,1.3,0c0,0.1,0.1,0,0.1,0c0.1-0.1,0-0.2,0-0.2c0-0.1-0.1-0.1-0.2-0.1
		c-0.4,0-0.8,0-1.2,0h-0.1c-0.1,0.1-0.2,0-0.3,0.1c-0.4-0.2-0.8-0.4-1.1-0.7c-0.1,0-0.1-0.1-0.2,0c-0.1,0.1-0.1,0.1,0,0.2
		c0,0.1,0,0.2,0.1,0.2c0.4,0.2,0.8,0.5,1.2,0.6c-0.2,0-0.3,0-0.5,0c-0.2-0.1-0.4-0.3-0.6-0.4c-0.1,0-0.1,0-0.2,0s-0.1,0.1-0.1,0.1
		l0.1,0.1c0.1,0.1,0.2,0.1,0.3,0.2c-0.2,0-0.4,0-0.6,0h-0.1l-0.1-0.1h0.1c0.1,0,0.1,0,0.1-0.1s0-0.1-0.1-0.1c-0.1,0-0.2,0-0.3,0
		c0-0.1,0.1-0.1,0.1-0.2c0,0,0.1,0,0.2,0s0.2,0,0.2-0.1s0-0.1-0.1-0.1h-0.1c0.1-0.2,0.3-0.5,0.5-0.8c0.1,0,0.1,0.1,0.4,0
		c0.1,0.1,0.3,0.2,0.4,0.3c0.1,0,0.2,0.1,0.2,0.2s0,0.1,0.1,0.1c0.2,0,0.3,0.1,0.4,0.2c0.2,0.1,0.3,0.1,0.4,0.1c0.4,0,0.8,0,1.2,0
		c0.2,0,0.3,0,0.5,0l0.1,0.1c0.1,0,0.2,0.1,0.3,0.1c0,0,0.1,0,0.1-0.1L14.8,15c-0.4-0.2-0.7-0.6-1.1-0.9c0-0.1-0.1-0.1-0.1-0.1
		c-0.2,0-0.2-0.1-0.2-0.2c-0.1,0-0.1-0.1-0.1-0.2c0.1,0.1,0.2,0.1,0.3,0.2c0.3,0.3,0.7,0.5,1.1,0.8c0.1,0.1,0.1,0.1,0.2,0
		c0-0.1,0-0.1-0.1-0.2c-0.2-0.2-0.5-0.3-0.7-0.5c-0.3-0.2-0.5-0.4-0.8-0.6c-0.2-0.1-0.2-0.3-0.3-0.4c0.3,0.1,0.6,0.2,0.8,0.4
		c0.3,0.2,0.6,0.5,0.9,0.7c0,0.1,0,0.1,0,0.1s0,0.1,0.1,0.1c0.1,0,0.2,0,0.2-0.1c0.2-0.4,0.5-0.7,0.7-1V13c0-0.1,0-0.1,0-0.2
		c-0.1,0-0.2-0.1-0.2-0.1s-0.1-0.1-0.2,0h-0.1c-0.3-0.1-0.5,0-0.8,0c-0.1,0-0.2,0-0.2,0.2c-0.1-0.1-0.3-0.2-0.5-0.2
		c0.3,0,0.6-0.1,0.8-0.1s0.4-0.1,0.6-0.1s0.3,0,0.4,0.1c0.1,0.1,0.2,0.1,0.2,0.2c0.1,0.1,0.3,0.3,0.4,0.4s0.2,0.2,0.3,0.1
		c0.1-0.1,0-0.1-0.1-0.2c-0.2-0.2-0.5-0.4-0.7-0.6l-0.1-0.1c0-0.2-0.2-0.2-0.3-0.3C15.1,12,15,12,15,12.1c-0.1,0.1-0.1,0.1-0.2,0.1
		c-0.4,0.1-0.8,0.2-1.2,0.2c-0.1,0-0.2,0-0.2,0.1s-0.1,0-0.1,0v-0.1c-0.1,0-0.1,0.1-0.1,0.1c-0.1,0.1,0,0.2,0.2,0.2
		c0.4,0.1,0.7,0.3,1,0.5c0.1,0.1,0.3,0.2,0.4,0.3c0.1,0.1,0.1,0.1,0,0.2c-0.1,0.1-0.2,0-0.2,0c-0.4-0.4-0.9-0.7-1.4-0.9
		c0,0-0.1,0-0.1-0.1c0.1-0.2,0.1-0.3,0.2-0.5c0-0.1,0-0.2,0.1-0.3c0,0.1-0.1,0.2-0.1,0.3l0,0c0.1,0,0.1,0,0.1,0
		c0.2-0.1,0.5-0.1,0.7-0.1c0.1,0,0.2,0,0.2,0s0.1,0,0.1-0.1s0-0.1-0.1-0.1c-0.2,0-0.4,0-0.6,0h-0.1c0,0-0.1,0.1-0.1,0
		c0-0.1,0-0.2,0.1-0.2c0.2,0,0.4-0.1,0.6,0c0.1,0.1,0.2,0,0.2-0.1C14.7,11.2,14.9,10.9,15.2,10.6c0.1,0,0.1-0.1,0.1-0.1
		C15.4,10.6,15.3,10.6,15.2,10.6z M14.8,13.4c-0.1-0.1-0.3-0.3-0.5-0.4c0.3-0.1,0.6-0.1,0.9-0.1C15.1,13,15,13.2,14.8,13.4
		L14.8,13.4z M15.5,13c0,0.1-0.2,0.3-0.3,0.4C15.3,13.3,15.4,13.1,15.5,13z M19.6,10.8c-0.1-0.1,0-0.1,0-0.1c0.1,0,0.2,0.1,0.3,0.2
		c-0.2,0-0.4,0.1-0.6,0.2c-0.1,0-0.2-0.1-0.3-0.2c0.1-0.1,0.2-0.2,0.4-0.1C19.4,10.8,19.5,10.9,19.6,10.8z M18.8,11.1
		c0,0.1-0.1,0.1-0.1,0c0-0.1-0.1-0.1-0.2-0.2c0.1-0.1,0.2-0.1,0.4,0.1C18.9,11.1,18.8,11.1,18.8,11.1z M15.6,8.5c0,0.1,0,0.1,0,0.2
		c0,0.3,0.1,0.7,0.1,1c0,0,0-0.1-0.1-0.1s-0.1,0-0.1-0.1c0-0.2,0-0.4,0-0.6V8.8c0,0-0.1-0.2-0.1-0.4c0.1-0.1,0.1-0.1,0.2-0.1
		C15.7,8.4,15.7,8.4,15.6,8.5z M15.7,10.1c-0.1-0.1-0.1-0.2,0-0.3C15.7,9.8,15.7,10,15.7,10.1z M17,7.4c0,0-0.1-0.1-0.2-0.2
		C16.9,7.3,16.9,7.3,17,7.4z M17.1,7.8c-0.1,0-0.1,0-0.1-0.1L17.1,7.8L17.1,7.8c0.2,0,0.1-0.1,0.1-0.2C17.2,7.7,17.4,7.7,17.1,7.8
		c0,0.2,0.1,0.3,0.2,0.3C17.8,8,18.3,8,18.8,8c0.1,0,0.3-0.1,0.4,0c0.1,0.1,0,0.3,0,0.4c0,0.1,0,0.2-0.1,0.2
		c-0.4,0.1-0.8,0.1-1.2,0.1c-0.1,0-0.2,0-0.3,0s-0.1,0-0.1,0.1s0,0.1,0.1,0.1s0.2,0,0.3,0C17.7,9,17.6,9,17.5,9c0,0.1,0,0.1,0,0.2
		h0.1c0.4-0.1,0.7-0.1,1.1-0.1c0,0,0.1,0,0.2,0c-0.1,0.1-0.1,0.2,0,0.3c0.2,0.2,0.5,0.4,0.7,0.6c0.2,0.2,0.4,0.3,0.8,0.5
		c0,0,0.1,0.1,0.2,0c0-0.1,0-0.1-0.1-0.2l-0.1-0.1c-0.1,0-0.1,0-0.1-0.1c0.2,0.3,0.5,0.2,0.8,0.1c-0.1,0.1-0.1,0.1-0.2,0.1
		c-0.2,0.1-0.3,0.1-0.3,0.2s0,0.2,0,0.3c0.1,0.4,0.3,0.9,0.4,1.3c0,0.1,0,0.1,0,0.2c-0.1,0.1-0.1,0.2,0,0.2c0,0,0.1,0.1,0.2,0
		c0-0.1,0.1-0.1,0.2-0.1c0.3,0,0.7,0,1,0c0,0.2-0.1,0.3-0.1,0.5c-0.3,0-0.6-0.1-1,0c-0.3,0-0.6-0.1-0.9-0.3c0.1-0.1,0.2-0.1,0.3-0.2
		c0.1-0.1,0.1-0.1,0.1-0.2s0-0.1,0-0.2c-0.1-0.4-0.2-0.8-0.3-1.1c0-0.1,0-0.2,0-0.3c-0.1-0.1-0.2,0-0.3-0.1c-0.5-0.4-1-0.8-1.5-1.2
		c-0.1-0.1-0.1-0.1-0.2,0c-0.1,0.1-0.1,0.1,0,0.2c0.2,0.3,0.5,0.5,0.8,0.8c0,0,0.1,0,0.1,0.1s-0.1,0.1-0.2,0
		c-0.4-0.3-0.8-0.5-1.2-0.8c-0.1,0-0.1-0.1-0.2-0.1c-0.1-0.1-0.2-0.1-0.2,0c0,0.1,0,0.2,0.1,0.2c0.4,0.2,0.8,0.5,1.2,0.7l0.1,0.1
		c-0.2,0.1-0.3,0.1-0.5,0c-0.2-0.1-0.5-0.3-0.5-0.4c-0.1-0.1-0.1-0.1-0.2,0c0,0.1,0,0.2,0.1,0.2c0.2,0.1,0.4,0.3,0.6,0.4
		c0,0,0.1,0,0.1,0.1c-0.2,0.2-0.3,0.1-0.5,0c-0.1-0.1-0.2-0.1-0.3-0.2c-0.1-0.1-0.2-0.1-0.1-0.2c0,0,0-0.1-0.1-0.1s-0.1-0.1-0.1-0.2
		c0-0.3,0-0.6,0-0.9c-0.1,0-0.1,0-0.1-0.1S17.5,9,17.5,9c0-0.1,0-0.1,0-0.2V8.7c0-0.1,0.1-0.2,0.2-0.2c0.4-0.1,0.8-0.1,1.2-0.1
		c0.1,0,0.1,0,0.2,0c0,0,0.1,0,0.1-0.1c-0.1-0.1-0.1-0.1-0.2-0.1c-0.4,0-0.7,0-1.1,0.1c-0.1,0-0.2,0-0.3,0s-0.2,0-0.2-0.1
		c-0.1-0.1-0.2-0.1-0.2,0s0,0.1,0,0.1c0,0.1,0,0.1,0.1,0.2c-0.2-0.1-0.1-0.1-0.1-0.2c-0.1-0.1-0.1-0.1-0.2-0.1
		c-0.1,0.1-0.1,0.1-0.1,0.2c0,0.1,0,0.1,0,0.2c0.1,0,0.1,0,0.2,0s0.1,0.1,0.1,0.1c0,0.5,0,1,0,1.5c0.1,0,0.2,0.1,0.3,0.2
		c-0.3,0-0.5,0-0.7,0h-0.1c-0.2-0.1-0.5-0.1-0.7-0.1c-0.1,0-0.1,0-0.2,0.1c-0.1,0.2-0.3,0.3-0.4,0.4c0.1-0.1,0.1-0.2,0.2-0.3
		c0,0,0.1-0.1,0.1-0.2c0.1,0,0.1,0,0.1,0c0.1,0,0.2,0,0.2-0.1c0,0,0-0.1,0-0.2c0-0.4-0.1-0.8-0.2-1.2V8.7c0.2-0.2,0.1-0.3,0-0.4
		c0.1-0.1,0.1-0.1,0.2-0.2c0,0,0.1,0,0.1-0.2c0.1,0.1,0.1,0.2,0.1,0.3c0,0.5,0,1.1,0,1.7c0,0.1,0,0.2-0.1,0.2c-0.1,0-0.1,0-0.1,0.1
		c0.1,0.1,0.1,0.1,0.2,0.1c0.1-0.1,0.3-0.1,0.5-0.1c0-0.6-0.1-1.1,0-1.7c0-0.2-0.1-0.3-0.2-0.4L16.4,8c0.1-0.1,0.2-0.2,0.3-0.3
		c0,0.1,0.1,0.2,0.3,0.3C17.1,7.9,17.1,7.9,17.1,7.8z M18,6.6c-0.1,0.2-0.1,0.3-0.1,0.5c0,0.1-0.1,0.1-0.2,0.1s-0.2,0-0.3,0
		s-0.1,0.1-0.1,0.1v0.1c0,0.1,0.1,0.1,0.1,0.2c0.1,0,0.1,0,0.1,0c0.6,0,1.1,0,1.6,0c0.1,0,0.1,0,0.1,0s0.1,0.1,0,0.1h-0.1
		c-0.5,0-1,0-1.5,0c0,0-0.1,0.1-0.1,0c-0.1,0-0.1-0.1-0.1-0.1c-0.1,0-0.1-0.1-0.1-0.2c0-0.1-0.1-0.2-0.2-0.3
		c0.1-0.2,0.3-0.4,0.4-0.5c0,0.1,0,0.2,0,0.3c0,0,0,0.1,0.1,0.1c0,0,0.1,0,0.1-0.1s0-0.1,0-0.2s0-0.3,0-0.4c0.1-0.1,0.2-0.2,0.3-0.1
		C18,6.3,18,6.5,18,6.6z M19.1,6.8c0,0.3-0.3,0.2-0.4,0.2c0.2-0.2,0.1-0.3,0.2-0.4c0.1,0,0.2,0.1,0.3,0.1
		C19.1,6.8,19.1,6.8,19.1,6.8z M18.6,7c-0.4,0-0.4,0-0.4-0.4c0-0.3,0-0.6,0.1-0.9c0,0.3,0,0.5,0,0.8c0,0.2,0,0.3,0.2,0.3
		C18.6,6.8,18.6,6.9,18.6,7z M18.8,5.2c-0.1,0.4-0.1,0.9-0.2,1.3c0-0.3,0-0.7,0-1.1C18.6,5.3,18.7,5.3,18.8,5.2z M19.9,4.3
		c-0.1,0.1-0.1,0-0.1-0.1C19.9,4.2,20,4.2,19.9,4.3z M20.1,3.8C20.1,3.9,20.1,3.9,20.1,3.8L20.1,3.8z M20.2,4.8
		c0.3,0.1,0.6,0.3,0.8,0.5c0.1,0,0.1,0.1,0.2,0c0-0.1,0-0.1-0.1-0.2L21,5c-0.1-0.1-0.3-0.2-0.5-0.2V4.7h0.1c0.1,0,0.1,0,0.1,0
		s0.1,0.1,0.2,0s0-0.2-0.1-0.3c-0.1,0-0.1,0-0.1,0s0,0,0-0.1c0.1-0.1,0.1-0.1,0.4,0c0.2,0.3,0.3,0.7,0.6,1h-0.1
		c-0.1,0-0.1,0-0.1,0.1s0,0.1,0.1,0.1c0.3-0.1,0.7-0.1,1-0.1c0.1,0,0.2,0,0.2-0.1s-0.1-0.1-0.2-0.1c-0.2,0-0.4,0-0.6,0
		c-0.1,0-0.3-0.2-0.3-0.2c0-0.1,0.1-0.1,0.2-0.1c0.2,0,0.5,0,0.7,0c0.1,0,0.2,0,0.3,0C23,4.8,23,4.8,23,4.7s-0.1-0.1-0.1-0.1
		c-0.2,0-0.3,0-0.5,0c-0.1,0-0.2,0-0.2-0.1c-0.1-0.2-0.3-0.5-0.4-0.8c-0.1-0.1-0.1-0.2-0.1-0.3c-0.1-0.1-0.1-0.1-0.2-0.1
		c-0.1,0.1-0.1,0.1-0.1,0.2c0,0,0.1,0.1,0.1,0.2c0.2,0.3,0.3,0.5,0.4,0.8C22,4.6,22,4.6,21.8,4.7c-0.1,0-0.3-0.1-0.3-0.3
		c0,0-0.1-0.1-0.1-0.2c-0.1-0.2-0.3-0.3-0.3-0.5c0.1-0.2,0.2-0.3,0.3-0.5c0-0.1,0-0.1,0-0.1c0.1,0,0.1,0,0.1,0c0.1,0.1,0.2,0,0.3,0
		s0.1,0,0.2,0.1c0.2,0.4,0.4,0.8,0.6,1.1c0,0.1,0.1,0.2,0.1,0.2s0,0,0.1,0c0,0,0,0,0-0.1V4.3c-0.2-0.4-0.4-0.8-0.6-1.2
		c0,0-0.1-0.1,0-0.1c0,0,0.1-0.1,0.2,0c0.2,0.3,0.4,0.6,0.5,0.9C23,4.1,23,4.3,23.2,4.4v0.1c0,0,0,0.1,0,0.2C23,4.8,23,4.9,23.2,5
		c0,0.1,0,0.2,0,0.3h-0.1c-0.1,0-0.2,0-0.2,0.1s0,0.2,0.1,0.2c0.2,0.1,0.3,0.1,0.3,0.1c0,0.1,0,0.2,0,0.3c-0.1-0.1-0.2-0.2-0.3-0.3
		c-0.1-0.1-0.2-0.1-0.2,0c-0.1,0.1-0.1,0.2,0,0.2C22.9,6,23,6.1,23.1,6.1c0.1,0.1,0.1,0.1,0.2,0.2s0.1,0.3,0.1,0.4
		c-0.1-0.1-0.2-0.1-0.2-0.2c-0.1-0.1-0.2,0-0.2,0.1s0,0.1,0.1,0.2c0.1,0.1,0.2,0.1,0.3,0.2c0,0.1,0,0.2,0,0.3
		C23.2,7.2,23,7.1,22.7,7c-0.1,0-0.1-0.1-0.2-0.1c0.1-0.1,0.2-0.1,0.2-0.2s-0.1-0.1-0.2-0.1c-0.2,0-0.5,0-0.7,0
		c-0.4,0-0.4,0-0.4,0.5c0.1,0.2,0.1,0.4-0.1,0.6c-0.1,0,0,0.2,0.1,0.2s0.1,0,0.1,0.1s0,0.2,0,0.3c-0.1,0.1-0.2,0.1-0.3,0.1V8.3
		c0-0.4,0-0.7,0-1.1c0-0.1,0-0.1,0-0.2s0-0.1-0.1-0.1C21,7,21,7,21,7.1v0.1c0,0.5,0,1.1-0.1,1.6c0,0.1,0,0.2-0.1,0.2
		c0,0.1-0.1,0.1,0,0.2s0.1,0,0.2,0c0.2-0.1,0.4-0.1,0.6-0.1c0.3-0.1,0.6,0,0.8-0.1c0,0.1,0,0.2-0.2,0.3c-0.3,0-0.7,0.1-1,0.2
		c-0.3,0.1-0.4,0-0.6-0.1c0-0.1-0.1-0.2-0.1-0.3c-0.1,0-0.2-0.1-0.1-0.2c0,0,0-0.1,0-0.2c0-0.4,0-0.8,0-1.2
		c-0.1-0.1-0.1-0.3-0.1-0.4c0-0.2-0.1-0.3-0.2-0.3c-0.3-0.1-0.7-0.2-1.1-0.4c-0.1,0-0.2-0.1-0.1-0.2c0.1,0,0.1,0,0.1,0.1
		c0.3,0.1,0.6,0.2,0.9,0.3c0.1,0.1,0.2,0.1,0.2,0s0-0.2-0.1-0.2h-0.1c-0.3-0.1-0.5-0.2-0.7-0.4c-0.3-0.1-0.3-0.1-0.2-0.4
		c0.3,0.1,0.5,0.3,0.8,0.5c0.2,0.1,0.4,0.2,0.5,0.2c0.1,0.1,0.2,0.1,0.2,0c0.1-0.1,0-0.1,0-0.2c-0.4-0.2-0.8-0.4-1.2-0.6
		c-0.1,0-0.3,0-0.3-0.1c0-0.2,0-0.3,0.2-0.3c0.5,0.3,1.1,0.5,1.6,0.9c0.1,0.1,0.2,0.1,0.3,0.1c0.3,0,0.7,0,1.1,0c0.1,0,0.1,0,0.2,0
		C22.5,6,22.5,6,22.5,5.9c-0.1-0.1-0.1-0.1-0.2-0.1c-0.2,0-0.4,0-0.6,0c-0.3,0-0.5,0-0.7-0.2c-0.4-0.2-0.7-0.4-1-0.7
		c-0.2-0.1-0.4-0.2-0.6-0.3c0.1-0.1,0.1-0.1,0.2-0.2C19.8,4.5,20,4.6,20.2,4.8z M24.2,2.6c0.1,0,0.1,0,0.2,0.1
		c-0.1,0.1-0.2,0.2-0.3,0.3H24c-0.3-0.1-0.5-0.2-0.8-0.3c-0.1-0.1-0.2-0.1-0.4-0.1c-0.4,0.1-0.8,0.2-1.2,0.3h-0.1
		c-0.1,0-0.2,0.1-0.3,0.1c-0.2,0.4-0.4,0.8-0.7,1.2c0,0,0,0.1-0.1,0c-0.1,0-0.1-0.1-0.1-0.2c0.2-0.3,0.4-0.6,0.6-0.9
		C21,3,21.1,2.9,21.2,3c0.1-0.1,0.1-0.2,0.3-0.1c0.4-0.2,0.7-0.3,1.1-0.4c0-0.1,0.1-0.1,0.1-0.2s-0.1-0.1-0.2-0.1
		c-0.2,0-0.4,0.1-0.6,0.2c-0.2,0-0.3,0.1-0.4,0.1c0.3-0.3,0.6-0.5,0.7-0.6c0.3-0.2,0.6-0.4,0.9-0.1c0.2,0.2,0.5,0.4,0.7,0.6
		c-0.2-0.1-0.5-0.2-0.7-0.4c-0.1,0-0.2-0.1-0.3,0.1c0,0.1,0.1,0.1,0.2,0.2C23.3,2.4,23.7,2.6,24.2,2.6L24.2,2.6z M25.1,3.4
		c0.1,0.2,0.1,0.3,0.2,0.5c-0.2-0.2-0.4-0.4-0.7-0.5c0.1-0.1,0.2-0.2,0.2-0.3C24.9,3.2,25,3.3,25.1,3.4z M24.4,4.5
		c0.1-0.1,0.3-0.3,0.4-0.3c0-0.1,0.1-0.1,0.1-0.2C25,4,25,3.9,25,3.9l0,0c0.1,0.1,0.3,0.2,0.4,0.2c0,0.1,0,0.2-0.1,0.3l-0.1,0.1
		c-0.1,0.1-0.1,0.1-0.1,0.1c-0.1,0-0.2,0-0.3,0c0.1-0.1,0.2-0.2,0.4-0.3c0-0.1,0-0.2,0-0.2C25.1,4,25,4,25,4.1
		c-0.2,0.2-0.3,0.3-0.5,0.5C24.5,4.5,24.4,4.5,24.4,4.5z M24.2,4.3L24.2,4.3c0-0.3,0.2-0.5,0.3-0.7c0.1,0,0.2,0.1,0.2,0.2
		c0-0.1,0,0,0,0C24.6,4,24.4,4.2,24.2,4.3z M23.9,11.6c-0.1,0-0.1-0.1-0.1-0.1l-0.1-0.1c-0.2-0.2-0.4-0.3-0.6-0.4
		c-0.1-0.1-0.2-0.2-0.2-0.3c0.3,0.2,0.6,0.3,0.9,0.5C23.9,11.4,23.9,11.5,23.9,11.6z M24.2,13.4c-0.2-0.1-0.3-0.2-0.4-0.4
		c-0.1,0-0.1-0.1-0.2-0.1v-0.1v-0.1c-0.1,0-0.1,0-0.1,0.1c-0.1,0-0.2,0-0.2,0c0.1-0.1,0.1-0.1,0.1-0.2c0,0,0.1,0.1,0.2,0.1
		c0-0.1,0-0.1,0-0.1c0.1,0,0.1,0,0.1,0c0.2-0.2,0.3-0.3,0.5-0.5c0,0.1,0,0.2,0,0.3c-0.1,0.1-0.1,0.1-0.2,0.2v0.1
		c0,0.1,0,0.1,0.1,0.1l0.1-0.1c0,0.1,0,0.2,0,0.3c-0.1,0.1-0.1,0.1,0,0.2C24.2,13.3,24.2,13.3,24.2,13.4z M22.2,27.3
		c-0.1,0.1-0.3,0.1-0.4,0.1c-0.5,0.1-0.9,0.3-1.1,0.8c-0.3,0.7-1,1.7-1.8,2c-1,0.4-2.2,0.3-3.2-0.2c-0.6-0.3-1.2-0.7-1.6-1.2
		c-0.4-0.4-0.8-0.4-1.3-0.3c-0.8,0.1-1.8,0.2-2.5,0c-2.1-0.4-3.5-2.6-2.8-5c0.2-0.4,0.4-0.8,0.6-1.3c-1.2-0.7-1.5-1.6-1.2-2.9
		c0.2-0.8,0.7-1.5,1.7-1.8c-0.5,2.3-0.6,6.8,4.9,9.1c5.4,2.3,8.9-1,10.3-3.4c0.1,0,0.4,1.1,0.4,1.4C24.2,25.9,23.5,26.8,22.2,27.3z
		 M23.7,30.6c-0.1,0-0.1,0-0.1-0.2C23.7,30.4,23.7,30.5,23.7,30.6z M23.9,31c-0.1,0-0.1,0-0.2,0.1c-0.1,0.1-0.1,0-0.1,0
		c0-0.1,0-0.1,0-0.1c0.1-0.1,0.1-0.1,0.2-0.2C23.9,30.8,23.9,30.9,23.9,31z M24.1,31.5c-0.1-0.1-0.2-0.2-0.3-0.3h0.1
		c0.1,0,0.1,0.1,0.2,0.1C24.1,31.4,24.1,31.4,24.1,31.5z M23.2,32.2c0.3-0.1,0.7-0.2,1-0.3c0.5,1,0,1.9-0.7,1.9
		C23.5,33.4,23.3,32.8,23.2,32.2z M23,31.4c0.2,0.2,0.3,0.3,0.5,0.5c-0.1,0-0.1,0-0.2,0C23.1,31.9,23.1,31.7,23,31.4z M22.7,29.1
		c0,0.1,0,0.1,0,0.1c0.1,0.4,0.2,0.8,0.3,1.2c0,0.1,0.1,0.2,0.1,0.2h0.1c0.1,0,0.1-0.1,0.1-0.2v-0.1c-0.2-0.4-0.3-0.8-0.3-1.2
		c0,0.1,0.1,0.3,0.2,0.4c0.1,0.3,0.1,0.5,0.2,0.8c0,0.1,0,0.3,0.1,0.4c-0.1,0.1-0.2,0.1-0.2,0.1c0.1,0,0.1,0,0.1,0.1
		c0.1,0.2,0.2,0.3,0.3,0.4v0.1c-0.1,0.1-0.1,0-0.1,0c-0.1-0.1-0.3-0.3-0.4-0.4c-0.1-0.1-0.2-0.2-0.1-0.3v-0.1c-0.1,0-0.1,0-0.1-0.1
		s0-0.1,0-0.1c-0.2-0.3-0.2-0.7-0.3-1C22.6,29.3,22.6,29.2,22.7,29.1z M22,34.7c0.2-0.3,0.4-0.6,0.6-1C22.5,34.2,22.3,34.6,22,34.7z
		 M19.4,33.6c-0.1,0-0.1-0.1-0.2-0.1c-0.1,0-0.2,0-0.2,0.1s0,0.1,0.1,0.2c0.1,0,0.1,0,0.1,0.1h0.1c0.5,0.3,0.9,0.7,1.3,1.2
		c-0.2,0-0.4,0-0.6,0c-0.2-0.2-0.4-0.4-0.5-0.6c-0.1-0.1-0.1-0.1-0.2-0.1c0.1,0,0.1-0.1,0.1-0.1c0-0.1,0-0.2,0-0.2
		c-0.1,0-0.2,0-0.2,0c0,0.1-0.1,0.1,0,0.1c-0.1,0.2-0.3,0.3-0.4,0.5c-0.1,0.1-0.2,0.2-0.3,0.3c-0.2,0-0.3,0-0.4,0
		c0.3-0.3,0.6-0.8,1-1c0.1,0,0.1,0,0.1-0.1l-0.1-0.1H19c-0.2,0.1-0.3,0.2-0.4,0.3c-0.3,0.4-0.6,0.7-0.9,1c-0.1,0-0.3,0-0.2-0.2
		c0-0.1,0-0.3,0-0.4c-0.1-0.1-0.1-0.1,0-0.2v-0.1c-0.1-0.2,0-0.2,0.1-0.3c0,0,0.1-0.1,0.1,0c0,0.1,0.1,0.1,0,0.2
		c-0.1,0-0.1,0.1-0.2,0.2c0,0.1,0,0.1,0,0.2c0.1,0,0.1,0,0.2-0.1c0.1-0.2,0.3-0.3,0.5-0.4c0.2-0.1,0.3-0.2,0.5-0.3
		c0.1,0,0.2-0.1,0.1-0.2c0-0.1-0.1-0.1-0.2,0c-0.1,0-0.1,0.1-0.2,0.1v-0.1c-0.2-0.2,0-0.2,0.1-0.3c0-0.1,0.1-0.1,0.1,0
		c0,0,0,0.1,0.1,0.1s0.1,0.1,0.2,0c0.1-0.1,0-0.1,0-0.2C18.8,33,18.8,33,18.8,33c-0.1,0-0.1-0.1,0-0.2c0,0,0,0,0-0.1
		c-0.1,0-0.1,0-0.2,0c-0.1,0.1-0.1,0.1-0.2,0c0-0.1-0.1-0.1-0.1-0.2c0-0.1-0.1-0.1-0.1-0.2c0.1-0.1,0.2-0.1,0.3-0.1s0.1,0,0.1,0
		c0.2,0.3,0.5,0.6,0.7,0.9l0.1,0.1c0.1,0,0.2,0.1,0.3,0.1c0,0.1,0.1,0.1,0.1,0.1c0.4,0.2,0.7,0.5,1.1,0.8c0,0.1,0.1,0.1,0.1,0.1
		c0.1,0,0.1,0.1,0.2,0v-0.1c0,0,0,0,0.1-0.1c0.2-0.2,0.4-0.4,0.4-0.6c0-0.1,0.1-0.1,0.1-0.1c0.2,0,0.3,0,0.4,0l-0.1,0.1
		c-0.2,0.3-0.4,0.6-0.6,1c-0.1,0-0.1,0.1-0.1,0.2c0,0,0,0.1,0.1,0.1c0,0,0.1,0,0.1-0.1c0.1-0.4,0.3-0.8,0.6-1.1
		c0-0.1,0.1-0.1,0.1-0.2s0.1-0.1,0.2-0.1h0.1c0,0.1,0,0.1,0,0.2c-0.1-0.1-0.1,0.1-0.2,0.2c-0.3,0.4-0.5,0.8-0.7,1.2h-0.1
		C21.4,35,21.1,35,20.9,35C20.4,34.4,20,34,19.4,33.6z M19.2,34.5c0,0.2,0.1,0.3,0.2,0.4c0.1,0.1,0.1,0.1,0.2,0.2
		c-0.2,0-0.4,0-0.6,0h-0.1c0-0.1-0.1,0-0.1,0s0,0-0.2,0.1C18.8,35,19,34.7,19.2,34.5z M14.5,35.7c1.9,0.1,3.9,0.2,6.1,0.2
		c-0.1,0.7-0.1,1.3-0.2,1.7s-0.5,0.5-0.8,0.5c-1.4,0.1-2.6,0.2-4.1,0c-0.9-0.1-0.9-0.4-1-1C14.4,36.6,14.4,36.4,14.5,35.7z
		 M13.6,34.9c-0.1-0.1-0.2-0.1-0.2,0c-0.2,0-0.4,0-0.7,0.1c0.1-0.3,0.1-0.6,0.1-0.9c0-0.2,0.1-0.4,0.2-0.6c0.1-0.4,0.3-0.8,0.5-1.2
		c0.3,0.3,0.6,0.5,0.9,0.8c0,0.1,0,0.1,0,0.1c-0.1,0.2,0.1,0.2,0.2,0.2c0.1,0.1,0.2,0.1,0.2,0.2c-0.1-0.1-0.1-0.1-0.2-0.1
		c-0.1-0.1-0.2-0.1-0.3-0.1c0,0-0.1,0-0.1,0.1c0,0,0,0.1,0.1,0.1c0.4,0.1,0.7,0.3,1.1,0.4c0.1,0,0.3,0,0.3,0.1c0,0,0,0.1,0,0.2h-0.1
		c-0.4-0.2-0.9-0.3-1.2-0.3c-0.1-0.1-0.1-0.1-0.2-0.1c-0.1,0-0.2,0-0.2,0.1c0,0,0,0.1,0.1,0.1c0.5,0.1,0.9,0.3,1.4,0.5
		c0.1,0,0.2,0,0.2-0.1c0,0.2,0,0.4,0,0.6c-0.2,0-0.3,0-0.4,0c-0.2-0.1-0.4-0.3-0.6-0.4c-0.3-0.2-0.6-0.4-1-0.5
		c0.1-0.3,0.3-0.6,0.5-0.9c0-0.1,0-0.1,0-0.2c-0.1,0-0.1-0.1-0.2,0c0,0-0.1,0-0.1,0.1c-0.1,0.2-0.2,0.4-0.3,0.6
		c0.1-0.3,0.3-0.6,0.4-0.9c0-0.1,0-0.2-0.1-0.2c-0.1,0-0.2,0-0.2,0.1c0,0.2-0.1,0.3-0.2,0.4c0.1-0.2,0.1-0.3,0.2-0.5
		c0.1-0.1,0.1-0.2,0-0.2c-0.1-0.1-0.2,0-0.2,0.1c-0.2,0.4-0.3,0.9-0.4,1.3c-0.1,0.2,0.2,0.2,0.2,0.3c0,0,0,0,0.1,0
		c0,0.1-0.1,0.1-0.1,0.2c-0.1,0.1-0.1,0.2,0,0.2c0.1,0,0.2,0,0.2-0.1c0,0,0.1-0.1,0.1-0.2c0,0.1,0.1,0.2,0.2,0.2
		c0.4,0.2,0.8,0.4,1.1,0.6C14.6,35,14.3,35,14,35C13.9,35,13.7,34.9,13.6,34.9z M7.6,35.4c1.8,0,4.2,0.2,5.9,0.3c0,0.6,0,1,0,1.5
		c0,0.6-0.1,0.7-0.8,0.8c-0.9,0.1-2.7,0.1-3.7,0.1c-0.8-0.1-1.2-0.3-1.3-0.7C7.6,36.9,7.5,36.1,7.6,35.4z M7.9,34.5
		c0.2-0.2,0.2-0.2,0.3,0C8.1,34.5,8,34.5,7.9,34.5z M6.7,34.7c0.1-0.4,0.1-0.7,0.2-0.9v-0.1c0.1,0.1,0.1,0.1,0.3,0
		c0.4-0.2,0.7-0.3,1.1-0.5c0-0.1,0.1-0.1,0.2-0.1c0-0.1,0.1-0.1,0.1-0.2s0-0.1,0-0.1s0,0-0.1-0.1v-0.1c-0.1-0.5-0.1-0.9-0.2-1.4
		c0.1,0,0.2,0.1,0.4,0.2c-0.2,0.1-0.1,0.2-0.1,0.3c0,0.2,0.1,0.5,0.1,0.7c0,0.1,0,0.1,0,0.2v0.1c0.1,0.1,0.1,0.2,0.2,0.2
		c0-0.1,0.1-0.1,0.1-0.2v-0.1c0.1,0,0,0.1,0,0.1c0,0.1,0,0.2-0.1,0.2c-0.1,0.1-0.1,0.3-0.2,0.4c0,0-0.1,0.1,0,0.2
		c0.1,0.1,0.2,0,0.2-0.1c0,0,0,0.1,0.1,0.1c0,0,0.1,0,0.1-0.1c0.2-0.3,0.3-0.6,0.5-0.9c0.1-0.1,0.1-0.2,0.2-0.2s0,0.1,0,0.1
		c-0.1,0.3-0.3,0.5-0.4,0.7c-0.1,0.1-0.1,0.1-0.1,0.2c0,0,0,0.1,0.1,0.1s0.2,0,0.2-0.1c0.1-0.3,0.3-0.5,0.5-0.8
		c0-0.1,0.1-0.1,0.1-0.2c0.1-0.1,0.1-0.1,0-0.2c0.2,0,0.4,0,0.5,0c0,0,0.1,0,0.1,0.1s-0.1,0.1-0.1,0.1c-0.1,0.1-0.1,0.1-0.1,0.2
		c0,0.2,0,0.3,0.1,0.5c0.1,0.2,0.2,0.5,0.3,0.8c0,0.1,0,0.1,0,0.2c-0.2-0.4-0.4-0.9-0.5-1.4v-0.1c0-0.1,0-0.1-0.1-0.1
		s-0.1,0-0.1,0.1c0,0.2,0,0.2-0.1,0.3c-0.2,0.3-0.4,0.6-0.5,0.9c-0.1,0.1-0.1,0.1-0.2,0.1c-0.1-0.1-0.2-0.1-0.3-0.1S9,33.7,9,33.8
		c0,0,0,0.1,0.1,0.1c0.4,0.1,0.9,0.2,1.3,0.3c0.1,0,0.2,0,0.2-0.1c0-0.1,0-0.2-0.1-0.2c-0.2,0-0.3-0.1-0.5-0.1
		c-0.1,0-0.2-0.1-0.1-0.2c0.1-0.3,0.2-0.5,0.4-0.8c0,0.1,0.1,0.3,0.1,0.4c0.1,0.2,0.1,0.4,0.2,0.6c0,0.1,0.1,0.1,0.2,0.1
		c-0.1,0.3-0.2,0.5-0.3,0.7c0,0.1,0,0.1,0,0.1c-0.3-0.1-0.7-0.1-1.1-0.1c-0.1,0-0.3,0-0.4,0c0-0.1-0.1-0.1-0.1-0.1
		c0-0.1-0.1-0.1-0.1,0c-0.1,0-0.3,0-0.4,0c0,0-0.1-0.1-0.1-0.2c0-0.1,0-0.2,0.1-0.2c0.2,0,0.3-0.1,0.4-0.2c0.1,0,0.2-0.1,0.1-0.2
		c0-0.1-0.1,0-0.2,0c-0.4,0.2-0.8,0.5-1.1,0.8C7.3,34.5,7,34.4,6.7,34.7z M6,34.4c0.1-0.3,0.1-0.5,0.2-0.8c0-0.2,0.1-0.3,0.1-0.5
		s0.1-0.2,0.2-0.2c0.3,0,0.3,0,0.2,0.3c0,0.4-0.1,0.7-0.2,1.1c0,0,0,0.1-0.1,0.1S6.1,34.4,6,34.4z M5.6,34.5c0-0.2,0.1-0.3,0.1-0.4
		c0-0.3,0.1-0.6,0.2-0.9C6,33.1,6,33,5.9,32.9c-0.1-0.1-0.1-0.3-0.2-0.4c-0.1-0.2-0.2-0.5-0.3-0.7c0-0.2,0.1-0.4,0.1-0.6
		c0.2,0,0.4,0.1,0.6,0.1c0,0.1-0.1,0.1,0,0.2c0.1,0,0.1,0,0.2,0c0.4-0.1,0.7-0.2,1.1-0.2c0.1,0,0.1-0.1,0.2-0.2c0,0.1,0,0.1,0,0.2
		c0,0.1,0,0.2,0,0.3c0,0.2,0,0.3,0,0.5c0,0.1,0,0.1-0.1,0.1c-0.3,0-0.7,0-1,0c-0.1,0-0.2,0-0.2,0.1s0.1,0.1,0.2,0.1
		c0.2,0,0.3,0,0.5,0c0,0,0,0.2-0.1,0.2c-0.2,0.1-0.4,0-0.5,0s-0.1,0-0.1-0.1C6.2,32.2,6.1,32,6,31.7c0-0.1-0.1-0.2-0.1-0.3
		s-0.1-0.1-0.2-0.1s0,0.1,0,0.2c0,0.3,0.2,0.6,0.3,0.9c0,0.1,0.1,0.1,0,0.2c-0.1,0,0,0.1,0,0.1c0.2,0.1,0.1,0.2,0.1,0.3
		c-0.1,0.5-0.2,0.9-0.3,1.6C5.8,34.5,5.7,34.5,5.6,34.5z M5.5,32.6c0,0.1,0.1,0.1,0.1,0.1c0.1,0,0.1,0.1,0.1,0.2
		c-0.1,0.3-0.1,0.5-0.2,0.7c0,0.1-0.1,0.3-0.1,0.5C5.3,34,5.2,34,5.2,33.9c0.1-0.3,0.2-0.6,0.3-0.9c0,0,0-0.1-0.1-0.1
		s-0.2,0-0.2,0.1c-0.1,0.2-0.1,0.4-0.2,0.6c-0.1-0.2,0-0.4,0-0.6c0.1-0.1,0.1-0.2,0.1-0.3c0.1,0,0.1,0,0.2,0c0-0.1,0-0.1,0-0.2
		s-0.1-0.2-0.1-0.3c0.1,0,0.1-0.1,0.1-0.2C5.3,32.2,5.4,32.4,5.5,32.6z M3.6,25.3c0.4,0,0.4,0,0.5,0.1c0.6-0.4,1.1-0.6,1.7-0.8
		C6,24.5,6,24.5,6,24.7c-0.1,0-0.2,0.1-0.3,0.1c-0.3,0.2-0.6,0.4-1,0.5c-0.1,0-0.1,0-0.2,0s-0.2,0-0.2,0.1v0.1
		c0,0.1,0.1,0.1,0.1,0.1c0.1,0,0.1-0.1,0.1,0s0,0.1,0,0.1c0.1,0,0.1,0,0.1,0C4.8,25.8,4.9,25.9,5,26c0.2,0.2,0.4,0.3,0.6,0.5
		c0.1,0.1,0.2,0.1,0.2,0c0.1-0.1,0.1-0.1,0-0.2c-0.1-0.1-0.2-0.2-0.3-0.3c-0.2-0.1-0.4-0.3-0.6-0.5c0.1-0.1,0.2-0.1,0.4,0.1
		s0.4,0.3,0.6,0.5C6,26.2,6,26.2,6.1,26.2c0.1-0.1,0.1-0.1,0.1-0.1c-0.1,0.2-0.1,0.4-0.2,0.6c0,0,0,0-0.1,0s-0.1,0-0.2,0.1
		c-0.1,0.1-0.2,0.2-0.3,0.3L5.3,27c0,0,0,0-0.1-0.1s-0.1-0.1-0.1-0.1c-0.2-0.2-0.3-0.4-0.5-0.6c0.3,0.1,0.5,0.3,0.7,0.5
		c0.1,0.1,0.2,0.2,0.3,0.1c0.1-0.2,0-0.2-0.1-0.3C5.4,26.3,5.2,26.2,5,26c-0.1,0-0.2-0.1-0.3-0.2c-0.1,0-0.2-0.1-0.2-0.1
		c0-0.1-0.1-0.1-0.1-0.1c-0.1,0-0.1,0-0.1-0.1c-0.1,0-0.1-0.1-0.2-0.1s-0.1,0-0.2,0S3.7,25.3,3.6,25.3z M3.4,24.8c0.1,0,0.3,0,0.4,0
		c0.3,0,0.5,0,0.8,0.1C4.5,25,4.4,25,4.3,25.1H4.2C4,25,3.9,25,3.7,25C3.7,24.9,3.6,24.8,3.4,24.8z M3.2,24.3c0.2,0,0.5,0.1,0.6,0.1
		c0.2,0,0.4,0,0.5,0.1h0.1c0.4-0.2,0.8-0.3,1.2-0.5c0-0.1,0.1-0.1,0.1-0.2s-0.1-0.1-0.2-0.1c-0.4,0.1-0.8,0.3-1.2,0.4c0,0,0,0-0.1,0
		s-0.1,0-0.2,0c0.1,0,0.1-0.1,0.2-0.1c0.4-0.2,0.8-0.4,1.2-0.5c0.1,0,0.2,0,0.2-0.1c0.1,0.1,0.1,0.1,0.2,0.2c0,0.1,0,0.1,0,0.1
		c0,0.2,0.1,0.3,0.2,0.5c0.1,0,0.1,0.1,0,0.1c-0.5,0.1-0.9,0.4-1.4,0.5H4.5c0-0.1-0.1-0.1-0.2-0.1c-0.4,0-0.6-0.1-0.9-0.1
		C3.3,24.5,3.3,24.4,3.2,24.3z M2.6,23.6c0-0.1,0-0.1,0-0.1c0.1,0.1,0.1,0.1,0.1,0.2c0.3,0,0.5,0.1,0.8,0.3h0.1c0,0,0.1,0,0.1-0.1
		s0-0.2-0.1-0.2c0.1,0,0.3-0.1,0.4-0.1c0.3-0.1,0.6-0.2,1-0.2c-0.2,0.1-0.4,0.2-0.6,0.3c-0.2,0.1-0.3,0.2-0.5,0.3
		c-0.1,0-0.1,0.1-0.1,0.1c0-0.1,0-0.1,0-0.1s-0.1,0-0.2,0s-0.1,0-0.1,0l0,0c-0.2,0-0.4,0-0.6-0.1c0-0.1-0.1-0.1-0.2-0.2
		C2.6,23.7,2.5,23.7,2.6,23.6z M1.4,20.5c0.4-0.6,1.3-0.7,1.9-0.2c0.2-0.1,0.4-0.2,0.6-0.1c0.5,0.1,0.3,0.8,0.2,1
		c-0.5,0.6-2,1.6-2.1,1.7C1.3,22.2,0.8,21.3,1.4,20.5z"/>
	<path class="st0" d="M22.5,11C22.4,10.9,22.4,11,22.5,11L22.5,11z"/>
	<path class="st0" d="M20.6,14.4c0,0.1,0,0.2,0,0.3c0,0,0,0,0.1,0l0.1-0.1c0.1-0.2,0.2-0.3,0.2-0.5C21,14.3,20.8,14.4,20.6,14.4z"/>
	<path class="st0" d="M21.6,13.3C21.7,13.2,21.6,13.2,21.6,13.3L21.6,13.3z"/>
	<path class="st0" d="M6.3,31.6c-0.1,0-0.2,0-0.3,0.1c0,0.1,0.1,0.1,0.2,0.1c0.4-0.1,0.8-0.1,1.2-0.1c0.1,0,0.2,0,0.2-0.1
		s0-0.1-0.1-0.1s-0.3,0-0.4,0C6.8,31.5,6.6,31.5,6.3,31.6z"/>
	<path class="st0" d="M18.7,7C18.8,7,18.8,6.9,18.7,7L18.7,7z"/>
	<path class="st0" d="M20.8,15.2v0.1c0.1,0.2,0.2,0.1,0.3,0c0.3-0.3,0.5-0.7,0.8-1.1v-0.1L21.8,14h-0.1c-0.1,0-0.1,0.1-0.1,0.1
		c-0.1,0.3-0.3,0.6-0.5,0.9C21,15.1,20.9,15.2,20.8,15.2z"/>
	<path class="st0" d="M23.4,14.7L23.4,14.7c0.1,0,0.1,0.1,0.2,0.1l0,0C23.6,14.8,23.6,14.7,23.4,14.7z"/>
	<path class="st0" d="M21.1,14c0-0.1,0.1-0.1,0.1-0.2C21.1,13.8,21.1,13.9,21.1,14L21,14.1C21.1,14.1,21.1,14,21.1,14z"/>
	<path class="st0" d="M14.9,14.6c0,0.1-0.1,0.1,0,0.2c0.1,0.1,0.1,0.1,0.2,0c0.3-0.3,0.5-0.6,0.7-0.9c0.1-0.2,0.2-0.3,0.3-0.5
		c-0.1-0.1-0.1-0.1-0.2-0.2c-0.1,0.2-0.3,0.4-0.4,0.6C15.3,14.1,15.2,14.4,14.9,14.6z"/>
	<path class="st0" d="M19.8,31.9c-0.1,0.2-0.1,0.4-0.2,0.7c0,0.1,0,0.1,0,0.2c0,0.1,0,0.2,0.1,0.2c0,0,0.1,0,0.1-0.1
		c0.1-0.5,0.3-0.9,0.3-1.4c0,0,0-0.1,0-0.2c0,0,0-0.1-0.1-0.1c0,0-0.1,0.1,0,0.3c-0.1,0.1-0.1,0.2-0.1,0.3S19.9,32,19.8,31.9z"/>
	<path class="st0" d="M16.9,10.3c-0.1-0.1-0.1-0.1-0.2-0.1v0.1c0,0,0,0.1,0.1,0.1S16.9,10.4,16.9,10.3L16.9,10.3z"/>
	<path class="st0" d="M17.1,10.2C17,10.1,17,10.1,17,10c0,0.1,0,0.1-0.1,0.2C17,10.2,17,10.2,17.1,10.2z"/>
	<path class="st0" d="M16.6,32.3C16.6,32.2,16.6,32.2,16.6,32.3c0,0-0.1,0.1-0.1,0.2C16.5,32.4,16.6,32.4,16.6,32.3z"/>
	<path class="st0" d="M16.5,32.5c-0.1,0.3-0.2,0.6-0.2,0.8c0.1,0,0.1,0,0.1-0.1C16.4,32.9,16.5,32.7,16.5,32.5z"/>
	<path class="st0" d="M18.7,32c0.2-0.1,0.5-0.1,0.8-0.2c0,0,0.1-0.1,0.2-0.1s0.1,0,0.1-0.1c-0.1-0.1-0.1-0.1-0.2-0.1
		c-0.3,0-0.7,0.1-1,0.2h-0.1v0.1c0,0.1,0.1,0.1,0.1,0.1C18.7,31.9,18.7,31.9,18.7,32z"/>
	<path class="st0" d="M19.7,31.9h0.1v-0.1C19.7,31.8,19.7,31.9,19.7,31.9z"/>
	<path class="st0" d="M18.9,32.1c0.1,0,0.3-0.1,0.5-0.1C19.2,32,19.1,32,18.9,32.1z"/>
	<path class="st0" d="M18.9,22.5c0,0.3,0.4,0.5,0.6,0.5c0.3,0.1,0.5-0.2,0.5-0.5s-0.2-0.7-0.5-0.7C19.2,21.8,18.9,22.1,18.9,22.5z"
		/>
	<path class="st0" d="M12.3,20.2c0,0.3,0.3,0.6,0.6,0.5s0.5-0.3,0.5-0.6c0-0.4-0.3-0.6-0.6-0.5C12.6,19.6,12.3,19.8,12.3,20.2z"/>
</g>
</svg>
